  0
SECTION
  2
HEADER
  9
$ACADVER
  1
AC1014
  9
$HANDSEED
  5
FFFF
  9
$MEASUREMENT
 70
     1
  0
ENDSEC
  0
SECTION
  2
TABLES
  0
TABLE
  2
VPORT
  5
8
330
0
100
AcDbSymbolTable
 70
     4
  0
VPORT
  5
2E
330
8
100
AcDbSymbolTableRecord
100
AcDbViewportTableRecord
  2
*ACTIVE
 70
     0
 10
0.0
 20
0.0
 11
1.0
 21
1.0
 12
210.0
 22
148.5
 13
0.0
 23
0.0
 14
10.0
 24
10.0
 15
10.0
 25
10.0
 16
0.0
 26
0.0
 36
1.0
 17
0.0
 27
0.0
 37
0.0
 40
341.0
 41
1.24
 42
50.0
 43
0.0
 44
0.0
 50
0.0
 51
0.0
 71
     0
 72
   100
 73
     1
 74
     3
 75
     0
 76
     0
 77
     0
 78
     0
  0
ENDTAB
  0
TABLE
  2
LTYPE
  5
5
330
0
100
AcDbSymbolTable
 70
     1
  0
LTYPE
  5
14
330
5
100
AcDbSymbolTableRecord
100
AcDbLinetypeTableRecord
  2
BYBLOCK
 70
     0
  3

 72
    65
 73
     0
 40
0.0
  0
LTYPE
  5
15
330
5
100
AcDbSymbolTableRecord
100
AcDbLinetypeTableRecord
  2
BYLAYER
 70
     0
  3

 72
    65
 73
     0
 40
0.0
  0
LTYPE
  5
16
330
5
100
AcDbSymbolTableRecord
100
AcDbLinetypeTableRecord
  2
CONTINUOUS
 70
     0
  3
Solid line
 72
    65
 73
     0
 40
0.0
  0
ENDTAB
  0
TABLE
  2
LAYER
  5
2
100
AcDbSymbolTable
 70
2
  0
LAYER
  5
50
100
AcDbSymbolTableRecord
100
AcDbLayerTableRecord
  2
0
 70
0
  6
CONTINUOUS
  0
LAYER
  5
51
100
AcDbSymbolTableRecord
100
AcDbLayerTableRecord
  2
Layer_1
 70
0
  6
CONTINUOUS
  0
ENDTAB
  0
TABLE
  2
STYLE
  5
3
330
0
100
AcDbSymbolTable
 70
     1
  0
STYLE
  5
11
330
3
100
AcDbSymbolTableRecord
100
AcDbTextStyleTableRecord
  2
STANDARD
 70
     0
 40
0.0
 41
1.0
 50
0.0
 71
     0
 42
2.5
  3
txt
  4

  0
ENDTAB
  0
TABLE
  2
VIEW
  5
6
330
0
100
AcDbSymbolTable
 70
     0
  0
ENDTAB
  0
TABLE
  2
UCS
  5
7
330
0
100
AcDbSymbolTable
 70
     0
  0
ENDTAB
  0
TABLE
  2
APPID
  5
9
330
0
100
AcDbSymbolTable
 70
     2
  0
APPID
  5
12
330
9
100
AcDbSymbolTableRecord
100
AcDbRegAppTableRecord
  2
ACAD
 70
     0
  0
ENDTAB
  0
TABLE
  2
DIMSTYLE
  5
A
330
0
100
AcDbSymbolTable
 70
     1
  0
DIMSTYLE
105
27
330
A
100
AcDbSymbolTableRecord
100
AcDbDimStyleTableRecord
  2
ISO-25
 70
     0
  3

  4

  5

  6

  7

 40
1.0
 41
2.5
 42
0.625
 43
3.75
 44
1.25
 45
0.0
 46
0.0
 47
0.0
 48
0.0
140
2.5
141
2.5
142
0.0
143
0.03937007874016
144
1.0
145
0.0
146
1.0
147
0.625
 71
     0
 72
     0
 73
     0
 74
     0
 75
     0
 76
     0
 77
     1
 78
     8
170
     0
171
     3
172
     1
173
     0
174
     0
175
     0
176
     0
177
     0
178
     0
270
     2
271
     2
272
     2
273
     2
274
     3
340
11
275
     0
280
     0
281
     0
282
     0
283
     0
284
     8
285
     0
286
     0
287
     3
288
     0
  0
ENDTAB
  0
TABLE
  2
BLOCK_RECORD
  5
1
330
0
100
AcDbSymbolTable
 70
     1
  0
BLOCK_RECORD
  5
1F
330
1
100
AcDbSymbolTableRecord
100
AcDbBlockTableRecord
  2
*MODEL_SPACE
  0
BLOCK_RECORD
  5
1B
330
1
100
AcDbSymbolTableRecord
100
AcDbBlockTableRecord
  2
*PAPER_SPACE
  0
ENDTAB
  0
ENDSEC
  0
SECTION
  2
BLOCKS
  0
BLOCK
  5
20
330
1F
100
AcDbEntity
  8
0
100
AcDbBlockBegin
  2
*MODEL_SPACE
 70
     0
 10
0.0
 20
0.0
 30
0.0
  3
*MODEL_SPACE
  1

  0
ENDBLK
  5
21
330
1F
100
AcDbEntity
  8
0
100
AcDbBlockEnd
  0
BLOCK
  5
1C
330
1B
100
AcDbEntity
 67
     1
  8
0
100
AcDbBlockBegin
  2
*PAPER_SPACE
  1

  0
ENDBLK
  5
1D
330
1B
100
AcDbEntity
 67
     1
  8
0
100
AcDbBlockEnd
  0
ENDSEC
  0
SECTION
  2
ENTITIES
  0
SPLINE
  5
100
100
AcDbEntity
  8
Layer_1
 62
1
100
AcDbSpline
 70
8
 71
3
 72
8
 73
4
 74
0
 40
0
 40
0
 40
0
 40
0
 40
1
 40
1
 40
1
 40
1
 10
2.022372
 20
10.589524
 30
0.0
 10
2.002317
 20
10.589542
 30
0.0
 10
1.983778
 20
10.578853
 30
0.0
 10
1.973746
 20
10.561487
 30
0.0
  0
SPLINE
  5
101
100
AcDbEntity
  8
Layer_1
 62
1
100
AcDbSpline
 70
8
 71
3
 72
8
 73
4
 74
0
 40
0
 40
0
 40
0
 40
0
 40
1
 40
1
 40
1
 40
1
 10
1.973746
 20
10.561487
 30
0.0
 10
1.963713
 20
10.544122
 30
0.0
 10
1.963713
 20
10.522722
 30
0.0
 10
1.973746
 20
10.505357
 30
0.0
  0
SPLINE
  5
102
100
AcDbEntity
  8
Layer_1
 62
1
100
AcDbSpline
 70
8
 71
3
 72
8
 73
4
 74
0
 40
0
 40
0
 40
0
 40
0
 40
1
 40
1
 40
1
 40
1
 10
1.973746
 20
10.505357
 30
0.0
 10
1.983778
 20
10.487992
 30
0.0
 10
2.002317
 20
10.477303
 30
0.0
 10
2.022372
 20
10.477320
 30
0.0
  0
SPLINE
  5
103
100
AcDbEntity
  8
Layer_1
 62
1
100
AcDbSpline
 70
8
 71
3
 72
8
 73
4
 74
0
 40
0
 40
0
 40
0
 40
0
 40
1
 40
1
 40
1
 40
1
 10
2.022372
 20
10.477320
 30
0.0
 10
2.042427
 20
10.477303
 30
0.0
 10
2.060966
 20
10.487992
 30
0.0
 10
2.070999
 20
10.505357
 30
0.0
  0
SPLINE
  5
104
100
AcDbEntity
  8
Layer_1
 62
1
100
AcDbSpline
 70
8
 71
3
 72
8
 73
4
 74
0
 40
0
 40
0
 40
0
 40
0
 40
1
 40
1
 40
1
 40
1
 10
2.070999
 20
10.505357
 30
0.0
 10
2.081031
 20
10.522722
 30
0.0
 10
2.081031
 20
10.544122
 30
0.0
 10
2.070999
 20
10.561487
 30
0.0
  0
SPLINE
  5
105
100
AcDbEntity
  8
Layer_1
 62
1
100
AcDbSpline
 70
8
 71
3
 72
8
 73
4
 74
0
 40
0
 40
0
 40
0
 40
0
 40
1
 40
1
 40
1
 40
1
 10
2.070999
 20
10.561487
 30
0.0
 10
2.060966
 20
10.578853
 30
0.0
 10
2.042427
 20
10.589542
 30
0.0
 10
2.022372
 20
10.589524
 30
0.0
  0
SPLINE
  5
106
100
AcDbEntity
  8
Layer_1
 62
1
100
AcDbSpline
 70
8
 71
3
 72
8
 73
4
 74
0
 40
0
 40
0
 40
0
 40
0
 40
1
 40
1
 40
1
 40
1
 10
2.022196
 20
11.061965
 30
0.0
 10
2.002152
 20
11.061965
 30
0.0
 10
1.983631
 20
11.051272
 30
0.0
 10
1.973609
 20
11.033914
 30
0.0
  0
SPLINE
  5
107
100
AcDbEntity
  8
Layer_1
 62
1
100
AcDbSpline
 70
8
 71
3
 72
8
 73
4
 74
0
 40
0
 40
0
 40
0
 40
0
 40
1
 40
1
 40
1
 40
1
 10
1.973609
 20
11.033914
 30
0.0
 10
1.963588
 20
11.016556
 30
0.0
 10
1.963588
 20
10.995170
 30
0.0
 10
1.973609
 20
10.977812
 30
0.0
  0
SPLINE
  5
108
100
AcDbEntity
  8
Layer_1
 62
1
100
AcDbSpline
 70
8
 71
3
 72
8
 73
4
 74
0
 40
0
 40
0
 40
0
 40
0
 40
1
 40
1
 40
1
 40
1
 10
1.973609
 20
10.977812
 30
0.0
 10
1.983631
 20
10.960454
 30
0.0
 10
2.002152
 20
10.949761
 30
0.0
 10
2.022196
 20
10.949761
 30
0.0
  0
SPLINE
  5
109
100
AcDbEntity
  8
Layer_1
 62
1
100
AcDbSpline
 70
8
 71
3
 72
8
 73
4
 74
0
 40
0
 40
0
 40
0
 40
0
 40
1
 40
1
 40
1
 40
1
 10
2.022196
 20
10.949761
 30
0.0
 10
2.042239
 20
10.949761
 30
0.0
 10
2.060760
 20
10.960454
 30
0.0
 10
2.070782
 20
10.977812
 30
0.0
  0
SPLINE
  5
10a
100
AcDbEntity
  8
Layer_1
 62
1
100
AcDbSpline
 70
8
 71
3
 72
8
 73
4
 74
0
 40
0
 40
0
 40
0
 40
0
 40
1
 40
1
 40
1
 40
1
 10
2.070782
 20
10.977812
 30
0.0
 10
2.080803
 20
10.995170
 30
0.0
 10
2.080803
 20
11.016556
 30
0.0
 10
2.070782
 20
11.033914
 30
0.0
  0
SPLINE
  5
10b
100
AcDbEntity
  8
Layer_1
 62
1
100
AcDbSpline
 70
8
 71
3
 72
8
 73
4
 74
0
 40
0
 40
0
 40
0
 40
0
 40
1
 40
1
 40
1
 40
1
 10
2.070782
 20
11.033914
 30
0.0
 10
2.060760
 20
11.051272
 30
0.0
 10
2.042239
 20
11.061965
 30
0.0
 10
2.022196
 20
11.061965
 30
0.0
  0
LWPOLYLINE
  5
10c
100
AcDbEntity
  8
Layer_1
 62
1
100
AcDbPolyline
 90
1
 70
1
 10
2.022372
 20
10.589524
 30
0.0
  0
SPLINE
  5
10d
100
AcDbEntity
  8
Layer_1
 62
1
100
AcDbSpline
 70
8
 71
3
 72
8
 73
4
 74
0
 40
0
 40
0
 40
0
 40
0
 40
1
 40
1
 40
1
 40
1
 10
1.729801
 20
10.035459
 30
0.0
 10
1.709757
 20
10.035459
 30
0.0
 10
1.691236
 20
10.024766
 30
0.0
 10
1.681215
 20
10.007408
 30
0.0
  0
SPLINE
  5
10e
100
AcDbEntity
  8
Layer_1
 62
1
100
AcDbSpline
 70
8
 71
3
 72
8
 73
4
 74
0
 40
0
 40
0
 40
0
 40
0
 40
1
 40
1
 40
1
 40
1
 10
1.681215
 20
10.007408
 30
0.0
 10
1.671193
 20
9.990050
 30
0.0
 10
1.671193
 20
9.968664
 30
0.0
 10
1.681215
 20
9.951306
 30
0.0
  0
SPLINE
  5
10f
100
AcDbEntity
  8
Layer_1
 62
1
100
AcDbSpline
 70
8
 71
3
 72
8
 73
4
 74
0
 40
0
 40
0
 40
0
 40
0
 40
1
 40
1
 40
1
 40
1
 10
1.681215
 20
9.951306
 30
0.0
 10
1.691236
 20
9.933947
 30
0.0
 10
1.709757
 20
9.923254
 30
0.0
 10
1.729801
 20
9.923254
 30
0.0
  0
SPLINE
  5
110
100
AcDbEntity
  8
Layer_1
 62
1
100
AcDbSpline
 70
8
 71
3
 72
8
 73
4
 74
0
 40
0
 40
0
 40
0
 40
0
 40
1
 40
1
 40
1
 40
1
 10
1.729801
 20
9.923254
 30
0.0
 10
1.749844
 20
9.923254
 30
0.0
 10
1.768365
 20
9.933947
 30
0.0
 10
1.778387
 20
9.951306
 30
0.0
  0
SPLINE
  5
111
100
AcDbEntity
  8
Layer_1
 62
1
100
AcDbSpline
 70
8
 71
3
 72
8
 73
4
 74
0
 40
0
 40
0
 40
0
 40
0
 40
1
 40
1
 40
1
 40
1
 10
1.778387
 20
9.951306
 30
0.0
 10
1.788409
 20
9.968664
 30
0.0
 10
1.788409
 20
9.990050
 30
0.0
 10
1.778387
 20
10.007408
 30
0.0
  0
SPLINE
  5
112
100
AcDbEntity
  8
Layer_1
 62
1
100
AcDbSpline
 70
8
 71
3
 72
8
 73
4
 74
0
 40
0
 40
0
 40
0
 40
0
 40
1
 40
1
 40
1
 40
1
 10
1.778387
 20
10.007408
 30
0.0
 10
1.768365
 20
10.024766
 30
0.0
 10
1.749844
 20
10.035459
 30
0.0
 10
1.729801
 20
10.035459
 30
0.0
  0
LWPOLYLINE
  5
113
100
AcDbEntity
  8
Layer_1
 62
1
100
AcDbPolyline
 90
1
 70
1
 10
2.022196
 20
11.061965
 30
0.0
  0
SPLINE
  5
114
100
AcDbEntity
  8
Layer_1
 62
1
100
AcDbSpline
 70
8
 71
3
 72
8
 73
4
 74
0
 40
0
 40
0
 40
0
 40
0
 40
1
 40
1
 40
1
 40
1
 10
1.731684
 20
4.996090
 30
0.0
 10
1.711641
 20
4.996090
 30
0.0
 10
1.693120
 20
4.985396
 30
0.0
 10
1.683098
 20
4.968038
 30
0.0
  0
SPLINE
  5
115
100
AcDbEntity
  8
Layer_1
 62
1
100
AcDbSpline
 70
8
 71
3
 72
8
 73
4
 74
0
 40
0
 40
0
 40
0
 40
0
 40
1
 40
1
 40
1
 40
1
 10
1.683098
 20
4.968038
 30
0.0
 10
1.673077
 20
4.950680
 30
0.0
 10
1.673077
 20
4.929294
 30
0.0
 10
1.683098
 20
4.911936
 30
0.0
  0
SPLINE
  5
116
100
AcDbEntity
  8
Layer_1
 62
1
100
AcDbSpline
 70
8
 71
3
 72
8
 73
4
 74
0
 40
0
 40
0
 40
0
 40
0
 40
1
 40
1
 40
1
 40
1
 10
1.683098
 20
4.911936
 30
0.0
 10
1.693120
 20
4.894578
 30
0.0
 10
1.711641
 20
4.883885
 30
0.0
 10
1.731684
 20
4.883885
 30
0.0
  0
SPLINE
  5
117
100
AcDbEntity
  8
Layer_1
 62
1
100
AcDbSpline
 70
8
 71
3
 72
8
 73
4
 74
0
 40
0
 40
0
 40
0
 40
0
 40
1
 40
1
 40
1
 40
1
 10
1.731684
 20
4.883885
 30
0.0
 10
1.751728
 20
4.883885
 30
0.0
 10
1.770249
 20
4.894578
 30
0.0
 10
1.780270
 20
4.911936
 30
0.0
  0
SPLINE
  5
118
100
AcDbEntity
  8
Layer_1
 62
1
100
AcDbSpline
 70
8
 71
3
 72
8
 73
4
 74
0
 40
0
 40
0
 40
0
 40
0
 40
1
 40
1
 40
1
 40
1
 10
1.780270
 20
4.911936
 30
0.0
 10
1.790292
 20
4.929294
 30
0.0
 10
1.790292
 20
4.950680
 30
0.0
 10
1.780270
 20
4.968038
 30
0.0
  0
SPLINE
  5
119
100
AcDbEntity
  8
Layer_1
 62
1
100
AcDbSpline
 70
8
 71
3
 72
8
 73
4
 74
0
 40
0
 40
0
 40
0
 40
0
 40
1
 40
1
 40
1
 40
1
 10
1.780270
 20
4.968038
 30
0.0
 10
1.770249
 20
4.985396
 30
0.0
 10
1.751728
 20
4.996090
 30
0.0
 10
1.731684
 20
4.996090
 30
0.0
  0
LWPOLYLINE
  5
11a
100
AcDbEntity
  8
Layer_1
 62
1
100
AcDbPolyline
 90
1
 70
1
 10
1.729801
 20
10.035459
 30
0.0
  0
SPLINE
  5
11b
100
AcDbEntity
  8
Layer_1
 62
1
100
AcDbSpline
 70
8
 71
3
 72
8
 73
4
 74
0
 40
0
 40
0
 40
0
 40
0
 40
1
 40
1
 40
1
 40
1
 10
4.823221
 20
10.590048
 30
0.0
 10
4.803178
 20
10.590048
 30
0.0
 10
4.784657
 20
10.579355
 30
0.0
 10
4.774635
 20
10.561997
 30
0.0
  0
SPLINE
  5
11c
100
AcDbEntity
  8
Layer_1
 62
1
100
AcDbSpline
 70
8
 71
3
 72
8
 73
4
 74
0
 40
0
 40
0
 40
0
 40
0
 40
1
 40
1
 40
1
 40
1
 10
4.774635
 20
10.561997
 30
0.0
 10
4.764613
 20
10.544639
 30
0.0
 10
4.764613
 20
10.523252
 30
0.0
 10
4.774635
 20
10.505894
 30
0.0
  0
SPLINE
  5
11d
100
AcDbEntity
  8
Layer_1
 62
1
100
AcDbSpline
 70
8
 71
3
 72
8
 73
4
 74
0
 40
0
 40
0
 40
0
 40
0
 40
1
 40
1
 40
1
 40
1
 10
4.774635
 20
10.505894
 30
0.0
 10
4.784657
 20
10.488536
 30
0.0
 10
4.803178
 20
10.477843
 30
0.0
 10
4.823221
 20
10.477843
 30
0.0
  0
SPLINE
  5
11e
100
AcDbEntity
  8
Layer_1
 62
1
100
AcDbSpline
 70
8
 71
3
 72
8
 73
4
 74
0
 40
0
 40
0
 40
0
 40
0
 40
1
 40
1
 40
1
 40
1
 10
4.823221
 20
10.477843
 30
0.0
 10
4.843265
 20
10.477843
 30
0.0
 10
4.861785
 20
10.488536
 30
0.0
 10
4.871807
 20
10.505894
 30
0.0
  0
SPLINE
  5
11f
100
AcDbEntity
  8
Layer_1
 62
1
100
AcDbSpline
 70
8
 71
3
 72
8
 73
4
 74
0
 40
0
 40
0
 40
0
 40
0
 40
1
 40
1
 40
1
 40
1
 10
4.871807
 20
10.505894
 30
0.0
 10
4.881829
 20
10.523252
 30
0.0
 10
4.881829
 20
10.544639
 30
0.0
 10
4.871807
 20
10.561997
 30
0.0
  0
SPLINE
  5
120
100
AcDbEntity
  8
Layer_1
 62
1
100
AcDbSpline
 70
8
 71
3
 72
8
 73
4
 74
0
 40
0
 40
0
 40
0
 40
0
 40
1
 40
1
 40
1
 40
1
 10
4.871807
 20
10.561997
 30
0.0
 10
4.861785
 20
10.579355
 30
0.0
 10
4.843265
 20
10.590048
 30
0.0
 10
4.823221
 20
10.590048
 30
0.0
  0
LWPOLYLINE
  5
121
100
AcDbEntity
  8
Layer_1
 62
1
100
AcDbPolyline
 90
1
 70
1
 10
1.731684
 20
4.996090
 30
0.0
  0
SPLINE
  5
122
100
AcDbEntity
  8
Layer_1
 62
1
100
AcDbSpline
 70
8
 71
3
 72
8
 73
4
 74
0
 40
0
 40
0
 40
0
 40
0
 40
1
 40
1
 40
1
 40
1
 10
4.823221
 20
11.062489
 30
0.0
 10
4.803178
 20
11.062489
 30
0.0
 10
4.784657
 20
11.051796
 30
0.0
 10
4.774635
 20
11.034438
 30
0.0
  0
SPLINE
  5
123
100
AcDbEntity
  8
Layer_1
 62
1
100
AcDbSpline
 70
8
 71
3
 72
8
 73
4
 74
0
 40
0
 40
0
 40
0
 40
0
 40
1
 40
1
 40
1
 40
1
 10
4.774635
 20
11.034438
 30
0.0
 10
4.764613
 20
11.017080
 30
0.0
 10
4.764613
 20
10.995693
 30
0.0
 10
4.774635
 20
10.978335
 30
0.0
  0
SPLINE
  5
124
100
AcDbEntity
  8
Layer_1
 62
1
100
AcDbSpline
 70
8
 71
3
 72
8
 73
4
 74
0
 40
0
 40
0
 40
0
 40
0
 40
1
 40
1
 40
1
 40
1
 10
4.774635
 20
10.978335
 30
0.0
 10
4.784657
 20
10.960977
 30
0.0
 10
4.803178
 20
10.950284
 30
0.0
 10
4.823221
 20
10.950284
 30
0.0
  0
SPLINE
  5
125
100
AcDbEntity
  8
Layer_1
 62
1
100
AcDbSpline
 70
8
 71
3
 72
8
 73
4
 74
0
 40
0
 40
0
 40
0
 40
0
 40
1
 40
1
 40
1
 40
1
 10
4.823221
 20
10.950284
 30
0.0
 10
4.843265
 20
10.950284
 30
0.0
 10
4.861785
 20
10.960977
 30
0.0
 10
4.871807
 20
10.978335
 30
0.0
  0
SPLINE
  5
126
100
AcDbEntity
  8
Layer_1
 62
1
100
AcDbSpline
 70
8
 71
3
 72
8
 73
4
 74
0
 40
0
 40
0
 40
0
 40
0
 40
1
 40
1
 40
1
 40
1
 10
4.871807
 20
10.978335
 30
0.0
 10
4.881829
 20
10.995693
 30
0.0
 10
4.881829
 20
11.017080
 30
0.0
 10
4.871807
 20
11.034438
 30
0.0
  0
SPLINE
  5
127
100
AcDbEntity
  8
Layer_1
 62
1
100
AcDbSpline
 70
8
 71
3
 72
8
 73
4
 74
0
 40
0
 40
0
 40
0
 40
0
 40
1
 40
1
 40
1
 40
1
 10
4.871807
 20
11.034438
 30
0.0
 10
4.861785
 20
11.051796
 30
0.0
 10
4.843265
 20
11.062489
 30
0.0
 10
4.823221
 20
11.062489
 30
0.0
  0
LWPOLYLINE
  5
128
100
AcDbEntity
  8
Layer_1
 62
1
100
AcDbPolyline
 90
1
 70
1
 10
4.823221
 20
10.590048
 30
0.0
  0
SPLINE
  5
129
100
AcDbEntity
  8
Layer_1
 62
1
100
AcDbSpline
 70
8
 71
3
 72
8
 73
4
 74
0
 40
0
 40
0
 40
0
 40
0
 40
1
 40
1
 40
1
 40
1
 10
3.424177
 20
3.201850
 30
0.0
 10
3.404134
 20
3.201850
 30
0.0
 10
3.385613
 20
3.191157
 30
0.0
 10
3.375591
 20
3.173799
 30
0.0
  0
SPLINE
  5
12a
100
AcDbEntity
  8
Layer_1
 62
1
100
AcDbSpline
 70
8
 71
3
 72
8
 73
4
 74
0
 40
0
 40
0
 40
0
 40
0
 40
1
 40
1
 40
1
 40
1
 10
3.375591
 20
3.173799
 30
0.0
 10
3.365570
 20
3.156441
 30
0.0
 10
3.365570
 20
3.135055
 30
0.0
 10
3.375591
 20
3.117696
 30
0.0
  0
SPLINE
  5
12b
100
AcDbEntity
  8
Layer_1
 62
1
100
AcDbSpline
 70
8
 71
3
 72
8
 73
4
 74
0
 40
0
 40
0
 40
0
 40
0
 40
1
 40
1
 40
1
 40
1
 10
3.375591
 20
3.117696
 30
0.0
 10
3.385613
 20
3.100338
 30
0.0
 10
3.404134
 20
3.089645
 30
0.0
 10
3.424177
 20
3.089645
 30
0.0
  0
SPLINE
  5
12c
100
AcDbEntity
  8
Layer_1
 62
1
100
AcDbSpline
 70
8
 71
3
 72
8
 73
4
 74
0
 40
0
 40
0
 40
0
 40
0
 40
1
 40
1
 40
1
 40
1
 10
3.424177
 20
3.089645
 30
0.0
 10
3.444221
 20
3.089645
 30
0.0
 10
3.462742
 20
3.100338
 30
0.0
 10
3.472763
 20
3.117696
 30
0.0
  0
SPLINE
  5
12d
100
AcDbEntity
  8
Layer_1
 62
1
100
AcDbSpline
 70
8
 71
3
 72
8
 73
4
 74
0
 40
0
 40
0
 40
0
 40
0
 40
1
 40
1
 40
1
 40
1
 10
3.472763
 20
3.117696
 30
0.0
 10
3.482785
 20
3.135055
 30
0.0
 10
3.482785
 20
3.156441
 30
0.0
 10
3.472763
 20
3.173799
 30
0.0
  0
SPLINE
  5
12e
100
AcDbEntity
  8
Layer_1
 62
1
100
AcDbSpline
 70
8
 71
3
 72
8
 73
4
 74
0
 40
0
 40
0
 40
0
 40
0
 40
1
 40
1
 40
1
 40
1
 10
3.472763
 20
3.173799
 30
0.0
 10
3.462742
 20
3.191157
 30
0.0
 10
3.444221
 20
3.201850
 30
0.0
 10
3.424177
 20
3.201850
 30
0.0
  0
LWPOLYLINE
  5
12f
100
AcDbEntity
  8
Layer_1
 62
1
100
AcDbPolyline
 90
1
 70
1
 10
4.823221
 20
11.062489
 30
0.0
  0
SPLINE
  5
130
100
AcDbEntity
  8
Layer_1
 62
1
100
AcDbSpline
 70
8
 71
3
 72
8
 73
4
 74
0
 40
0
 40
0
 40
0
 40
0
 40
1
 40
1
 40
1
 40
1
 10
3.424177
 20
3.674291
 30
0.0
 10
3.404134
 20
3.674291
 30
0.0
 10
3.385613
 20
3.663598
 30
0.0
 10
3.375591
 20
3.646240
 30
0.0
  0
SPLINE
  5
131
100
AcDbEntity
  8
Layer_1
 62
1
100
AcDbSpline
 70
8
 71
3
 72
8
 73
4
 74
0
 40
0
 40
0
 40
0
 40
0
 40
1
 40
1
 40
1
 40
1
 10
3.375591
 20
3.646240
 30
0.0
 10
3.365570
 20
3.628882
 30
0.0
 10
3.365570
 20
3.607495
 30
0.0
 10
3.375591
 20
3.590137
 30
0.0
  0
SPLINE
  5
132
100
AcDbEntity
  8
Layer_1
 62
1
100
AcDbSpline
 70
8
 71
3
 72
8
 73
4
 74
0
 40
0
 40
0
 40
0
 40
0
 40
1
 40
1
 40
1
 40
1
 10
3.375591
 20
3.590137
 30
0.0
 10
3.385613
 20
3.572779
 30
0.0
 10
3.404134
 20
3.562086
 30
0.0
 10
3.424177
 20
3.562086
 30
0.0
  0
SPLINE
  5
133
100
AcDbEntity
  8
Layer_1
 62
1
100
AcDbSpline
 70
8
 71
3
 72
8
 73
4
 74
0
 40
0
 40
0
 40
0
 40
0
 40
1
 40
1
 40
1
 40
1
 10
3.424177
 20
3.562086
 30
0.0
 10
3.444221
 20
3.562086
 30
0.0
 10
3.462742
 20
3.572779
 30
0.0
 10
3.472763
 20
3.590137
 30
0.0
  0
SPLINE
  5
134
100
AcDbEntity
  8
Layer_1
 62
1
100
AcDbSpline
 70
8
 71
3
 72
8
 73
4
 74
0
 40
0
 40
0
 40
0
 40
0
 40
1
 40
1
 40
1
 40
1
 10
3.472763
 20
3.590137
 30
0.0
 10
3.482785
 20
3.607495
 30
0.0
 10
3.482785
 20
3.628882
 30
0.0
 10
3.472763
 20
3.646240
 30
0.0
  0
SPLINE
  5
135
100
AcDbEntity
  8
Layer_1
 62
1
100
AcDbSpline
 70
8
 71
3
 72
8
 73
4
 74
0
 40
0
 40
0
 40
0
 40
0
 40
1
 40
1
 40
1
 40
1
 10
3.472763
 20
3.646240
 30
0.0
 10
3.462742
 20
3.663598
 30
0.0
 10
3.444221
 20
3.674291
 30
0.0
 10
3.424177
 20
3.674291
 30
0.0
  0
LWPOLYLINE
  5
136
100
AcDbEntity
  8
Layer_1
 62
1
100
AcDbPolyline
 90
1
 70
1
 10
3.424177
 20
3.201850
 30
0.0
  0
SPLINE
  5
137
100
AcDbEntity
  8
Layer_1
 62
1
100
AcDbSpline
 70
8
 71
3
 72
8
 73
4
 74
0
 40
0
 40
0
 40
0
 40
0
 40
1
 40
1
 40
1
 40
1
 10
3.114194
 20
5.687986
 30
0.0
 10
3.092738
 20
5.687995
 30
0.0
 10
3.072908
 20
5.676554
 30
0.0
 10
3.062178
 20
5.657974
 30
0.0
  0
SPLINE
  5
138
100
AcDbEntity
  8
Layer_1
 62
1
100
AcDbSpline
 70
8
 71
3
 72
8
 73
4
 74
0
 40
0
 40
0
 40
0
 40
0
 40
1
 40
1
 40
1
 40
1
 10
3.062178
 20
5.657974
 30
0.0
 10
3.051447
 20
5.639394
 30
0.0
 10
3.051447
 20
5.616500
 30
0.0
 10
3.062178
 20
5.597920
 30
0.0
  0
SPLINE
  5
139
100
AcDbEntity
  8
Layer_1
 62
1
100
AcDbSpline
 70
8
 71
3
 72
8
 73
4
 74
0
 40
0
 40
0
 40
0
 40
0
 40
1
 40
1
 40
1
 40
1
 10
3.062178
 20
5.597920
 30
0.0
 10
3.072908
 20
5.579340
 30
0.0
 10
3.092738
 20
5.567898
 30
0.0
 10
3.114194
 20
5.567907
 30
0.0
  0
SPLINE
  5
13a
100
AcDbEntity
  8
Layer_1
 62
1
100
AcDbSpline
 70
8
 71
3
 72
8
 73
4
 74
0
 40
0
 40
0
 40
0
 40
0
 40
1
 40
1
 40
1
 40
1
 10
3.114194
 20
5.567907
 30
0.0
 10
3.135650
 20
5.567898
 30
0.0
 10
3.155480
 20
5.579340
 30
0.0
 10
3.166210
 20
5.597920
 30
0.0
  0
SPLINE
  5
13b
100
AcDbEntity
  8
Layer_1
 62
1
100
AcDbSpline
 70
8
 71
3
 72
8
 73
4
 74
0
 40
0
 40
0
 40
0
 40
0
 40
1
 40
1
 40
1
 40
1
 10
3.166210
 20
5.597920
 30
0.0
 10
3.176941
 20
5.616500
 30
0.0
 10
3.176941
 20
5.639394
 30
0.0
 10
3.166210
 20
5.657974
 30
0.0
  0
SPLINE
  5
13c
100
AcDbEntity
  8
Layer_1
 62
1
100
AcDbSpline
 70
8
 71
3
 72
8
 73
4
 74
0
 40
0
 40
0
 40
0
 40
0
 40
1
 40
1
 40
1
 40
1
 10
3.166210
 20
5.657974
 30
0.0
 10
3.155480
 20
5.676554
 30
0.0
 10
3.135650
 20
5.687995
 30
0.0
 10
3.114194
 20
5.687986
 30
0.0
  0
LWPOLYLINE
  5
13d
100
AcDbEntity
  8
Layer_1
 62
1
100
AcDbPolyline
 90
1
 70
1
 10
3.424177
 20
3.674291
 30
0.0
  0
SPLINE
  5
13e
100
AcDbEntity
  8
Layer_1
 62
1
100
AcDbSpline
 70
8
 71
3
 72
8
 73
4
 74
0
 40
0
 40
0
 40
0
 40
0
 40
1
 40
1
 40
1
 40
1
 10
4.212619
 20
5.687986
 30
0.0
 10
4.191163
 20
5.687995
 30
0.0
 10
4.171333
 20
5.676554
 30
0.0
 10
4.160603
 20
5.657974
 30
0.0
  0
SPLINE
  5
13f
100
AcDbEntity
  8
Layer_1
 62
1
100
AcDbSpline
 70
8
 71
3
 72
8
 73
4
 74
0
 40
0
 40
0
 40
0
 40
0
 40
1
 40
1
 40
1
 40
1
 10
4.160603
 20
5.657974
 30
0.0
 10
4.149872
 20
5.639394
 30
0.0
 10
4.149872
 20
5.616500
 30
0.0
 10
4.160603
 20
5.597920
 30
0.0
  0
SPLINE
  5
140
100
AcDbEntity
  8
Layer_1
 62
1
100
AcDbSpline
 70
8
 71
3
 72
8
 73
4
 74
0
 40
0
 40
0
 40
0
 40
0
 40
1
 40
1
 40
1
 40
1
 10
4.160603
 20
5.597920
 30
0.0
 10
4.171333
 20
5.579340
 30
0.0
 10
4.191163
 20
5.567898
 30
0.0
 10
4.212619
 20
5.567907
 30
0.0
  0
SPLINE
  5
141
100
AcDbEntity
  8
Layer_1
 62
1
100
AcDbSpline
 70
8
 71
3
 72
8
 73
4
 74
0
 40
0
 40
0
 40
0
 40
0
 40
1
 40
1
 40
1
 40
1
 10
4.212619
 20
5.567907
 30
0.0
 10
4.234075
 20
5.567898
 30
0.0
 10
4.253905
 20
5.579340
 30
0.0
 10
4.264635
 20
5.597920
 30
0.0
  0
SPLINE
  5
142
100
AcDbEntity
  8
Layer_1
 62
1
100
AcDbSpline
 70
8
 71
3
 72
8
 73
4
 74
0
 40
0
 40
0
 40
0
 40
0
 40
1
 40
1
 40
1
 40
1
 10
4.264635
 20
5.597920
 30
0.0
 10
4.275366
 20
5.616500
 30
0.0
 10
4.275366
 20
5.639394
 30
0.0
 10
4.264635
 20
5.657974
 30
0.0
  0
SPLINE
  5
143
100
AcDbEntity
  8
Layer_1
 62
1
100
AcDbSpline
 70
8
 71
3
 72
8
 73
4
 74
0
 40
0
 40
0
 40
0
 40
0
 40
1
 40
1
 40
1
 40
1
 10
4.264635
 20
5.657974
 30
0.0
 10
4.253905
 20
5.676554
 30
0.0
 10
4.234075
 20
5.687995
 30
0.0
 10
4.212619
 20
5.687986
 30
0.0
  0
LWPOLYLINE
  5
144
100
AcDbEntity
  8
Layer_1
 62
1
100
AcDbPolyline
 90
1
 70
1
 10
3.114194
 20
5.687986
 30
0.0
  0
SPLINE
  5
145
100
AcDbEntity
  8
Layer_1
 62
1
100
AcDbSpline
 70
8
 71
3
 72
8
 73
4
 74
0
 40
0
 40
0
 40
0
 40
0
 40
1
 40
1
 40
1
 40
1
 10
4.397659
 20
7.731293
 30
0.0
 10
4.376209
 20
7.731293
 30
0.0
 10
4.356388
 20
7.719850
 30
0.0
 10
4.345663
 20
7.701273
 30
0.0
  0
SPLINE
  5
146
100
AcDbEntity
  8
Layer_1
 62
1
100
AcDbSpline
 70
8
 71
3
 72
8
 73
4
 74
0
 40
0
 40
0
 40
0
 40
0
 40
1
 40
1
 40
1
 40
1
 10
4.345663
 20
7.701273
 30
0.0
 10
4.334938
 20
7.682697
 30
0.0
 10
4.334938
 20
7.659810
 30
0.0
 10
4.345663
 20
7.641234
 30
0.0
  0
SPLINE
  5
147
100
AcDbEntity
  8
Layer_1
 62
1
100
AcDbSpline
 70
8
 71
3
 72
8
 73
4
 74
0
 40
0
 40
0
 40
0
 40
0
 40
1
 40
1
 40
1
 40
1
 10
4.345663
 20
7.641234
 30
0.0
 10
4.356388
 20
7.622658
 30
0.0
 10
4.376209
 20
7.611214
 30
0.0
 10
4.397659
 20
7.611214
 30
0.0
  0
SPLINE
  5
148
100
AcDbEntity
  8
Layer_1
 62
1
100
AcDbSpline
 70
8
 71
3
 72
8
 73
4
 74
0
 40
0
 40
0
 40
0
 40
0
 40
1
 40
1
 40
1
 40
1
 10
4.397659
 20
7.611214
 30
0.0
 10
4.419109
 20
7.611214
 30
0.0
 10
4.438929
 20
7.622658
 30
0.0
 10
4.449654
 20
7.641234
 30
0.0
  0
SPLINE
  5
149
100
AcDbEntity
  8
Layer_1
 62
1
100
AcDbSpline
 70
8
 71
3
 72
8
 73
4
 74
0
 40
0
 40
0
 40
0
 40
0
 40
1
 40
1
 40
1
 40
1
 10
4.449654
 20
7.641234
 30
0.0
 10
4.460379
 20
7.659810
 30
0.0
 10
4.460379
 20
7.682697
 30
0.0
 10
4.449654
 20
7.701273
 30
0.0
  0
SPLINE
  5
14a
100
AcDbEntity
  8
Layer_1
 62
1
100
AcDbSpline
 70
8
 71
3
 72
8
 73
4
 74
0
 40
0
 40
0
 40
0
 40
0
 40
1
 40
1
 40
1
 40
1
 10
4.449654
 20
7.701273
 30
0.0
 10
4.438929
 20
7.719850
 30
0.0
 10
4.419109
 20
7.731293
 30
0.0
 10
4.397659
 20
7.731293
 30
0.0
  0
LWPOLYLINE
  5
14b
100
AcDbEntity
  8
Layer_1
 62
1
100
AcDbPolyline
 90
1
 70
1
 10
4.212619
 20
5.687986
 30
0.0
  0
SPLINE
  5
14c
100
AcDbEntity
  8
Layer_1
 62
1
100
AcDbSpline
 70
8
 71
3
 72
8
 73
4
 74
0
 40
0
 40
0
 40
0
 40
0
 40
1
 40
1
 40
1
 40
1
 10
2.515769
 20
7.687986
 30
0.0
 10
2.494319
 20
7.687986
 30
0.0
 10
2.474498
 20
7.676543
 30
0.0
 10
2.463773
 20
7.657966
 30
0.0
  0
SPLINE
  5
14d
100
AcDbEntity
  8
Layer_1
 62
1
100
AcDbSpline
 70
8
 71
3
 72
8
 73
4
 74
0
 40
0
 40
0
 40
0
 40
0
 40
1
 40
1
 40
1
 40
1
 10
2.463773
 20
7.657966
 30
0.0
 10
2.453048
 20
7.639390
 30
0.0
 10
2.453048
 20
7.616503
 30
0.0
 10
2.463773
 20
7.597927
 30
0.0
  0
SPLINE
  5
14e
100
AcDbEntity
  8
Layer_1
 62
1
100
AcDbSpline
 70
8
 71
3
 72
8
 73
4
 74
0
 40
0
 40
0
 40
0
 40
0
 40
1
 40
1
 40
1
 40
1
 10
2.463773
 20
7.597927
 30
0.0
 10
2.474498
 20
7.579351
 30
0.0
 10
2.494319
 20
7.567907
 30
0.0
 10
2.515769
 20
7.567907
 30
0.0
  0
SPLINE
  5
14f
100
AcDbEntity
  8
Layer_1
 62
1
100
AcDbSpline
 70
8
 71
3
 72
8
 73
4
 74
0
 40
0
 40
0
 40
0
 40
0
 40
1
 40
1
 40
1
 40
1
 10
2.515769
 20
7.567907
 30
0.0
 10
2.537219
 20
7.567907
 30
0.0
 10
2.557040
 20
7.579351
 30
0.0
 10
2.567765
 20
7.597927
 30
0.0
  0
SPLINE
  5
150
100
AcDbEntity
  8
Layer_1
 62
1
100
AcDbSpline
 70
8
 71
3
 72
8
 73
4
 74
0
 40
0
 40
0
 40
0
 40
0
 40
1
 40
1
 40
1
 40
1
 10
2.567765
 20
7.597927
 30
0.0
 10
2.578490
 20
7.616503
 30
0.0
 10
2.578490
 20
7.639390
 30
0.0
 10
2.567765
 20
7.657966
 30
0.0
  0
SPLINE
  5
151
100
AcDbEntity
  8
Layer_1
 62
1
100
AcDbSpline
 70
8
 71
3
 72
8
 73
4
 74
0
 40
0
 40
0
 40
0
 40
0
 40
1
 40
1
 40
1
 40
1
 10
2.567765
 20
7.657966
 30
0.0
 10
2.557040
 20
7.676543
 30
0.0
 10
2.537219
 20
7.687986
 30
0.0
 10
2.515769
 20
7.687986
 30
0.0
  0
LWPOLYLINE
  5
152
100
AcDbEntity
  8
Layer_1
 62
1
100
AcDbPolyline
 90
1
 70
1
 10
4.397659
 20
7.731293
 30
0.0
  0
SPLINE
  5
153
100
AcDbEntity
  8
Layer_1
 62
1
100
AcDbSpline
 70
8
 71
3
 72
8
 73
4
 74
0
 40
0
 40
0
 40
0
 40
0
 40
1
 40
1
 40
1
 40
1
 10
5.116000
 20
4.996722
 30
0.0
 10
5.095945
 20
4.996739
 30
0.0
 10
5.077406
 20
4.986050
 30
0.0
 10
5.067374
 20
4.968685
 30
0.0
  0
SPLINE
  5
154
100
AcDbEntity
  8
Layer_1
 62
1
100
AcDbSpline
 70
8
 71
3
 72
8
 73
4
 74
0
 40
0
 40
0
 40
0
 40
0
 40
1
 40
1
 40
1
 40
1
 10
5.067374
 20
4.968685
 30
0.0
 10
5.057341
 20
4.951320
 30
0.0
 10
5.057341
 20
4.929920
 30
0.0
 10
5.067374
 20
4.912554
 30
0.0
  0
SPLINE
  5
155
100
AcDbEntity
  8
Layer_1
 62
1
100
AcDbSpline
 70
8
 71
3
 72
8
 73
4
 74
0
 40
0
 40
0
 40
0
 40
0
 40
1
 40
1
 40
1
 40
1
 10
5.067374
 20
4.912554
 30
0.0
 10
5.077406
 20
4.895189
 30
0.0
 10
5.095945
 20
4.884500
 30
0.0
 10
5.116000
 20
4.884517
 30
0.0
  0
SPLINE
  5
156
100
AcDbEntity
  8
Layer_1
 62
1
100
AcDbSpline
 70
8
 71
3
 72
8
 73
4
 74
0
 40
0
 40
0
 40
0
 40
0
 40
1
 40
1
 40
1
 40
1
 10
5.116000
 20
4.884517
 30
0.0
 10
5.136055
 20
4.884500
 30
0.0
 10
5.154594
 20
4.895189
 30
0.0
 10
5.164627
 20
4.912554
 30
0.0
  0
SPLINE
  5
157
100
AcDbEntity
  8
Layer_1
 62
1
100
AcDbSpline
 70
8
 71
3
 72
8
 73
4
 74
0
 40
0
 40
0
 40
0
 40
0
 40
1
 40
1
 40
1
 40
1
 10
5.164627
 20
4.912554
 30
0.0
 10
5.174659
 20
4.929920
 30
0.0
 10
5.174659
 20
4.951320
 30
0.0
 10
5.164627
 20
4.968685
 30
0.0
  0
SPLINE
  5
158
100
AcDbEntity
  8
Layer_1
 62
1
100
AcDbSpline
 70
8
 71
3
 72
8
 73
4
 74
0
 40
0
 40
0
 40
0
 40
0
 40
1
 40
1
 40
1
 40
1
 10
5.164627
 20
4.968685
 30
0.0
 10
5.154594
 20
4.986050
 30
0.0
 10
5.136055
 20
4.996739
 30
0.0
 10
5.116000
 20
4.996722
 30
0.0
  0
LWPOLYLINE
  5
159
100
AcDbEntity
  8
Layer_1
 62
1
100
AcDbPolyline
 90
1
 70
1
 10
2.515769
 20
7.687986
 30
0.0
  0
SPLINE
  5
15a
100
AcDbEntity
  8
Layer_1
 62
1
100
AcDbSpline
 70
8
 71
3
 72
8
 73
4
 74
0
 40
0
 40
0
 40
0
 40
0
 40
1
 40
1
 40
1
 40
1
 10
5.116000
 20
10.036092
 30
0.0
 10
5.095957
 20
10.036092
 30
0.0
 10
5.077436
 20
10.025399
 30
0.0
 10
5.067414
 20
10.008041
 30
0.0
  0
SPLINE
  5
15b
100
AcDbEntity
  8
Layer_1
 62
1
100
AcDbSpline
 70
8
 71
3
 72
8
 73
4
 74
0
 40
0
 40
0
 40
0
 40
0
 40
1
 40
1
 40
1
 40
1
 10
5.067414
 20
10.008041
 30
0.0
 10
5.057392
 20
9.990683
 30
0.0
 10
5.057392
 20
9.969297
 30
0.0
 10
5.067414
 20
9.951938
 30
0.0
  0
SPLINE
  5
15c
100
AcDbEntity
  8
Layer_1
 62
1
100
AcDbSpline
 70
8
 71
3
 72
8
 73
4
 74
0
 40
0
 40
0
 40
0
 40
0
 40
1
 40
1
 40
1
 40
1
 10
5.067414
 20
9.951938
 30
0.0
 10
5.077436
 20
9.934580
 30
0.0
 10
5.095957
 20
9.923887
 30
0.0
 10
5.116000
 20
9.923887
 30
0.0
  0
SPLINE
  5
15d
100
AcDbEntity
  8
Layer_1
 62
1
100
AcDbSpline
 70
8
 71
3
 72
8
 73
4
 74
0
 40
0
 40
0
 40
0
 40
0
 40
1
 40
1
 40
1
 40
1
 10
5.116000
 20
9.923887
 30
0.0
 10
5.136044
 20
9.923887
 30
0.0
 10
5.154565
 20
9.934580
 30
0.0
 10
5.164586
 20
9.951938
 30
0.0
  0
SPLINE
  5
15e
100
AcDbEntity
  8
Layer_1
 62
1
100
AcDbSpline
 70
8
 71
3
 72
8
 73
4
 74
0
 40
0
 40
0
 40
0
 40
0
 40
1
 40
1
 40
1
 40
1
 10
5.164586
 20
9.951938
 30
0.0
 10
5.174608
 20
9.969297
 30
0.0
 10
5.174608
 20
9.990683
 30
0.0
 10
5.164586
 20
10.008041
 30
0.0
  0
SPLINE
  5
15f
100
AcDbEntity
  8
Layer_1
 62
1
100
AcDbSpline
 70
8
 71
3
 72
8
 73
4
 74
0
 40
0
 40
0
 40
0
 40
0
 40
1
 40
1
 40
1
 40
1
 10
5.164586
 20
10.008041
 30
0.0
 10
5.154565
 20
10.025399
 30
0.0
 10
5.136044
 20
10.036092
 30
0.0
 10
5.116000
 20
10.036092
 30
0.0
  0
LWPOLYLINE
  5
160
100
AcDbEntity
  8
Layer_1
 62
1
100
AcDbPolyline
 90
1
 70
1
 10
5.116000
 20
4.996722
 30
0.0
  0
LWPOLYLINE
  5
161
100
AcDbEntity
  8
Layer_1
 62
1
100
AcDbPolyline
 90
1
 70
1
 10
5.116000
 20
10.036092
 30
0.0
  0
LWPOLYLINE
  5
162
100
AcDbEntity
  8
Layer_1
 62
1
100
AcDbPolyline
 90
4
 70
1
 10
5.377918
 20
4.541372
 30
0.0
 10
5.377918
 20
1.791372
 30
0.0
 10
4.438941
 20
1.791372
 30
0.0
 10
4.438941
 20
4.541372
 30
0.0
  0
LWPOLYLINE
  5
163
100
AcDbEntity
  8
Layer_1
 62
1
100
AcDbPolyline
 90
4
 70
1
 10
4.525000
 20
11.230876
 30
0.0
 10
4.525000
 20
8.677726
 30
0.0
 10
2.320810
 20
8.677726
 30
0.0
 10
2.320810
 20
11.230876
 30
0.0
  0
LWPOLYLINE
  5
164
100
AcDbEntity
  8
Layer_1
 62
1
100
AcDbPolyline
 90
4
 70
1
 10
2.409920
 20
1.790993
 30
0.0
 10
1.470944
 20
1.790642
 30
0.0
 10
1.469915
 20
4.540642
 30
0.0
 10
2.408892
 20
4.540993
 30
0.0
  0
SPLINE
  5
165
100
AcDbEntity
  8
Layer_1
 62
5
100
AcDbSpline
 70
8
 71
3
 72
8
 73
4
 74
0
 40
0
 40
0
 40
0
 40
0
 40
1
 40
1
 40
1
 40
1
 10
3.422623
 20
11.892076
 30
0.0
 10
3.422623
 20
11.892075
 30
0.0
 10
3.422519
 20
11.892074
 30
0.0
 10
3.422519
 20
11.892073
 30
0.0
  0
SPLINE
  5
166
100
AcDbEntity
  8
Layer_1
 62
5
100
AcDbSpline
 70
8
 71
3
 72
8
 73
4
 74
0
 40
0
 40
0
 40
0
 40
0
 40
1
 40
1
 40
1
 40
1
 10
3.422519
 20
11.892073
 30
0.0
 10
3.226264
 20
11.886548
 30
0.0
 10
3.021204
 20
11.881056
 30
0.0
 10
2.809860
 20
11.870953
 30
0.0
  0
SPLINE
  5
167
100
AcDbEntity
  8
Layer_1
 62
5
100
AcDbSpline
 70
8
 71
3
 72
8
 73
4
 74
0
 40
0
 40
0
 40
0
 40
0
 40
1
 40
1
 40
1
 40
1
 10
2.809860
 20
11.870953
 30
0.0
 10
2.614277
 20
11.861603
 30
0.0
 10
2.412882
 20
11.848950
 30
0.0
 10
2.219599
 20
11.808419
 30
0.0
  0
SPLINE
  5
168
100
AcDbEntity
  8
Layer_1
 62
5
100
AcDbSpline
 70
8
 71
3
 72
8
 73
4
 74
0
 40
0
 40
0
 40
0
 40
0
 40
1
 40
1
 40
1
 40
1
 10
2.219599
 20
11.808419
 30
0.0
 10
2.057171
 20
11.774358
 30
0.0
 10
1.901499
 20
11.718473
 30
0.0
 10
1.761567
 20
11.628904
 30
0.0
  0
SPLINE
  5
169
100
AcDbEntity
  8
Layer_1
 62
5
100
AcDbSpline
 70
8
 71
3
 72
8
 73
4
 74
0
 40
0
 40
0
 40
0
 40
0
 40
1
 40
1
 40
1
 40
1
 10
1.761567
 20
11.628904
 30
0.0
 10
1.618028
 20
11.537026
 30
0.0
 10
1.491325
 20
11.409565
 30
0.0
 10
1.380661
 20
11.258538
 30
0.0
  0
SPLINE
  5
16a
100
AcDbEntity
  8
Layer_1
 62
5
100
AcDbSpline
 70
8
 71
3
 72
8
 73
4
 74
0
 40
0
 40
0
 40
0
 40
0
 40
1
 40
1
 40
1
 40
1
 10
1.380661
 20
11.258538
 30
0.0
 10
1.263507
 20
11.098654
 30
0.0
 10
1.163562
 20
10.914847
 30
0.0
 10
1.074276
 20
10.725255
 30
0.0
  0
SPLINE
  5
16b
100
AcDbEntity
  8
Layer_1
 62
5
100
AcDbSpline
 70
8
 71
3
 72
8
 73
4
 74
0
 40
0
 40
0
 40
0
 40
0
 40
1
 40
1
 40
1
 40
1
 10
1.074276
 20
10.725255
 30
0.0
 10
0.973919
 20
10.512156
 30
0.0
 10
0.886715
 20
10.291848
 30
0.0
 10
0.808633
 20
10.058666
 30
0.0
  0
SPLINE
  5
16c
100
AcDbEntity
  8
Layer_1
 62
5
100
AcDbSpline
 70
8
 71
3
 72
8
 73
4
 74
0
 40
0
 40
0
 40
0
 40
0
 40
1
 40
1
 40
1
 40
1
 10
0.808633
 20
10.058666
 30
0.0
 10
0.731993
 20
9.829791
 30
0.0
 10
0.664451
 20
9.585741
 30
0.0
 10
0.605028
 20
9.322135
 30
0.0
  0
SPLINE
  5
16d
100
AcDbEntity
  8
Layer_1
 62
5
100
AcDbSpline
 70
8
 71
3
 72
8
 73
4
 74
0
 40
0
 40
0
 40
0
 40
0
 40
1
 40
1
 40
1
 40
1
 10
0.605028
 20
9.322135
 30
0.0
 10
0.509661
 20
8.899084
 30
0.0
 10
0.435186
 20
8.427971
 30
0.0
 10
0.378266
 20
7.967592
 30
0.0
  0
SPLINE
  5
16e
100
AcDbEntity
  8
Layer_1
 62
5
100
AcDbSpline
 70
8
 71
3
 72
8
 73
4
 74
0
 40
0
 40
0
 40
0
 40
0
 40
1
 40
1
 40
1
 40
1
 10
0.378266
 20
7.967592
 30
0.0
 10
0.339154
 20
7.651241
 30
0.0
 10
0.308354
 20
7.341251
 30
0.0
 10
0.285508
 20
7.034608
 30
0.0
  0
SPLINE
  5
16f
100
AcDbEntity
  8
Layer_1
 62
5
100
AcDbSpline
 70
8
 71
3
 72
8
 73
4
 74
0
 40
0
 40
0
 40
0
 40
0
 40
1
 40
1
 40
1
 40
1
 10
0.285508
 20
7.034608
 30
0.0
 10
0.275107
 20
6.895000
 30
0.0
 10
0.266362
 20
6.755745
 30
0.0
 10
0.259255
 20
6.615898
 30
0.0
  0
SPLINE
  5
170
100
AcDbEntity
  8
Layer_1
 62
5
100
AcDbSpline
 70
8
 71
3
 72
8
 73
4
 74
0
 40
0
 40
0
 40
0
 40
0
 40
1
 40
1
 40
1
 40
1
 10
0.259275
 20
6.615898
 30
0.0
 10
0.244717
 20
6.329471
 30
0.0
 10
0.237071
 20
6.038875
 30
0.0
 10
0.235840
 20
5.747169
 30
0.0
  0
SPLINE
  5
171
100
AcDbEntity
  8
Layer_1
 62
5
100
AcDbSpline
 70
8
 71
3
 72
8
 73
4
 74
0
 40
0
 40
0
 40
0
 40
0
 40
1
 40
1
 40
1
 40
1
 10
0.235840
 20
5.747169
 30
0.0
 10
0.234483
 20
5.425194
 30
0.0
 10
0.240848
 20
5.104444
 30
0.0
 10
0.253898
 20
4.807786
 30
0.0
  0
SPLINE
  5
172
100
AcDbEntity
  8
Layer_1
 62
5
100
AcDbSpline
 70
8
 71
3
 72
8
 73
4
 74
0
 40
0
 40
0
 40
0
 40
0
 40
1
 40
1
 40
1
 40
1
 10
0.253898
 20
4.807786
 30
0.0
 10
0.263873
 20
4.581047
 30
0.0
 10
0.277721
 20
4.369387
 30
0.0
 10
0.295583
 20
4.168887
 30
0.0
  0
SPLINE
  5
173
100
AcDbEntity
  8
Layer_1
 62
5
100
AcDbSpline
 70
8
 71
3
 72
8
 73
4
 74
0
 40
0
 40
0
 40
0
 40
0
 40
1
 40
1
 40
1
 40
1
 10
0.295583
 20
4.168887
 30
0.0
 10
0.314720
 20
3.954077
 30
0.0
 10
0.338141
 20
3.750285
 30
0.0
 10
0.369127
 20
3.535881
 30
0.0
  0
SPLINE
  5
174
100
AcDbEntity
  8
Layer_1
 62
5
100
AcDbSpline
 70
8
 71
3
 72
8
 73
4
 74
0
 40
0
 40
0
 40
0
 40
0
 40
1
 40
1
 40
1
 40
1
 10
0.369127
 20
3.535881
 30
0.0
 10
0.396682
 20
3.345217
 30
0.0
 10
0.430100
 20
3.144604
 30
0.0
 10
0.477096
 20
2.932067
 30
0.0
  0
SPLINE
  5
175
100
AcDbEntity
  8
Layer_1
 62
5
100
AcDbSpline
 70
8
 71
3
 72
8
 73
4
 74
0
 40
0
 40
0
 40
0
 40
0
 40
1
 40
1
 40
1
 40
1
 10
0.477096
 20
2.932067
 30
0.0
 10
0.535133
 20
2.669597
 30
0.0
 10
0.614988
 20
2.389885
 30
0.0
 10
0.736319
 20
2.128849
 30
0.0
  0
SPLINE
  5
176
100
AcDbEntity
  8
Layer_1
 62
5
100
AcDbSpline
 70
8
 71
3
 72
8
 73
4
 74
0
 40
0
 40
0
 40
0
 40
0
 40
1
 40
1
 40
1
 40
1
 10
0.736319
 20
2.128849
 30
0.0
 10
0.832318
 20
1.922315
 30
0.0
 10
0.954808
 20
1.729137
 30
0.0
 10
1.104579
 20
1.564879
 30
0.0
  0
SPLINE
  5
177
100
AcDbEntity
  8
Layer_1
 62
5
100
AcDbSpline
 70
8
 71
3
 72
8
 73
4
 74
0
 40
0
 40
0
 40
0
 40
0
 40
1
 40
1
 40
1
 40
1
 10
1.104579
 20
1.564879
 30
0.0
 10
1.266194
 20
1.387631
 30
0.0
 10
1.459422
 20
1.244307
 30
0.0
 10
1.667317
 20
1.133654
 30
0.0
  0
SPLINE
  5
178
100
AcDbEntity
  8
Layer_1
 62
5
100
AcDbSpline
 70
8
 71
3
 72
8
 73
4
 74
0
 40
0
 40
0
 40
0
 40
0
 40
1
 40
1
 40
1
 40
1
 10
1.667317
 20
1.133654
 30
0.0
 10
1.924894
 20
0.996559
 30
0.0
 10
2.202685
 20
0.907847
 30
0.0
 10
2.461807
 20
0.846607
 30
0.0
  0
SPLINE
  5
179
100
AcDbEntity
  8
Layer_1
 62
5
100
AcDbSpline
 70
8
 71
3
 72
8
 73
4
 74
0
 40
0
 40
0
 40
0
 40
0
 40
1
 40
1
 40
1
 40
1
 10
2.461807
 20
0.846607
 30
0.0
 10
2.700436
 20
0.790209
 30
0.0
 10
2.923001
 20
0.756503
 30
0.0
 10
3.119791
 20
0.739492
 30
0.0
  0
SPLINE
  5
17a
100
AcDbEntity
  8
Layer_1
 62
5
100
AcDbSpline
 70
8
 71
3
 72
8
 73
4
 74
0
 40
0
 40
0
 40
0
 40
0
 40
1
 40
1
 40
1
 40
1
 10
3.119791
 20
0.739492
 30
0.0
 10
3.228227
 20
0.730119
 30
0.0
 10
3.329209
 20
0.726034
 30
0.0
 10
3.422623
 20
0.727156
 30
0.0
  0
LWPOLYLINE
  5
17b
100
AcDbEntity
  8
Layer_1
 62
5
100
AcDbPolyline
 90
2
 70
0
 10
3.423010
 20
11.892065
 30
0.0
 10
3.422624
 20
11.892075
 30
0.0
  0
SPLINE
  5
17c
100
AcDbEntity
  8
Layer_1
 62
5
100
AcDbSpline
 70
8
 71
3
 72
8
 73
4
 74
0
 40
0
 40
0
 40
0
 40
0
 40
1
 40
1
 40
1
 40
1
 10
3.424492
 20
0.727134
 30
0.0
 10
3.424492
 20
0.727134
 30
0.0
 10
3.424493
 20
0.727134
 30
0.0
 10
3.424494
 20
0.727134
 30
0.0
  0
SPLINE
  5
17d
100
AcDbEntity
  8
Layer_1
 62
5
100
AcDbSpline
 70
8
 71
3
 72
8
 73
4
 74
0
 40
0
 40
0
 40
0
 40
0
 40
1
 40
1
 40
1
 40
1
 10
3.424494
 20
0.727134
 30
0.0
 10
3.615692
 20
0.724983
 30
0.0
 10
3.839430
 20
0.744031
 30
0.0
 10
4.091218
 20
0.787186
 30
0.0
  0
SPLINE
  5
17e
100
AcDbEntity
  8
Layer_1
 62
5
100
AcDbSpline
 70
8
 71
3
 72
8
 73
4
 74
0
 40
0
 40
0
 40
0
 40
0
 40
1
 40
1
 40
1
 40
1
 10
4.091218
 20
0.787186
 30
0.0
 10
4.302436
 20
0.823388
 30
0.0
 10
4.533895
 20
0.876316
 30
0.0
 10
4.767249
 20
0.956907
 30
0.0
  0
SPLINE
  5
17f
100
AcDbEntity
  8
Layer_1
 62
5
100
AcDbSpline
 70
8
 71
3
 72
8
 73
4
 74
0
 40
0
 40
0
 40
0
 40
0
 40
1
 40
1
 40
1
 40
1
 10
4.767249
 20
0.956907
 30
0.0
 10
5.016969
 20
1.043150
 30
0.0
 10
5.266978
 20
1.162963
 30
0.0
 10
5.484360
 20
1.329734
 30
0.0
  0
SPLINE
  5
180
100
AcDbEntity
  8
Layer_1
 62
5
100
AcDbSpline
 70
8
 71
3
 72
8
 73
4
 74
0
 40
0
 40
0
 40
0
 40
0
 40
1
 40
1
 40
1
 40
1
 10
5.484360
 20
1.329734
 30
0.0
 10
5.653811
 20
1.459733
 30
0.0
 10
5.802846
 20
1.618593
 30
0.0
 10
5.924833
 20
1.800001
 30
0.0
  0
SPLINE
  5
181
100
AcDbEntity
  8
Layer_1
 62
5
100
AcDbSpline
 70
8
 71
3
 72
8
 73
4
 74
0
 40
0
 40
0
 40
0
 40
0
 40
1
 40
1
 40
1
 40
1
 10
5.924833
 20
1.800001
 30
0.0
 10
6.093598
 20
2.050974
 30
0.0
 10
6.210417
 20
2.343557
 30
0.0
 10
6.292394
 20
2.630638
 30
0.0
  0
SPLINE
  5
182
100
AcDbEntity
  8
Layer_1
 62
5
100
AcDbSpline
 70
8
 71
3
 72
8
 73
4
 74
0
 40
0
 40
0
 40
0
 40
0
 40
1
 40
1
 40
1
 40
1
 10
6.292394
 20
2.630638
 30
0.0
 10
6.353084
 20
2.843169
 30
0.0
 10
6.395815
 20
3.051367
 30
0.0
 10
6.430027
 20
3.246551
 30
0.0
  0
SPLINE
  5
183
100
AcDbEntity
  8
Layer_1
 62
5
100
AcDbSpline
 70
8
 71
3
 72
8
 73
4
 74
0
 40
0
 40
0
 40
0
 40
0
 40
1
 40
1
 40
1
 40
1
 10
6.430027
 20
3.246551
 30
0.0
 10
6.470230
 20
3.475916
 30
0.0
 10
6.498952
 20
3.687689
 30
0.0
 10
6.522701
 20
3.900165
 30
0.0
  0
SPLINE
  5
184
100
AcDbEntity
  8
Layer_1
 62
5
100
AcDbSpline
 70
8
 71
3
 72
8
 73
4
 74
0
 40
0
 40
0
 40
0
 40
0
 40
1
 40
1
 40
1
 40
1
 10
6.522701
 20
3.900165
 30
0.0
 10
6.545456
 20
4.103747
 30
0.0
 10
6.563277
 20
4.310534
 30
0.0
 10
6.577029
 20
4.534719
 30
0.0
  0
SPLINE
  5
185
100
AcDbEntity
  8
Layer_1
 62
5
100
AcDbSpline
 70
8
 71
3
 72
8
 73
4
 74
0
 40
0
 40
0
 40
0
 40
0
 40
1
 40
1
 40
1
 40
1
 10
6.577029
 20
4.534719
 30
0.0
 10
6.592989
 20
4.794913
 30
0.0
 10
6.603340
 20
5.078248
 30
0.0
 10
6.607519
 20
5.371869
 30
0.0
  0
SPLINE
  5
186
100
AcDbEntity
  8
Layer_1
 62
5
100
AcDbSpline
 70
8
 71
3
 72
8
 73
4
 74
0
 40
0
 40
0
 40
0
 40
0
 40
1
 40
1
 40
1
 40
1
 10
6.607519
 20
5.371869
 30
0.0
 10
6.611610
 20
5.659286
 30
0.0
 10
6.609693
 20
5.953814
 30
0.0
 10
6.601024
 20
6.242746
 30
0.0
  0
SPLINE
  5
187
100
AcDbEntity
  8
Layer_1
 62
5
100
AcDbSpline
 70
8
 71
3
 72
8
 73
4
 74
0
 40
0
 40
0
 40
0
 40
0
 40
1
 40
1
 40
1
 40
1
 10
6.601024
 20
6.242746
 30
0.0
 10
6.597272
 20
6.367797
 30
0.0
 10
6.592263
 20
6.492092
 30
0.0
 10
6.585971
 20
6.615898
 30
0.0
  0
SPLINE
  5
188
100
AcDbEntity
  8
Layer_1
 62
5
100
AcDbSpline
 70
8
 71
3
 72
8
 73
4
 74
0
 40
0
 40
0
 40
0
 40
0
 40
1
 40
1
 40
1
 40
1
 10
6.585971
 20
6.615898
 30
0.0
 10
6.568471
 20
6.960207
 30
0.0
 10
6.541060
 20
7.301475
 30
0.0
 10
6.503411
 20
7.651986
 30
0.0
  0
SPLINE
  5
189
100
AcDbEntity
  8
Layer_1
 62
5
100
AcDbSpline
 70
8
 71
3
 72
8
 73
4
 74
0
 40
0
 40
0
 40
0
 40
0
 40
1
 40
1
 40
1
 40
1
 10
6.503411
 20
7.651986
 30
0.0
 10
6.469738
 20
7.965488
 30
0.0
 10
6.427909
 20
8.287273
 30
0.0
 10
6.377104
 20
8.602877
 30
0.0
  0
SPLINE
  5
18a
100
AcDbEntity
  8
Layer_1
 62
5
100
AcDbSpline
 70
8
 71
3
 72
8
 73
4
 74
0
 40
0
 40
0
 40
0
 40
0
 40
1
 40
1
 40
1
 40
1
 10
6.377104
 20
8.602877
 30
0.0
 10
6.329437
 20
8.898995
 30
0.0
 10
6.273831
 20
9.187458
 30
0.0
 10
6.209299
 20
9.454519
 30
0.0
  0
SPLINE
  5
18b
100
AcDbEntity
  8
Layer_1
 62
5
100
AcDbSpline
 70
8
 71
3
 72
8
 73
4
 74
0
 40
0
 40
0
 40
0
 40
0
 40
1
 40
1
 40
1
 40
1
 10
6.209299
 20
9.454519
 30
0.0
 10
6.139277
 20
9.744299
 30
0.0
 10
6.058890
 20
10.008319
 30
0.0
 10
5.966329
 20
10.257888
 30
0.0
  0
SPLINE
  5
18c
100
AcDbEntity
  8
Layer_1
 62
5
100
AcDbSpline
 70
8
 71
3
 72
8
 73
4
 74
0
 40
0
 40
0
 40
0
 40
0
 40
1
 40
1
 40
1
 40
1
 10
5.966329
 20
10.257888
 30
0.0
 10
5.893437
 20
10.454429
 30
0.0
 10
5.813116
 20
10.643964
 30
0.0
 10
5.721837
 20
10.826497
 30
0.0
  0
SPLINE
  5
18d
100
AcDbEntity
  8
Layer_1
 62
5
100
AcDbSpline
 70
8
 71
3
 72
8
 73
4
 74
0
 40
0
 40
0
 40
0
 40
0
 40
1
 40
1
 40
1
 40
1
 10
5.721837
 20
10.826497
 30
0.0
 10
5.606045
 20
11.058049
 30
0.0
 10
5.471755
 20
11.277337
 30
0.0
 10
5.307560
 20
11.445204
 30
0.0
  0
SPLINE
  5
18e
100
AcDbEntity
  8
Layer_1
 62
5
100
AcDbSpline
 70
8
 71
3
 72
8
 73
4
 74
0
 40
0
 40
0
 40
0
 40
0
 40
1
 40
1
 40
1
 40
1
 10
5.307560
 20
11.445204
 30
0.0
 10
5.194795
 20
11.560489
 30
0.0
 10
5.067703
 20
11.650136
 30
0.0
 10
4.928994
 20
11.712399
 30
0.0
  0
SPLINE
  5
18f
100
AcDbEntity
  8
Layer_1
 62
5
100
AcDbSpline
 70
8
 71
3
 72
8
 73
4
 74
0
 40
0
 40
0
 40
0
 40
0
 40
1
 40
1
 40
1
 40
1
 10
4.928994
 20
11.712399
 30
0.0
 10
4.695387
 20
11.817259
 30
0.0
 10
4.430698
 20
11.846960
 30
0.0
 10
4.172329
 20
11.863411
 30
0.0
  0
SPLINE
  5
190
100
AcDbEntity
  8
Layer_1
 62
5
100
AcDbSpline
 70
8
 71
3
 72
8
 73
4
 74
0
 40
0
 40
0
 40
0
 40
0
 40
1
 40
1
 40
1
 40
1
 10
4.172329
 20
11.863411
 30
0.0
 10
3.962093
 20
11.876797
 30
0.0
 10
3.756038
 20
11.882214
 30
0.0
 10
3.558812
 20
11.888120
 30
0.0
  0
SPLINE
  5
191
100
AcDbEntity
  8
Layer_1
 62
5
100
AcDbSpline
 70
8
 71
3
 72
8
 73
4
 74
0
 40
0
 40
0
 40
0
 40
0
 40
1
 40
1
 40
1
 40
1
 10
3.558812
 20
11.888120
 30
0.0
 10
3.513659
 20
11.889472
 30
0.0
 10
3.468924
 20
11.890771
 30
0.0
 10
3.424611
 20
11.892020
 30
0.0
  0
LWPOLYLINE
  5
192
100
AcDbEntity
  8
Layer_1
 62
5
100
AcDbPolyline
 90
2
 70
0
 10
3.422623
 20
0.727156
 30
0.0
 10
3.424492
 20
0.727135
 30
0.0
  0
SPLINE
  5
193
100
AcDbEntity
  8
Layer_1
 62
5
100
AcDbSpline
 70
8
 71
3
 72
8
 73
4
 74
0
 40
0
 40
0
 40
0
 40
0
 40
1
 40
1
 40
1
 40
1
 10
7.408502
 20
9.750611
 30
0.0
 10
7.411788
 20
9.770671
 30
0.0
 10
7.415169
 20
9.790727
 30
0.0
 10
7.418648
 20
9.810753
 30
0.0
  0
SPLINE
  5
194
100
AcDbEntity
  8
Layer_1
 62
5
100
AcDbSpline
 70
8
 71
3
 72
8
 73
4
 74
0
 40
0
 40
0
 40
0
 40
0
 40
1
 40
1
 40
1
 40
1
 10
7.418648
 20
9.810753
 30
0.0
 10
7.422031
 20
9.830226
 30
0.0
 10
7.425512
 20
9.849693
 30
0.0
 10
7.429096
 20
9.869129
 30
0.0
  0
SPLINE
  5
195
100
AcDbEntity
  8
Layer_1
 62
5
100
AcDbSpline
 70
8
 71
3
 72
8
 73
4
 74
0
 40
0
 40
0
 40
0
 40
0
 40
1
 40
1
 40
1
 40
1
 10
7.429096
 20
9.869129
 30
0.0
 10
7.429104
 20
9.869176
 30
0.0
 10
7.429096
 20
9.869222
 30
0.0
 10
7.429096
 20
9.869269
 30
0.0
  0
SPLINE
  5
196
100
AcDbEntity
  8
Layer_1
 62
5
100
AcDbSpline
 70
8
 71
3
 72
8
 73
4
 74
0
 40
0
 40
0
 40
0
 40
0
 40
1
 40
1
 40
1
 40
1
 10
7.429122
 20
9.869269
 30
0.0
 10
7.429125
 20
9.869316
 30
0.0
 10
7.429129
 20
9.869364
 30
0.0
 10
7.429122
 20
9.869410
 30
0.0
  0
SPLINE
  5
197
100
AcDbEntity
  8
Layer_1
 62
5
100
AcDbSpline
 70
8
 71
3
 72
8
 73
4
 74
0
 40
0
 40
0
 40
0
 40
0
 40
1
 40
1
 40
1
 40
1
 10
7.429122
 20
9.869410
 30
0.0
 10
7.433923
 20
9.924996
 30
0.0
 10
7.436107
 20
9.960304
 30
0.0
 10
7.439086
 20
9.988815
 30
0.0
  0
SPLINE
  5
198
100
AcDbEntity
  8
Layer_1
 62
5
100
AcDbSpline
 70
8
 71
3
 72
8
 73
4
 74
0
 40
0
 40
0
 40
0
 40
0
 40
1
 40
1
 40
1
 40
1
 10
7.439086
 20
9.988815
 30
0.0
 10
7.441704
 20
10.013871
 30
0.0
 10
7.445147
 20
10.035752
 30
0.0
 10
7.452107
 20
10.056041
 30
0.0
  0
LWPOLYLINE
  5
199
100
AcDbEntity
  8
Layer_1
 62
5
100
AcDbPolyline
 90
2
 70
0
 10
3.424611
 20
11.892020
 30
0.0
 10
3.423010
 20
11.892061
 30
0.0
  0
SPLINE
  5
19a
100
AcDbEntity
  8
Layer_1
 62
5
100
AcDbSpline
 70
8
 71
3
 72
8
 73
4
 74
0
 40
0
 40
0
 40
0
 40
0
 40
1
 40
1
 40
1
 40
1
 10
7.733465
 20
10.056041
 30
0.0
 10
7.733570
 20
10.056920
 30
0.0
 10
7.733653
 20
10.057799
 30
0.0
 10
7.733747
 20
10.058678
 30
0.0
  0
SPLINE
  5
19b
100
AcDbEntity
  8
Layer_1
 62
5
100
AcDbSpline
 70
8
 71
3
 72
8
 73
4
 74
0
 40
0
 40
0
 40
0
 40
0
 40
1
 40
1
 40
1
 40
1
 10
7.733747
 20
10.058678
 30
0.0
 10
7.738455
 20
10.102516
 30
0.0
 10
7.753404
 20
10.147922
 30
0.0
 10
7.778832
 20
10.197452
 30
0.0
  0
SPLINE
  5
19c
100
AcDbEntity
  8
Layer_1
 62
5
100
AcDbSpline
 70
8
 71
3
 72
8
 73
4
 74
0
 40
0
 40
0
 40
0
 40
0
 40
1
 40
1
 40
1
 40
1
 10
7.778832
 20
10.197452
 30
0.0
 10
7.803086
 20
10.244695
 30
0.0
 10
7.835551
 20
10.293159
 30
0.0
 10
7.873312
 20
10.343486
 30
0.0
  0
SPLINE
  5
19d
100
AcDbEntity
  8
Layer_1
 62
5
100
AcDbSpline
 70
8
 71
3
 72
8
 73
4
 74
0
 40
0
 40
0
 40
0
 40
0
 40
1
 40
1
 40
1
 40
1
 10
7.873312
 20
10.343486
 30
0.0
 10
7.926759
 20
10.414719
 30
0.0
 10
8.003856
 20
10.505733
 30
0.0
 10
8.061194
 20
10.571350
 30
0.0
  0
SPLINE
  5
19e
100
AcDbEntity
  8
Layer_1
 62
5
100
AcDbSpline
 70
8
 71
3
 72
8
 73
4
 74
0
 40
0
 40
0
 40
0
 40
0
 40
1
 40
1
 40
1
 40
1
 10
8.061194
 20
10.571350
 30
0.0
 10
8.061433
 20
10.571628
 30
0.0
 10
8.061683
 20
10.571906
 30
0.0
 10
8.061923
 20
10.572184
 30
0.0
  0
LWPOLYLINE
  5
19f
100
AcDbEntity
  8
Layer_1
 62
5
100
AcDbPolyline
 90
2
 70
0
 10
7.452119
 20
10.056041
 30
0.0
 10
7.733465
 20
10.056041
 30
0.0
  0
SPLINE
  5
1a0
100
AcDbEntity
  8
Layer_1
 62
5
100
AcDbSpline
 70
8
 71
3
 72
8
 73
4
 74
0
 40
0
 40
0
 40
0
 40
0
 40
1
 40
1
 40
1
 40
1
 10
8.229488
 20
10.751178
 30
0.0
 10
8.229770
 20
10.751452
 30
0.0
 10
8.230061
 20
10.751726
 30
0.0
 10
8.230343
 20
10.752000
 30
0.0
  0
SPLINE
  5
1a1
100
AcDbEntity
  8
Layer_1
 62
5
100
AcDbSpline
 70
8
 71
3
 72
8
 73
4
 74
0
 40
0
 40
0
 40
0
 40
0
 40
1
 40
1
 40
1
 40
1
 10
8.230343
 20
10.752000
 30
0.0
 10
8.332631
 20
10.850098
 30
0.0
 10
8.432201
 20
10.919717
 30
0.0
 10
8.578504
 20
10.988237
 30
0.0
  0
SPLINE
  5
1a2
100
AcDbEntity
  8
Layer_1
 62
5
100
AcDbSpline
 70
8
 71
3
 72
8
 73
4
 74
0
 40
0
 40
0
 40
0
 40
0
 40
1
 40
1
 40
1
 40
1
 10
8.578504
 20
10.988237
 30
0.0
 10
8.676385
 20
11.034080
 30
0.0
 10
8.788822
 20
11.076460
 30
0.0
 10
8.893279
 20
11.109725
 30
0.0
  0
SPLINE
  5
1a3
100
AcDbEntity
  8
Layer_1
 62
5
100
AcDbSpline
 70
8
 71
3
 72
8
 73
4
 74
0
 40
0
 40
0
 40
0
 40
0
 40
1
 40
1
 40
1
 40
1
 10
8.893279
 20
11.109725
 30
0.0
 10
9.049506
 20
11.159477
 30
0.0
 10
9.200419
 20
11.192716
 30
0.0
 10
9.361649
 20
11.216453
 30
0.0
  0
SPLINE
  5
1a4
100
AcDbEntity
  8
Layer_1
 62
5
100
AcDbSpline
 70
8
 71
3
 72
8
 73
4
 74
0
 40
0
 40
0
 40
0
 40
0
 40
1
 40
1
 40
1
 40
1
 10
9.361649
 20
11.216453
 30
0.0
 10
9.594636
 20
11.250756
 30
0.0
 10
9.847756
 20
11.264294
 30
0.0
 10
10.013667
 20
11.264320
 30
0.0
  0
LWPOLYLINE
  5
1a5
100
AcDbEntity
  8
Layer_1
 62
5
100
AcDbPolyline
 90
3
 70
0
 10
8.061924
 20
10.572184
 30
0.0
 10
8.062028
 20
10.751240
 30
0.0
 10
8.229488
 20
10.751178
 30
0.0
  0
SPLINE
  5
1a6
100
AcDbEntity
  8
Layer_1
 62
5
100
AcDbSpline
 70
8
 71
3
 72
8
 73
4
 74
0
 40
0
 40
0
 40
0
 40
0
 40
1
 40
1
 40
1
 40
1
 10
10.013670
 20
11.814726
 30
0.0
 10
9.822426
 20
11.817023
 30
0.0
 10
9.598559
 20
11.798062
 30
0.0
 10
9.346543
 20
11.754947
 30
0.0
  0
SPLINE
  5
1a7
100
AcDbEntity
  8
Layer_1
 62
5
100
AcDbSpline
 70
8
 71
3
 72
8
 73
4
 74
0
 40
0
 40
0
 40
0
 40
0
 40
1
 40
1
 40
1
 40
1
 10
9.346543
 20
11.754947
 30
0.0
 10
9.135496
 20
11.718842
 30
0.0
 10
8.904205
 20
11.666036
 30
0.0
 10
8.670946
 20
11.585632
 30
0.0
  0
SPLINE
  5
1a8
100
AcDbEntity
  8
Layer_1
 62
5
100
AcDbSpline
 70
8
 71
3
 72
8
 73
4
 74
0
 40
0
 40
0
 40
0
 40
0
 40
1
 40
1
 40
1
 40
1
 10
8.670946
 20
11.585632
 30
0.0
 10
8.421150
 20
11.499527
 30
0.0
 10
8.170975
 20
11.379881
 30
0.0
 10
7.953383
 20
11.213260
 30
0.0
  0
SPLINE
  5
1a9
100
AcDbEntity
  8
Layer_1
 62
5
100
AcDbSpline
 70
8
 71
3
 72
8
 73
4
 74
0
 40
0
 40
0
 40
0
 40
0
 40
1
 40
1
 40
1
 40
1
 10
7.953383
 20
11.213260
 30
0.0
 10
7.783813
 20
11.083411
 30
0.0
 10
7.634623
 20
10.924703
 30
0.0
 10
7.512484
 20
10.743403
 30
0.0
  0
SPLINE
  5
1aa
100
AcDbEntity
  8
Layer_1
 62
5
100
AcDbSpline
 70
8
 71
3
 72
8
 73
4
 74
0
 40
0
 40
0
 40
0
 40
0
 40
1
 40
1
 40
1
 40
1
 10
7.512484
 20
10.743403
 30
0.0
 10
7.360429
 20
10.517695
 30
0.0
 10
7.250172
 20
10.258199
 30
0.0
 10
7.170072
 20
9.999294
 30
0.0
  0
SPLINE
  5
1ab
100
AcDbEntity
  8
Layer_1
 62
5
100
AcDbSpline
 70
8
 71
3
 72
8
 73
4
 74
0
 40
0
 40
0
 40
0
 40
0
 40
1
 40
1
 40
1
 40
1
 10
7.170072
 20
9.999294
 30
0.0
 10
7.103781
 20
9.785026
 30
0.0
 10
7.057183
 20
9.572520
 30
0.0
 10
7.020283
 20
9.373153
 30
0.0
  0
SPLINE
  5
1ac
100
AcDbEntity
  8
Layer_1
 62
5
100
AcDbSpline
 70
8
 71
3
 72
8
 73
4
 74
0
 40
0
 40
0
 40
0
 40
0
 40
1
 40
1
 40
1
 40
1
 10
7.020283
 20
9.373153
 30
0.0
 10
6.979887
 20
9.154899
 30
0.0
 10
6.950793
 20
8.952408
 30
0.0
 10
6.926597
 20
8.753240
 30
0.0
  0
SPLINE
  5
1ad
100
AcDbEntity
  8
Layer_1
 62
5
100
AcDbSpline
 70
8
 71
3
 72
8
 73
4
 74
0
 40
0
 40
0
 40
0
 40
0
 40
1
 40
1
 40
1
 40
1
 10
6.926597
 20
8.753240
 30
0.0
 10
6.901623
 20
8.547668
 30
0.0
 10
6.882151
 20
8.343231
 30
0.0
 10
6.866785
 20
8.122204
 30
0.0
  0
SPLINE
  5
1ae
100
AcDbEntity
  8
Layer_1
 62
5
100
AcDbSpline
 70
8
 71
3
 72
8
 73
4
 74
0
 40
0
 40
0
 40
0
 40
0
 40
1
 40
1
 40
1
 40
1
 10
6.866785
 20
8.122204
 30
0.0
 10
6.850293
 20
7.884959
 30
0.0
 10
6.838710
 20
7.628152
 30
0.0
 10
6.832335
 20
7.358375
 30
0.0
  0
SPLINE
  5
1af
100
AcDbEntity
  8
Layer_1
 62
5
100
AcDbSpline
 70
8
 71
3
 72
8
 73
4
 74
0
 40
0
 40
0
 40
0
 40
0
 40
1
 40
1
 40
1
 40
1
 10
6.832335
 20
7.358375
 30
0.0
 10
6.825413
 20
7.065421
 30
0.0
 10
6.824721
 20
6.759884
 30
0.0
 10
6.831156
 20
6.459256
 30
0.0
  0
SPLINE
  5
1b0
100
AcDbEntity
  8
Layer_1
 62
5
100
AcDbSpline
 70
8
 71
3
 72
8
 73
4
 74
0
 40
0
 40
0
 40
0
 40
0
 40
1
 40
1
 40
1
 40
1
 10
6.831156
 20
6.459256
 30
0.0
 10
6.834990
 20
6.280151
 30
0.0
 10
6.841350
 20
6.102510
 30
0.0
 10
6.850322
 20
5.925985
 30
0.0
  0
SPLINE
  5
1b1
100
AcDbEntity
  8
Layer_1
 62
5
100
AcDbSpline
 70
8
 71
3
 72
8
 73
4
 74
0
 40
0
 40
0
 40
0
 40
0
 40
1
 40
1
 40
1
 40
1
 10
6.850322
 20
5.925985
 30
0.0
 10
6.850322
 20
5.925050
 30
0.0
 10
6.850426
 20
5.924116
 30
0.0
 10
6.850468
 20
5.923182
 30
0.0
  0
LWPOLYLINE
  5
1b2
100
AcDbEntity
  8
Layer_1
 62
5
100
AcDbPolyline
 90
4
 70
0
 10
10.013670
 20
11.264321
 30
0.0
 10
10.018527
 20
11.264318
 30
0.0
 10
10.018527
 20
11.814783
 30
0.0
 10
10.013670
 20
11.814731
 30
0.0
  0
SPLINE
  5
1b3
100
AcDbEntity
  8
Layer_1
 62
5
100
AcDbSpline
 70
8
 71
3
 72
8
 73
4
 74
0
 40
0
 40
0
 40
0
 40
0
 40
1
 40
1
 40
1
 40
1
 10
7.260421
 20
5.923182
 30
0.0
 10
7.260421
 20
5.924214
 30
0.0
 10
7.260317
 20
5.925246
 30
0.0
 10
7.260275
 20
5.926279
 30
0.0
  0
SPLINE
  5
1b4
100
AcDbEntity
  8
Layer_1
 62
5
100
AcDbSpline
 70
8
 71
3
 72
8
 73
4
 74
0
 40
0
 40
0
 40
0
 40
0
 40
1
 40
1
 40
1
 40
1
 10
7.260275
 20
5.926279
 30
0.0
 10
7.239422
 20
6.353010
 30
0.0
 10
7.233624
 20
6.788114
 30
0.0
 10
7.236892
 20
7.197767
 30
0.0
  0
SPLINE
  5
1b5
100
AcDbEntity
  8
Layer_1
 62
5
100
AcDbSpline
 70
8
 71
3
 72
8
 73
4
 74
0
 40
0
 40
0
 40
0
 40
0
 40
1
 40
1
 40
1
 40
1
 10
7.236892
 20
7.197767
 30
0.0
 10
7.244286
 20
8.124916
 30
0.0
 10
7.300929
 20
9.093873
 30
0.0
 10
7.408507
 20
9.750611
 30
0.0
  0
SPLINE
  5
1b6
100
AcDbEntity
  8
Layer_1
 62
5
100
AcDbSpline
 70
8
 71
3
 72
8
 73
4
 74
0
 40
0
 40
0
 40
0
 40
0
 40
1
 40
1
 40
1
 40
1
 10
7.929333
 20
9.176207
 30
0.0
 10
7.932619
 20
9.196266
 30
0.0
 10
7.936000
 20
9.216323
 30
0.0
 10
7.939479
 20
9.236349
 30
0.0
  0
SPLINE
  5
1b7
100
AcDbEntity
  8
Layer_1
 62
5
100
AcDbSpline
 70
8
 71
3
 72
8
 73
4
 74
0
 40
0
 40
0
 40
0
 40
0
 40
1
 40
1
 40
1
 40
1
 10
7.939479
 20
9.236349
 30
0.0
 10
7.942862
 20
9.255821
 30
0.0
 10
7.946343
 20
9.275289
 30
0.0
 10
7.949927
 20
9.294725
 30
0.0
  0
SPLINE
  5
1b8
100
AcDbEntity
  8
Layer_1
 62
5
100
AcDbSpline
 70
8
 71
3
 72
8
 73
4
 74
0
 40
0
 40
0
 40
0
 40
0
 40
1
 40
1
 40
1
 40
1
 10
7.949927
 20
9.294725
 30
0.0
 10
7.949935
 20
9.294772
 30
0.0
 10
7.949927
 20
9.294818
 30
0.0
 10
7.949927
 20
9.294865
 30
0.0
  0
SPLINE
  5
1b9
100
AcDbEntity
  8
Layer_1
 62
5
100
AcDbSpline
 70
8
 71
3
 72
8
 73
4
 74
0
 40
0
 40
0
 40
0
 40
0
 40
1
 40
1
 40
1
 40
1
 10
7.949953
 20
9.294865
 30
0.0
 10
7.949956
 20
9.294911
 30
0.0
 10
7.949960
 20
9.294959
 30
0.0
 10
7.949953
 20
9.295006
 30
0.0
  0
SPLINE
  5
1ba
100
AcDbEntity
  8
Layer_1
 62
5
100
AcDbSpline
 70
8
 71
3
 72
8
 73
4
 74
0
 40
0
 40
0
 40
0
 40
0
 40
1
 40
1
 40
1
 40
1
 10
7.949953
 20
9.295006
 30
0.0
 10
7.954754
 20
9.350592
 30
0.0
 10
7.956938
 20
9.385900
 30
0.0
 10
7.959917
 20
9.414411
 30
0.0
  0
SPLINE
  5
1bb
100
AcDbEntity
  8
Layer_1
 62
5
100
AcDbSpline
 70
8
 71
3
 72
8
 73
4
 74
0
 40
0
 40
0
 40
0
 40
0
 40
1
 40
1
 40
1
 40
1
 10
7.959917
 20
9.414411
 30
0.0
 10
7.962535
 20
9.439467
 30
0.0
 10
7.965978
 20
9.461348
 30
0.0
 10
7.972938
 20
9.481637
 30
0.0
  0
LWPOLYLINE
  5
1bc
100
AcDbEntity
  8
Layer_1
 62
5
100
AcDbPolyline
 90
2
 70
0
 10
6.850464
 20
5.923182
 30
0.0
 10
7.260421
 20
5.923182
 30
0.0
  0
SPLINE
  5
1bd
100
AcDbEntity
  8
Layer_1
 62
5
100
AcDbSpline
 70
8
 71
3
 72
8
 73
4
 74
0
 40
0
 40
0
 40
0
 40
0
 40
1
 40
1
 40
1
 40
1
 10
8.254297
 20
9.481637
 30
0.0
 10
8.254401
 20
9.482516
 30
0.0
 10
8.254484
 20
9.483395
 30
0.0
 10
8.254578
 20
9.484274
 30
0.0
  0
SPLINE
  5
1be
100
AcDbEntity
  8
Layer_1
 62
5
100
AcDbSpline
 70
8
 71
3
 72
8
 73
4
 74
0
 40
0
 40
0
 40
0
 40
0
 40
1
 40
1
 40
1
 40
1
 10
8.254578
 20
9.484274
 30
0.0
 10
8.259286
 20
9.528112
 30
0.0
 10
8.274235
 20
9.573518
 30
0.0
 10
8.299663
 20
9.623047
 30
0.0
  0
SPLINE
  5
1bf
100
AcDbEntity
  8
Layer_1
 62
5
100
AcDbSpline
 70
8
 71
3
 72
8
 73
4
 74
0
 40
0
 40
0
 40
0
 40
0
 40
1
 40
1
 40
1
 40
1
 10
8.299663
 20
9.623047
 30
0.0
 10
8.323917
 20
9.670291
 30
0.0
 10
8.356382
 20
9.718755
 30
0.0
 10
8.394143
 20
9.769081
 30
0.0
  0
SPLINE
  5
1c0
100
AcDbEntity
  8
Layer_1
 62
5
100
AcDbSpline
 70
8
 71
3
 72
8
 73
4
 74
0
 40
0
 40
0
 40
0
 40
0
 40
1
 40
1
 40
1
 40
1
 10
8.394143
 20
9.769081
 30
0.0
 10
8.447590
 20
9.840315
 30
0.0
 10
8.524687
 20
9.931329
 30
0.0
 10
8.582025
 20
9.996946
 30
0.0
  0
SPLINE
  5
1c1
100
AcDbEntity
  8
Layer_1
 62
5
100
AcDbSpline
 70
8
 71
3
 72
8
 73
4
 74
0
 40
0
 40
0
 40
0
 40
0
 40
1
 40
1
 40
1
 40
1
 10
8.582025
 20
9.996946
 30
0.0
 10
8.582264
 20
9.997224
 30
0.0
 10
8.582514
 20
9.997502
 30
0.0
 10
8.582754
 20
9.997780
 30
0.0
  0
LWPOLYLINE
  5
1c2
100
AcDbEntity
  8
Layer_1
 62
5
100
AcDbPolyline
 90
2
 70
0
 10
7.972950
 20
9.481637
 30
0.0
 10
8.254297
 20
9.481637
 30
0.0
  0
SPLINE
  5
1c3
100
AcDbEntity
  8
Layer_1
 62
5
100
AcDbSpline
 70
8
 71
3
 72
8
 73
4
 74
0
 40
0
 40
0
 40
0
 40
0
 40
1
 40
1
 40
1
 40
1
 10
8.750319
 20
10.176774
 30
0.0
 10
8.750601
 20
10.177048
 30
0.0
 10
8.750892
 20
10.177321
 30
0.0
 10
8.751174
 20
10.177595
 30
0.0
  0
SPLINE
  5
1c4
100
AcDbEntity
  8
Layer_1
 62
5
100
AcDbSpline
 70
8
 71
3
 72
8
 73
4
 74
0
 40
0
 40
0
 40
0
 40
0
 40
1
 40
1
 40
1
 40
1
 10
8.751174
 20
10.177595
 30
0.0
 10
8.853462
 20
10.275694
 30
0.0
 10
8.953032
 20
10.345312
 30
0.0
 10
9.099335
 20
10.413833
 30
0.0
  0
SPLINE
  5
1c5
100
AcDbEntity
  8
Layer_1
 62
5
100
AcDbSpline
 70
8
 71
3
 72
8
 73
4
 74
0
 40
0
 40
0
 40
0
 40
0
 40
1
 40
1
 40
1
 40
1
 10
9.099335
 20
10.413833
 30
0.0
 10
9.197216
 20
10.459676
 30
0.0
 10
9.309653
 20
10.502055
 30
0.0
 10
9.414110
 20
10.535321
 30
0.0
  0
SPLINE
  5
1c6
100
AcDbEntity
  8
Layer_1
 62
5
100
AcDbSpline
 70
8
 71
3
 72
8
 73
4
 74
0
 40
0
 40
0
 40
0
 40
0
 40
1
 40
1
 40
1
 40
1
 10
9.414110
 20
10.535321
 30
0.0
 10
9.570337
 20
10.585073
 30
0.0
 10
9.721250
 20
10.618311
 30
0.0
 10
9.882480
 20
10.642049
 30
0.0
  0
SPLINE
  5
1c7
100
AcDbEntity
  8
Layer_1
 62
5
100
AcDbSpline
 70
8
 71
3
 72
8
 73
4
 74
0
 40
0
 40
0
 40
0
 40
0
 40
1
 40
1
 40
1
 40
1
 10
9.882480
 20
10.642049
 30
0.0
 10
10.115467
 20
10.676352
 30
0.0
 10
10.368587
 20
10.689890
 30
0.0
 10
10.534498
 20
10.689916
 30
0.0
  0
LWPOLYLINE
  5
1c8
100
AcDbEntity
  8
Layer_1
 62
5
100
AcDbPolyline
 90
3
 70
0
 10
8.582755
 20
9.997780
 30
0.0
 10
8.582859
 20
10.176836
 30
0.0
 10
8.750319
 20
10.176774
 30
0.0
  0
SPLINE
  5
1c9
100
AcDbEntity
  8
Layer_1
 62
5
100
AcDbSpline
 70
8
 71
3
 72
8
 73
4
 74
0
 40
0
 40
0
 40
0
 40
0
 40
1
 40
1
 40
1
 40
1
 10
10.534501
 20
11.240322
 30
0.0
 10
10.343257
 20
11.242619
 30
0.0
 10
10.119390
 20
11.223658
 30
0.0
 10
9.867374
 20
11.180543
 30
0.0
  0
SPLINE
  5
1ca
100
AcDbEntity
  8
Layer_1
 62
5
100
AcDbSpline
 70
8
 71
3
 72
8
 73
4
 74
0
 40
0
 40
0
 40
0
 40
0
 40
1
 40
1
 40
1
 40
1
 10
9.867374
 20
11.180543
 30
0.0
 10
9.656327
 20
11.144437
 30
0.0
 10
9.425036
 20
11.091632
 30
0.0
 10
9.191777
 20
11.011227
 30
0.0
  0
SPLINE
  5
1cb
100
AcDbEntity
  8
Layer_1
 62
5
100
AcDbSpline
 70
8
 71
3
 72
8
 73
4
 74
0
 40
0
 40
0
 40
0
 40
0
 40
1
 40
1
 40
1
 40
1
 10
9.191777
 20
11.011227
 30
0.0
 10
8.941981
 20
10.925123
 30
0.0
 10
8.691806
 20
10.805477
 30
0.0
 10
8.474214
 20
10.638855
 30
0.0
  0
SPLINE
  5
1cc
100
AcDbEntity
  8
Layer_1
 62
5
100
AcDbSpline
 70
8
 71
3
 72
8
 73
4
 74
0
 40
0
 40
0
 40
0
 40
0
 40
1
 40
1
 40
1
 40
1
 10
8.474214
 20
10.638855
 30
0.0
 10
8.304644
 20
10.509007
 30
0.0
 10
8.155454
 20
10.350298
 30
0.0
 10
8.033315
 20
10.168999
 30
0.0
  0
SPLINE
  5
1cd
100
AcDbEntity
  8
Layer_1
 62
5
100
AcDbSpline
 70
8
 71
3
 72
8
 73
4
 74
0
 40
0
 40
0
 40
0
 40
0
 40
1
 40
1
 40
1
 40
1
 10
8.033315
 20
10.168999
 30
0.0
 10
7.881260
 20
9.943291
 30
0.0
 10
7.771003
 20
9.683795
 30
0.0
 10
7.690903
 20
9.424890
 30
0.0
  0
SPLINE
  5
1ce
100
AcDbEntity
  8
Layer_1
 62
5
100
AcDbSpline
 70
8
 71
3
 72
8
 73
4
 74
0
 40
0
 40
0
 40
0
 40
0
 40
1
 40
1
 40
1
 40
1
 10
7.690903
 20
9.424890
 30
0.0
 10
7.624612
 20
9.210621
 30
0.0
 10
7.578014
 20
8.998116
 30
0.0
 10
7.541114
 20
8.798749
 30
0.0
  0
SPLINE
  5
1cf
100
AcDbEntity
  8
Layer_1
 62
5
100
AcDbSpline
 70
8
 71
3
 72
8
 73
4
 74
0
 40
0
 40
0
 40
0
 40
0
 40
1
 40
1
 40
1
 40
1
 10
7.541114
 20
8.798749
 30
0.0
 10
7.500718
 20
8.580495
 30
0.0
 10
7.471624
 20
8.378003
 30
0.0
 10
7.447428
 20
8.178836
 30
0.0
  0
SPLINE
  5
1d0
100
AcDbEntity
  8
Layer_1
 62
5
100
AcDbSpline
 70
8
 71
3
 72
8
 73
4
 74
0
 40
0
 40
0
 40
0
 40
0
 40
1
 40
1
 40
1
 40
1
 10
7.447428
 20
8.178836
 30
0.0
 10
7.422454
 20
7.973263
 30
0.0
 10
7.402982
 20
7.768827
 30
0.0
 10
7.387616
 20
7.547799
 30
0.0
  0
SPLINE
  5
1d1
100
AcDbEntity
  8
Layer_1
 62
5
100
AcDbSpline
 70
8
 71
3
 72
8
 73
4
 74
0
 40
0
 40
0
 40
0
 40
0
 40
1
 40
1
 40
1
 40
1
 10
7.387616
 20
7.547799
 30
0.0
 10
7.371124
 20
7.310555
 30
0.0
 10
7.359541
 20
7.053748
 30
0.0
 10
7.353166
 20
6.783971
 30
0.0
  0
SPLINE
  5
1d2
100
AcDbEntity
  8
Layer_1
 62
5
100
AcDbSpline
 70
8
 71
3
 72
8
 73
4
 74
0
 40
0
 40
0
 40
0
 40
0
 40
1
 40
1
 40
1
 40
1
 10
7.353166
 20
6.783971
 30
0.0
 10
7.346244
 20
6.491017
 30
0.0
 10
7.345552
 20
6.185480
 30
0.0
 10
7.351987
 20
5.884852
 30
0.0
  0
SPLINE
  5
1d3
100
AcDbEntity
  8
Layer_1
 62
5
100
AcDbSpline
 70
8
 71
3
 72
8
 73
4
 74
0
 40
0
 40
0
 40
0
 40
0
 40
1
 40
1
 40
1
 40
1
 10
7.351987
 20
5.884852
 30
0.0
 10
7.355822
 20
5.705747
 30
0.0
 10
7.362181
 20
5.528106
 30
0.0
 10
7.371153
 20
5.351580
 30
0.0
  0
SPLINE
  5
1d4
100
AcDbEntity
  8
Layer_1
 62
5
100
AcDbSpline
 70
8
 71
3
 72
8
 73
4
 74
0
 40
0
 40
0
 40
0
 40
0
 40
1
 40
1
 40
1
 40
1
 10
7.371153
 20
5.351580
 30
0.0
 10
7.371153
 20
5.350646
 30
0.0
 10
7.371257
 20
5.349712
 30
0.0
 10
7.371299
 20
5.348777
 30
0.0
  0
LWPOLYLINE
  5
1d5
100
AcDbEntity
  8
Layer_1
 62
5
100
AcDbPolyline
 90
4
 70
0
 10
10.534501
 20
10.689916
 30
0.0
 10
10.539358
 20
10.689914
 30
0.0
 10
10.539358
 20
11.240379
 30
0.0
 10
10.534501
 20
11.240327
 30
0.0
  0
SPLINE
  5
1d6
100
AcDbEntity
  8
Layer_1
 62
5
100
AcDbSpline
 70
8
 71
3
 72
8
 73
4
 74
0
 40
0
 40
0
 40
0
 40
0
 40
1
 40
1
 40
1
 40
1
 10
7.781252
 20
5.348777
 30
0.0
 10
7.781252
 20
5.349810
 30
0.0
 10
7.781148
 20
5.350842
 30
0.0
 10
7.781106
 20
5.351874
 30
0.0
  0
SPLINE
  5
1d7
100
AcDbEntity
  8
Layer_1
 62
5
100
AcDbSpline
 70
8
 71
3
 72
8
 73
4
 74
0
 40
0
 40
0
 40
0
 40
0
 40
1
 40
1
 40
1
 40
1
 10
7.781106
 20
5.351874
 30
0.0
 10
7.760253
 20
5.778605
 30
0.0
 10
7.754455
 20
6.213710
 30
0.0
 10
7.757723
 20
6.623363
 30
0.0
  0
SPLINE
  5
1d8
100
AcDbEntity
  8
Layer_1
 62
5
100
AcDbSpline
 70
8
 71
3
 72
8
 73
4
 74
0
 40
0
 40
0
 40
0
 40
0
 40
1
 40
1
 40
1
 40
1
 10
7.757723
 20
6.623363
 30
0.0
 10
7.765117
 20
7.550512
 30
0.0
 10
7.821760
 20
8.519469
 30
0.0
 10
7.929338
 20
9.176207
 30
0.0
  0
SPLINE
  5
1d9
100
AcDbEntity
  8
Layer_1
 62
5
100
AcDbSpline
 70
8
 71
3
 72
8
 73
4
 74
0
 40
0
 40
0
 40
0
 40
0
 40
1
 40
1
 40
1
 40
1
 10
6.850451
 20
5.839848
 30
0.0
 10
6.850555
 20
5.838813
 30
0.0
 10
6.850555
 20
5.837779
 30
0.0
 10
6.850607
 20
5.836745
 30
0.0
  0
SPLINE
  5
1da
100
AcDbEntity
  8
Layer_1
 62
5
100
AcDbSpline
 70
8
 71
3
 72
8
 73
4
 74
0
 40
0
 40
0
 40
0
 40
0
 40
1
 40
1
 40
1
 40
1
 10
6.850607
 20
5.836745
 30
0.0
 10
6.868113
 20
5.492314
 30
0.0
 10
6.895537
 20
5.150927
 30
0.0
 10
6.933206
 20
4.800287
 30
0.0
  0
SPLINE
  5
1db
100
AcDbEntity
  8
Layer_1
 62
5
100
AcDbSpline
 70
8
 71
3
 72
8
 73
4
 74
0
 40
0
 40
0
 40
0
 40
0
 40
1
 40
1
 40
1
 40
1
 10
6.933206
 20
4.800287
 30
0.0
 10
6.966911
 20
4.486548
 30
0.0
 10
7.008784
 20
4.164513
 30
0.0
 10
7.059647
 20
3.848692
 30
0.0
  0
SPLINE
  5
1dc
100
AcDbEntity
  8
Layer_1
 62
5
100
AcDbSpline
 70
8
 71
3
 72
8
 73
4
 74
0
 40
0
 40
0
 40
0
 40
0
 40
1
 40
1
 40
1
 40
1
 10
7.059647
 20
3.848692
 30
0.0
 10
7.107330
 20
3.552609
 30
0.0
 10
7.162951
 20
3.264206
 30
0.0
 10
7.227500
 20
2.997207
 30
0.0
  0
SPLINE
  5
1dd
100
AcDbEntity
  8
Layer_1
 62
5
100
AcDbSpline
 70
8
 71
3
 72
8
 73
4
 74
0
 40
0
 40
0
 40
0
 40
0
 40
1
 40
1
 40
1
 40
1
 10
7.227500
 20
2.997207
 30
0.0
 10
7.297809
 20
2.706380
 30
0.0
 10
7.378561
 20
2.441516
 30
0.0
 10
7.471592
 20
2.191132
 30
0.0
  0
SPLINE
  5
1de
100
AcDbEntity
  8
Layer_1
 62
5
100
AcDbSpline
 70
8
 71
3
 72
8
 73
4
 74
0
 40
0
 40
0
 40
0
 40
0
 40
1
 40
1
 40
1
 40
1
 10
7.471592
 20
2.191132
 30
0.0
 10
7.544557
 20
1.994755
 30
0.0
 10
7.624956
 20
1.805328
 30
0.0
 10
7.716338
 20
1.622955
 30
0.0
  0
SPLINE
  5
1df
100
AcDbEntity
  8
Layer_1
 62
5
100
AcDbSpline
 70
8
 71
3
 72
8
 73
4
 74
0
 40
0
 40
0
 40
0
 40
0
 40
1
 40
1
 40
1
 40
1
 10
7.716338
 20
1.622955
 30
0.0
 10
7.832253
 20
1.391619
 30
0.0
 10
7.966720
 20
1.172689
 30
0.0
 10
8.131098
 20
1.005318
 30
0.0
  0
SPLINE
  5
1e0
100
AcDbEntity
  8
Layer_1
 62
5
100
AcDbSpline
 70
8
 71
3
 72
8
 73
4
 74
0
 40
0
 40
0
 40
0
 40
0
 40
1
 40
1
 40
1
 40
1
 10
8.131098
 20
1.005318
 30
0.0
 10
8.244028
 20
0.890330
 30
0.0
 10
8.371295
 20
0.801048
 30
0.0
 10
8.510136
 20
0.739101
 30
0.0
  0
SPLINE
  5
1e1
100
AcDbEntity
  8
Layer_1
 62
5
100
AcDbSpline
 70
8
 71
3
 72
8
 73
4
 74
0
 40
0
 40
0
 40
0
 40
0
 40
1
 40
1
 40
1
 40
1
 10
8.510136
 20
0.739101
 30
0.0
 10
8.743855
 20
0.634823
 30
0.0
 10
9.008480
 20
0.605425
 30
0.0
 10
9.266693
 20
0.589076
 30
0.0
  0
SPLINE
  5
1e2
100
AcDbEntity
  8
Layer_1
 62
5
100
AcDbSpline
 70
8
 71
3
 72
8
 73
4
 74
0
 40
0
 40
0
 40
0
 40
0
 40
1
 40
1
 40
1
 40
1
 10
9.266693
 20
0.589076
 30
0.0
 10
9.477214
 20
0.575748
 30
0.0
 10
9.683496
 20
0.570332
 30
0.0
 10
9.880926
 20
0.564428
 30
0.0
  0
SPLINE
  5
1e3
100
AcDbEntity
  8
Layer_1
 62
5
100
AcDbSpline
 70
8
 71
3
 72
8
 73
4
 74
0
 40
0
 40
0
 40
0
 40
0
 40
1
 40
1
 40
1
 40
1
 10
9.880926
 20
0.564428
 30
0.0
 10
9.925653
 20
0.563091
 30
0.0
 10
9.969968
 20
0.561805
 30
0.0
 10
10.013871
 20
0.560569
 30
0.0
  0
SPLINE
  5
1e4
100
AcDbEntity
  8
Layer_1
 62
5
100
AcDbSpline
 70
8
 71
3
 72
8
 73
4
 74
0
 40
0
 40
0
 40
0
 40
0
 40
1
 40
1
 40
1
 40
1
 10
10.013871
 20
0.560569
 30
0.0
 10
10.013903
 20
0.560569
 30
0.0
 10
10.013923
 20
0.560568
 30
0.0
 10
10.013955
 20
0.560567
 30
0.0
  0
LWPOLYLINE
  5
1e5
100
AcDbEntity
  8
Layer_1
 62
5
100
AcDbPolyline
 90
2
 70
0
 10
7.371296
 20
5.348777
 30
0.0
 10
7.781252
 20
5.348777
 30
0.0
  0
SPLINE
  5
1e6
100
AcDbEntity
  8
Layer_1
 62
5
100
AcDbSpline
 70
8
 71
3
 72
8
 73
4
 74
0
 40
0
 40
0
 40
0
 40
0
 40
1
 40
1
 40
1
 40
1
 10
10.013957
 20
0.991931
 30
0.0
 10
9.801269
 20
0.991931
 30
0.0
 10
9.603689
 20
0.991685
 30
0.0
 10
9.283443
 20
0.989422
 30
0.0
  0
SPLINE
  5
1e7
100
AcDbEntity
  8
Layer_1
 62
5
100
AcDbSpline
 70
8
 71
3
 72
8
 73
4
 74
0
 40
0
 40
0
 40
0
 40
0
 40
1
 40
1
 40
1
 40
1
 10
9.283443
 20
0.989422
 30
0.0
 10
8.911937
 20
0.986798
 30
0.0
 10
8.769231
 20
0.985306
 30
0.0
 10
8.719225
 20
0.984947
 30
0.0
  0
SPLINE
  5
1e8
100
AcDbEntity
  8
Layer_1
 62
5
100
AcDbSpline
 70
8
 71
3
 72
8
 73
4
 74
0
 40
0
 40
0
 40
0
 40
0
 40
1
 40
1
 40
1
 40
1
 10
8.719225
 20
0.984947
 30
0.0
 10
8.668707
 20
0.984585
 30
0.0
 10
8.625364
 20
0.985184
 30
0.0
 10
8.585835
 20
0.993106
 30
0.0
  0
SPLINE
  5
1e9
100
AcDbEntity
  8
Layer_1
 62
5
100
AcDbSpline
 70
8
 71
3
 72
8
 73
4
 74
0
 40
0
 40
0
 40
0
 40
0
 40
1
 40
1
 40
1
 40
1
 10
8.585835
 20
0.993106
 30
0.0
 10
8.552085
 20
0.999869
 30
0.0
 10
8.520999
 20
1.011899
 30
0.0
 10
8.489248
 20
1.033437
 30
0.0
  0
SPLINE
  5
1ea
100
AcDbEntity
  8
Layer_1
 62
5
100
AcDbSpline
 70
8
 71
3
 72
8
 73
4
 74
0
 40
0
 40
0
 40
0
 40
0
 40
1
 40
1
 40
1
 40
1
 10
8.489248
 20
1.033437
 30
0.0
 10
8.447407
 20
1.061819
 30
0.0
 10
8.408171
 20
1.104290
 30
0.0
 10
8.373777
 20
1.149186
 30
0.0
  0
SPLINE
  5
1eb
100
AcDbEntity
  8
Layer_1
 62
5
100
AcDbSpline
 70
8
 71
3
 72
8
 73
4
 74
0
 40
0
 40
0
 40
0
 40
0
 40
1
 40
1
 40
1
 40
1
 10
8.373777
 20
1.149186
 30
0.0
 10
8.342190
 20
1.190417
 30
0.0
 10
8.312761
 20
1.236215
 30
0.0
 10
8.286523
 20
1.281096
 30
0.0
  0
SPLINE
  5
1ec
100
AcDbEntity
  8
Layer_1
 62
5
100
AcDbSpline
 70
8
 71
3
 72
8
 73
4
 74
0
 40
0
 40
0
 40
0
 40
0
 40
1
 40
1
 40
1
 40
1
 10
8.286523
 20
1.281096
 30
0.0
 10
8.234678
 20
1.369775
 30
0.0
 10
8.186933
 20
1.469176
 30
0.0
 10
8.145788
 20
1.563346
 30
0.0
  0
SPLINE
  5
1ed
100
AcDbEntity
  8
Layer_1
 62
5
100
AcDbSpline
 70
8
 71
3
 72
8
 73
4
 74
0
 40
0
 40
0
 40
0
 40
0
 40
1
 40
1
 40
1
 40
1
 10
8.145788
 20
1.563346
 30
0.0
 10
8.061773
 20
1.755633
 30
0.0
 10
7.985900
 20
1.970375
 30
0.0
 10
7.921799
 20
2.170556
 30
0.0
  0
SPLINE
  5
1ee
100
AcDbEntity
  8
Layer_1
 62
5
100
AcDbSpline
 70
8
 71
3
 72
8
 73
4
 74
0
 40
0
 40
0
 40
0
 40
0
 40
1
 40
1
 40
1
 40
1
 10
7.921799
 20
2.170556
 30
0.0
 10
7.791737
 20
2.576728
 30
0.0
 10
7.673055
 20
3.040349
 30
0.0
 10
7.584246
 20
3.434332
 30
0.0
  0
SPLINE
  5
1ef
100
AcDbEntity
  8
Layer_1
 62
5
100
AcDbSpline
 70
8
 71
3
 72
8
 73
4
 74
0
 40
0
 40
0
 40
0
 40
0
 40
1
 40
1
 40
1
 40
1
 10
7.584246
 20
3.434332
 30
0.0
 10
7.416129
 20
4.180144
 30
0.0
 10
7.322455
 20
4.839446
 30
0.0
 10
7.274781
 20
5.584394
 30
0.0
  0
SPLINE
  5
1f0
100
AcDbEntity
  8
Layer_1
 62
5
100
AcDbSpline
 70
8
 71
3
 72
8
 73
4
 74
0
 40
0
 40
0
 40
0
 40
0
 40
1
 40
1
 40
1
 40
1
 10
7.274781
 20
5.584394
 30
0.0
 10
7.269424
 20
5.668104
 30
0.0
 10
7.264692
 20
5.752407
 30
0.0
 10
7.260556
 20
5.837039
 30
0.0
  0
SPLINE
  5
1f1
100
AcDbEntity
  8
Layer_1
 62
5
100
AcDbSpline
 70
8
 71
3
 72
8
 73
4
 74
0
 40
0
 40
0
 40
0
 40
0
 40
1
 40
1
 40
1
 40
1
 10
7.260556
 20
5.837039
 30
0.0
 10
7.260556
 20
5.837975
 30
0.0
 10
7.260452
 20
5.838911
 30
0.0
 10
7.260421
 20
5.839848
 30
0.0
  0
LWPOLYLINE
  5
1f2
100
AcDbEntity
  8
Layer_1
 62
5
100
AcDbPolyline
 90
5
 70
0
 10
10.013957
 20
0.560567
 30
0.0
 10
10.014343
 20
0.560577
 30
0.0
 10
10.018813
 20
0.560704
 30
0.0
 10
10.018813
 20
0.991931
 30
0.0
 10
10.013957
 20
0.991931
 30
0.0
  0
SPLINE
  5
1f3
100
AcDbEntity
  8
Layer_1
 62
5
100
AcDbSpline
 70
8
 71
3
 72
8
 73
4
 74
0
 40
0
 40
0
 40
0
 40
0
 40
1
 40
1
 40
1
 40
1
 10
7.826529
 20
6.330096
 30
0.0
 10
7.826633
 20
6.329062
 30
0.0
 10
7.826633
 20
6.328028
 30
0.0
 10
7.826685
 20
6.326994
 30
0.0
  0
SPLINE
  5
1f4
100
AcDbEntity
  8
Layer_1
 62
5
100
AcDbSpline
 70
8
 71
3
 72
8
 73
4
 74
0
 40
0
 40
0
 40
0
 40
0
 40
1
 40
1
 40
1
 40
1
 10
7.826685
 20
6.326994
 30
0.0
 10
7.844192
 20
5.982563
 30
0.0
 10
7.871616
 20
5.641176
 30
0.0
 10
7.909284
 20
5.290536
 30
0.0
  0
SPLINE
  5
1f5
100
AcDbEntity
  8
Layer_1
 62
5
100
AcDbSpline
 70
8
 71
3
 72
8
 73
4
 74
0
 40
0
 40
0
 40
0
 40
0
 40
1
 40
1
 40
1
 40
1
 10
7.909284
 20
5.290536
 30
0.0
 10
7.942990
 20
4.976797
 30
0.0
 10
7.984862
 20
4.654762
 30
0.0
 10
8.035725
 20
4.338941
 30
0.0
  0
SPLINE
  5
1f6
100
AcDbEntity
  8
Layer_1
 62
5
100
AcDbSpline
 70
8
 71
3
 72
8
 73
4
 74
0
 40
0
 40
0
 40
0
 40
0
 40
1
 40
1
 40
1
 40
1
 10
8.035725
 20
4.338941
 30
0.0
 10
8.083408
 20
4.042858
 30
0.0
 10
8.139029
 20
3.754454
 30
0.0
 10
8.203578
 20
3.487456
 30
0.0
  0
SPLINE
  5
1f7
100
AcDbEntity
  8
Layer_1
 62
5
100
AcDbSpline
 70
8
 71
3
 72
8
 73
4
 74
0
 40
0
 40
0
 40
0
 40
0
 40
1
 40
1
 40
1
 40
1
 10
8.203578
 20
3.487456
 30
0.0
 10
8.273887
 20
3.196629
 30
0.0
 10
8.354640
 20
2.931765
 30
0.0
 10
8.447671
 20
2.681381
 30
0.0
  0
SPLINE
  5
1f8
100
AcDbEntity
  8
Layer_1
 62
5
100
AcDbSpline
 70
8
 71
3
 72
8
 73
4
 74
0
 40
0
 40
0
 40
0
 40
0
 40
1
 40
1
 40
1
 40
1
 10
8.447671
 20
2.681381
 30
0.0
 10
8.520635
 20
2.485004
 30
0.0
 10
8.601034
 20
2.295577
 30
0.0
 10
8.692417
 20
2.113204
 30
0.0
  0
SPLINE
  5
1f9
100
AcDbEntity
  8
Layer_1
 62
5
100
AcDbSpline
 70
8
 71
3
 72
8
 73
4
 74
0
 40
0
 40
0
 40
0
 40
0
 40
1
 40
1
 40
1
 40
1
 10
8.692417
 20
2.113204
 30
0.0
 10
8.808331
 20
1.881868
 30
0.0
 10
8.942798
 20
1.662938
 30
0.0
 10
9.107176
 20
1.495567
 30
0.0
  0
SPLINE
  5
1fa
100
AcDbEntity
  8
Layer_1
 62
5
100
AcDbSpline
 70
8
 71
3
 72
8
 73
4
 74
0
 40
0
 40
0
 40
0
 40
0
 40
1
 40
1
 40
1
 40
1
 10
9.107176
 20
1.495567
 30
0.0
 10
9.220106
 20
1.380579
 30
0.0
 10
9.347373
 20
1.291297
 30
0.0
 10
9.486215
 20
1.229350
 30
0.0
  0
SPLINE
  5
1fb
100
AcDbEntity
  8
Layer_1
 62
5
100
AcDbSpline
 70
8
 71
3
 72
8
 73
4
 74
0
 40
0
 40
0
 40
0
 40
0
 40
1
 40
1
 40
1
 40
1
 10
9.486215
 20
1.229350
 30
0.0
 10
9.719933
 20
1.125072
 30
0.0
 10
9.984558
 20
1.095673
 30
0.0
 10
10.242772
 20
1.079325
 30
0.0
  0
SPLINE
  5
1fc
100
AcDbEntity
  8
Layer_1
 62
5
100
AcDbSpline
 70
8
 71
3
 72
8
 73
4
 74
0
 40
0
 40
0
 40
0
 40
0
 40
1
 40
1
 40
1
 40
1
 10
10.242772
 20
1.079325
 30
0.0
 10
10.453293
 20
1.065996
 30
0.0
 10
10.659574
 20
1.060581
 30
0.0
 10
10.857004
 20
1.054677
 30
0.0
  0
SPLINE
  5
1fd
100
AcDbEntity
  8
Layer_1
 62
5
100
AcDbSpline
 70
8
 71
3
 72
8
 73
4
 74
0
 40
0
 40
0
 40
0
 40
0
 40
1
 40
1
 40
1
 40
1
 10
10.857004
 20
1.054677
 30
0.0
 10
10.901731
 20
1.053340
 30
0.0
 10
10.946046
 20
1.052054
 30
0.0
 10
10.989950
 20
1.050818
 30
0.0
  0
SPLINE
  5
1fe
100
AcDbEntity
  8
Layer_1
 62
5
100
AcDbSpline
 70
8
 71
3
 72
8
 73
4
 74
0
 40
0
 40
0
 40
0
 40
0
 40
1
 40
1
 40
1
 40
1
 10
10.989950
 20
1.050818
 30
0.0
 10
10.989981
 20
1.050817
 30
0.0
 10
10.990002
 20
1.050816
 30
0.0
 10
10.990033
 20
1.050816
 30
0.0
  0
LWPOLYLINE
  5
1ff
100
AcDbEntity
  8
Layer_1
 62
5
100
AcDbPolyline
 90
2
 70
0
 10
7.260418
 20
5.839848
 30
0.0
 10
6.850451
 20
5.839848
 30
0.0
  0
SPLINE
  5
200
100
AcDbEntity
  8
Layer_1
 62
5
100
AcDbSpline
 70
8
 71
3
 72
8
 73
4
 74
0
 40
0
 40
0
 40
0
 40
0
 40
1
 40
1
 40
1
 40
1
 10
10.990035
 20
1.482180
 30
0.0
 10
10.777348
 20
1.482180
 30
0.0
 10
10.579768
 20
1.481933
 30
0.0
 10
10.259522
 20
1.479671
 30
0.0
  0
SPLINE
  5
201
100
AcDbEntity
  8
Layer_1
 62
5
100
AcDbSpline
 70
8
 71
3
 72
8
 73
4
 74
0
 40
0
 40
0
 40
0
 40
0
 40
1
 40
1
 40
1
 40
1
 10
10.259522
 20
1.479671
 30
0.0
 10
9.888016
 20
1.477047
 30
0.0
 10
9.745309
 20
1.475554
 30
0.0
 10
9.695303
 20
1.475196
 30
0.0
  0
SPLINE
  5
202
100
AcDbEntity
  8
Layer_1
 62
5
100
AcDbSpline
 70
8
 71
3
 72
8
 73
4
 74
0
 40
0
 40
0
 40
0
 40
0
 40
1
 40
1
 40
1
 40
1
 10
9.695303
 20
1.475196
 30
0.0
 10
9.644785
 20
1.474833
 30
0.0
 10
9.601443
 20
1.475432
 30
0.0
 10
9.561913
 20
1.483355
 30
0.0
  0
SPLINE
  5
203
100
AcDbEntity
  8
Layer_1
 62
5
100
AcDbSpline
 70
8
 71
3
 72
8
 73
4
 74
0
 40
0
 40
0
 40
0
 40
0
 40
1
 40
1
 40
1
 40
1
 10
9.561913
 20
1.483355
 30
0.0
 10
9.528163
 20
1.490118
 30
0.0
 10
9.497077
 20
1.502148
 30
0.0
 10
9.465326
 20
1.523686
 30
0.0
  0
SPLINE
  5
204
100
AcDbEntity
  8
Layer_1
 62
5
100
AcDbSpline
 70
8
 71
3
 72
8
 73
4
 74
0
 40
0
 40
0
 40
0
 40
0
 40
1
 40
1
 40
1
 40
1
 10
9.465326
 20
1.523686
 30
0.0
 10
9.423485
 20
1.552068
 30
0.0
 10
9.384249
 20
1.594539
 30
0.0
 10
9.349855
 20
1.639435
 30
0.0
  0
SPLINE
  5
205
100
AcDbEntity
  8
Layer_1
 62
5
100
AcDbSpline
 70
8
 71
3
 72
8
 73
4
 74
0
 40
0
 40
0
 40
0
 40
0
 40
1
 40
1
 40
1
 40
1
 10
9.349855
 20
1.639435
 30
0.0
 10
9.318269
 20
1.680665
 30
0.0
 10
9.288840
 20
1.726463
 30
0.0
 10
9.262601
 20
1.771345
 30
0.0
  0
SPLINE
  5
206
100
AcDbEntity
  8
Layer_1
 62
5
100
AcDbSpline
 70
8
 71
3
 72
8
 73
4
 74
0
 40
0
 40
0
 40
0
 40
0
 40
1
 40
1
 40
1
 40
1
 10
9.262601
 20
1.771345
 30
0.0
 10
9.210756
 20
1.860024
 30
0.0
 10
9.163011
 20
1.959425
 30
0.0
 10
9.121867
 20
2.053595
 30
0.0
  0
SPLINE
  5
207
100
AcDbEntity
  8
Layer_1
 62
5
100
AcDbSpline
 70
8
 71
3
 72
8
 73
4
 74
0
 40
0
 40
0
 40
0
 40
0
 40
1
 40
1
 40
1
 40
1
 10
9.121867
 20
2.053595
 30
0.0
 10
9.037851
 20
2.245882
 30
0.0
 10
8.961978
 20
2.460623
 30
0.0
 10
8.897877
 20
2.660805
 30
0.0
  0
SPLINE
  5
208
100
AcDbEntity
  8
Layer_1
 62
5
100
AcDbSpline
 70
8
 71
3
 72
8
 73
4
 74
0
 40
0
 40
0
 40
0
 40
0
 40
1
 40
1
 40
1
 40
1
 10
8.897877
 20
2.660805
 30
0.0
 10
8.767816
 20
3.066977
 30
0.0
 10
8.649133
 20
3.530598
 30
0.0
 10
8.560324
 20
3.924581
 30
0.0
  0
SPLINE
  5
209
100
AcDbEntity
  8
Layer_1
 62
5
100
AcDbSpline
 70
8
 71
3
 72
8
 73
4
 74
0
 40
0
 40
0
 40
0
 40
0
 40
1
 40
1
 40
1
 40
1
 10
8.560324
 20
3.924581
 30
0.0
 10
8.392207
 20
4.670392
 30
0.0
 10
8.298533
 20
5.329695
 30
0.0
 10
8.250859
 20
6.074642
 30
0.0
  0
SPLINE
  5
20a
100
AcDbEntity
  8
Layer_1
 62
5
100
AcDbSpline
 70
8
 71
3
 72
8
 73
4
 74
0
 40
0
 40
0
 40
0
 40
0
 40
1
 40
1
 40
1
 40
1
 10
8.250859
 20
6.074642
 30
0.0
 10
8.245502
 20
6.158353
 30
0.0
 10
8.240771
 20
6.242656
 30
0.0
 10
8.236634
 20
6.327288
 30
0.0
  0
SPLINE
  5
20b
100
AcDbEntity
  8
Layer_1
 62
5
100
AcDbSpline
 70
8
 71
3
 72
8
 73
4
 74
0
 40
0
 40
0
 40
0
 40
0
 40
1
 40
1
 40
1
 40
1
 10
8.236634
 20
6.327288
 30
0.0
 10
8.236634
 20
6.328224
 30
0.0
 10
8.236530
 20
6.329160
 30
0.0
 10
8.236499
 20
6.330096
 30
0.0
  0
LWPOLYLINE
  5
20c
100
AcDbEntity
  8
Layer_1
 62
5
100
AcDbPolyline
 90
5
 70
0
 10
10.990035
 20
1.050816
 30
0.0
 10
10.990421
 20
1.050826
 30
0.0
 10
10.994892
 20
1.050953
 30
0.0
 10
10.994892
 20
1.482180
 30
0.0
 10
10.990035
 20
1.482180
 30
0.0
  0
LWPOLYLINE
  5
20d
100
AcDbEntity
  8
Layer_1
 62
5
100
AcDbPolyline
 90
2
 70
0
 10
8.236497
 20
6.330096
 30
0.0
 10
7.826529
 20
6.330096
 30
0.0
  0
ENDSEC
  0
SECTION
  2
OBJECTS
  0
DICTIONARY
  5
C
330
0
100
AcDbDictionary
  3
ACAD_GROUP
350
D
  3
ACAD_MLINESTYLE
350
17
  0
DICTIONARY
  5
D
330
C
100
AcDbDictionary
  0
DICTIONARY
  5
1A
330
C
100
AcDbDictionary
  0
DICTIONARY
  5
17
330
C
100
AcDbDictionary
  3
STANDARD
350
18
  0
DICTIONARY
  5
19
330
C
100
AcDbDictionary
  0
ENDSEC
  0
EOF
