0
SECTION
2
HEADER
9
$INSUNITS
70
4
9
$ACADVER
1
AC1014
9
$HANDSEED
5
FFFF
0
ENDSEC
0
SECTION
2
TABLES
0
TABLE
2
VPORT
5
8
100
AcDbSymbolTable
0
ENDTAB
0
TABLE
2
LTYPE
5
5
100
AcDbSymbolTable
70
2
0
LTYPE
5
14
100
AcDbSymbolTableRecord
100
AcDbLinetypeTableRecord
2
BYBLOCK
70
0
0
LTYPE
5
15
100
AcDbSymbolTableRecord
100
AcDbLinetypeTableRecord
2
BYLAYER
70
0
0
ENDTAB
0
TABLE
2
LAYER
5
2
100
AcDbSymbolTable
70
3
0
LAYER
5
50
100
AcDbSymbolTableRecord
100
AcDbLayerTableRecord
2
0
70
0
6
CONTINUOUS
0
LAYER
5
51
100
AcDbSymbolTableRecord
100
AcDbLayerTableRecord
2
CUTOUTS
70
0
62
1
6
CONTINUOUS
0
LAYER
5
52
100
AcDbSymbolTableRecord
100
AcDbLayerTableRecord
2
PERIMETER
70
0
62
5
6
CONTINUOUS
0
ENDTAB
0
TABLE
2
STYLE
5
3
100
AcDbSymbolTable
70
1
0
STYLE
5
11
100
AcDbSymbolTableRecord
100
AcDbTextStyleTableRecord
2
STANDARD
70
0
0
ENDTAB
0
TABLE
2
VIEW
5
6
100
AcDbSymbolTable
0
ENDTAB
0
TABLE
2
UCS
5
7
100
AcDbSymbolTable
0
ENDTAB
0
TABLE
2
APPID
5
9
100
AcDbSymbolTable
70
1
0
APPID
5
12
100
AcDbSymbolTableRecord
100
AcDbRegAppTableRecord
2
ACAD
70
0
0
ENDTAB
0
TABLE
2
DIMSTYLE
5
A
100
AcDbSymbolTable
0
ENDTAB
0
TABLE
2
BLOCK_RECORD
5
1
100
AcDbSymbolTable
70
2
0
BLOCK_RECORD
5
1F
100
AcDbSymbolTableRecord
100
AcDbBlockTableRecord
2
*MODEL_SPACE
0
BLOCK_RECORD
5
1B
100
AcDbSymbolTableRecord
100
AcDbBlockTableRecord
2
*PAPER_SPACE
0
ENDTAB
0
ENDSEC
0
SECTION
2
BLOCKS
0
BLOCK
5
20
100
AcDbEntity
100
AcDbBlockBegin
2
*MODEL_SPACE
0
ENDBLK
5
21
100
AcDbEntity
100
AcDbBlockEnd
0
BLOCK
5
1C
100
AcDbEntity
100
AcDbBlockBegin
2
*PAPER_SPACE
0
ENDBLK
5
1D
100
AcDbEntity
100
AcDbBlockEnd
0
ENDSEC
0
SECTION
2
ENTITIES
0
CIRCLE
5
100
100
AcDbEntity
8
CUTOUTS
100
AcDbCircle
10
107.29036566782462
20
35.566371430315897
30
-3.3306690738754696e-15
40
1.4249999999999829
210
0
220
0
230
1
0
CIRCLE
5
101
100
AcDbEntity
8
CUTOUTS
100
AcDbCircle
10
119.29036482969408
20
35.570856419956115
30
9.9920072216264089e-15
40
1.4249999999999829
210
0
220
0
230
1
0
CIRCLE
5
102
100
AcDbEntity
8
CUTOUTS
100
AcDbCircle
10
93.217106145365278
20
42.99768363797503
30
-4.1078251911130792e-14
40
1.4250000000000185
210
0
220
0
230
1
0
CIRCLE
5
103
100
AcDbEntity
8
CUTOUTS
100
AcDbCircle
10
-34.782884914575348
20
42.949843748479076
30
-1.7430501486614958e-13
40
1.4250000000000052
210
0
220
0
230
1
0
CIRCLE
5
104
100
AcDbEntity
8
CUTOUTS
100
AcDbCircle
10
107.30366021873084
20
-35.575199945311887
30
2.2648549702353193e-13
40
1.4249999999999829
210
0
220
0
230
1
0
CIRCLE
5
105
100
AcDbEntity
8
CUTOUTS
100
AcDbCircle
10
119.30366021873084
20
-35.575199945311887
30
2.3869795029440866e-13
40
1.4249999999999829
210
0
220
0
230
1
0
CIRCLE
5
106
100
AcDbEntity
8
CUTOUTS
100
AcDbCircle
10
-80.356570116776652
20
-0.039481941054830827
30
-8.3266726846886741e-14
40
1.4250000000000185
210
0
220
0
230
1
0
CIRCLE
5
107
100
AcDbEntity
8
CUTOUTS
100
AcDbCircle
10
-68.356570116776652
20
-0.039481941054835268
30
-6.9944050551384862e-14
40
1.4250000000000185
210
0
220
0
230
1
0
CIRCLE
5
108
100
AcDbEntity
8
CUTOUTS
100
AcDbCircle
10
-17.308711268767105
20
7.8340933935180113
30
-4.3298697960381105e-14
40
1.5250000000000008
210
0
220
0
230
1
0
CIRCLE
5
109
100
AcDbEntity
8
CUTOUTS
100
AcDbCircle
10
-17.308711268767176
20
-20.065906606481846
30
4.6629367034256575e-14
40
1.5250000000000008
210
0
220
0
230
1
0
CIRCLE
5
10A
100
AcDbEntity
8
CUTOUTS
100
AcDbCircle
10
34.591288731232851
20
-24.765906606482023
30
1.1657341758564144e-13
40
1.525000000000003
210
0
220
0
230
1
0
CIRCLE
5
10B
100
AcDbEntity
8
CUTOUTS
100
AcDbCircle
10
33.49128873123297
20
23.0340933935178
30
-3.9968028886505635e-14
40
1.525000000000003
210
0
220
0
230
1
0
CIRCLE
5
10C
100
AcDbEntity
8
CUTOUTS
100
AcDbCircle
10
-34.766820874270429
20
-43.011771502533364
30
1.0325074129013956e-13
40
1.4250000000000052
210
0
220
0
230
1
0
CIRCLE
5
10D
100
AcDbEntity
8
CUTOUTS
100
AcDbCircle
10
93.233179125729251
20
-43.011771502533733
30
2.3647750424515834e-13
40
1.4250000000000185
210
0
220
0
230
1
0
LINE
5
10E
100
AcDbEntity
8
CUTOUTS
100
AcDbLine
10
-44.907709694572333
20
-49.664481941055953
30
0
11
-114.7577096945723
21
-49.664481941055946
31
0
0
LINE
5
10F
100
AcDbEntity
8
CUTOUTS
100
AcDbLine
10
-114.75770969457231
20
-49.664481941055939
30
0
11
-114.7577096945723
21
-25.814481941052172
31
0
0
LINE
5
110
100
AcDbEntity
8
CUTOUTS
100
AcDbLine
10
-114.7577096945723
20
-25.814481941052176
30
0
11
-44.907709694572318
21
-25.814481941056062
31
0
0
LINE
5
111
100
AcDbEntity
8
CUTOUTS
100
AcDbLine
10
-44.907709694572304
20
-25.814481941056059
30
0
11
-44.907709694572333
21
-49.664481941055953
31
0
0
LINE
5
112
100
AcDbEntity
8
CUTOUTS
100
AcDbLine
10
125.00569054623341
20
-28.000380733330864
30
0
11
60.155690546233416
21
-28.00038073333085
31
0
0
LINE
5
113
100
AcDbEntity
8
CUTOUTS
100
AcDbLine
10
60.15569054623343
20
-28.000380733330857
30
0
11
60.155690546233494
21
27.986052005351794
31
0
0
LINE
5
114
100
AcDbEntity
8
CUTOUTS
100
AcDbLine
10
60.155690546233487
20
27.986052005351794
30
0
11
125.00569054623348
21
27.986052005351777
31
0
0
LINE
5
115
100
AcDbEntity
8
CUTOUTS
100
AcDbLine
10
125.00569054623348
20
27.986052005351777
30
0
11
125.00569054623342
21
-28.000380733330864
31
0
0
LINE
5
116
100
AcDbEntity
8
CUTOUTS
100
AcDbLine
10
-114.76734067584984
20
25.722658862489823
30
0
11
-114.77625459275976
21
49.572657196709145
31
0
0
LINE
5
117
100
AcDbEntity
8
CUTOUTS
100
AcDbLine
10
-114.77625459275976
20
49.572657196709145
30
0
11
-44.926259471377904
21
49.598763573906545
31
0
0
LINE
5
118
100
AcDbEntity
8
CUTOUTS
100
AcDbLine
10
-44.926259471377897
20
49.598763573906545
30
0
11
-44.917345554468007
21
25.748765239691078
31
0
0
LINE
5
119
100
AcDbEntity
8
CUTOUTS
100
AcDbLine
10
-44.917345554468007
20
25.748765239691078
30
0
11
-114.76734067584982
21
25.722658862489823
31
0
0
LINE
5
11A
100
AcDbEntity
8
PERIMETER
100
AcDbLine
10
141.79989203247149
20
-0.0098129038606087349
30
0
11
141.80016833449974
21
-7.5367601048981214e-08
31
0
0
SPLINE
5
11B
100
AcDbEntity
8
PERIMETER
100
AcDbSpline
70
0
71
3
72
38
73
34
74
0
42
0.000000001
43
0.0000000001
44
0.0000000001
40
-7.5749769931337458e-06
40
-7.5749769931337458e-06
40
-7.5749769931337458e-06
40
-7.5749769931337458e-06
40
0
40
0
40
0
40
0.053663287698407211
40
0.053663287698407211
40
0.053663287698407211
40
0.10332420218916488
40
0.10332420218916488
40
0.10332420218916488
40
0.14505745720054161
40
0.14505745720054161
40
0.14505745720054161
40
0.18786671166254418
40
0.18786671166254418
40
0.18786671166254418
40
0.23318630759943229
40
0.23318630759943229
40
0.23318630759943229
40
0.28412493172173298
40
0.28412493172173298
40
0.28412493172173298
40
0.33412246400342016
40
0.33412246400342016
40
0.33412246400342016
40
0.41436151367306528
40
0.41436151367306528
40
0.41436151367306528
40
0.46949799493861744
40
0.46949799493861744
40
0.46949799493861744
40
0.49460056334271046
40
0.49460056334271046
40
0.49460056334271046
40
0.49460056334271046
10
141.80016833449972
20
-7.5366788365727189e-08
30
0
10
141.80014852374012
20
0.00070355129649701809
30
0
10
141.80012871298047
20
0.0014071779607371937
30
0
10
141.80010890222079
20
0.0021108046251105961
30
0
10
141.65975836579574
20
4.9869968687010013
30
0
10
141.52026112976694
20
10.195506189075925
30
0
10
141.26363789457614
20
15.563665605098523
30
0
10
141.02615441032191
20
20.531451165127979
30
0
10
140.70476730136318
20
25.646909132500632
30
0
10
139.67528683041377
20
30.556281090440578
30
0
10
138.81014829110313
20
34.681941561403924
30
0
10
137.39065283887459
20
38.636023571266847
30
0
10
135.11560991287496
20
42.1902815654541
30
0
10
132.78191004919199
20
45.836178221616919
30
0
10
129.54440349293725
20
49.054428903219076
30
0
10
125.70830624822484
20
51.865309937557569
30
0
10
121.6472596523472
20
54.841021481797434
30
0
10
116.97856349904154
20
57.379613486939945
30
0
10
112.16292250786569
20
59.647491869452352
30
0
10
106.75020597131368
20
62.196557060650605
30
0
10
101.15438572681566
20
64.411527807962287
30
0
10
95.231549310080823
20
66.394817429209297
30
0
10
89.418137384508071
20
68.341465745115045
30
0
10
83.219263531825476
20
70.057037087376216
30
0
10
76.523666932865495
20
71.566392355445046
30
0
10
65.778170434258527
20
73.988696553207916
30
0
10
53.811901994482611
20
75.880380726394506
30
0
10
42.118269361842792
20
77.326138770886587
30
0
10
34.082957886566106
20
78.319595344248967
30
0
10
26.209221900386304
20
79.10190492481577
30
0
10
18.420490202398216
20
79.682188753119178
30
0
10
14.87443202563119
20
79.946380702975716
30
0
10
11.337375683671187
20
80.168490354594226
30
0
10
7.7852445798759184
20
80.349031261673858
30
0
0
SPLINE
5
11C
100
AcDbEntity
8
PERIMETER
100
AcDbSpline
70
0
71
3
72
38
73
34
74
0
42
0.000000001
43
0.0000000001
44
0.0000000001
40
0.49460056334268943
40
0.49460056334268943
40
0.49460056334268943
40
0.49460056334268943
40
0.54601404302257872
40
0.54601404302257872
40
0.54601404302257872
40
0.60276228764475637
40
0.60276228764475637
40
0.60276228764475637
40
0.64613553569377991
40
0.64613553569377991
40
0.64613553569377991
40
0.69260445869865161
40
0.69260445869865161
40
0.69260445869865161
40
0.73392824474446416
40
0.73392824474446416
40
0.73392824474446416
40
0.78496053558512191
40
0.78496053558512191
40
0.78496053558512191
40
0.82533790662302642
40
0.82533790662302642
40
0.82533790662302642
40
0.86890812515661275
40
0.86890812515661275
40
0.86890812515661275
40
0.92289034159055616
40
0.92289034159055616
40
0.92289034159055616
40
0.97260331161474189
40
0.97260331161474189
40
0.97260331161474189
40
0.99999658504733613
40
0.99999658504733613
40
0.99999658504733613
40
0.99999658504733613
10
7.785244579884889
20
80.349031261673431
30
0
10
0.50999619153641262
20
80.718803633493295
30
0
10
-6.8711231549072593
20
80.9130313531507
30
0
10
-14.280470255403639
20
80.944275919023752
30
0
10
-22.458625952460245
20
80.978762483215093
30
0
10
-30.605689502237645
20
80.817085108569827
30
0
10
-38.140795752086454
20
80.485608211045431
30
0
10
-43.899952438365972
20
80.232257119843084
30
0
10
-49.276131514997203
20
79.880517806768552
30
0
10
-54.368826291034068
20
79.426821841395679
30
0
10
-59.825001516082651
20
78.940744274442324
30
0
10
-65.001320525924186
20
78.345845651275582
30
0
10
-70.447178386979246
20
77.558802680878472
30
0
10
-75.290059403665438
20
76.85890276466688
30
0
10
-80.385610192067958
20
76.010094039651918
30
0
10
-85.78405508757325
20
74.816390660767397
30
0
10
-92.450796844712102
20
73.342241657547419
30
0
10
-99.555490648888849
20
71.313927228193705
30
0
10
-106.18578580650274
20
68.232118674446497
30
0
10
-111.43175621582067
20
65.793754152834623
30
0
10
-116.33846789209184
20
62.682499574130176
30
0
10
-120.51063936474645
20
58.878311222506909
30
0
10
-125.01272600759663
20
54.773306028693
30
0
10
-128.65316393569091
20
49.865314786603314
30
0
10
-131.46373563506035
20
44.584768730002253
30
0
10
-134.94595112272242
20
38.042327821722012
30
0
10
-137.19923230396807
20
30.98644733569153
30
0
10
-138.75475073472242
20
24.404739498519298
30
0
10
-140.18724918010923
20
18.343553685267764
30
0
10
-141.04337532068223
20
12.690398178144404
30
0
10
-141.47544834009176
20
7.6919415560109101
30
0
10
-141.71353297590758
20
4.9376484827052991
30
0
10
-141.8172897553583
20
2.3727234032003874
30
0
10
-141.78879757869427
20
-1.4234583756156383e-05
30
0
0
LINE
5
11D
100
AcDbEntity
8
PERIMETER
100
AcDbLine
10
-141.78879757869427
20
-1.4234583760597275e-05
30
0
11
-141.7893496797079
21
-0.047462001285714095
31
0
0
SPLINE
5
11E
100
AcDbEntity
8
PERIMETER
100
AcDbSpline
70
0
71
3
72
41
73
37
74
0
42
0.000000001
43
0.0000000001
44
0.0000000001
40
-0.99981397904849345
40
-0.99981397904849345
40
-0.99981397904849345
40
-0.99981397904849345
40
-0.99981375634787517
40
-0.99981375634787517
40
-0.99981375634787517
40
-0.94380668184600525
40
-0.94380668184600525
40
-0.94380668184600525
40
-0.89682371398182692
40
-0.89682371398182692
40
-0.89682371398182692
40
-0.84654582015193469
40
-0.84654582015193469
40
-0.84654582015193469
40
-0.80735381644733673
40
-0.80735381644733673
40
-0.80735381644733673
40
-0.75313286718235184
40
-0.75313286718235184
40
-0.75313286718235184
40
-0.71299228992300911
40
-0.71299228992300911
40
-0.71299228992300911
40
-0.66582197198453963
40
-0.66582197198453963
40
-0.66582197198453963
40
-0.62062594094637469
40
-0.62062594094637469
40
-0.62062594094637469
40
-0.56817049288022647
40
-0.56817049288022647
40
-0.56817049288022647
40
-0.51682362392169512
40
-0.51682362392169512
40
-0.51682362392169512
40
-0.49460056334268943
40
-0.49460056334268943
40
-0.49460056334268943
40
-0.49460056334268943
10
-141.7893496797079
20
-0.047462001285714095
30
0
10
-141.78934989668008
20
-0.047481288842026181
30
0
10
-141.78935011365141
20
-0.047500576321599652
30
0
10
-141.78935033062186
20
-0.04751986372444339
30
0
10
-141.84398183201989
20
-4.9039403071833387
30
0
10
-141.3601706198034
20
-10.586903112213273
30
0
10
-140.26402676241491
20
-16.982305936139678
30
0
10
-139.34449843346286
20
-22.347253275872227
30
0
10
-138.00012638426909
20
-28.226301137070053
30
0
10
-135.9531175944
20
-34.153507268636837
30
0
10
-133.76255162369722
20
-40.496389681946745
30
0
10
-130.71928990765383
20
-46.846624685636513
30
0
10
-126.48331778018135
20
-52.368113091407658
30
0
10
-123.18134503100124
20
-56.672155635155178
30
0
10
-119.14630403629438
20
-60.457670214636124
30
0
10
-114.53852865395554
20
-63.556131000649415
30
0
10
-108.16381106836471
20
-67.842757587650425
30
0
10
-100.7322191009787
20
-70.809960768155264
30
0
10
-93.440342749932796
20
-72.892192883205666
30
0
10
-88.042057954064177
20
-74.433700367288793
30
0
10
-82.753826456358084
20
-75.519062208895207
30
0
10
-77.796172799724758
20
-76.388058059170291
30
0
10
-71.970294967891121
20
-77.409239450754427
30
0
10
-66.591251313638139
20
-78.138768857740075
30
0
10
-61.194374327116748
20
-78.74199422738549
30
0
10
-56.0233805655281
20
-79.319971941359469
30
0
10
-50.770994293384547
20
-79.772632042614248
30
0
10
-45.076696439354478
20
-80.121915045540675
30
0
10
-38.467776618429838
20
-80.527300120281524
30
0
10
-31.271069018117164
20
-80.790202436134635
30
0
10
-23.813072950831618
20
-80.896350785875541
30
0
10
-16.512692134767555
20
-81.000255825394731
30
0
10
-9.0316844530100582
20
-80.951578092944757
30
0
10
-1.6928038446960514
20
-80.731395129374704
30
0
10
1.4834830769538065
20
-80.636099360866709
30
0
10
4.6405773317630938
20
-80.508862377374697
30
0
10
7.7852445798898984
20
-80.349031261671882
30
0
0
SPLINE
5
11F
100
AcDbEntity
8
PERIMETER
100
AcDbSpline
70
0
71
3
72
35
73
31
74
0
42
0.000000001
43
0.0000000001
44
0.0000000001
40
-0.49460056334271046
40
-0.49460056334271046
40
-0.49460056334271046
40
-0.49460056334271046
40
-0.43279718427879643
40
-0.43279718427879643
40
-0.43279718427879643
40
-0.37751946615195631
40
-0.37751946615195631
40
-0.37751946615195631
40
-0.32565468579338336
40
-0.32565468579338336
40
-0.32565468579338336
40
-0.26937782960239404
40
-0.26937782960239404
40
-0.26937782960239404
40
-0.22505858978465068
40
-0.22505858978465068
40
-0.22505858978465068
40
-0.16883732504633756
40
-0.16883732504633756
40
-0.16883732504633756
40
-0.13022640251188441
40
-0.13022640251188441
40
-0.13022640251188441
40
-0.06519996667164131
40
-0.06519996667164131
40
-0.06519996667164131
40
-0.012287359454902988
40
-0.012287359454902988
40
-0.012287359454902988
40
-0.00017353083139819842
40
-0.00017353083139819842
40
-0.00017353083139819842
40
-0.00017353083139819842
10
7.7852445798841785
20
-80.349031261672238
30
0
10
16.530712436343915
20
-79.904533394474257
30
0
10
25.198898384117854
20
-79.208282892397449
30
0
10
34.101894367230159
20
-78.252010623454737
30
0
10
42.064845744531496
20
-77.39670870087761
30
0
10
50.238165385859418
20
-76.334251801811149
30
0
10
58.254517220755417
20
-75.043818155996561
30
0
10
65.77592623116189
20
-73.833058018360049
30
0
10
73.102870908101849
20
-72.420706579633318
30
0
10
79.886227648018632
20
-70.781579728716594
30
0
10
87.246636563379525
20
-69.003014285460424
30
0
10
93.952744246612383
20
-66.961169829594013
30
0
10
100.29180078830808
20
-64.610151756722757
30
0
10
105.28394473707806
20
-62.75867424287911
30
0
10
110.098141718661
20
-60.718507686566753
30
0
10
114.73447074260389
20
-58.400033977446938
30
0
10
120.61589566191536
20
-55.458929285099323
30
0
10
126.18580796505064
20
-52.047952141197683
30
0
10
130.4496163784182
20
-47.877378261732382
30
0
10
133.37786029318187
20
-45.013164770026449
30
0
10
135.65490464968033
20
-41.785044699132229
30
0
10
137.23638533960275
20
-38.261821241018239
30
0
10
139.89982992640483
20
-32.328198081782446
30
0
10
140.65423472109873
20
-25.605096257789604
30
0
10
141.07208717948109
20
-19.042538330356734
30
0
10
141.41209755709508
20
-13.702524757962088
30
0
10
141.54967212142088
20
-8.4687447408347882
30
0
10
141.69968711073005
20
-3.4591968531141859
30
0
10
141.73403158867276
20
-2.3123094138974176
30
0
10
141.7670271253196
20
-1.1760584984790245
30
0
10
141.79874655334618
20
-0.050476206367040533
30
0
0
LINE
5
120
100
AcDbEntity
8
PERIMETER
100
AcDbLine
10
141.79874655334618
20
-0.050476206367044973
30
0
11
141.79989203247149
21
-0.0098129038606087349
31
0
0
ENDSEC
0
SECTION
2
OBJECTS
0
DICTIONARY
5
C
100
AcDbDictionary
3
ACAD_GROUP
350
D
3
ACAD_MLINESTYLE
350
17
0
DICTIONARY
5
D
100
AcDbDictionary
0
DICTIONARY
5
1A
330
C
100
AcDbDictionary
0
DICTIONARY
5
17
100
AcDbDictionary
0
ENDSEC
0
EOF
