0
SECTION
2
HEADER
9
$INSUNITS
70
4
9
$ACADVER
1
AC1014
9
$HANDSEED
5
FFFF
0
ENDSEC
0
SECTION
2
TABLES
0
TABLE
2
VPORT
5
8
100
AcDbSymbolTable
0
ENDTAB
0
TABLE
2
LTYPE
5
5
100
AcDbSymbolTable
70
2
0
LTYPE
5
14
100
AcDbSymbolTableRecord
100
AcDbLinetypeTableRecord
2
BYBLOCK
70
0
0
LTYPE
5
15
100
AcDbSymbolTableRecord
100
AcDbLinetypeTableRecord
2
BYLAYER
70
0
0
ENDTAB
0
TABLE
2
LAYER
5
2
100
AcDbSymbolTable
70
3
0
LAYER
5
50
100
AcDbSymbolTableRecord
100
AcDbLayerTableRecord
2
0
70
0
6
CONTINUOUS
0
LAYER
5
51
100
AcDbSymbolTableRecord
100
AcDbLayerTableRecord
2
CUTOUTS
70
0
62
1
6
CONTINUOUS
0
LAYER
5
52
100
AcDbSymbolTableRecord
100
AcDbLayerTableRecord
2
PERIMETER
70
0
62
5
6
CONTINUOUS
0
ENDTAB
0
TABLE
2
STYLE
5
3
100
AcDbSymbolTable
70
1
0
STYLE
5
11
100
AcDbSymbolTableRecord
100
AcDbTextStyleTableRecord
2
STANDARD
70
0
0
ENDTAB
0
TABLE
2
VIEW
5
6
100
AcDbSymbolTable
0
ENDTAB
0
TABLE
2
UCS
5
7
100
AcDbSymbolTable
0
ENDTAB
0
TABLE
2
APPID
5
9
100
AcDbSymbolTable
70
1
0
APPID
5
12
100
AcDbSymbolTableRecord
100
AcDbRegAppTableRecord
2
ACAD
70
0
0
ENDTAB
0
TABLE
2
DIMSTYLE
5
A
100
AcDbSymbolTable
0
ENDTAB
0
TABLE
2
BLOCK_RECORD
5
1
100
AcDbSymbolTable
70
2
0
BLOCK_RECORD
5
1F
100
AcDbSymbolTableRecord
100
AcDbBlockTableRecord
2
*MODEL_SPACE
0
BLOCK_RECORD
5
1B
100
AcDbSymbolTableRecord
100
AcDbBlockTableRecord
2
*PAPER_SPACE
0
ENDTAB
0
ENDSEC
0
SECTION
2
BLOCKS
0
BLOCK
5
20
100
AcDbEntity
100
AcDbBlockBegin
2
*MODEL_SPACE
0
ENDBLK
5
21
100
AcDbEntity
100
AcDbBlockEnd
0
BLOCK
5
1C
100
AcDbEntity
100
AcDbBlockBegin
2
*PAPER_SPACE
0
ENDBLK
5
1D
100
AcDbEntity
100
AcDbBlockEnd
0
ENDSEC
0
SECTION
2
ENTITIES
0
SPLINE
5
100
100
AcDbEntity
8
PERIMETER
100
AcDbSpline
70
0
71
3
72
41
73
37
74
0
42
0.000000001
43
0.0000000001
44
0.0000000001
40
-0.49478623492068058
40
-0.49478623492068058
40
-0.49478623492068058
40
-0.49478623492068058
40
-0.49460056334271046
40
-0.49460056334271046
40
-0.49460056334271046
40
-0.43277549292487166
40
-0.43277549292487166
40
-0.43277549292487166
40
-0.37745676332894157
40
-0.37745676332894157
40
-0.37745676332894157
40
-0.3255953699359454
40
-0.3255953699359454
40
-0.3255953699359454
40
-0.26910548925182526
40
-0.26910548925182526
40
-0.26910548925182526
40
-0.22480027712990244
40
-0.22480027712990244
40
-0.22480027712990244
40
-0.16860020784742683
40
-0.16860020784742683
40
-0.16860020784742683
40
-0.12998969677070527
40
-0.12998969677070527
40
-0.12998969677070527
40
-0.064994848385352633
40
-0.064994848385352633
40
-0.064994848385352633
40
-0.01200471302360611
40
-0.01200471302360611
40
-0.01200471302360611
40
0
40
0
40
0
40
7.5749769983756406e-06
40
7.5749769983756406e-06
40
7.5749769983756406e-06
40
7.5749769983756406e-06
10
-67.046850536749631
20
-40.240154496216874
30
0
10
-67.020581522759102
20
-40.238819345155349
30
0
10
-66.994312508768573
20
-40.23748419409381
30
0
10
-66.968043494778072
20
-40.236149043032285
30
0
10
-58.21950621005422
20
-39.791495168822365
30
0
10
-49.548277255941443
20
-39.094912512338254
30
0
10
-40.64201948586485
20
-38.138121429471184
30
0
10
-32.67303761548817
20
-37.282021034676511
30
0
10
-24.493348306741272
20
-36.218455383736881
30
0
10
-16.471492194599211
20
-34.926543744033182
30
0
10
-8.9509898509514585
20
-33.715374610810827
30
0
10
-1.6255410075785903
20
-32.302611410947179
30
0
10
5.1562112136861415
20
-30.663072791257314
30
0
10
12.54321624275363
20
-28.87720984111537
30
0
10
19.270769678057107
20
-26.826107788345823
30
0
10
25.630518516814718
20
-24.463115491924707
30
0
10
30.618491901267539
20
-22.609812322091017
30
0
10
35.429955117842589
20
-20.567671240099372
30
0
10
40.06222794895212
20
-18.246583138451435
30
0
10
45.938151831841445
20
-15.302340105275707
30
0
10
51.498969869952376
20
-11.886887589443267
30
0
10
55.750207700151222
20
-7.711687739670527
30
0
10
58.670888536106212
20
-4.8432464351427367
30
0
10
60.93865713367336
20
-1.610693925528579
30
0
10
62.512109553889665
20
1.9158900144279589
30
0
10
65.160774351159887
20
7.8523508926649814
30
0
10
65.907495011957479
20
14.573818683728755
30
0
10
66.322741915264345
20
21.132442830381542
30
0
10
66.661291664381608
20
26.479672494760187
30
0
10
66.798845658901129
20
31.719228537506723
30
0
10
66.948800829424869
20
36.733947414426815
30
0
10
66.982772601269829
20
37.870012846238197
30
0
10
67.015423796472476
20
38.99563051935317
30
0
10
67.046820827566833
20
40.110771414017151
30
0
10
67.046840638326515
20
40.111475040681469
30
0
10
67.046860449086196
20
40.112178667345788
30
0
10
67.046880259845835
20
40.112882294010149
30
0
0
LINE
5
101
100
AcDbEntity
8
PERIMETER
100
AcDbLine
10
67.046880259845807
20
40.112882294010163
30
0
11
67.04660398445202
21
40.122694176792457
31
0
0
LINE
5
102
100
AcDbEntity
8
PERIMETER
100
AcDbLine
10
67.04660398445202
20
40.122694176792457
30
0
11
67.04340525429096
21
40.23624572914423
31
0
0
LINE
5
103
100
AcDbEntity
8
PERIMETER
100
AcDbLine
10
67.04340525429096
20
40.23624572914423
30
0
11
56.090224188333622
21
40.236245729144585
31
0
0
LINE
5
104
100
AcDbEntity
8
PERIMETER
100
AcDbLine
10
56.090224188333622
20
40.236245729144585
30
0
11
56.090223437173243
21
40.112882675313521
31
0
0
SPLINE
5
105
100
AcDbEntity
8
PERIMETER
100
AcDbSpline
70
0
71
3
72
17
73
13
74
0
42
0.000000001
43
0.0000000001
44
0.0000000001
40
-7.044400028101891
40
-7.044400028101891
40
-7.044400028101891
40
-7.044400028101891
40
-5.4187234007302001
40
-5.4187234007302001
40
-5.4187234007302001
40
-3.5327990714415876
40
-3.5327990714415876
40
-3.5327990714415876
40
-1.6270032599889497
40
-1.6270032599889497
40
-1.6270032599889497
40
0
40
0
40
0
40
0
10
56.090223437172284
20
40.112882218636855
30
0
10
56.09022343717168
20
34.710621726134349
30
0
10
56.096494350311445
20
29.692081733452149
30
0
10
56.153950898291818
20
21.557847187524768
30
0
10
56.220604413514152
20
12.121580213835125
30
0
10
56.258519750590672
20
8.4968618701430607
30
0
10
56.267621986425098
20
7.2266886178933287
30
0
10
56.276817205563425
20
5.9435399925950776
30
0
10
56.2616057243482
20
4.8426371757530102
30
0
10
56.060394028707954
20
3.8385855049679973
30
0
10
55.888602578447717
20
2.9813416349654998
30
0
10
55.583053380288661
20
2.1917645672228847
30
0
10
55.035980823962056
20
1.3852760774955963
30
0
0
SPLINE
5
106
100
AcDbEntity
8
PERIMETER
100
AcDbSpline
70
0
71
3
72
29
73
25
74
0
42
0.000000001
43
0.0000000001
44
0.0000000001
40
-87.456384215043073
40
-87.456384215043073
40
-87.456384215043073
40
-87.456384215043073
40
-85.924808410750984
40
-85.924808410750984
40
-85.924808410750984
40
-84.518234426316141
40
-84.518234426316141
40
-84.518234426316141
40
-81.739008352783472
40
-81.739008352783472
40
-81.739008352783472
40
-76.064076197664065
40
-76.064076197664065
40
-76.064076197664065
40
-64.549449209634133
40
-64.549449209634133
40
-64.549449209634133
40
-42.751937529323634
40
-42.751937529323634
40
-42.751937529323634
40
-40.302523637723823
40
-40.302523637723823
40
-40.302523637723823
40
-40.275432471114307
40
-40.275432471114307
40
-40.275432471114307
40
-40.275432471114307
10
55.035980823962056
20
1.3852760774955963
30
0
10
54.315071229099168
20
0.32251889169409687
30
0
10
53.236304926896238
20
-0.67409399256055158
30
0
10
52.095957662956458
20
-1.5476894763326432
30
0
10
51.048699381224623
20
-2.3499714953230799
30
0
10
49.885428972771919
20
-3.0974865014497333
30
0
10
48.745449328147004
20
-3.7639439878125169
30
0
10
46.4929847707959
20
-5.080784927992104
30
0
10
43.968205942600918
20
-6.293504986110201
30
0
10
41.576286700933061
20
-7.3385967349079166
30
0
10
36.692195451842338
20
-9.4725832742028597
30
0
10
31.237766018731747
20
-11.399768090225358
30
0
10
26.153161052651761
20
-13.027920092213423
30
0
10
15.836381607144858
20
-16.331477639029369
30
0
10
4.0604142811535482
20
-19.346011895666038
30
0
10
-5.9467619355113754
20
-21.601771694969329
30
0
10
-24.89036829774852
20
-25.871929905494156
30
0
10
-41.636645214635465
20
-28.251258134914554
30
0
10
-60.558317097307238
20
-29.462169342765954
30
0
10
-62.684561736522554
20
-29.598240482791248
30
0
10
-64.82585338701702
20
-29.718439761820534
30
0
10
-66.975511215416844
20
-29.823487719591331
30
0
10
-66.999290989194392
20
-29.824649772750938
30
0
10
-67.02307076297194
20
-29.825811825910556
30
0
10
-67.046850536749488
20
-29.826973879070167
30
0
0
LINE
5
107
100
AcDbEntity
8
PERIMETER
100
AcDbLine
10
-67.046850536749474
20
-29.82697387907016
30
0
11
-67.046850536749687
21
-40.240154496216874
31
0
0
ENDSEC
0
SECTION
2
OBJECTS
0
DICTIONARY
5
C
100
AcDbDictionary
3
ACAD_GROUP
350
D
3
ACAD_MLINESTYLE
350
17
0
DICTIONARY
5
D
100
AcDbDictionary
0
DICTIONARY
5
1A
330
C
100
AcDbDictionary
0
DICTIONARY
5
17
100
AcDbDictionary
0
ENDSEC
0
EOF
