0
SECTION
2
HEADER
9
$INSUNITS
70
4
9
$ACADVER
1
AC1014
9
$HANDSEED
5
FFFF
0
ENDSEC
0
SECTION
2
TABLES
0
TABLE
2
VPORT
5
8
100
AcDbSymbolTable
0
ENDTAB
0
TABLE
2
LTYPE
5
5
100
AcDbSymbolTable
70
2
0
LTYPE
5
14
100
AcDbSymbolTableRecord
100
AcDbLinetypeTableRecord
2
BYBLOCK
70
0
0
LTYPE
5
15
100
AcDbSymbolTableRecord
100
AcDbLinetypeTableRecord
2
BYLAYER
70
0
0
ENDTAB
0
TABLE
2
LAYER
5
2
100
AcDbSymbolTable
70
3
0
LAYER
5
50
100
AcDbSymbolTableRecord
100
AcDbLayerTableRecord
2
0
70
0
6
CONTINUOUS
0
LAYER
5
51
100
AcDbSymbolTableRecord
100
AcDbLayerTableRecord
2
CUTOUTS
70
0
62
1
6
CONTINUOUS
0
LAYER
5
52
100
AcDbSymbolTableRecord
100
AcDbLayerTableRecord
2
PERIMETER
70
0
62
5
6
CONTINUOUS
0
ENDTAB
0
TABLE
2
STYLE
5
3
100
AcDbSymbolTable
70
1
0
STYLE
5
11
100
AcDbSymbolTableRecord
100
AcDbTextStyleTableRecord
2
STANDARD
70
0
0
ENDTAB
0
TABLE
2
VIEW
5
6
100
AcDbSymbolTable
0
ENDTAB
0
TABLE
2
UCS
5
7
100
AcDbSymbolTable
0
ENDTAB
0
TABLE
2
APPID
5
9
100
AcDbSymbolTable
70
1
0
APPID
5
12
100
AcDbSymbolTableRecord
100
AcDbRegAppTableRecord
2
ACAD
70
0
0
ENDTAB
0
TABLE
2
DIMSTYLE
5
A
100
AcDbSymbolTable
0
ENDTAB
0
TABLE
2
BLOCK_RECORD
5
1
100
AcDbSymbolTable
70
2
0
BLOCK_RECORD
5
1F
100
AcDbSymbolTableRecord
100
AcDbBlockTableRecord
2
*MODEL_SPACE
0
BLOCK_RECORD
5
1B
100
AcDbSymbolTableRecord
100
AcDbBlockTableRecord
2
*PAPER_SPACE
0
ENDTAB
0
ENDSEC
0
SECTION
2
BLOCKS
0
BLOCK
5
20
100
AcDbEntity
100
AcDbBlockBegin
2
*MODEL_SPACE
0
ENDBLK
5
21
100
AcDbEntity
100
AcDbBlockEnd
0
BLOCK
5
1C
100
AcDbEntity
100
AcDbBlockBegin
2
*PAPER_SPACE
0
ENDBLK
5
1D
100
AcDbEntity
100
AcDbBlockEnd
0
ENDSEC
0
SECTION
2
ENTITIES
0
SPLINE
5
100
100
AcDbEntity
8
PERIMETER
100
AcDbSpline
70
0
71
3
72
14
73
10
74
0
42
0.000000001
43
0.0000000001
44
0.0000000001
40
-1.6839597261076238
40
-1.6839597261076238
40
-1.6839597261076238
40
-1.6839597261076238
40
-0.83017949302642047
40
-0.83017949302642047
40
-0.83017949302642047
40
0
40
0
40
0
40
0.0019880303628444164
40
0.0019880303628444164
40
0.0019880303628444164
40
0.0019880303628444164
10
-22.388427412360528
20
-25.757001473679004
30
0
10
-22.897933139301585
20
-25.673540636398464
30
0
10
-23.407368368221913
20
-25.587673050749444
30
0
10
-23.916027085163186
20
-25.499293362018093
30
0
10
-24.410625135062567
20
-25.413356720727258
30
0
10
-24.905103272376028
20
-25.324938240982284
30
0
10
-25.398774813265685
20
-25.233929197053762
30
0
10
-25.399957640119059
20
-25.23371114125726
30
0
10
-25.401140466972439
20
-25.233493085460754
30
0
10
-25.402323293825777
20
-25.23327502966427
30
0
0
SPLINE
5
101
100
AcDbEntity
8
PERIMETER
100
AcDbSpline
70
0
71
3
72
14
73
10
74
0
42
0.000000001
43
0.0000000001
44
0.0000000001
40
-1.986083414644771
40
-1.986083414644771
40
-1.986083414644771
40
-1.986083414644771
40
-1.9851994868353011
40
-1.9851994868353011
40
-1.9851994868353011
40
-0.94429488235032555
40
-0.94429488235032555
40
-0.94429488235032555
40
-0.029563079610422947
40
-0.029563079610422947
40
-0.029563079610422947
40
-0.029563079610422947
10
-25.402323293825766
20
-25.233275029664064
30
0
10
-25.403521590795719
20
-25.233171530531759
30
0
10
-25.404719887765665
20
-25.233068031399437
30
0
10
-25.405918184735604
20
-25.232964532267115
30
0
10
-26.817792355715365
20
-25.11101834087663
30
0
10
-27.714629831004917
20
-25.055541371593549
30
0
10
-28.438807981928008
20
-24.979873410553388
30
0
10
-29.075224765713887
20
-24.913375463412297
30
0
10
-29.631009826393342
20
-24.825926189684708
30
0
10
-30.146333171634012
20
-24.649141116777848
30
0
0
LINE
5
102
100
AcDbEntity
8
PERIMETER
100
AcDbLine
10
-30.146333171634012
20
-24.649141116777837
30
0
11
-30.146333171633806
21
-17.502944485825736
31
0
0
SPLINE
5
103
100
AcDbEntity
8
PERIMETER
100
AcDbSpline
70
0
71
3
72
20
73
16
74
0
42
0.000000001
43
0.0000000001
44
0.0000000001
40
-26.368689422502264
40
-26.368689422502264
40
-26.368689422502264
40
-26.368689422502264
40
-26.343973884148241
40
-26.343973884148241
40
-26.343973884148241
40
-25.099073599613654
40
-25.099073599613654
40
-25.099073599613654
40
-23.911643810887593
40
-23.911643810887593
40
-23.911643810887593
40
-22.230595199603403
40
-22.230595199603403
40
-22.230595199603403
40
-22.223475474433666
40
-22.223475474433666
40
-22.223475474433666
40
-22.223475474433666
10
-30.146333171633817
20
-17.502944485825733
30
0
10
-30.168663806380643
20
-17.500546431933859
30
0
10
-30.190994441127472
20
-17.498148378041989
30
0
10
-30.213325075874302
20
-17.495750324150119
30
0
10
-31.326805211213401
20
-17.376175336589508
30
0
10
-32.480125935312778
20
-16.996454776636821
30
0
10
-33.738165676989603
20
-16.350589876492091
30
0
10
-34.938152015716121
20
-15.734529007219697
30
0
10
-36.169142359434929
20
-14.909928799579715
30
0
10
-37.447435616994575
20
-13.950805944409128
30
0
10
-39.256761613301478
20
-12.593241156165485
30
0
10
-41.56851859279621
20
-10.634986222852552
30
0
10
-43.235190506981681
20
-9.1786120457604774
30
0
10
-43.242252688147801
20
-9.1724409582196458
30
0
10
-43.24931486931392
20
-9.1662698706788177
30
0
10
-43.25637705048004
20
-9.1600987831379825
30
0
0
LINE
5
104
100
AcDbEntity
8
PERIMETER
100
AcDbLine
10
-43.256377050480054
20
-9.1600987831379772
30
0
11
-47.804404056005708
21
-9.1583989618520292
31
0
0
LINE
5
105
100
AcDbEntity
8
PERIMETER
100
AcDbLine
10
-47.804404056005708
20
-9.1583989618520274
30
0
11
-47.802813961812546
21
-4.9039568079410589
31
0
0
SPLINE
5
106
100
AcDbEntity
8
PERIMETER
100
AcDbSpline
70
0
71
3
72
20
73
16
74
0
42
0.000000001
43
0.0000000001
44
0.0000000001
40
-19.858177495426542
40
-19.858177495426542
40
-19.858177495426542
40
-19.858177495426542
40
-19.844732896083531
40
-19.844732896083531
40
-19.844732896083531
40
-15.022931545863772
40
-15.022931545863772
40
-15.022931545863772
40
-11.797023033851943
40
-11.797023033851943
40
-11.797023033851943
40
-6.9722510314835722
40
-6.9722510314835722
40
-6.9722510314835722
40
0
40
0
40
0
40
0
10
-47.802813961812532
20
-4.9039568079410589
30
0
10
-47.809774299818372
20
-4.8966991275061105
30
0
10
-47.81673463782419
20
-4.8894414470711567
30
0
10
-47.823694975830016
20
-4.8821837666362082
30
0
10
-50.31539668788681
20
-2.2840377067482365
30
0
10
-52.083705145103956
20
0.24503859417834395
30
0
10
-53.824134186663827
20
3.9611265533546458
30
0
10
-54.988531521699301
20
6.4472968097095045
30
0
10
-56.064978759449751
20
9.3031949809907477
30
0
10
-56.909914942588955
20
11.956399944948508
30
0
10
-58.173617218164679
20
15.924582652032214
30
0
10
-59.017877139696814
20
19.757762127220708
30
0
10
-59.620819606887061
20
23.853012724690874
30
0
10
-60.492106976111664
20
29.770890985966862
30
0
10
-60.835967448415659
20
36.200122993293682
30
0
10
-60.836641800405459
20
40.41427023643439
30
0
0
LINE
5
107
100
AcDbEntity
8
PERIMETER
100
AcDbLine
10
-60.836641800405459
20
40.41427023643439
30
0
11
-60.836585080028946
21
40.537621745140449
31
0
0
LINE
5
108
100
AcDbEntity
8
PERIMETER
100
AcDbLine
10
-60.836585080028946
20
40.537621745140449
30
0
11
-74.818382287433394
21
40.537621745370515
31
0
0
LINE
5
109
100
AcDbEntity
8
PERIMETER
100
AcDbLine
10
-74.818382287433394
20
40.537621745370515
30
0
11
-74.816947041940224
21
40.414272469440533
31
0
0
SPLINE
5
10A
100
AcDbEntity
8
PERIMETER
100
AcDbSpline
70
0
71
3
72
41
73
37
74
0
42
0.000000001
43
0.0000000001
44
0.0000000001
40
-0.9999965850473348
40
-0.9999965850473348
40
-0.9999965850473348
40
-0.9999965850473348
40
-0.94391549915536455
40
-0.94391549915536455
40
-0.94391549915536455
40
-0.89695140424703612
40
-0.89695140424703612
40
-0.89695140424703612
40
-0.84665754913399283
40
-0.84665754913399283
40
-0.84665754913399283
40
-0.80746347478131686
40
-0.80746347478131686
40
-0.80746347478131686
40
-0.7586688426507624
40
-0.7586688426507624
40
-0.7586688426507624
40
-0.71828661104988645
40
-0.71828661104988645
40
-0.71828661104988645
40
-0.67407869261178188
40
-0.67407869261178188
40
-0.67407869261178188
40
-0.62844917219447716
40
-0.62844917219447716
40
-0.62844917219447716
40
-0.57947188645440506
40
-0.57947188645440506
40
-0.57947188645440506
40
-0.52628680864428468
40
-0.52628680864428468
40
-0.52628680864428468
40
-0.49460056334268943
40
-0.49460056334268943
40
-0.49460056334268943
40
-0.49443283075781952
40
-0.49443283075781952
40
-0.49443283075781952
40
-0.49443283075781952
10
-74.816947041940239
20
40.414272469440533
30
0
10
-74.875277899793531
20
35.556664589749907
30
0
10
-74.393675558867443
20
29.870455871567032
30
0
10
-73.298558183283532
20
23.46922195722756
30
0
10
-72.381471868982231
20
18.108623953427244
30
0
10
-71.040208619732681
20
12.2338401321222
30
0
10
-68.997941146374515
20
6.3090775829887091
30
0
10
-66.810876653645593
20
-0.035751372129988468
30
0
10
-63.771882648948278
20
-6.3901975829488089
30
0
10
-59.539690064847512
20
-11.917032845489556
30
0
10
-56.241536235850802
20
-16.224103594552798
30
0
10
-52.210342731917208
20
-20.013543369225903
30
0
10
-47.605342803372011
20
-23.115849048658479
30
0
10
-41.872351753431538
20
-26.978062071533635
30
0
10
-35.281160495650035
20
-29.778600514593265
30
0
10
-28.704973315974062
20
-31.813135594210102
30
0
10
-23.262548562573869
20
-33.496908238819245
30
0
10
-17.864907653733695
20
-34.680515370407718
30
0
10
-12.800990700341362
20
-35.617773812553992
30
0
10
-7.2573340281319076
20
-36.643825200088713
30
0
10
-2.114047837103481
20
-37.382820842838441
30
0
10
2.9448110004669026
20
-37.997403658072798
30
0
10
8.1663484709625855
20
-38.631749723362525
30
0
10
13.359027277929641
20
-39.126311192849869
30
0
10
18.973133106889893
20
-39.516602302658313
30
0
10
24.999136949255774
20
-39.935528450294285
30
0
10
31.522041700065277
20
-40.229719668212581
30
0
10
38.374369210361024
20
-40.391635927749292
30
0
10
45.815401646287341
20
-40.567462920447205
30
0
10
53.576054528987775
20
-40.58505725140607
30
0
10
61.211988250607909
20
-40.421594045861838
30
0
10
65.761273105916302
20
-40.324207044809562
30
0
10
70.273342869202224
20
-40.162664586621005
30
0
10
74.757095116638936
20
-39.934773026816316
30
0
10
74.780826102645435
20
-39.933566873773444
30
0
10
74.804557088651947
20
-39.932360720730586
30
0
10
74.828288074658431
20
-39.931154567687713
30
0
0
LINE
5
10B
100
AcDbEntity
8
PERIMETER
100
AcDbLine
10
74.828288074658431
20
-39.931154567687713
30
0
11
74.82828807465846
21
-29.518267768986917
31
0
0
SPLINE
5
10C
100
AcDbEntity
8
PERIMETER
100
AcDbSpline
70
0
71
3
72
14
73
10
74
0
42
0.000000001
43
0.0000000001
44
0.0000000001
40
-40.332395095870446
40
-40.332395095870446
40
-40.332395095870446
40
-40.332395095870446
40
-40.302523637723802
40
-40.302523637723802
40
-40.302523637723802
40
-27.952143831959162
40
-27.952143831959162
40
-27.952143831959162
40
0
40
0
40
0
40
0
10
74.828288074658531
20
-29.518267768986917
30
0
10
74.802067848436081
20
-29.519549080449874
30
0
10
74.775847622213576
20
-29.520830391912831
30
0
10
74.749627395991084
20
-29.522111703375788
30
0
10
63.910658038741545
20
-30.05178278882811
30
0
10
52.859012284646383
20
-30.199040068777407
30
0
10
42.453823566210772
20
-30.116048262227267
30
0
10
18.904233461383292
20
-29.928216683271607
30
0
10
-5.7072673960521003
20
-28.489499869978665
30
0
10
-22.38842741236099
20
-25.757001473678933
30
0
0
ENDSEC
0
SECTION
2
OBJECTS
0
DICTIONARY
5
C
100
AcDbDictionary
3
ACAD_GROUP
350
D
3
ACAD_MLINESTYLE
350
17
0
DICTIONARY
5
D
100
AcDbDictionary
0
DICTIONARY
5
1A
330
C
100
AcDbDictionary
0
DICTIONARY
5
17
100
AcDbDictionary
0
ENDSEC
0
EOF
