0
SECTION
2
HEADER
9
$INSUNITS
70
1
9
$ACADVER
1
AC1014
9
$HANDSEED
5
FFFF
0
ENDSEC
0
SECTION
2
TABLES
0
TABLE
2
VPORT
5
8
100
AcDbSymbolTable
0
ENDTAB
0
TABLE
2
LTYPE
5
5
100
AcDbSymbolTable
70
2
0
LTYPE
5
14
100
AcDbSymbolTableRecord
100
AcDbLinetypeTableRecord
2
BYBLOCK
70
0
0
LTYPE
5
15
100
AcDbSymbolTableRecord
100
AcDbLinetypeTableRecord
2
BYLAYER
70
0
0
ENDTAB
0
TABLE
2
LAYER
5
2
100
AcDbSymbolTable
70
3
0
LAYER
5
50
100
AcDbSymbolTableRecord
100
AcDbLayerTableRecord
2
0
70
0
6
CONTINUOUS
0
LAYER
5
51
100
AcDbSymbolTableRecord
100
AcDbLayerTableRecord
2
CUTOUTS
70
0
62
1
6
CONTINUOUS
0
LAYER
5
52
100
AcDbSymbolTableRecord
100
AcDbLayerTableRecord
2
PERIMETER
70
0
62
5
6
CONTINUOUS
0
ENDTAB
0
TABLE
2
STYLE
5
3
100
AcDbSymbolTable
70
1
0
STYLE
5
11
100
AcDbSymbolTableRecord
100
AcDbTextStyleTableRecord
2
STANDARD
70
0
0
ENDTAB
0
TABLE
2
VIEW
5
6
100
AcDbSymbolTable
0
ENDTAB
0
TABLE
2
UCS
5
7
100
AcDbSymbolTable
0
ENDTAB
0
TABLE
2
APPID
5
9
100
AcDbSymbolTable
70
1
0
APPID
5
12
100
AcDbSymbolTableRecord
100
AcDbRegAppTableRecord
2
ACAD
70
0
0
ENDTAB
0
TABLE
2
DIMSTYLE
5
A
100
AcDbSymbolTable
0
ENDTAB
0
TABLE
2
BLOCK_RECORD
5
1
100
AcDbSymbolTable
70
2
0
BLOCK_RECORD
5
1F
100
AcDbSymbolTableRecord
100
AcDbBlockTableRecord
2
*MODEL_SPACE
0
BLOCK_RECORD
5
1B
100
AcDbSymbolTableRecord
100
AcDbBlockTableRecord
2
*PAPER_SPACE
0
ENDTAB
0
ENDSEC
0
SECTION
2
BLOCKS
0
BLOCK
5
20
100
AcDbEntity
100
AcDbBlockBegin
2
*MODEL_SPACE
0
ENDBLK
5
21
100
AcDbEntity
100
AcDbBlockEnd
0
BLOCK
5
1C
100
AcDbEntity
100
AcDbBlockBegin
2
*PAPER_SPACE
0
ENDBLK
5
1D
100
AcDbEntity
100
AcDbBlockEnd
0
ENDSEC
0
SECTION
2
ENTITIES
0
CIRCLE
5
100
100
AcDbEntity
8
CUTOUTS
100
AcDbCircle
10
-5.2952755905511921
20
-5.2952755905511806
30
0
40
0.056102362204724435
210
0
220
0
230
1
0
CIRCLE
5
101
100
AcDbEntity
8
CUTOUTS
100
AcDbCircle
10
5.2952755905511744
20
-5.295275590551177
30
0
40
0.056102362204723734
210
0
220
0
230
1
0
CIRCLE
5
102
100
AcDbEntity
8
CUTOUTS
100
AcDbCircle
10
-5.2952755905511877
20
5.2952755905511886
30
0
40
0.056102362204724435
210
0
220
0
230
1
0
CIRCLE
5
103
100
AcDbEntity
8
CUTOUTS
100
AcDbCircle
10
5.2952755905511797
20
5.2952755905511788
30
0
40
0.056102362204723734
210
0
220
0
230
1
0
LINE
5
104
100
AcDbEntity
8
CUTOUTS
100
AcDbLine
10
-4.0905511811023736
20
5.0748031497082691
30
0
11
-4.9507874016364131
21
5.0748031794163868
31
0
0
LINE
5
105
100
AcDbEntity
8
CUTOUTS
100
AcDbLine
10
-4.950787401636414
20
5.0748031794163868
30
0
11
-4.9507874041209172
21
5.1938975595784393
31
0
0
LINE
5
106
100
AcDbEntity
8
CUTOUTS
100
AcDbLine
10
-4.9507874041209172
20
5.1938975595784393
30
0
11
-4.0905511811023736
21
5.1938976375277122
31
0
0
LINE
5
107
100
AcDbEntity
8
CUTOUTS
100
AcDbLine
10
-4.0905511811023736
20
5.1938976375277122
30
0
11
-4.0905511811023736
21
5.0748031497082691
31
0
0
LINE
5
108
100
AcDbEntity
8
CUTOUTS
100
AcDbLine
10
-5.0748031496063106
20
-4.9507874015748028
30
0
11
-5.1938976377952866
21
-4.9507874015748028
31
0
0
LINE
5
109
100
AcDbEntity
8
CUTOUTS
100
AcDbLine
10
-5.1938976377952866
20
-4.9507874015748028
30
0
11
-5.1938976377952866
21
-4.0905511811023612
31
0
0
LINE
5
10A
100
AcDbEntity
8
CUTOUTS
100
AcDbLine
10
-5.1938976377952866
20
-4.0905511811023612
30
0
11
-5.0748031496063106
21
-4.0905511811023612
31
0
0
LINE
5
10B
100
AcDbEntity
8
CUTOUTS
100
AcDbLine
10
-5.0748031496063106
20
-4.0905511811023612
30
0
11
-5.0748031496063106
21
-4.9507874015748028
31
0
0
LINE
5
10C
100
AcDbEntity
8
CUTOUTS
100
AcDbLine
10
0.48917322834645027
20
-5.0748031496063
30
0
11
0.48917322834644955
21
-5.1938976377952759
31
0
0
LINE
5
10D
100
AcDbEntity
8
CUTOUTS
100
AcDbLine
10
0.48917322834644955
20
-5.1938976377952759
30
0
11
-0.48917322834646215
21
-5.1938976377952759
31
0
0
LINE
5
10E
100
AcDbEntity
8
CUTOUTS
100
AcDbLine
10
-0.48917322834646215
20
-5.1938976377952759
30
0
11
-0.48917322834646215
21
-5.0748031496063
31
0
0
LINE
5
10F
100
AcDbEntity
8
CUTOUTS
100
AcDbLine
10
-0.48917322834646215
20
-5.0748031496063
30
0
11
0.48917322834645027
21
-5.0748031496063
31
0
0
LINE
5
110
100
AcDbEntity
8
CUTOUTS
100
AcDbLine
10
5.1938976377952626
20
0.48917322834635446
30
0
11
5.1938976377952626
21
-0.4891732283463992
31
0
0
LINE
5
111
100
AcDbEntity
8
CUTOUTS
100
AcDbLine
10
5.1938976377952626
20
-0.4891732283463992
30
0
11
5.0748031496062715
21
-0.48917322834645305
31
0
0
LINE
5
112
100
AcDbEntity
8
CUTOUTS
100
AcDbLine
10
5.0748031496062715
20
-0.48917322834645305
30
0
11
5.0748031496062733
21
0.48917322834646215
31
0
0
LINE
5
113
100
AcDbEntity
8
CUTOUTS
100
AcDbLine
10
5.0748031496062733
20
0.48917322834646215
30
0
11
5.1938976377952626
21
0.48917322834635446
31
0
0
LINE
5
114
100
AcDbEntity
8
CUTOUTS
100
AcDbLine
10
4.0905511811023505
20
-5.1938976375277139
30
0
11
4.0905511811023505
21
-5.0748031496062982
31
0
0
LINE
5
115
100
AcDbEntity
8
CUTOUTS
100
AcDbLine
10
4.0905511811023505
20
-5.0748031496062982
30
0
11
4.95078740163639
21
-5.0748031496062982
31
0
0
LINE
5
116
100
AcDbEntity
8
CUTOUTS
100
AcDbLine
10
4.95078740163639
20
-5.0748031496062982
30
0
11
4.9507874041208932
21
-5.193897559578442
31
0
0
LINE
5
117
100
AcDbEntity
8
CUTOUTS
100
AcDbLine
10
4.9507874041208932
20
-5.193897559578442
30
0
11
4.0905511811023505
21
-5.1938976375277139
31
0
0
LINE
5
118
100
AcDbEntity
8
CUTOUTS
100
AcDbLine
10
4.0905511811023505
20
5.0748031496062946
30
0
11
4.0905511811023505
21
5.1938975748235441
31
0
0
LINE
5
119
100
AcDbEntity
8
CUTOUTS
100
AcDbLine
10
4.0905511811023505
20
5.1938975748235441
30
0
11
4.9507874041208932
21
5.1938975593639451
31
0
0
LINE
5
11A
100
AcDbEntity
8
CUTOUTS
100
AcDbLine
10
4.9507874041208932
20
5.1938975593639451
30
0
11
4.95078740163639
21
5.0748031496062946
31
0
0
LINE
5
11B
100
AcDbEntity
8
CUTOUTS
100
AcDbLine
10
4.95078740163639
20
5.0748031496062946
30
0
11
4.0905511811023505
21
5.0748031496062946
31
0
0
LINE
5
11C
100
AcDbEntity
8
CUTOUTS
100
AcDbLine
10
-5.0748031496063106
20
4.9507874015747992
30
0
11
-5.0748031496063106
21
4.0905511811023576
31
0
0
LINE
5
11D
100
AcDbEntity
8
CUTOUTS
100
AcDbLine
10
-5.0748031496063106
20
4.0905511811023576
30
0
11
-5.1938976377952866
21
4.0905511811023576
31
0
0
LINE
5
11E
100
AcDbEntity
8
CUTOUTS
100
AcDbLine
10
-5.1938976377952866
20
4.0905511811023576
30
0
11
-5.1938976377952866
21
4.9507874015747992
31
0
0
LINE
5
11F
100
AcDbEntity
8
CUTOUTS
100
AcDbLine
10
-5.1938976377952866
20
4.9507874015747992
30
0
11
-5.0748031496063106
21
4.9507874015747992
31
0
0
LINE
5
120
100
AcDbEntity
8
CUTOUTS
100
AcDbLine
10
-4.0905511811023736
20
-5.0748031497082717
30
0
11
-4.0905511811023736
21
-5.1938976375277148
31
0
0
LINE
5
121
100
AcDbEntity
8
CUTOUTS
100
AcDbLine
10
-4.0905511811023736
20
-5.1938976375277148
30
0
11
-4.9507874041209163
21
-5.1938975595784429
31
0
0
LINE
5
122
100
AcDbEntity
8
CUTOUTS
100
AcDbLine
10
-4.9507874041209172
20
-5.1938975595784429
30
0
11
-4.950787401636414
21
-5.0748031794163895
31
0
0
LINE
5
123
100
AcDbEntity
8
CUTOUTS
100
AcDbLine
10
-4.950787401636414
20
-5.0748031794163895
30
0
11
-4.0905511811023736
21
-5.0748031497082717
31
0
0
LINE
5
124
100
AcDbEntity
8
CUTOUTS
100
AcDbLine
10
-5.1938976377952866
20
0.48917322834645655
30
0
11
-5.0748031496063106
21
0.48917322834645655
31
0
0
LINE
5
125
100
AcDbEntity
8
CUTOUTS
100
AcDbLine
10
-5.0748031496063106
20
0.48917322834645655
30
0
11
-5.0748031496063106
21
-0.48917322834645582
31
0
0
LINE
5
126
100
AcDbEntity
8
CUTOUTS
100
AcDbLine
10
-5.0748031496063106
20
-0.48917322834645582
30
0
11
-5.1938976377952866
21
-0.48917322834645582
31
0
0
LINE
5
127
100
AcDbEntity
8
CUTOUTS
100
AcDbLine
10
-5.1938976377952866
20
-0.48917322834645582
30
0
11
-5.1938976377952866
21
0.48917322834645655
31
0
0
LINE
5
128
100
AcDbEntity
8
CUTOUTS
100
AcDbLine
10
-0.48917322834671878
20
5.1938976377952706
30
0
11
0.48917322834619426
21
5.1938976377952706
31
0
0
LINE
5
129
100
AcDbEntity
8
CUTOUTS
100
AcDbLine
10
0.48917322834619426
20
5.1938976377952706
30
0
11
0.48917322834619498
21
5.0748031496062973
31
0
0
LINE
5
12A
100
AcDbEntity
8
CUTOUTS
100
AcDbLine
10
0.48917322834619498
20
5.0748031496062973
30
0
11
-0.48917322834671878
21
5.0748031496062973
31
0
0
LINE
5
12B
100
AcDbEntity
8
CUTOUTS
100
AcDbLine
10
-0.48917322834671878
20
5.0748031496062973
30
0
11
-0.48917322834671878
21
5.1938976377952706
31
0
0
LINE
5
12C
100
AcDbEntity
8
CUTOUTS
100
AcDbLine
10
5.0748031496062875
20
-4.9507874015748028
30
0
11
5.0748031496062875
21
-4.0905511811023612
31
0
0
LINE
5
12D
100
AcDbEntity
8
CUTOUTS
100
AcDbLine
10
5.0748031496062875
20
-4.0905511811023612
30
0
11
5.1938976377952626
21
-4.0905511811023612
31
0
0
LINE
5
12E
100
AcDbEntity
8
CUTOUTS
100
AcDbLine
10
5.1938976377952626
20
-4.0905511811023612
30
0
11
5.1938976377952626
21
-4.9507874015748028
31
0
0
LINE
5
12F
100
AcDbEntity
8
CUTOUTS
100
AcDbLine
10
5.1938976377952626
20
-4.9507874015748028
30
0
11
5.0748031496062875
21
-4.9507874015748028
31
0
0
LINE
5
130
100
AcDbEntity
8
CUTOUTS
100
AcDbLine
10
5.0748031496062875
20
4.9507874015747992
30
0
11
5.1938976377952626
21
4.9507874015747992
31
0
0
LINE
5
131
100
AcDbEntity
8
CUTOUTS
100
AcDbLine
10
5.1938976377952626
20
4.9507874015747992
30
0
11
5.1938976377952626
21
4.0905511811023576
31
0
0
LINE
5
132
100
AcDbEntity
8
CUTOUTS
100
AcDbLine
10
5.1938976377952626
20
4.0905511811023576
30
0
11
5.0748031496062875
21
4.0905511811023576
31
0
0
LINE
5
133
100
AcDbEntity
8
CUTOUTS
100
AcDbLine
10
5.0748031496062875
20
4.0905511811023576
30
0
11
5.0748031496062875
21
4.9507874015747992
31
0
0
LINE
5
134
100
AcDbEntity
8
PERIMETER
100
AcDbLine
10
5.3937007874015626
20
5.5935039370078723
30
0
11
-5.3937007874015874
21
5.5935039370078723
31
0
0
ARC
5
135
100
AcDbEntity
8
PERIMETER
100
AcDbCircle
10
-5.3937007874015874
20
5.3937007874015714
30
0
40
0.19980314960630072
210
0
220
-0
230
1
100
AcDbArc
50
90
51
180
0
LINE
5
136
100
AcDbEntity
8
PERIMETER
100
AcDbLine
10
-5.5935039370078883
20
5.3937007874015723
30
0
11
-5.5935039370078856
21
-5.3937007874015741
31
0
0
ARC
5
137
100
AcDbEntity
8
PERIMETER
100
AcDbCircle
10
-5.3937007874015857
20
-5.3937007874015741
30
0
40
0.1998031496062993
210
0
220
0
230
1
100
AcDbArc
50
180
51
270
0
LINE
5
138
100
AcDbEntity
8
PERIMETER
100
AcDbLine
10
-5.3937007874015857
20
-5.5935039370078732
30
0
11
5.3937007874015874
21
-5.5935039370078732
31
0
0
ARC
5
139
100
AcDbEntity
8
PERIMETER
100
AcDbCircle
10
5.3937007874015874
20
-5.3937007874015741
30
0
40
0.1998031496062993
210
0
220
0
230
1
100
AcDbArc
50
270
51
360
0
LINE
5
13A
100
AcDbEntity
8
PERIMETER
100
AcDbLine
10
5.5935039370078865
20
-5.3937007874015741
30
0
11
5.5935039370078599
21
5.3937007874015741
31
0
0
ARC
5
13B
100
AcDbEntity
8
PERIMETER
100
AcDbCircle
10
5.3937007874015626
20
5.3937007874015741
30
0
40
0.19980314960629791
210
0
220
-0
230
1
100
AcDbArc
50
0
51
90
0
ENDSEC
0
SECTION
2
OBJECTS
0
DICTIONARY
5
C
100
AcDbDictionary
3
ACAD_GROUP
350
D
3
ACAD_MLINESTYLE
350
17
0
DICTIONARY
5
D
100
AcDbDictionary
0
DICTIONARY
5
1A
330
C
100
AcDbDictionary
0
DICTIONARY
5
17
100
AcDbDictionary
0
ENDSEC
0
EOF
