<?xml version="1.0" encoding="UTF-8" standalone="no"?>
<!-- Created with Inkscape (http://www.inkscape.org/) -->

<svg
   xmlns:dc="http://purl.org/dc/elements/1.1/"
   xmlns:cc="http://creativecommons.org/ns#"
   xmlns:rdf="http://www.w3.org/1999/02/22-rdf-syntax-ns#"
   xmlns:svg="http://www.w3.org/2000/svg"
   xmlns="http://www.w3.org/2000/svg"
   xmlns:sodipodi="http://sodipodi.sourceforge.net/DTD/sodipodi-0.dtd"
   xmlns:inkscape="http://www.inkscape.org/namespaces/inkscape"
   width="210mm"
   height="297mm"
   viewBox="0 0 210 297"
   version="1.1"
   id="svg8"
   inkscape:version="0.92.4 (5da689c313, 2019-01-14)"
   sodipodi:docname="Air Bending.svg">
  <defs
     id="defs2" />
  <sodipodi:namedview
     id="base"
     pagecolor="#ffffff"
     bordercolor="#666666"
     borderopacity="1.0"
     inkscape:pageopacity="0.0"
     inkscape:pageshadow="2"
     inkscape:zoom="0.98994949"
     inkscape:cx="444.28571"
     inkscape:cy="577.14286"
     inkscape:document-units="mm"
     inkscape:current-layer="layer1"
     showgrid="false"
     inkscape:window-width="1920"
     inkscape:window-height="1057"
     inkscape:window-x="3832"
     inkscape:window-y="131"
     inkscape:window-maximized="1" />
  <metadata
     id="metadata5">
    <rdf:RDF>
      <cc:Work
         rdf:about="">
        <dc:format>image/svg+xml</dc:format>
        <dc:type
           rdf:resource="http://purl.org/dc/dcmitype/StillImage" />
        <dc:title></dc:title>
      </cc:Work>
    </rdf:RDF>
  </metadata>
  <g
     inkscape:label="Layer 1"
     inkscape:groupmode="layer"
     id="layer1">
    <path
       style="fill:none;stroke:#000000;stroke-width:0.26458332;stroke-opacity:1"
       d="m 84.018545,167.29901 c -19.323877,-5.44216 -32.746342,-25.5148 -31.740222,-45.35246 6.006525,4.79465 2.585181,14.18078 8.170828,19.24664 7.209813,13.13097 23.774094,22.02617 38.534396,16.91727 13.348553,-5.25082 18.920093,-25.05834 8.462713,-35.58469 -8.135462,-8.7866 -25.965829,-6.75271 -29.6806,5.4142 -2.950116,8.94823 4.959605,20.73655 14.888013,18.7564 7.913207,-1.89547 11.271237,-14.18457 4.223235,-19.03532 -2.659863,1.15564 -10.497428,6.29274 -7.164228,-0.49505 4.905405,-5.60363 15.2056,-0.56075 14.98549,6.50048 2.44545,10.00902 -7.043532,21.6211 -17.618351,18.99134 -12.932544,-1.94895 -21.110608,-19.15389 -12.747502,-29.83762 7.86927,-12.13987 27.543933,-13.70951 36.855153,-2.4462 10.4375,11.05562 9.01869,31.00507 -3.46867,39.97831 -6.53695,5.35044 -15.27708,8.15366 -23.700255,6.9467 z m 35.454175,-35.86994 c 18.41999,-6.66898 32.05359,-26.95271 28.15853,-46.682705 -4.37309,-14.658996 -24.56654,-22.529482 -37.0578,-12.95264 -10.796122,7.629883 -8.93618,27.508138 4.14961,31.632625 8.47122,3.49593 20.72689,-2.54289 19.97083,-12.534418 -0.47506,-8.654274 -12.47306,-14.914157 -19.12619,-8.50284 -5.07719,3.363191 7.7434,13.427237 -1.66048,11.886322 -7.08545,-4.122249 -3.6159,-14.677522 2.98261,-17.42107 8.48989,-4.93806 21.68131,-0.263746 23.02238,10.082645 3.0055,13.425961 -11.44197,27.719361 -24.8093,22.982571 -14.04376,-3.85766 -22.182773,-22.598678 -13.57753,-34.918094 9.59815,-15.920521 35.59483,-17.889081 46.91701,-2.83943 8.84938,10.824807 8.25958,27.429119 -0.0811,38.368334 -6.19475,10.4422 -16.31476,19.73618 -28.88859,20.8987 z M 58.750835,115.94889 C 38.882409,112.93 27.988404,85.929643 40.381272,70.04428 50.195422,58.342015 67.40635,55.078214 81.622344,59.401598 c 6.7312,1.407919 14.158755,3.111228 18.656286,8.783509 -7.891757,0.155545 -14.311275,-6.423378 -22.322903,-5.505741 -13.526219,-2.247078 -29.599164,3.674184 -34.987864,17.057719 -5.36303,13.516941 4.680456,31.403245 19.676156,31.994255 12.71847,1.00942 24.409465,-14.491687 17.376757,-26.002814 -4.642343,-8.578705 -19.402863,-10.693594 -24.380975,-1.348639 -3.391747,6.080069 0.470481,15.872463 8.033724,15.882883 2.965447,-2.164031 6.698246,-13.472158 9.631797,-5.441074 0.181897,8.279754 -10.847661,11.629324 -16.786019,6.991784 -8.79109,-4.51318 -11.062609,-18.556665 -2.625421,-24.585699 9.073293,-8.479286 26.827074,-5.884449 30.931925,6.585831 5.615648,13.204313 -3.847793,30.813038 -18.571105,31.844058 -2.476037,0.4082 -5.003678,0.51669 -7.503867,0.29122 z"
       id="path826"
       inkscape:connector-curvature="0" />
  </g>
</svg>
