<?xml version="1.0" encoding="UTF-8" standalone="no"?>
<!-- Created with Inkscape (http://www.inkscape.org/) -->

<svg
   xmlns:dc="http://purl.org/dc/elements/1.1/"
   xmlns:cc="http://creativecommons.org/ns#"
   xmlns:rdf="http://www.w3.org/1999/02/22-rdf-syntax-ns#"
   xmlns:svg="http://www.w3.org/2000/svg"
   xmlns="http://www.w3.org/2000/svg"
   xmlns:sodipodi="http://sodipodi.sourceforge.net/DTD/sodipodi-0.dtd"
   xmlns:inkscape="http://www.inkscape.org/namespaces/inkscape"
   width="210mm"
   height="297mm"
   viewBox="0 0 210 297"
   version="1.1"
   id="svg8"
   inkscape:version="0.92.4 (5da689c313, 2019-01-14)"
   sodipodi:docname="Logo.svg">
  <defs
     id="defs2" />
  <sodipodi:namedview
     id="base"
     pagecolor="#ffffff"
     bordercolor="#666666"
     borderopacity="1.0"
     inkscape:pageopacity="0.0"
     inkscape:pageshadow="2"
     inkscape:zoom="1.4"
     inkscape:cx="355.73425"
     inkscape:cy="702.53481"
     inkscape:document-units="mm"
     inkscape:current-layer="layer1"
     showgrid="false"
     inkscape:window-width="1536"
     inkscape:window-height="841"
     inkscape:window-x="-8"
     inkscape:window-y="712"
     inkscape:window-maximized="1" />
  <metadata
     id="metadata5">
    <rdf:RDF>
      <cc:Work
         rdf:about="">
        <dc:format>image/svg+xml</dc:format>
        <dc:type
           rdf:resource="http://purl.org/dc/dcmitype/StillImage" />
        <dc:title></dc:title>
      </cc:Work>
    </rdf:RDF>
  </metadata>
  <g
     inkscape:label="Layer 1"
     inkscape:groupmode="layer"
     id="layer1">
    <path
       style="fill:none;stroke-width:0.35277778;stroke-miterlimit:4;stroke-dasharray:none;stroke:#000000;stroke-opacity:1"
       d="m 58.297156,118.42487 c -5.148127,-0.66837 -8.836927,-2.98475 -9.948553,-6.2472 -0.588817,-1.72808 -0.542176,-4.50301 0.104749,-6.23206 0.601244,-1.60697 2.423969,-3.54037 4.151013,-4.40304 2.596706,-1.29709 4.973596,-1.728903 9.478222,-1.721913 6.064755,0.009 9.499269,0.987163 11.895288,3.386413 1.652297,1.65453 2.100945,2.80249 2.214523,5.66631 0.09237,2.32913 0.05125,2.56258 -0.731351,4.15227 -0.85894,1.74476 -1.950847,2.81002 -3.85346,3.75942 -3.263321,1.62838 -8.46368,2.26905 -13.310431,1.6398 z"
       id="path918" />
    <path
       style="fill:none;stroke-width:0.35277778;stroke-miterlimit:4;stroke-dasharray:none;stroke:#000000;stroke-opacity:1"
       d="m 65.52217,114.06256 c 1.546106,-0.79035 2.338581,-2.49389 2.322481,-4.99249 -0.02265,-3.51433 -1.483662,-5.14142 -4.831763,-5.38098 -2.364779,-0.16919 -4.22253,0.29226 -5.259974,1.30656 -0.987896,0.96585 -1.355426,2.16673 -1.357392,4.43517 -0.0024,2.75806 1.03718,4.30804 3.396472,5.06407 1.272283,0.4077 4.574222,0.15858 5.730176,-0.43233 z"
       id="path912" />
    <path
       style="fill:none;stroke:#000000;stroke-width:0.35277778;stroke-miterlimit:4;stroke-dasharray:none;stroke-opacity:1"
       d="m 16.423059,100.81148 c 0,-0.16962 2.757536,-0.35907 7.176476,-0.35907 h 6.892994 l -0.07997,1.38771 -0.07997,1.3877 -1.455208,0.2293 c -0.800365,0.12612 -1.542682,0.36485 -1.649595,0.53052 -0.106912,0.16568 -0.196209,0.9263 -0.198437,1.69029 l -0.0041,1.38906 h 4.894792 4.894792 v -1.57188 c 0,-0.86454 -0.116227,-1.64372 -0.25828,-1.73152 -0.142054,-0.0878 -0.858382,-0.23069 -1.591838,-0.31756 -1.448757,-0.17158 -1.722047,-0.5436 -1.543979,-2.10176 l 0.08681,-0.75957 h 7.14375 7.14375 l 0.0868,0.75957 c 0.178068,1.55816 -0.09522,1.93018 -1.543978,2.10176 -0.733457,0.0869 -1.449785,0.22977 -1.591837,0.31756 -0.345807,0.21373 -0.345807,10.62641 0,10.84013 0.142052,0.0878 0.85838,0.2307 1.591837,0.31757 1.448758,0.17158 1.722046,0.5436 1.543978,2.10175 l -0.0868,0.75958 h -7.14375 -7.14375 l -0.01646,-1.12311 c -0.0091,-0.61771 0.05048,-1.22448 0.132291,-1.34837 0.08182,-0.1239 0.739257,-0.30426 1.460982,-0.40079 0.721725,-0.0965 1.400054,-0.26368 1.507397,-0.37142 0.107343,-0.10774 0.231216,-0.85074 0.275273,-1.65111 l 0.0801,-1.4552 -4.960937,-0.072 -4.960938,-0.072 0.0041,1.3949 c 0.0022,0.76719 0.11451,1.56955 0.249516,1.78301 0.142437,0.22521 0.83481,0.44731 1.649594,0.52917 l 1.404131,0.14105 0.07882,1.3559 c 0.05459,0.93909 -0.02674,1.38641 -0.264584,1.4552 -0.188873,0.0546 -3.290203,0.0675 -6.891843,0.0285 l -5e-6,5e-5 c -4.063597,-0.0439 -6.548438,-0.16941 -6.584869,-0.59344 -0.474086,-0.14541 -0.314361,-1.58616 -0.314361,-1.90065 0,-0.30692 0.595727,-0.47785 1.217962,-0.47785 0.476943,0 1.131787,-0.18534 1.455208,-0.41188 0.570646,-0.39969 0.588038,-0.5528 0.588038,-5.17677 0,-2.67885 -0.116134,-4.98188 -0.265271,-5.26055 -0.170032,-0.31771 -0.692492,-0.55973 -1.455209,-0.67411 -0.672788,-0.10089 -1.473419,-0.2262 -1.473419,-0.41127 z"
       id="path922" />
    <path
       style="fill:none;stroke-width:0.35277778;stroke-miterlimit:4;stroke-dasharray:none;stroke:#000000;stroke-opacity:1"
       d="m 76.554697,116.52582 0.07997,-1.38907 1.424393,-0.17384 c 0.783415,-0.0956 1.525733,-0.33374 1.649595,-0.52917 0.384775,-0.6071 0.288763,-10.16637 -0.105397,-10.4935 -0.186285,-0.1546 -0.930426,-0.37979 -1.653646,-0.50041 l -1.314945,-0.21931 -0.07997,-1.38407 -0.07997,-1.38407 h 6.737922 6.737914 l 1.2996,1.65364 c 0.71478,0.90951 2.6482,3.43959 4.29648,5.6224 1.64828,2.18281 3.09778,4.08186 3.2211,4.2201 0.281768,0.31587 0.291188,-7.54151 0.01,-7.98482 -0.1136,-0.17882 -0.85592,-0.41808 -1.6496,-0.53168 l -1.44305,-0.20655 -0.08,-1.38655 -0.08,-1.38654 h 5.848487 5.84849 l -0.08,1.38692 -0.08,1.38692 -1.272,0.18082 c -2.12649,0.3023 -2.03529,-0.041 -2.03529,7.66107 v 6.84677 h -5.021597 -5.02161 l -1.52683,-1.9401 c -0.83976,-1.06706 -2.83652,-3.66976 -4.43725,-5.78379 l -2.91042,-3.84369 -0.0733,3.97748 c -0.0404,2.18985 0.0365,4.08732 0.17109,4.22186 0.1344,0.13441 0.88175,0.32217 1.66078,0.41725 l 1.41641,0.17286 0.08,1.38907 0.08,1.38906 h -5.848488 -5.848488 z"
       id="path908" />
    <path
       style="fill:none;stroke-width:0.35277778;stroke-miterlimit:4;stroke-dasharray:none;stroke:#000000;stroke-opacity:1"
       d="m 107.98779,116.62022 c 0,-1.37747 0.22041,-1.61581 1.49424,-1.61581 0.36147,0 0.88752,-0.12325 1.16899,-0.27389 0.47894,-0.25632 0.51151,-0.60002 0.50772,-5.35781 -0.002,-2.79616 -0.10304,-5.24001 -0.22402,-5.43078 -0.12098,-0.19078 -0.80377,-0.42987 -1.5173,-0.53131 l -1.29734,-0.18445 -0.08,-1.38692 -0.08,-1.38692 h 10.0124 c 8.03215,0 10.31281,0.0782 11.53127,0.39561 4.47621,1.16591 6.76795,3.64739 7.00306,7.58287 0.27702,4.63698 -2.13807,7.89131 -6.72914,9.06752 -1.33964,0.34321 -3.39973,0.4165 -11.70782,0.4165 h -10.08212 z"
       id="path904" />
    <path
       style="fill:none;stroke-width:0.35277778;stroke-miterlimit:4;stroke-dasharray:none;stroke:#000000;stroke-opacity:1"
       d="m 125.99152,113.63006 c 1.43436,-0.62006 1.92234,-1.5865 2.0532,-4.06634 0.0955,-1.80987 0.0253,-2.30443 -0.46276,-3.26116 -0.81214,-1.59191 -1.78253,-1.94351 -5.76969,-2.09048 l -3.24114,-0.11947 v 5.09097 5.09096 l 3.24114,-0.11947 c 2.08468,-0.0768 3.57587,-0.26417 4.17925,-0.52501 z"
       id="path898" />
    <path
       style="fill:none;stroke:#000000;stroke-width:0.35277778;stroke-miterlimit:4;stroke-dasharray:none;stroke-opacity:1"
       d="m 159.56777,117.91483 h -7.42217 l 0.08,-1.38771 0.08,-1.3877 1.38906,-0.21998 c 1.47851,-0.23414 1.73365,-0.62934 1.01649,-1.5745 -0.32242,-0.42493 -0.83497,-0.46211 -5.47179,-0.39688 l -5.11605,0.072 -0.39972,0.7126 c -0.48757,0.8692 -0.39918,0.96983 1.07099,1.21937 l 1.16102,0.19705 0.08,1.38289 0.08,1.38288 h -5.7162 -5.7162 l 0.0798,-1.38908 0.08,-1.38907 1.25982,-0.14479 c 0.69291,-0.0796 1.46047,-0.34543 1.70569,-0.59066 0.97929,-0.97928 6.37779,-10.11746 6.13038,-10.37705 -0.13869,-0.14552 -0.99184,-0.38399 -1.8959,-0.52993 l -1.64374,-0.26535 v -1.32215 -1.32215 h 7.27604 7.27604 l 4.6545,7.01146 4.65449,7.01146 1.36478,0.23565 c 0.57193,0.0987 1.16815,0.088 1.16232,0.31448 0,0 0.0743,0.75389 -9.7e-4,2.1902 0.20345,0.47248 -2.447,0.56696 -7.21871,0.56696 z"
       id="path896" />
    <path
       style="fill:none;stroke-width:0.35277778;stroke-miterlimit:4;stroke-dasharray:none;stroke:#000000;stroke-opacity:1"
       d="m 151.74157,108.8529 c -0.10906,-0.1819 -0.72185,-1.15193 -1.36176,-2.15561 l -1.16348,-1.82489 -1.01155,1.59983 c -1.88798,2.98597 -1.99576,2.7114 1.06432,2.7114 2.06597,0 2.62585,-0.0749 2.47247,-0.33073 z"
       id="path826" />
  </g>
</svg>
