  0
SECTION
  2
HEADER
  9
$ACADVER
  1
AC1014
  9
$HANDSEED
  5
FFFF
  9
$MEASUREMENT
 70
     1
  0
ENDSEC
  0
SECTION
  2
TABLES
  0
TABLE
  2
VPORT
  5
8
330
0
100
AcDbSymbolTable
 70
     4
  0
VPORT
  5
2E
330
8
100
AcDbSymbolTableRecord
100
AcDbViewportTableRecord
  2
*ACTIVE
 70
     0
 10
0.0
 20
0.0
 11
1.0
 21
1.0
 12
210.0
 22
148.5
 13
0.0
 23
0.0
 14
10.0
 24
10.0
 15
10.0
 25
10.0
 16
0.0
 26
0.0
 36
1.0
 17
0.0
 27
0.0
 37
0.0
 40
341.0
 41
1.24
 42
50.0
 43
0.0
 44
0.0
 50
0.0
 51
0.0
 71
     0
 72
   100
 73
     1
 74
     3
 75
     0
 76
     0
 77
     0
 78
     0
  0
ENDTAB
  0
TABLE
  2
LTYPE
  5
5
330
0
100
AcDbSymbolTable
 70
     1
  0
LTYPE
  5
14
330
5
100
AcDbSymbolTableRecord
100
AcDbLinetypeTableRecord
  2
BYBLOCK
 70
     0
  3

 72
    65
 73
     0
 40
0.0
  0
LTYPE
  5
15
330
5
100
AcDbSymbolTableRecord
100
AcDbLinetypeTableRecord
  2
BYLAYER
 70
     0
  3

 72
    65
 73
     0
 40
0.0
  0
LTYPE
  5
16
330
5
100
AcDbSymbolTableRecord
100
AcDbLinetypeTableRecord
  2
CONTINUOUS
 70
     0
  3
Solid line
 72
    65
 73
     0
 40
0.0
  0
ENDTAB
  0
TABLE
  2
LAYER
  5
2
100
AcDbSymbolTable
 70
2
  0
LAYER
  5
50
100
AcDbSymbolTableRecord
100
AcDbLayerTableRecord
  2
0
 70
0
  6
CONTINUOUS
  0
LAYER
  5
51
100
AcDbSymbolTableRecord
100
AcDbLayerTableRecord
  2
Layer_1
 70
0
  6
CONTINUOUS
  0
ENDTAB
  0
TABLE
  2
STYLE
  5
3
330
0
100
AcDbSymbolTable
 70
     1
  0
STYLE
  5
11
330
3
100
AcDbSymbolTableRecord
100
AcDbTextStyleTableRecord
  2
STANDARD
 70
     0
 40
0.0
 41
1.0
 50
0.0
 71
     0
 42
2.5
  3
txt
  4

  0
ENDTAB
  0
TABLE
  2
VIEW
  5
6
330
0
100
AcDbSymbolTable
 70
     0
  0
ENDTAB
  0
TABLE
  2
UCS
  5
7
330
0
100
AcDbSymbolTable
 70
     0
  0
ENDTAB
  0
TABLE
  2
APPID
  5
9
330
0
100
AcDbSymbolTable
 70
     2
  0
APPID
  5
12
330
9
100
AcDbSymbolTableRecord
100
AcDbRegAppTableRecord
  2
ACAD
 70
     0
  0
ENDTAB
  0
TABLE
  2
DIMSTYLE
  5
A
330
0
100
AcDbSymbolTable
 70
     1
  0
DIMSTYLE
105
27
330
A
100
AcDbSymbolTableRecord
100
AcDbDimStyleTableRecord
  2
ISO-25
 70
     0
  3

  4

  5

  6

  7

 40
1.0
 41
2.5
 42
0.625
 43
3.75
 44
1.25
 45
0.0
 46
0.0
 47
0.0
 48
0.0
140
2.5
141
2.5
142
0.0
143
0.03937007874016
144
1.0
145
0.0
146
1.0
147
0.625
 71
     0
 72
     0
 73
     0
 74
     0
 75
     0
 76
     0
 77
     1
 78
     8
170
     0
171
     3
172
     1
173
     0
174
     0
175
     0
176
     0
177
     0
178
     0
270
     2
271
     2
272
     2
273
     2
274
     3
340
11
275
     0
280
     0
281
     0
282
     0
283
     0
284
     8
285
     0
286
     0
287
     3
288
     0
  0
ENDTAB
  0
TABLE
  2
BLOCK_RECORD
  5
1
330
0
100
AcDbSymbolTable
 70
     1
  0
BLOCK_RECORD
  5
1F
330
1
100
AcDbSymbolTableRecord
100
AcDbBlockTableRecord
  2
*MODEL_SPACE
  0
BLOCK_RECORD
  5
1B
330
1
100
AcDbSymbolTableRecord
100
AcDbBlockTableRecord
  2
*PAPER_SPACE
  0
ENDTAB
  0
ENDSEC
  0
SECTION
  2
BLOCKS
  0
BLOCK
  5
20
330
1F
100
AcDbEntity
  8
0
100
AcDbBlockBegin
  2
*MODEL_SPACE
 70
     0
 10
0.0
 20
0.0
 30
0.0
  3
*MODEL_SPACE
  1

  0
ENDBLK
  5
21
330
1F
100
AcDbEntity
  8
0
100
AcDbBlockEnd
  0
BLOCK
  5
1C
330
1B
100
AcDbEntity
 67
     1
  8
0
100
AcDbBlockBegin
  2
*PAPER_SPACE
  1

  0
ENDBLK
  5
1D
330
1B
100
AcDbEntity
 67
     1
  8
0
100
AcDbBlockEnd
  0
ENDSEC
  0
SECTION
  2
ENTITIES
  0
SPLINE
  5
100
100
AcDbEntity
  8
Layer_1
 62
7
100
AcDbSpline
 70
0
 71
3
 72
34
 73
30
 74
28
 40
0.000000
 40
0.000000
 40
0.000000
 40
0.000000
 40
0.192306
 40
0.375035
 40
0.533912
 40
0.610180
 40
0.678476
 40
0.749851
 40
0.804300
 40
0.849409
 40
0.918645
 40
1.012665
 40
1.085545
 40
1.165314
 40
1.299513
 40
1.456997
 40
1.664026
 40
1.816995
 40
1.936459
 40
2.046861
 40
2.128391
 40
2.213404
 40
2.289030
 40
2.369706
 40
2.457607
 40
2.537725
 40
2.675548
 40
2.833563
 40
3.021417
 40
3.021417
 40
3.021417
 40
3.021417
 10
2.295164
 20
7.030517
 30
0.0
 10
2.359210
 20
7.025451
 30
0.0
 10
2.484113
 20
7.015572
 30
0.0
 10
2.661810
 20
7.037663
 30
0.0
 10
2.796143
 20
7.079279
 30
0.0
 10
2.883790
 20
7.130897
 30
0.0
 10
2.936572
 20
7.181277
 30
0.0
 10
2.968743
 20
7.237784
 30
0.0
 10
2.994367
 20
7.289118
 30
0.0
 10
3.003271
 20
7.345379
 30
0.0
 10
2.999049
 20
7.414755
 30
0.0
 10
2.995469
 20
7.493833
 30
0.0
 10
2.965728
 20
7.572337
 30
0.0
 10
2.902104
 20
7.645220
 30
0.0
 10
2.798956
 20
7.717767
 30
0.0
 10
2.634716
 20
7.757752
 30
0.0
 10
2.462293
 20
7.764674
 30
0.0
 10
2.302200
 20
7.761299
 30
0.0
 10
2.175871
 20
7.739875
 30
0.0
 10
2.077772
 20
7.703089
 30
0.0
 10
2.000826
 20
7.650733
 30
0.0
 10
1.945165
 20
7.591635
 30
0.0
 10
1.902493
 20
7.521990
 30
0.0
 10
1.887514
 20
7.440691
 30
0.0
 10
1.885880
 20
7.357791
 30
0.0
 10
1.902264
 20
7.255803
 30
0.0
 10
1.977489
 20
7.148610
 30
0.0
 10
2.119437
 20
7.064177
 30
0.0
 10
2.233313
 20
7.042364
 30
0.0
 10
2.295164
 20
7.030517
 30
0.0
 11
2.295164
 21
7.030517
 31
0.0
 11
2.487281
 21
7.021997
 31
0.0
 11
2.668639
 21
7.044340
 31
0.0
 11
2.819196
 21
7.095076
 31
0.0
 11
2.884306
 21
7.134796
 31
0.0
 11
2.933191
 21
7.182489
 31
0.0
 11
2.970907
 21
7.243085
 31
0.0
 11
2.992874
 21
7.292906
 31
0.0
 11
3.000699
 21
7.337331
 31
0.0
 11
2.999701
 21
7.406560
 31
0.0
 11
2.989565
 21
7.500031
 31
0.0
 11
2.963036
 21
7.567911
 31
0.0
 11
2.912515
 21
7.629643
 31
0.0
 11
2.802234
 21
7.706111
 31
0.0
 11
2.650770
 21
7.749234
 31
0.0
 11
2.444196
 21
7.762966
 31
0.0
 11
2.291349
 21
7.756861
 31
0.0
 11
2.173809
 21
7.735508
 31
0.0
 11
2.071038
 21
7.695174
 31
0.0
 11
2.003709
 21
7.649197
 31
0.0
 11
1.945393
 21
7.587340
 31
0.0
 11
1.907612
 21
7.521826
 31
0.0
 11
1.890072
 21
7.443080
 31
0.0
 11
1.888595
 21
7.355191
 31
0.0
 11
1.903488
 21
7.276470
 31
0.0
 11
1.979444
 21
7.161466
 31
0.0
 11
2.113263
 21
7.077435
 31
0.0
 11
2.295164
 21
7.030517
 31
0.0
  0
LWPOLYLINE
  5
101
100
AcDbEntity
  8
Layer_1
 62
7
100
AcDbPolyline
 90
1
 70
1
 10
2.295164
 20
7.030517
 30
0.0
  0
LWPOLYLINE
  5
102
100
AcDbEntity
  8
Layer_1
 62
7
100
AcDbPolyline
 90
1
 70
1
 10
2.579613
 20
7.202261
 30
0.0
  0
SPLINE
  5
103
100
AcDbEntity
  8
Layer_1
 62
7
100
AcDbSpline
 70
0
 71
3
 72
25
 73
21
 74
19
 40
0.000000
 40
0.000000
 40
0.000000
 40
0.000000
 40
0.070023
 40
0.157648
 40
0.228724
 40
0.314952
 40
0.393519
 40
0.487896
 40
0.564588
 40
0.622918
 40
0.675454
 40
0.736093
 40
0.808160
 40
0.894164
 40
1.005542
 40
1.098491
 40
1.214622
 40
1.302942
 40
1.375582
 40
1.442168
 40
1.442168
 40
1.442168
 40
1.442168
 10
2.579613
 20
7.202261
 30
0.0
 10
2.557252
 20
7.195300
 30
0.0
 10
2.506909
 20
7.179628
 30
0.0
 10
2.430185
 20
7.175747
 30
0.0
 10
2.348119
 20
7.181127
 30
0.0
 10
2.275108
 20
7.218966
 30
0.0
 10
2.225372
 20
7.294053
 30
0.0
 10
2.218554
 20
7.379007
 30
0.0
 10
2.222092
 20
7.455259
 30
0.0
 10
2.238624
 20
7.516585
 30
0.0
 10
2.273180
 20
7.563848
 30
0.0
 10
2.327134
 20
7.596751
 30
0.0
 10
2.399392
 20
7.612470
 30
0.0
 10
2.488771
 20
7.612941
 30
0.0
 10
2.588703
 20
7.596165
 30
0.0
 10
2.664590
 20
7.510066
 30
0.0
 10
2.674031
 20
7.407438
 30
0.0
 10
2.666594
 20
7.315915
 30
0.0
 10
2.636910
 20
7.242241
 30
0.0
 10
2.598150
 20
7.215196
 30
0.0
 10
2.579613
 20
7.202261
 30
0.0
 11
2.579613
 21
7.202261
 31
0.0
 11
2.512029
 21
7.183942
 31
0.0
 11
2.424653
 21
7.177350
 31
0.0
 11
2.354016
 21
7.185241
 31
0.0
 11
2.278044
 21
7.226029
 31
0.0
 11
2.234281
 21
7.291279
 31
0.0
 11
2.220296
 21
7.384613
 31
0.0
 11
2.225543
 21
7.461126
 31
0.0
 11
2.242613
 21
7.516902
 31
0.0
 11
2.273737
 21
7.559226
 31
0.0
 11
2.324889
 21
7.591791
 31
0.0
 11
2.394832
 21
7.609164
 31
0.0
 11
2.480822
 21
7.610666
 31
0.0
 11
2.588527
 21
7.582297
 31
0.0
 11
2.650627
 21
7.513137
 31
0.0
 11
2.671049
 21
7.398816
 31
0.0
 11
2.661152
 21
7.311052
 31
0.0
 11
2.630513
 21
7.245189
 31
0.0
 11
2.579613
 21
7.202261
 31
0.0
  0
LWPOLYLINE
  5
104
100
AcDbEntity
  8
Layer_1
 62
7
100
AcDbPolyline
 90
2
 70
0
 10
0.646577
 20
7.723957
 30
0.0
 10
0.646577
 20
7.635044
 30
0.0
  0
LWPOLYLINE
  5
105
100
AcDbEntity
  8
Layer_1
 62
7
100
AcDbPolyline
 90
1
 70
1
 10
0.915551
 20
7.048173
 30
0.0
  0
SPLINE
  5
106
100
AcDbEntity
  8
Layer_1
 62
7
100
AcDbSpline
 70
0
 71
3
 72
37
 73
33
 74
31
 40
0.000000
 40
0.000000
 40
0.000000
 40
0.000000
 40
0.011257
 40
0.033928
 40
0.061089
 40
0.088489
 40
0.109896
 40
0.125875
 40
0.161409
 40
0.235346
 40
0.333487
 40
0.463743
 40
0.518270
 40
0.543393
 40
0.561660
 40
0.583051
 40
0.603541
 40
0.626964
 40
0.645723
 40
0.658127
 40
0.681776
 40
0.713833
 40
0.736209
 40
0.771060
 40
0.860299
 40
0.998331
 40
1.130048
 40
1.227528
 40
1.269698
 40
1.280438
 40
1.299513
 40
1.330198
 40
1.330198
 40
1.330198
 40
1.330198
 10
0.646577
 20
7.635044
 30
0.0
 10
0.649523
 20
7.632637
 30
0.0
 10
0.658401
 20
7.625381
 30
0.0
 10
0.679558
 20
7.623258
 30
0.0
 10
0.704595
 20
7.618943
 30
0.0
 10
0.729605
 20
7.614112
 30
0.0
 10
0.749754
 20
7.605859
 30
0.0
 10
0.768148
 20
7.588148
 30
0.0
 10
0.765937
 20
7.542861
 30
0.0
 10
0.772729
 20
7.476087
 30
0.0
 10
0.772926
 20
7.373742
 30
0.0
 10
0.769194
 20
7.281930
 30
0.0
 10
0.773550
 20
7.208320
 30
0.0
 10
0.751966
 20
7.181236
 30
0.0
 10
0.731963
 20
7.172468
 30
0.0
 10
0.712698
 20
7.166725
 30
0.0
 10
0.690817
 20
7.165042
 30
0.0
 10
0.670338
 20
7.163827
 30
0.0
 10
0.651431
 20
7.159620
 30
0.0
 10
0.640628
 20
7.143179
 30
0.0
 10
0.644486
 20
7.119769
 30
0.0
 10
0.640962
 20
7.093527
 30
0.0
 10
0.657148
 20
7.065677
 30
0.0
 10
0.707421
 20
7.052946
 30
0.0
 10
0.793333
 20
7.050796
 30
0.0
 10
0.913170
 20
7.048799
 30
0.0
 10
1.037174
 20
7.043685
 30
0.0
 10
1.123536
 20
7.054597
 30
0.0
 10
1.179365
 20
7.040507
 30
0.0
 10
1.197201
 20
7.058897
 30
0.0
 10
1.197914
 20
7.080149
 30
0.0
 10
1.197534
 20
7.096503
 30
0.0
 10
1.197300
 20
7.106589
 30
0.0
 11
0.646577
 21
7.635044
 31
0.0
 11
0.655730
 21
7.628491
 31
0.0
 11
0.677774
 21
7.623196
 31
0.0
 11
0.704586
 21
7.618852
 31
0.0
 11
0.731298
 21
7.612750
 31
0.0
 11
0.750722
 21
7.603752
 31
0.0
 11
0.761878
 21
7.592313
 31
0.0
 11
0.767195
 21
7.557179
 31
0.0
 11
0.770918
 21
7.483335
 31
0.0
 11
0.772321
 21
7.385204
 31
0.0
 11
0.771312
 21
7.254952
 31
0.0
 11
0.765157
 21
7.200773
 31
0.0
 11
0.749170
 21
7.181394
 31
0.0
 11
0.732830
 21
7.173226
 31
0.0
 11
0.712248
 21
7.167401
 31
0.0
 11
0.691879
 21
7.165179
 31
0.0
 11
0.668559
 21
7.162987
 31
0.0
 11
0.650915
 21
7.156614
 31
0.0
 11
0.643927
 21
7.146366
 31
0.0
 11
0.642988
 21
7.122735
 31
0.0
 11
0.644800
 21
7.090730
 31
0.0
 11
0.656304
 21
7.071537
 31
0.0
 11
0.688601
 21
7.058444
 31
0.0
 11
0.777553
 21
7.051289
 31
0.0
 11
0.915551
 21
7.048173
 31
0.0
 11
1.047265
 21
7.047306
 31
0.0
 11
1.144743
 21
7.047710
 31
0.0
 11
1.186883
 21
7.049297
 31
0.0
 11
1.194223
 21
7.057138
 31
0.0
 11
1.197635
 21
7.075905
 31
0.0
 11
1.197300
 21
7.106589
 31
0.0
  0
LWPOLYLINE
  5
107
100
AcDbEntity
  8
Layer_1
 62
7
100
AcDbPolyline
 90
3
 70
0
 10
1.197300
 20
7.106589
 30
0.0
 10
1.194197
 20
7.159970
 30
0.0
 10
1.138916
 20
7.165524
 30
0.0
  0
SPLINE
  5
108
100
AcDbEntity
  8
Layer_1
 62
7
100
AcDbSpline
 70
0
 71
3
 72
13
 73
9
 74
7
 40
0.000000
 40
0.000000
 40
0.000000
 40
0.000000
 40
0.030242
 40
0.054286
 40
0.069228
 40
0.085217
 40
0.110682
 40
0.140471
 40
0.140471
 40
0.140471
 40
0.140471
 10
1.138916
 20
7.165524
 30
0.0
 10
1.128874
 20
7.166882
 30
0.0
 10
1.110848
 20
7.169321
 30
0.0
 10
1.089000
 20
7.175670
 30
0.0
 10
1.071817
 20
7.185260
 30
0.0
 10
1.068468
 20
7.205096
 30
0.0
 10
1.064824
 20
7.228033
 30
0.0
 10
1.064385
 20
7.246564
 30
0.0
 10
1.064148
 20
7.256554
 30
0.0
 11
1.138916
 21
7.165524
 31
0.0
 11
1.109068
 21
7.170388
 31
0.0
 11
1.086173
 21
7.177732
 31
0.0
 11
1.073971
 21
7.186357
 31
0.0
 11
1.069081
 21
7.201579
 31
0.0
 11
1.065552
 21
7.226798
 31
0.0
 11
1.064148
 21
7.256554
 31
0.0
  0
LWPOLYLINE
  5
109
100
AcDbEntity
  8
Layer_1
 62
7
100
AcDbPolyline
 90
5
 70
0
 10
1.064148
 20
7.256554
 30
0.0
 10
1.063986
 20
7.311472
 30
0.0
 10
1.259299
 20
7.308637
 30
0.0
 10
1.454611
 20
7.305802
 30
0.0
 10
1.451458
 20
7.248511
 30
0.0
  0
SPLINE
  5
10a
100
AcDbEntity
  8
Layer_1
 62
7
100
AcDbSpline
 70
0
 71
3
 72
19
 73
15
 74
13
 40
0.000000
 40
0.000000
 40
0.000000
 40
0.000000
 40
0.030031
 40
0.053707
 40
0.066207
 40
0.078176
 40
0.100134
 40
0.127587
 40
0.154820
 40
0.176248
 40
0.187646
 40
0.198554
 40
0.217717
 40
0.241210
 40
0.241210
 40
0.241210
 40
0.241210
 10
1.451458
 20
7.248511
 30
0.0
 10
1.450778
 20
7.238418
 30
0.0
 10
1.449563
 20
7.220368
 30
0.0
 10
1.445689
 20
7.199552
 30
0.0
 10
1.442524
 20
7.181943
 30
0.0
 10
1.425884
 20
7.177741
 30
0.0
 10
1.406877
 20
7.172613
 30
0.0
 10
1.381344
 20
7.168950
 30
0.0
 10
1.356005
 20
7.165005
 30
0.0
 10
1.337495
 20
7.159860
 30
0.0
 10
1.322080
 20
7.154608
 30
0.0
 10
1.320620
 20
7.139344
 30
0.0
 10
1.318506
 20
7.122284
 30
0.0
 10
1.318532
 20
7.107926
 30
0.0
 10
1.318547
 20
7.100019
 30
0.0
 11
1.451458
 21
7.248511
 31
0.0
 11
1.448816
 21
7.218596
 31
0.0
 11
1.444923
 21
7.195243
 31
0.0
 11
1.440620
 21
7.183507
 31
0.0
 11
1.429670
 21
7.178675
 31
0.0
 11
1.408350
 21
7.173421
 31
0.0
 11
1.381274
 21
7.168884
 31
0.0
 11
1.354449
 21
7.164188
 31
0.0
 11
1.333785
 21
7.158519
 31
0.0
 11
1.323755
 21
7.153105
 31
0.0
 11
1.320894
 21
7.142578
 31
0.0
 11
1.319022
 21
7.123507
 31
0.0
 11
1.318547
 21
7.100019
 31
0.0
  0
LWPOLYLINE
  5
10b
100
AcDbEntity
  8
Layer_1
 62
7
100
AcDbPolyline
 90
5
 70
0
 10
1.318547
 20
7.100019
 30
0.0
 10
1.319195
 20
7.055802
 30
0.0
 10
1.600445
 20
7.055802
 30
0.0
 10
1.881695
 20
7.055802
 30
0.0
 10
1.885112
 20
7.085707
 30
0.0
  0
SPLINE
  5
10c
100
AcDbEntity
  8
Layer_1
 62
7
100
AcDbSpline
 70
0
 71
3
 72
22
 73
18
 74
16
 40
0.000000
 40
0.000000
 40
0.000000
 40
0.000000
 40
0.047216
 40
0.077874
 40
0.121892
 40
0.150016
 40
0.172975
 40
0.185930
 40
0.298811
 40
0.500557
 40
0.613438
 40
0.626393
 40
0.649352
 40
0.677476
 40
0.721495
 40
0.752153
 40
0.799369
 40
0.799369
 40
0.799369
 40
0.799369
 10
1.885112
 20
7.085707
 30
0.0
 10
1.887664
 20
7.101822
 30
0.0
 10
1.891874
 20
7.128400
 30
0.0
 10
1.865995
 20
7.165199
 30
0.0
 10
1.829150
 20
7.167364
 30
0.0
 10
1.798153
 20
7.172038
 30
0.0
 10
1.777351
 20
7.175828
 30
0.0
 10
1.727694
 20
7.189891
 30
0.0
 10
1.768819
 20
7.345904
 30
0.0
 10
1.768819
 20
7.442785
 30
0.0
 10
1.727694
 20
7.598798
 30
0.0
 10
1.777351
 20
7.612861
 30
0.0
 10
1.798153
 20
7.616651
 30
0.0
 10
1.829150
 20
7.621324
 30
0.0
 10
1.865995
 20
7.623490
 30
0.0
 10
1.891874
 20
7.660289
 30
0.0
 10
1.887664
 20
7.686867
 30
0.0
 10
1.885112
 20
7.702981
 30
0.0
 11
1.885112
 21
7.085707
 31
0.0
 11
1.885143
 21
7.132923
 31
0.0
 11
1.866993
 21
7.157630
 31
0.0
 11
1.824326
 21
7.168453
 31
0.0
 11
1.796486
 21
7.172447
 31
0.0
 11
1.773971
 21
7.176938
 31
0.0
 11
1.761655
 21
7.180956
 31
0.0
 11
1.752578
 21
7.293471
 31
0.0
 11
1.752578
 21
7.495217
 31
0.0
 11
1.761655
 21
7.607733
 31
0.0
 11
1.773971
 21
7.611750
 31
0.0
 11
1.796486
 21
7.616241
 31
0.0
 11
1.824326
 21
7.620235
 31
0.0
 11
1.866993
 21
7.631058
 31
0.0
 11
1.885143
 21
7.655765
 31
0.0
 11
1.885112
 21
7.702981
 31
0.0
  0
LWPOLYLINE
  5
10d
100
AcDbEntity
  8
Layer_1
 62
7
100
AcDbPolyline
 90
5
 70
0
 10
1.885112
 20
7.702981
 30
0.0
 10
1.881695
 20
7.732886
 30
0.0
 10
1.600445
 20
7.732886
 30
0.0
 10
1.319195
 20
7.732886
 30
0.0
 10
1.315777
 20
7.702981
 30
0.0
  0
SPLINE
  5
10e
100
AcDbEntity
  8
Layer_1
 62
7
100
AcDbSpline
 70
0
 71
3
 72
16
 73
12
 74
10
 40
0.000000
 40
0.000000
 40
0.000000
 40
0.000000
 40
0.047216
 40
0.077874
 40
0.121893
 40
0.150017
 40
0.172975
 40
0.185931
 40
0.198653
 40
0.223415
 40
0.255478
 40
0.255478
 40
0.255478
 40
0.255478
 10
1.315777
 20
7.702981
 30
0.0
 10
1.313222
 20
7.686863
 30
0.0
 10
1.309007
 20
7.660278
 30
0.0
 10
1.334918
 20
7.623521
 30
0.0
 10
1.371623
 20
7.621172
 30
0.0
 10
1.402978
 20
7.616967
 30
0.0
 10
1.422939
 20
7.612079
 30
0.0
 10
1.440952
 20
7.609807
 30
0.0
 10
1.445716
 20
7.591525
 30
0.0
 10
1.448701
 20
7.569500
 30
0.0
 10
1.449150
 20
7.550362
 30
0.0
 10
1.449403
 20
7.539563
 30
0.0
 11
1.315777
 21
7.702981
 31
0.0
 11
1.315746
 21
7.655765
 31
0.0
 11
1.333896
 21
7.631058
 31
0.0
 11
1.376564
 21
7.620235
 31
0.0
 11
1.404403
 21
7.616241
 31
0.0
 11
1.426918
 21
7.611750
 31
0.0
 11
1.439234
 21
7.607733
 31
0.0
 11
1.444356
 21
7.596086
 31
0.0
 11
1.448009
 21
7.571596
 31
0.0
 11
1.449403
 21
7.539563
 31
0.0
  0
LWPOLYLINE
  5
10f
100
AcDbEntity
  8
Layer_1
 62
7
100
AcDbPolyline
 90
5
 70
0
 10
1.449403
 20
7.539563
 30
0.0
 10
1.449403
 20
7.477678
 30
0.0
 10
1.256695
 20
7.477678
 30
0.0
 10
1.063986
 20
7.477678
 30
0.0
 10
1.064148
 20
7.532365
 30
0.0
  0
SPLINE
  5
110
100
AcDbEntity
  8
Layer_1
 62
7
100
AcDbSpline
 70
0
 71
3
 72
13
 73
9
 74
7
 40
0.000000
 40
0.000000
 40
0.000000
 40
0.000000
 40
0.029193
 40
0.053265
 40
0.067280
 40
0.081028
 40
0.105537
 40
0.136074
 40
0.136074
 40
0.136074
 40
0.136074
 10
1.064148
 20
7.532365
 30
0.0
 10
1.064311
 20
7.542177
 30
0.0
 10
1.064609
 20
7.560079
 30
0.0
 10
1.067670
 20
7.581582
 30
0.0
 10
1.069877
 20
7.600355
 30
0.0
 10
1.087410
 20
7.607910
 30
0.0
 10
1.108611
 20
7.614617
 30
0.0
 10
1.126809
 20
7.617950
 30
0.0
 10
1.136905
 20
7.619798
 30
0.0
 11
1.064148
 21
7.532365
 31
0.0
 11
1.065276
 21
7.561536
 31
0.0
 11
1.068083
 21
7.585444
 31
0.0
 11
1.071960
 21
7.598912
 31
0.0
 11
1.083666
 21
7.606122
 31
0.0
 11
1.106998
 21
7.613626
 31
0.0
 11
1.136905
 21
7.619798
 31
0.0
  0
LWPOLYLINE
  5
111
100
AcDbEntity
  8
Layer_1
 62
7
100
AcDbPolyline
 90
5
 70
0
 10
1.136905
 20
7.619798
 30
0.0
 10
1.194196
 20
7.628826
 30
0.0
 10
1.197345
 20
7.683460
 30
0.0
 10
1.200493
 20
7.738094
 30
0.0
 10
0.929116
 20
7.738094
 30
0.0
  0
LWPOLYLINE
  5
112
100
AcDbEntity
  8
Layer_1
 62
7
100
AcDbPolyline
 90
1
 70
1
 10
0.646577
 20
7.723957
 30
0.0
  0
SPLINE
  5
113
100
AcDbEntity
  8
Layer_1
 62
7
100
AcDbSpline
 70
0
 71
3
 72
10
 73
6
 74
4
 40
0.000000
 40
0.000000
 40
0.000000
 40
0.000000
 40
0.150588
 40
0.248110
 40
0.283330
 40
0.283330
 40
0.283330
 40
0.283330
 10
0.929116
 20
7.738094
 30
0.0
 10
0.879001
 20
7.737219
 30
0.0
 10
0.796432
 20
7.735776
 30
0.0
 10
0.701433
 20
7.735509
 30
0.0
 10
0.658080
 20
7.726380
 30
0.0
 10
0.646577
 20
7.723957
 30
0.0
 11
0.929116
 21
7.738094
 31
0.0
 11
0.778543
 21
7.735913
 31
0.0
 11
0.681167
 21
7.730591
 31
0.0
 11
0.646577
 21
7.723957
 31
0.0
  0
LWPOLYLINE
  5
114
100
AcDbEntity
  8
Layer_1
 62
7
100
AcDbPolyline
 90
7
 70
0
 10
3.013964
 20
7.105283
 30
0.0
 10
3.010830
 20
7.050595
 30
0.0
 10
3.241085
 20
7.050595
 30
0.0
 10
3.471341
 20
7.050595
 30
0.0
 10
3.468191
 20
7.105283
 30
0.0
 10
3.465041
 20
7.159970
 30
0.0
 10
3.409277
 20
7.166776
 30
0.0
  0
SPLINE
  5
115
100
AcDbEntity
  8
Layer_1
 62
7
100
AcDbSpline
 70
0
 71
3
 72
13
 73
9
 74
7
 40
0.000000
 40
0.000000
 40
0.000000
 40
0.000000
 40
0.029788
 40
0.054008
 40
0.067768
 40
0.094431
 40
0.154173
 40
0.234407
 40
0.234407
 40
0.234407
 40
0.234407
 10
3.409277
 20
7.166776
 30
0.0
 10
3.399358
 20
7.168182
 30
0.0
 10
3.381373
 20
7.170731
 30
0.0
 10
3.360255
 20
7.176112
 30
0.0
 10
3.337535
 20
7.183261
 30
0.0
 10
3.341297
 20
7.223617
 30
0.0
 10
3.335050
 20
7.274587
 30
0.0
 10
3.336389
 20
7.322153
 30
0.0
 10
3.337156
 20
7.349418
 30
0.0
 11
3.409277
 21
7.166776
 31
0.0
 11
3.379870
 21
7.171523
 31
0.0
 11
3.356380
 21
7.177424
 31
0.0
 11
3.343892
 21
7.183203
 31
0.0
 11
3.339437
 21
7.209491
 31
0.0
 11
3.337018
 21
7.269185
 31
0.0
 11
3.337156
 21
7.349418
 31
0.0
  0
LWPOLYLINE
  5
116
100
AcDbEntity
  8
Layer_1
 62
7
100
AcDbPolyline
 90
3
 70
0
 10
3.337156
 20
7.349418
 30
0.0
 10
3.340042
 20
7.506012
 30
0.0
 10
3.454626
 20
7.354685
 30
0.0
  0
SPLINE
  5
117
100
AcDbEntity
  8
Layer_1
 62
7
100
AcDbSpline
 70
0
 71
3
 72
10
 73
6
 74
4
 40
0.000000
 40
0.000000
 40
0.000000
 40
0.000000
 40
0.108927
 40
0.212035
 40
0.287003
 40
0.287003
 40
0.287003
 40
0.287003
 10
3.454626
 20
7.354685
 30
0.0
 10
3.476592
 20
7.325774
 30
0.0
 10
3.519350
 20
7.269497
 30
0.0
 10
3.577513
 20
7.193540
 30
0.0
 10
3.613972
 20
7.146697
 30
0.0
 10
3.629321
 20
7.126977
 30
0.0
 11
3.454626
 21
7.354685
 31
0.0
 11
3.520579
 21
7.267995
 31
0.0
 11
3.583340
 21
7.186188
 31
0.0
 11
3.629321
 21
7.126977
 31
0.0
  0
LWPOLYLINE
  5
118
100
AcDbEntity
  8
Layer_1
 62
7
100
AcDbPolyline
 90
5
 70
0
 10
3.629321
 20
7.126977
 30
0.0
 10
3.689432
 20
7.050595
 30
0.0
 10
3.887133
 20
7.050595
 30
0.0
 10
4.084834
 20
7.050595
 30
0.0
 10
4.084834
 20
7.320153
 30
0.0
  0
SPLINE
  5
119
100
AcDbEntity
  8
Layer_1
 62
7
100
AcDbSpline
 70
0
 71
3
 72
10
 73
6
 74
4
 40
0.000000
 40
0.000000
 40
0.000000
 40
0.000000
 40
0.210333
 40
0.288135
 40
0.348312
 40
0.348312
 40
0.348312
 40
0.348312
 10
4.084834
 20
7.320153
 30
0.0
 10
4.084302
 20
7.385909
 30
0.0
 10
4.083573
 20
7.475988
 30
0.0
 10
4.091235
 20
7.614494
 30
0.0
 10
4.142573
 20
7.619560
 30
0.0
 10
4.164963
 20
7.621770
 30
0.0
 11
4.084834
 21
7.320153
 31
0.0
 11
4.087004
 21
7.530475
 31
0.0
 11
4.106980
 21
7.605668
 31
0.0
 11
4.164963
 21
7.621770
 31
0.0
  0
LWPOLYLINE
  5
11a
100
AcDbEntity
  8
Layer_1
 62
7
100
AcDbPolyline
 90
9
 70
0
 10
4.164963
 20
7.621770
 30
0.0
 10
4.215042
 20
7.628889
 30
0.0
 10
4.218192
 20
7.683492
 30
0.0
 10
4.221341
 20
7.738095
 30
0.0
 10
3.991086
 20
7.738095
 30
0.0
 10
3.760830
 20
7.738095
 30
0.0
 10
3.763980
 20
7.683507
 30
0.0
 10
3.767130
 20
7.628919
 30
0.0
 10
3.823943
 20
7.620787
 30
0.0
  0
SPLINE
  5
11b
100
AcDbEntity
  8
Layer_1
 62
7
100
AcDbSpline
 70
0
 71
3
 72
19
 73
15
 74
13
 40
0.000000
 40
0.000000
 40
0.000000
 40
0.000000
 40
0.030301
 40
0.054815
 40
0.068899
 40
0.161209
 40
0.311454
 40
0.383938
 40
0.417431
 40
0.492521
 40
0.592954
 40
0.702921
 40
0.803006
 40
0.871543
 40
0.871543
 40
0.871543
 40
0.871543
 10
3.823943
 20
7.620787
 30
0.0
 10
3.833889
 20
7.618992
 30
0.0
 10
3.851883
 20
7.615744
 30
0.0
 10
3.874053
 20
7.609750
 30
0.0
 10
3.912784
 20
7.586369
 30
0.0
 10
3.885153
 20
7.473574
 30
0.0
 10
3.894102
 20
7.413983
 30
0.0
 10
3.900560
 20
7.260129
 30
0.0
 10
3.857466
 20
7.329546
 30
0.0
 10
3.818089
 20
7.375074
 30
0.0
 10
3.759470
 20
7.455247
 30
0.0
 10
3.697347
 20
7.536401
 30
0.0
 10
3.640961
 20
7.610565
 30
0.0
 10
3.606523
 20
7.654951
 30
0.0
 10
3.592526
 20
7.672991
 30
0.0
 11
3.823943
 21
7.620787
 31
0.0
 11
3.853674
 21
7.614936
 31
0.0
 11
3.877006
 21
7.607416
 31
0.0
 11
3.888888
 21
7.599854
 31
0.0
 11
3.896171
 21
7.507832
 31
0.0
 11
3.895986
 21
7.357587
 31
0.0
 11
3.888494
 21
7.285491
 31
0.0
 11
3.867879
 21
7.311888
 31
0.0
 11
3.822319
 21
7.371577
 31
0.0
 11
3.761679
 21
7.451637
 31
0.0
 11
3.695237
 21
7.539262
 31
0.0
 11
3.634467
 21
7.618786
 31
0.0
 11
3.592526
 21
7.672991
 31
0.0
  0
LWPOLYLINE
  5
11c
100
AcDbEntity
  8
Layer_1
 62
7
100
AcDbPolyline
 90
7
 70
0
 10
3.592526
 20
7.672991
 30
0.0
 10
3.541361
 20
7.738095
 30
0.0
 10
3.276089
 20
7.738095
 30
0.0
 10
3.010816
 20
7.738095
 30
0.0
 10
3.013964
 20
7.683604
 30
0.0
 10
3.017113
 20
7.629113
 30
0.0
 10
3.068882
 20
7.620479
 30
0.0
  0
LWPOLYLINE
  5
11d
100
AcDbEntity
  8
Layer_1
 62
7
100
AcDbPolyline
 90
3
 70
0
 10
3.073191
 20
7.166815
 30
0.0
 10
3.017113
 20
7.159970
 30
0.0
 10
3.013964
 20
7.105283
 30
0.0
  0
SPLINE
  5
11e
100
AcDbEntity
  8
Layer_1
 62
7
100
AcDbSpline
 70
0
 71
3
 72
16
 73
12
 74
10
 40
0.000000
 40
0.000000
 40
0.000000
 40
0.000000
 40
0.028514
 40
0.052950
 40
0.068326
 40
0.176443
 40
0.367193
 40
0.482422
 40
0.496962
 40
0.521465
 40
0.551411
 40
0.551411
 40
0.551411
 40
0.551411
 10
3.068882
 20
7.620479
 30
0.0
 10
3.078237
 20
7.618660
 30
0.0
 10
3.095608
 20
7.615282
 30
0.0
 10
3.117315
 20
7.609106
 30
0.0
 10
3.164134
 20
7.588323
 30
0.0
 10
3.133053
 20
7.449872
 30
0.0
 10
3.135496
 20
7.341311
 30
0.0
 10
3.167843
 20
7.206084
 30
0.0
 10
3.123300
 20
7.177251
 30
0.0
 10
3.100941
 20
7.171370
 30
0.0
 10
3.083038
 20
7.168431
 30
0.0
 10
3.073191
 20
7.166815
 30
0.0
 11
3.068882
 21
7.620479
 31
0.0
 11
3.096786
 21
7.614613
 31
0.0
 11
3.120175
 21
7.607536
 31
0.0
 11
3.133987
 21
7.600778
 31
0.0
 11
3.145326
 21
7.493258
 31
0.0
 11
3.147241
 21
7.302517
 31
0.0
 11
3.138136
 21
7.187648
 31
0.0
 11
3.125985
 21
7.179664
 31
0.0
 11
3.102653
 21
7.172179
 31
0.0
 11
3.073191
 21
7.166815
 31
0.0
  0
LWPOLYLINE
  5
11f
100
AcDbEntity
  8
Layer_1
 62
7
100
AcDbPolyline
 90
3
 70
0
 10
4.251488
 20
7.101566
 30
0.0
 10
4.251485
 20
7.050597
 30
0.0
 10
4.648419
 20
7.050597
 30
0.0
  0
SPLINE
  5
120
100
AcDbEntity
  8
Layer_1
 62
7
100
AcDbSpline
 70
0
 71
3
 72
19
 73
15
 74
13
 40
0.000000
 40
0.000000
 40
0.000000
 40
0.000000
 40
0.253158
 40
0.390771
 40
0.461773
 40
0.629702
 40
0.780412
 40
0.945517
 40
1.086371
 40
1.221280
 40
1.382044
 40
1.451458
 40
1.589193
 40
1.836781
 40
1.836781
 40
1.836781
 40
1.836781
 10
4.648419
 20
7.050597
 30
0.0
 10
4.732771
 20
7.050878
 30
0.0
 10
4.862976
 20
7.051311
 30
0.0
 10
5.017118
 20
7.052968
 30
0.0
 10
5.141763
 20
7.068967
 30
0.0
 10
5.264828
 20
7.125160
 30
0.0
 10
5.365864
 20
7.260061
 30
0.0
 10
5.383498
 20
7.416226
 30
0.0
 10
5.350296
 20
7.564341
 30
0.0
 10
5.244631
 20
7.672812
 30
0.0
 10
5.129162
 20
7.720626
 30
0.0
 10
5.007237
 20
7.735822
 30
0.0
 10
4.855488
 20
7.737285
 30
0.0
 10
4.727089
 20
7.737779
 30
0.0
 10
4.644586
 20
7.738097
 30
0.0
 11
4.648419
 21
7.050597
 31
0.0
 11
4.901575
 21
7.051846
 31
0.0
 11
5.039101
 21
7.056738
 31
0.0
 11
5.109357
 21
7.066995
 31
0.0
 11
5.260799
 21
7.139560
 31
0.0
 11
5.350613
 21
7.260585
 31
0.0
 11
5.374284
 21
7.423984
 31
0.0
 11
5.337851
 21
7.560045
 31
0.0
 11
5.246320
 21
7.659154
 31
0.0
 11
5.098573
 21
7.722522
 31
0.0
 11
5.029825
 21
7.732114
 31
0.0
 11
4.892171
 21
7.736836
 31
0.0
 11
4.644586
 21
7.738097
 31
0.0
  0
LWPOLYLINE
  5
121
100
AcDbEntity
  8
Layer_1
 62
7
100
AcDbPolyline
 90
5
 70
0
 10
4.644586
 20
7.738097
 30
0.0
 10
4.250397
 20
7.738097
 30
0.0
 10
4.253546
 20
7.683494
 30
0.0
 10
4.256696
 20
7.628891
 30
0.0
 10
4.307772
 20
7.621629
 30
0.0
  0
SPLINE
  5
122
100
AcDbEntity
  8
Layer_1
 62
7
100
AcDbSpline
 70
0
 71
3
 72
22
 73
18
 74
16
 40
0.000000
 40
0.000000
 40
0.000000
 40
0.000000
 40
0.027476
 40
0.050215
 40
0.064038
 40
0.098624
 40
0.175503
 40
0.278200
 40
0.413899
 40
0.471852
 40
0.494051
 40
0.508784
 40
0.525766
 40
0.541629
 40
0.579432
 40
0.604736
 40
0.645539
 40
0.645539
 40
0.645539
 40
0.645539
 10
4.307772
 20
7.621629
 30
0.0
 10
4.316824
 20
7.619984
 30
0.0
 10
4.333368
 20
7.616977
 30
0.0
 10
4.353434
 20
7.610616
 30
0.0
 10
4.375323
 20
7.597788
 30
0.0
 10
4.368593
 20
7.549163
 30
0.0
 10
4.377643
 20
7.482555
 30
0.0
 10
4.376723
 20
7.374976
 30
0.0
 10
4.372568
 20
7.278306
 30
0.0
 10
4.378459
 20
7.203945
 30
0.0
 10
4.359542
 20
7.175521
 30
0.0
 10
4.341869
 20
7.170196
 30
0.0
 10
4.326539
 20
7.166289
 30
0.0
 10
4.303227
 20
7.164197
 30
0.0
 10
4.274639
 20
7.167484
 30
0.0
 10
4.249233
 20
7.138474
 30
0.0
 10
4.250627
 20
7.115652
 30
0.0
 10
4.251488
 20
7.101566
 30
0.0
 11
4.307772
 21
7.621629
 31
0.0
 11
4.334686
 21
7.616100
 31
0.0
 11
4.356147
 21
7.608585
 31
0.0
 11
4.367509
 21
7.600711
 31
0.0
 11
4.371895
 21
7.566404
 31
0.0
 11
4.375065
 21
7.489591
 31
0.0
 11
4.376328
 21
7.386901
 31
0.0
 11
4.375406
 21
7.251205
 31
0.0
 11
4.369937
 21
7.193511
 31
0.0
 11
4.356339
 21
7.175964
 31
0.0
 11
4.342645
 21
7.170532
 31
0.0
 11
4.326110
 21
7.166658
 31
0.0
 11
4.310316
 21
7.165181
 31
0.0
 11
4.272775
 21
7.160739
 31
0.0
 11
4.255595
 21
7.142162
 31
0.0
 11
4.251488
 21
7.101566
 31
0.0
  0
LWPOLYLINE
  5
123
100
AcDbEntity
  8
Layer_1
 62
7
100
AcDbPolyline
 90
1
 70
1
 10
4.251488
 20
7.101566
 30
0.0
  0
SPLINE
  5
124
100
AcDbEntity
  8
Layer_1
 62
7
100
AcDbSpline
 70
0
 71
3
 72
10
 73
6
 74
4
 40
0.000000
 40
0.000000
 40
0.000000
 40
0.000000
 40
0.036180
 40
0.092322
 40
0.166310
 40
0.166310
 40
0.166310
 40
0.166310
 10
4.960296
 20
7.219289
 30
0.0
 10
4.948698
 20
7.215909
 30
0.0
 10
4.919103
 20
7.207285
 30
0.0
 10
4.863641
 20
7.202166
 30
0.0
 10
4.820364
 20
7.199905
 30
0.0
 10
4.795759
 20
7.198619
 30
0.0
 11
4.960296
 21
7.219289
 31
0.0
 11
4.925319
 21
7.210038
 31
0.0
 11
4.869615
 21
7.203040
 31
0.0
 11
4.795759
 21
7.198619
 31
0.0
  0
LWPOLYLINE
  5
125
100
AcDbEntity
  8
Layer_1
 62
7
100
AcDbPolyline
 90
5
 70
0
 10
4.795759
 20
7.198619
 30
0.0
 10
4.668155
 20
7.193916
 30
0.0
 10
4.668155
 20
7.394347
 30
0.0
 10
4.668155
 20
7.594779
 30
0.0
 10
4.795759
 20
7.590076
 30
0.0
  0
LWPOLYLINE
  5
126
100
AcDbEntity
  8
Layer_1
 62
7
100
AcDbPolyline
 90
1
 70
1
 10
4.960296
 20
7.219289
 30
0.0
  0
SPLINE
  5
127
100
AcDbEntity
  8
Layer_1
 62
7
100
AcDbSpline
 70
0
 71
3
 72
16
 73
12
 74
10
 40
0.000000
 40
0.000000
 40
0.000000
 40
0.000000
 40
0.121962
 40
0.193630
 40
0.254914
 40
0.291900
 40
0.329890
 40
0.386489
 40
0.466678
 40
0.522646
 40
0.577024
 40
0.577024
 40
0.577024
 40
0.577024
 10
4.795759
 20
7.590076
 30
0.0
 10
4.836035
 20
7.588674
 30
0.0
 10
4.899978
 20
7.586449
 30
0.0
 10
4.986564
 20
7.564350
 30
0.0
 10
5.020541
 20
7.515441
 30
0.0
 10
5.038916
 20
7.473820
 30
0.0
 10
5.043897
 20
7.429688
 30
0.0
 10
5.040845
 20
7.371493
 30
0.0
 10
5.036442
 20
7.307586
 30
0.0
 10
5.010078
 20
7.245840
 30
0.0
 10
4.976730
 20
7.228054
 30
0.0
 10
4.960296
 20
7.219289
 30
0.0
 11
4.795759
 21
7.590076
 31
0.0
 11
4.917311
 21
7.580094
 31
0.0
 11
4.984693
 21
7.555680
 31
0.0
 11
5.022912
 21
7.507773
 31
0.0
 11
5.037011
 21
7.473580
 31
0.0
 11
5.042348
 21
7.435966
 31
0.0
 11
5.041131
 21
7.379381
 31
0.0
 11
5.030433
 21
7.299909
 31
0.0
 11
5.005206
 21
7.249948
 31
0.0
 11
4.960296
 21
7.219289
 31
0.0
  0
LWPOLYLINE
  5
128
100
AcDbEntity
  8
Layer_1
 62
7
100
AcDbPolyline
 90
1
 70
1
 10
6.282196
 20
7.050597
 30
0.0
  0
SPLINE
  5
129
100
AcDbEntity
  8
Layer_1
 62
7
100
AcDbSpline
 70
0
 71
3
 72
16
 73
12
 74
10
 40
0.000000
 40
0.000000
 40
0.000000
 40
0.000000
 40
0.158965
 40
0.256061
 40
0.287725
 40
0.335231
 40
0.364190
 40
0.374001
 40
0.383244
 40
0.400607
 40
0.422730
 40
0.422730
 40
0.422730
 40
0.422730
 10
6.282194
 20
7.050597
 30
0.0
 10
6.335800
 20
7.051848
 30
0.0
 10
6.422147
 20
7.053862
 30
0.0
 10
6.513752
 20
7.050009
 30
0.0
 10
6.578146
 20
7.071077
 30
0.0
 10
6.566733
 20
7.115893
 30
0.0
 10
6.566243
 20
7.142373
 30
0.0
 10
6.568076
 20
7.159568
 30
0.0
 10
6.557473
 20
7.168110
 30
0.0
 10
6.540882
 20
7.168173
 30
0.0
 10
6.527930
 20
7.170323
 30
0.0
 10
6.520673
 20
7.171528
 30
0.0
 11
6.282194
 21
7.050597
 31
0.0
 11
6.441151
 21
7.052251
 31
0.0
 11
6.538021
 21
7.058864
 31
0.0
 11
6.566396
 21
7.072919
 31
0.0
 11
6.567723
 21
7.120406
 31
0.0
 11
6.567083
 21
7.149357
 31
0.0
 11
6.566434
 21
7.159147
 31
0.0
 11
6.559679
 21
7.165456
 31
0.0
 11
6.542597
 21
7.168572
 31
0.0
 11
6.520673
 21
7.171528
 31
0.0
  0
LWPOLYLINE
  5
12a
100
AcDbEntity
  8
Layer_1
 62
7
100
AcDbPolyline
 90
9
 70
0
 10
6.520673
 20
7.171528
 30
0.0
 10
6.466942
 20
7.180806
 30
0.0
 10
6.283694
 20
7.456847
 30
0.0
 10
6.100446
 20
7.732889
 30
0.0
 10
5.813988
 20
7.732889
 30
0.0
 10
5.527530
 20
7.732889
 30
0.0
 10
5.527530
 20
7.680836
 30
0.0
 10
5.527530
 20
7.628783
 30
0.0
 10
5.592244
 20
7.618336
 30
0.0
  0
SPLINE
  5
12b
100
AcDbEntity
  8
Layer_1
 62
7
100
AcDbSpline
 70
0
 71
3
 72
16
 73
12
 74
10
 40
0.000000
 40
0.000000
 40
0.000000
 40
0.000000
 40
0.034610
 40
0.062453
 40
0.077846
 40
0.191205
 40
0.407084
 40
0.553001
 40
0.571364
 40
0.596895
 40
0.624787
 40
0.624787
 40
0.624787
 40
0.624787
 10
5.592244
 20
7.618336
 30
0.0
 10
5.603652
 20
7.616218
 30
0.0
 10
5.624239
 20
7.612396
 30
0.0
 10
5.648811
 20
7.606270
 30
0.0
 10
5.700650
 20
7.583994
 30
0.0
 10
5.564913
 20
7.449258
 30
0.0
 10
5.522843
 20
7.339450
 30
0.0
 10
5.461904
 20
7.211543
 30
0.0
 10
5.408155
 20
7.177410
 30
0.0
 10
5.385100
 20
7.170147
 30
0.0
 10
5.367545
 20
7.167207
 30
0.0
 10
5.358379
 20
7.165673
 30
0.0
 11
5.592244
 21
7.618336
 31
0.0
 11
5.626201
 21
7.611646
 31
0.0
 11
5.653017
 21
7.604151
 31
0.0
 11
5.666885
 21
7.597472
 31
0.0
 11
5.617209
 21
7.495579
 31
0.0
 11
5.507405
 21
7.309710
 31
0.0
 11
5.425532
 21
7.188927
 31
0.0
 11
5.409893
 21
7.179304
 31
0.0
 11
5.385768
 21
7.170949
 31
0.0
 11
5.358379
 21
7.165673
 31
0.0
  0
LWPOLYLINE
  5
12c
100
AcDbEntity
  8
Layer_1
 62
7
100
AcDbPolyline
 90
9
 70
0
 10
5.358379
 20
7.165673
 30
0.0
 10
5.308780
 20
7.159972
 30
0.0
 10
5.305630
 20
7.105285
 30
0.0
 10
5.302488
 20
7.050596
 30
0.0
 10
5.527535
 20
7.050596
 30
0.0
 10
5.752583
 20
7.050596
 30
0.0
 10
5.749433
 20
7.105041
 30
0.0
 10
5.746283
 20
7.159485
 30
0.0
 10
5.700574
 20
7.167243
 30
0.0
  0
SPLINE
  5
12d
100
AcDbEntity
  8
Layer_1
 62
7
100
AcDbSpline
 70
0
 71
3
 72
10
 73
6
 74
4
 40
0.000000
 40
0.000000
 40
0.000000
 40
0.000000
 40
0.041945
 40
0.059682
 40
0.087219
 40
0.087219
 40
0.087219
 40
0.087219
 10
5.700574
 20
7.167243
 30
0.0
 10
5.686367
 20
7.167793
 30
0.0
 10
5.666151
 20
7.168576
 30
0.0
 10
5.641639
 20
7.192080
 30
0.0
 10
5.652067
 20
7.206487
 30
0.0
 10
5.658409
 20
7.215250
 30
0.0
 11
5.700574
 21
7.167243
 31
0.0
 11
5.659652
 21
7.176451
 31
0.0
 11
5.647947
 21
7.189778
 31
0.0
 11
5.658409
 21
7.215250
 31
0.0
  0
LWPOLYLINE
  5
12e
100
AcDbEntity
  8
Layer_1
 62
7
100
AcDbPolyline
 90
3
 70
0
 10
5.658409
 20
7.215250
 30
0.0
 10
5.674146
 20
7.243305
 30
0.0
 10
5.875565
 20
7.246139
 30
0.0
  0
SPLINE
  5
12f
100
AcDbEntity
  8
Layer_1
 62
7
100
AcDbSpline
 70
0
 71
3
 72
13
 73
9
 74
7
 40
0.000000
 40
0.000000
 40
0.000000
 40
0.000000
 40
0.134167
 40
0.194660
 40
0.218810
 40
0.252902
 40
0.276146
 40
0.320300
 40
0.320300
 40
0.320300
 40
0.320300
 10
5.875565
 20
7.246139
 30
0.0
 10
5.919734
 20
7.245641
 30
0.0
 10
5.983818
 20
7.244917
 30
0.0
 10
6.059775
 20
7.249554
 30
0.0
 10
6.094603
 20
7.230775
 30
0.0
 10
6.112833
 20
7.202971
 30
0.0
 10
6.089671
 20
7.171763
 30
0.0
 10
6.066289
 20
7.169807
 30
0.0
 10
6.050971
 20
7.168526
 30
0.0
 11
5.875565
 21
7.246139
 31
0.0
 11
6.009730
 21
7.246946
 31
0.0
 11
6.070065
 21
7.242570
 31
0.0
 11
6.090990
 21
7.230514
 31
0.0
 11
6.106099
 21
7.199953
 31
0.0
 11
6.093491
 21
7.180425
 31
0.0
 11
6.050971
 21
7.168526
 31
0.0
  0
LWPOLYLINE
  5
130
100
AcDbEntity
  8
Layer_1
 62
7
100
AcDbPolyline
 90
5
 70
0
 10
6.050971
 20
7.168526
 30
0.0
 10
5.996283
 20
7.159865
 30
0.0
 10
5.993134
 20
7.105231
 30
0.0
 10
5.989984
 20
7.050597
 30
0.0
 10
6.282196
 20
7.050597
 30
0.0
  0
SPLINE
  5
131
100
AcDbEntity
  8
Layer_1
 62
7
100
AcDbSpline
 70
0
 71
3
 72
13
 73
9
 74
7
 40
0.000000
 40
0.000000
 40
0.000000
 40
0.000000
 40
0.009039
 40
0.039443
 40
0.102182
 40
0.183122
 40
0.210273
 40
0.303992
 40
0.303992
 40
0.303992
 40
0.303992
 10
5.974078
 20
7.407366
 30
0.0
 10
5.972771
 20
7.404488
 30
0.0
 10
5.967072
 20
7.391932
 30
0.0
 10
5.924713
 20
7.397916
 30
0.0
 10
5.876178
 20
7.398650
 30
0.0
 10
5.800384
 20
7.373006
 30
0.0
 10
5.775080
 20
7.445816
 30
0.0
 10
5.808737
 20
7.476952
 30
0.0
 10
5.834834
 20
7.501093
 30
0.0
 11
5.974078
 21
7.407366
 31
0.0
 11
5.969600
 21
7.399514
 31
0.0
 11
5.939465
 21
7.395483
 31
0.0
 11
5.876736
 21
7.394345
 31
0.0
 11
5.795810
 21
7.395897
 31
0.0
 11
5.785890
 21
7.421170
 31
0.0
 11
5.834834
 21
7.501093
 31
0.0
  0
LWPOLYLINE
  5
132
100
AcDbEntity
  8
Layer_1
 62
7
100
AcDbPolyline
 90
3
 70
0
 10
5.834834
 20
7.501093
 30
0.0
 10
5.874659
 20
7.564079
 30
0.0
 10
5.920465
 20
7.492233
 30
0.0
  0
SPLINE
  5
133
100
AcDbEntity
  8
Layer_1
 62
7
100
AcDbSpline
 70
0
 71
3
 72
10
 73
6
 74
4
 40
0.000000
 40
0.000000
 40
0.000000
 40
0.000000
 40
0.044998
 40
0.081061
 40
0.100383
 40
0.100383
 40
0.100383
 40
0.100383
 10
5.920465
 20
7.492233
 30
0.0
 10
5.928515
 20
7.479577
 30
0.0
 10
5.943017
 20
7.456778
 30
0.0
 10
5.960944
 20
7.428523
 30
0.0
 10
5.970681
 20
7.412838
 30
0.0
 10
5.974078
 20
7.407366
 30
0.0
 11
5.920465
 21
7.492233
 31
0.0
 11
5.944607
 21
7.454259
 31
0.0
 11
5.963868
 21
7.423770
 31
0.0
 11
5.974078
 21
7.407366
 31
0.0
  0
LWPOLYLINE
  5
134
100
AcDbEntity
  8
Layer_1
 62
7
100
AcDbPolyline
 90
1
 70
1
 10
5.974078
 20
7.407366
 30
0.0
  0
ENDSEC
  0
SECTION
  2
OBJECTS
  0
DICTIONARY
  5
C
330
0
100
AcDbDictionary
  3
ACAD_GROUP
350
D
  3
ACAD_MLINESTYLE
350
17
  0
DICTIONARY
  5
D
330
C
100
AcDbDictionary
  0
DICTIONARY
  5
1A
330
C
100
AcDbDictionary
  0
DICTIONARY
  5
17
330
C
100
AcDbDictionary
  3
STANDARD
350
18
  0
DICTIONARY
  5
19
330
C
100
AcDbDictionary
  0
ENDSEC
  0
EOF
