<?xml version="1.0" encoding="UTF-8" standalone="no"?>
<!-- Created with Inkscape (http://www.inkscape.org/) -->

<svg
   xmlns:dc="http://purl.org/dc/elements/1.1/"
   xmlns:cc="http://creativecommons.org/ns#"
   xmlns:rdf="http://www.w3.org/1999/02/22-rdf-syntax-ns#"
   xmlns:svg="http://www.w3.org/2000/svg"
   xmlns="http://www.w3.org/2000/svg"
   xmlns:sodipodi="http://sodipodi.sourceforge.net/DTD/sodipodi-0.dtd"
   xmlns:inkscape="http://www.inkscape.org/namespaces/inkscape"
   width="210mm"
   height="297mm"
   viewBox="0 0 210 297"
   version="1.1"
   id="svg8"
   inkscape:version="0.92.4 (5da689c313, 2019-01-14)"
   sodipodi:docname="Label.svg">
  <defs
     id="defs2" />
  <sodipodi:namedview
     id="base"
     pagecolor="#ffffff"
     bordercolor="#666666"
     borderopacity="1.0"
     inkscape:pageopacity="0.0"
     inkscape:pageshadow="2"
     inkscape:zoom="0.98994949"
     inkscape:cx="222.0666"
     inkscape:cy="897.07622"
     inkscape:document-units="mm"
     inkscape:current-layer="layer1"
     showgrid="false"
     inkscape:window-width="1536"
     inkscape:window-height="841"
     inkscape:window-x="-8"
     inkscape:window-y="712"
     inkscape:window-maximized="1" />
  <metadata
     id="metadata5">
    <rdf:RDF>
      <cc:Work
         rdf:about="">
        <dc:format>image/svg+xml</dc:format>
        <dc:type
           rdf:resource="http://purl.org/dc/dcmitype/StillImage" />
        <dc:title></dc:title>
      </cc:Work>
    </rdf:RDF>
  </metadata>
  <g
     inkscape:label="Layer 1"
     inkscape:groupmode="layer"
     id="layer1">
    <text
       xml:space="preserve"
       style="font-style:normal;font-variant:normal;font-weight:normal;font-stretch:normal;font-size:10.58333302px;line-height:1.25;font-family:Gothic;-inkscape-font-specification:Gothic;letter-spacing:0px;word-spacing:0px;fill:#000000;fill-opacity:1;stroke:none;stroke-width:0.26458332"
       x="194.83948"
       y="77.304443"
       id="text1420"><tspan
         sodipodi:role="line"
         id="tspan1418"
         x="194.83948"
         y="86.668213"
         style="stroke-width:0.26458332"></tspan></text>
    <rect
       style="opacity:1;fill:#ffffff;fill-opacity:1;fill-rule:nonzero;stroke:none;stroke-width:1.00281477;stroke-linejoin:bevel;stroke-miterlimit:4;stroke-dasharray:none;stroke-dashoffset:0;stroke-opacity:1"
       id="rect1894"
       width="45.330696"
       height="110.3746"
       x="47.828957"
       y="11.51688"
       ry="8.4291601"
       inkscape:export-xdpi="400"
       inkscape:export-ydpi="400" />
    <g
       id="g2390"
       transform="translate(1.6569824e-6)"
       inkscape:export-xdpi="400"
       inkscape:export-ydpi="400">
      <g
         style="fill:#000000;fill-opacity:1"
         transform="translate(-6.2179063,0.20138491)"
         id="g2150">
        <path
           inkscape:connector-curvature="0"
           id="path1928"
           style="font-style:normal;font-variant:normal;font-weight:normal;font-stretch:normal;font-size:6.3047924px;line-height:1.25;font-family:Gothic;-inkscape-font-specification:Gothic;letter-spacing:0px;word-spacing:0px;fill:#000000;fill-opacity:1;stroke:none;stroke-width:0.1576198"
           d="m 57.566203,16.536156 h 0.621859 v 1.942541 l 2.062603,-1.942541 h 0.800413 l -2.281177,2.142644 2.444339,2.453574 h -0.818885 l -2.207293,-2.21345 v 2.21345 h -0.621859 z" />
        <path
           inkscape:connector-curvature="0"
           id="path1930"
           style="font-style:normal;font-variant:normal;font-weight:normal;font-stretch:normal;font-size:6.3047924px;line-height:1.25;font-family:Gothic;-inkscape-font-specification:Gothic;letter-spacing:0px;word-spacing:0px;fill:#000000;fill-opacity:1;stroke:none;stroke-width:0.1576198"
           d="m 64.320458,19.266796 v 0.277066 h -2.604421 q 0.03694,0.584917 0.35095,0.892768 0.317087,0.304773 0.880455,0.304773 0.326322,0 0.631095,-0.08004 0.307851,-0.08004 0.609545,-0.240123 v 0.535661 q -0.304773,0.129297 -0.624938,0.197024 -0.320165,0.06773 -0.649566,0.06773 -0.825041,0 -1.308368,-0.480248 -0.480247,-0.480248 -0.480247,-1.299132 0,-0.846591 0.455619,-1.342231 0.458699,-0.498719 1.234484,-0.498719 0.695743,0 1.099028,0.449462 0.406364,0.446385 0.406364,1.216013 z m -0.566446,-0.16624 q -0.0062,-0.464855 -0.261674,-0.741921 -0.252438,-0.277066 -0.671115,-0.277066 -0.474091,0 -0.760393,0.26783 -0.283223,0.267831 -0.326322,0.754235 z" />
        <path
           inkscape:connector-curvature="0"
           id="path1932"
           style="font-style:normal;font-variant:normal;font-weight:normal;font-stretch:normal;font-size:6.3047924px;line-height:1.25;font-family:Gothic;-inkscape-font-specification:Gothic;letter-spacing:0px;word-spacing:0px;fill:#000000;fill-opacity:1;stroke:none;stroke-width:0.1576198"
           d="m 66.684755,21.452539 q -0.240124,0.615702 -0.467934,0.803492 -0.227809,0.187789 -0.609545,0.187789 h -0.452541 v -0.474091 h 0.332479 q 0.233967,0 0.363264,-0.110826 0.129298,-0.110827 0.286302,-0.523347 l 0.101591,-0.258595 -1.394566,-3.392521 h 0.60031 l 1.077479,2.696777 1.077479,-2.696777 h 0.60031 z" />
        <path
           inkscape:connector-curvature="0"
           id="path1934"
           style="font-style:normal;font-variant:normal;font-weight:normal;font-stretch:normal;font-size:6.3047924px;line-height:1.25;font-family:Gothic;-inkscape-font-specification:Gothic;letter-spacing:0px;word-spacing:0px;fill:#000000;fill-opacity:1;stroke:none;stroke-width:0.1576198"
           d="m 72.324588,18.081569 q -0.455619,0 -0.720371,0.357107 -0.264752,0.354029 -0.264752,0.97281 0,0.618781 0.261673,0.975888 0.264752,0.354029 0.72345,0.354029 0.452542,0 0.717294,-0.357108 0.264752,-0.357107 0.264752,-0.972809 0,-0.612624 -0.264752,-0.969732 -0.264752,-0.360185 -0.717294,-0.360185 z m 0,-0.480248 q 0.738843,0 1.160599,0.480248 0.421757,0.480247 0.421757,1.329917 0,0.84659 -0.421757,1.329917 -0.421756,0.480248 -1.160599,0.480248 -0.741921,0 -1.163677,-0.480248 -0.418678,-0.483327 -0.418678,-1.329917 0,-0.84967 0.418678,-1.329917 0.421756,-0.480248 1.163677,-0.480248 z" />
        <path
           inkscape:connector-curvature="0"
           id="path1936"
           style="font-style:normal;font-variant:normal;font-weight:normal;font-stretch:normal;font-size:6.3047924px;line-height:1.25;font-family:Gothic;-inkscape-font-specification:Gothic;letter-spacing:0px;word-spacing:0px;fill:#000000;fill-opacity:1;stroke:none;stroke-width:0.1576198"
           d="m 77.708907,19.0513 v 2.081074 H 77.14246 v -2.062603 q 0,-0.489484 -0.190867,-0.732686 -0.190868,-0.243202 -0.572604,-0.243202 -0.458698,0 -0.72345,0.292458 -0.264752,0.292459 -0.264752,0.797335 v 1.948698 H 74.821262 V 17.68444 h 0.569525 v 0.535662 q 0.203182,-0.31093 0.477169,-0.464856 0.277066,-0.153925 0.637252,-0.153925 0.594153,0 0.898926,0.369421 0.304773,0.366343 0.304773,1.080558 z" />
      </g>
      <g
         style="fill:#000000;fill-opacity:1"
         transform="translate(-2.0568613,-24.178079)"
         id="g2090">
        <path
           inkscape:connector-curvature="0"
           id="path1939"
           style="font-style:normal;font-variant:normal;font-weight:normal;font-stretch:normal;font-size:6.30479288px;line-height:1.25;font-family:Gothic;-inkscape-font-specification:Gothic;letter-spacing:0px;word-spacing:0px;fill:#000000;fill-opacity:1;stroke:none;stroke-width:0.1576198"
           d="m 53.405158,51.899982 h 0.621859 v 1.884049 h 2.259628 v -1.884049 h 0.62186 v 4.596219 h -0.62186 v -2.188823 h -2.259628 v 2.188823 h -0.621859 z" />
        <path
           inkscape:connector-curvature="0"
           id="path1941"
           style="font-style:normal;font-variant:normal;font-weight:normal;font-stretch:normal;font-size:6.30479288px;line-height:1.25;font-family:Gothic;-inkscape-font-specification:Gothic;letter-spacing:0px;word-spacing:0px;fill:#000000;fill-opacity:1;stroke:none;stroke-width:0.1576198"
           d="m 58.121438,53.048267 h 0.566447 v 3.447934 h -0.566447 z m 0,-1.342231 h 0.566447 v 0.717293 h -0.566447 z" />
        <path
           inkscape:connector-curvature="0"
           id="path1943"
           style="font-style:normal;font-variant:normal;font-weight:normal;font-stretch:normal;font-size:6.30479288px;line-height:1.25;font-family:Gothic;-inkscape-font-specification:Gothic;letter-spacing:0px;word-spacing:0px;fill:#000000;fill-opacity:1;stroke:none;stroke-width:0.1576198"
           d="m 61.264599,51.899982 h 3.888161 v 0.523347 h -1.631611 v 4.072872 h -0.624938 v -4.072872 h -1.631612 z" />
        <path
           inkscape:connector-curvature="0"
           id="path1945"
           style="font-style:normal;font-variant:normal;font-weight:normal;font-stretch:normal;font-size:6.30479288px;line-height:1.25;font-family:Gothic;-inkscape-font-specification:Gothic;letter-spacing:0px;word-spacing:0px;fill:#000000;fill-opacity:1;stroke:none;stroke-width:0.1576198"
           d="m 68.597615,54.415126 v 2.081075 h -0.566446 v -2.062604 q 0,-0.489483 -0.190868,-0.732685 -0.190868,-0.243203 -0.572603,-0.243203 -0.458699,0 -0.723451,0.292459 -0.264752,0.292458 -0.264752,0.797334 v 1.948699 h -0.569524 v -4.790165 h 0.569524 v 1.877892 q 0.203182,-0.31093 0.47717,-0.464855 0.277066,-0.153926 0.637252,-0.153926 0.594152,0 0.898925,0.369422 0.304773,0.366343 0.304773,1.080557 z" />
        <path
           inkscape:connector-curvature="0"
           id="path1947"
           style="font-style:normal;font-variant:normal;font-weight:normal;font-stretch:normal;font-size:6.30479288px;line-height:1.25;font-family:Gothic;-inkscape-font-specification:Gothic;letter-spacing:0px;word-spacing:0px;fill:#000000;fill-opacity:1;stroke:none;stroke-width:0.1576198"
           d="m 71.73154,53.577771 q -0.09543,-0.05541 -0.209339,-0.08004 -0.110826,-0.02771 -0.246281,-0.02771 -0.480248,0 -0.738843,0.314008 -0.255516,0.31093 -0.255516,0.895847 v 1.816323 h -0.569525 v -3.447934 h 0.569525 v 0.535661 q 0.178554,-0.314008 0.464855,-0.464855 0.286302,-0.153926 0.695744,-0.153926 0.05849,0 0.129298,0.0092 0.0708,0.0062 0.157004,0.02155 z" />
        <path
           inkscape:connector-curvature="0"
           id="path1949"
           style="font-style:normal;font-variant:normal;font-weight:normal;font-stretch:normal;font-size:6.30479288px;line-height:1.25;font-family:Gothic;-inkscape-font-specification:Gothic;letter-spacing:0px;word-spacing:0px;fill:#000000;fill-opacity:1;stroke:none;stroke-width:0.1576198"
           d="m 73.532471,53.445395 q -0.45562,0 -0.720372,0.357107 -0.264752,0.354029 -0.264752,0.97281 0,0.618781 0.261673,0.975889 0.264752,0.354029 0.723451,0.354029 0.452541,0 0.717293,-0.357108 0.264752,-0.357107 0.264752,-0.97281 0,-0.612624 -0.264752,-0.969731 -0.264752,-0.360186 -0.717293,-0.360186 z m 0,-0.480248 q 0.738842,0 1.160599,0.480248 0.421756,0.480248 0.421756,1.329917 0,0.846591 -0.421756,1.329918 -0.421757,0.480247 -1.160599,0.480247 -0.741922,0 -1.163678,-0.480247 -0.418678,-0.483327 -0.418678,-1.329918 0,-0.849669 0.418678,-1.329917 0.421756,-0.480248 1.163678,-0.480248 z" />
        <path
           inkscape:connector-curvature="0"
           id="path1951"
           style="font-style:normal;font-variant:normal;font-weight:normal;font-stretch:normal;font-size:6.30479288px;line-height:1.25;font-family:Gothic;-inkscape-font-specification:Gothic;letter-spacing:0px;word-spacing:0px;fill:#000000;fill-opacity:1;stroke:none;stroke-width:0.1576198"
           d="m 76.610983,52.0693 v 0.978967 h 1.166756 v 0.440227 h -1.166756 v 1.871736 q 0,0.421756 0.113905,0.541818 0.116984,0.120062 0.471012,0.120062 h 0.581839 v 0.474091 H 77.1959 q -0.655723,0 -0.905082,-0.243203 -0.24936,-0.246281 -0.24936,-0.892768 v -1.871736 h -0.415599 v -0.440227 h 0.415599 V 52.0693 Z" />
        <path
           inkscape:connector-curvature="0"
           id="path1953"
           style="font-style:normal;font-variant:normal;font-weight:normal;font-stretch:normal;font-size:6.30479288px;line-height:1.25;font-family:Gothic;-inkscape-font-specification:Gothic;letter-spacing:0px;word-spacing:0px;fill:#000000;fill-opacity:1;stroke:none;stroke-width:0.1576198"
           d="m 79.086106,52.0693 v 0.978967 h 1.166756 v 0.440227 h -1.166756 v 1.871736 q 0,0.421756 0.113905,0.541818 0.116983,0.120062 0.471012,0.120062 h 0.581839 v 0.474091 h -0.581839 q -0.655723,0 -0.905083,-0.243203 -0.249359,-0.246281 -0.249359,-0.892768 v -1.871736 h -0.415599 v -0.440227 h 0.415599 V 52.0693 Z" />
        <path
           inkscape:connector-curvature="0"
           id="path1955"
           style="font-style:normal;font-variant:normal;font-weight:normal;font-stretch:normal;font-size:6.30479288px;line-height:1.25;font-family:Gothic;-inkscape-font-specification:Gothic;letter-spacing:0px;word-spacing:0px;fill:#000000;fill-opacity:1;stroke:none;stroke-width:0.1576198"
           d="m 81.000941,51.706036 h 0.566446 v 4.790165 h -0.566446 z" />
        <path
           inkscape:connector-curvature="0"
           id="path1957"
           style="font-style:normal;font-variant:normal;font-weight:normal;font-stretch:normal;font-size:6.30479288px;line-height:1.25;font-family:Gothic;-inkscape-font-specification:Gothic;letter-spacing:0px;word-spacing:0px;fill:#000000;fill-opacity:1;stroke:none;stroke-width:0.1576198"
           d="m 85.69875,54.630622 v 0.277066 h -2.604422 q 0.03694,0.584918 0.350951,0.892769 0.317086,0.304773 0.880454,0.304773 0.326323,0 0.631095,-0.08004 0.307851,-0.08004 0.609546,-0.240124 v 0.535661 q -0.304773,0.129298 -0.624938,0.197025 -0.320166,0.06773 -0.649566,0.06773 -0.825042,0 -1.308368,-0.480247 -0.480248,-0.480248 -0.480248,-1.299133 0,-0.84659 0.45562,-1.342231 0.458698,-0.498719 1.234483,-0.498719 0.695744,0 1.099029,0.449463 0.406364,0.446384 0.406364,1.216012 z m -0.566447,-0.166239 q -0.0062,-0.464856 -0.261673,-0.741922 -0.252438,-0.277066 -0.671116,-0.277066 -0.474091,0 -0.760392,0.267831 -0.283223,0.26783 -0.326323,0.754235 z" />
      </g>
      <g
         style="fill:#000000;fill-opacity:1"
         transform="translate(-2.0568613,-21.126556)"
         id="g2103">
        <path
           inkscape:connector-curvature="0"
           id="path1959"
           style="font-style:normal;font-variant:normal;font-weight:normal;font-stretch:normal;font-size:6.30479288px;line-height:1.25;font-family:Gothic;-inkscape-font-specification:Gothic;letter-spacing:0px;word-spacing:0px;fill:#000000;fill-opacity:1;stroke:none;stroke-width:0.1576198"
           d="m 53.405158,59.780973 h 0.621859 v 4.072872 h 2.238079 v 0.523347 h -2.859938 z" />
        <path
           inkscape:connector-curvature="0"
           id="path1961"
           style="font-style:normal;font-variant:normal;font-weight:normal;font-stretch:normal;font-size:6.30479288px;line-height:1.25;font-family:Gothic;-inkscape-font-specification:Gothic;letter-spacing:0px;word-spacing:0px;fill:#000000;fill-opacity:1;stroke:none;stroke-width:0.1576198"
           d="m 58.115281,61.326386 q -0.455619,0 -0.720371,0.357108 -0.264752,0.354028 -0.264752,0.972809 0,0.618781 0.261673,0.975889 0.264752,0.354029 0.72345,0.354029 0.452542,0 0.717294,-0.357108 0.264752,-0.357107 0.264752,-0.97281 0,-0.612624 -0.264752,-0.969731 -0.264752,-0.360186 -0.717294,-0.360186 z m 0,-0.480248 q 0.738843,0 1.160599,0.480248 0.421757,0.480248 0.421757,1.329917 0,0.846591 -0.421757,1.329918 -0.421756,0.480248 -1.160599,0.480248 -0.741921,0 -1.163677,-0.480248 -0.418678,-0.483327 -0.418678,-1.329918 0,-0.849669 0.418678,-1.329917 0.421756,-0.480248 1.163677,-0.480248 z" />
        <path
           inkscape:connector-curvature="0"
           id="path1963"
           style="font-style:normal;font-variant:normal;font-weight:normal;font-stretch:normal;font-size:6.30479288px;line-height:1.25;font-family:Gothic;-inkscape-font-specification:Gothic;letter-spacing:0px;word-spacing:0px;fill:#000000;fill-opacity:1;stroke:none;stroke-width:0.1576198"
           d="m 60.304104,60.929258 h 0.566446 l 0.708058,2.69062 0.704979,-2.69062 h 0.668037 l 0.708058,2.69062 0.704979,-2.69062 h 0.566446 l -0.902004,3.447934 h -0.668037 l -0.741921,-2.826074 -0.745,2.826074 h -0.668037 z" />
        <path
           inkscape:connector-curvature="0"
           id="path1965"
           style="font-style:normal;font-variant:normal;font-weight:normal;font-stretch:normal;font-size:6.30479288px;line-height:1.25;font-family:Gothic;-inkscape-font-specification:Gothic;letter-spacing:0px;word-spacing:0px;fill:#000000;fill-opacity:1;stroke:none;stroke-width:0.1576198"
           d="m 67.187657,59.780973 h 3.888161 v 0.523347 h -1.631612 v 4.072872 H 68.819268 V 60.30432 h -1.631611 z" />
        <path
           inkscape:connector-curvature="0"
           id="path1967"
           style="font-style:normal;font-variant:normal;font-weight:normal;font-stretch:normal;font-size:6.30479288px;line-height:1.25;font-family:Gothic;-inkscape-font-specification:Gothic;letter-spacing:0px;word-spacing:0px;fill:#000000;fill-opacity:1;stroke:none;stroke-width:0.1576198"
           d="m 74.520672,62.296117 v 2.081075 h -0.566446 v -2.062603 q 0,-0.489484 -0.190868,-0.732686 -0.190867,-0.243203 -0.572603,-0.243203 -0.458698,0 -0.72345,0.292459 -0.264752,0.292458 -0.264752,0.797334 v 1.948699 h -0.569525 v -4.790165 h 0.569525 v 1.877892 q 0.203182,-0.31093 0.477169,-0.464855 0.277066,-0.153926 0.637252,-0.153926 0.594153,0 0.898926,0.369422 0.304772,0.366343 0.304772,1.080557 z" />
        <path
           inkscape:connector-curvature="0"
           id="path1969"
           style="font-style:normal;font-variant:normal;font-weight:normal;font-stretch:normal;font-size:6.30479288px;line-height:1.25;font-family:Gothic;-inkscape-font-specification:Gothic;letter-spacing:0px;word-spacing:0px;fill:#000000;fill-opacity:1;stroke:none;stroke-width:0.1576198"
           d="m 77.654598,61.458762 q -0.09543,-0.05541 -0.209339,-0.08004 -0.110827,-0.02771 -0.246281,-0.02771 -0.480248,0 -0.738843,0.314008 -0.255517,0.31093 -0.255517,0.895847 v 1.816323 h -0.569524 v -3.447934 h 0.569524 v 0.535661 q 0.178554,-0.314008 0.464856,-0.464855 0.286301,-0.153926 0.695744,-0.153926 0.05849,0 0.129297,0.0092 0.07081,0.0062 0.157004,0.02155 z" />
        <path
           inkscape:connector-curvature="0"
           id="path1971"
           style="font-style:normal;font-variant:normal;font-weight:normal;font-stretch:normal;font-size:6.30479288px;line-height:1.25;font-family:Gothic;-inkscape-font-specification:Gothic;letter-spacing:0px;word-spacing:0px;fill:#000000;fill-opacity:1;stroke:none;stroke-width:0.1576198"
           d="m 79.455528,61.326386 q -0.45562,0 -0.720372,0.357108 -0.264752,0.354028 -0.264752,0.972809 0,0.618781 0.261674,0.975889 0.264752,0.354029 0.72345,0.354029 0.452541,0 0.717293,-0.357108 0.264752,-0.357107 0.264752,-0.97281 0,-0.612624 -0.264752,-0.969731 -0.264752,-0.360186 -0.717293,-0.360186 z m 0,-0.480248 q 0.738843,0 1.160599,0.480248 0.421756,0.480248 0.421756,1.329917 0,0.846591 -0.421756,1.329918 -0.421756,0.480248 -1.160599,0.480248 -0.741921,0 -1.163677,-0.480248 -0.418678,-0.483327 -0.418678,-1.329918 0,-0.849669 0.418678,-1.329917 0.421756,-0.480248 1.163677,-0.480248 z" />
        <path
           inkscape:connector-curvature="0"
           id="path1973"
           style="font-style:normal;font-variant:normal;font-weight:normal;font-stretch:normal;font-size:6.30479288px;line-height:1.25;font-family:Gothic;-inkscape-font-specification:Gothic;letter-spacing:0px;word-spacing:0px;fill:#000000;fill-opacity:1;stroke:none;stroke-width:0.1576198"
           d="m 82.534039,59.950291 v 0.978967 h 1.166756 v 0.440227 h -1.166756 v 1.871736 q 0,0.421756 0.113905,0.541818 0.116983,0.120062 0.471012,0.120062 h 0.581839 v 0.474091 h -0.581839 q -0.655723,0 -0.905082,-0.243203 -0.24936,-0.246281 -0.24936,-0.892768 v -1.871736 h -0.415599 v -0.440227 h 0.415599 v -0.978967 z" />
        <path
           inkscape:connector-curvature="0"
           id="path1975"
           style="font-style:normal;font-variant:normal;font-weight:normal;font-stretch:normal;font-size:6.30479288px;line-height:1.25;font-family:Gothic;-inkscape-font-specification:Gothic;letter-spacing:0px;word-spacing:0px;fill:#000000;fill-opacity:1;stroke:none;stroke-width:0.1576198"
           d="m 85.009163,59.950291 v 0.978967 h 1.166756 v 0.440227 h -1.166756 v 1.871736 q 0,0.421756 0.113905,0.541818 0.116984,0.120062 0.471012,0.120062 h 0.581839 v 0.474091 H 85.59408 q -0.655723,0 -0.905082,-0.243203 -0.24936,-0.246281 -0.24936,-0.892768 v -1.871736 h -0.415599 v -0.440227 h 0.415599 v -0.978967 z" />
        <path
           inkscape:connector-curvature="0"
           id="path1977"
           style="font-style:normal;font-variant:normal;font-weight:normal;font-stretch:normal;font-size:6.30479288px;line-height:1.25;font-family:Gothic;-inkscape-font-specification:Gothic;letter-spacing:0px;word-spacing:0px;fill:#000000;fill-opacity:1;stroke:none;stroke-width:0.1576198"
           d="m 86.923998,59.587027 h 0.566447 v 4.790165 h -0.566447 z" />
        <path
           inkscape:connector-curvature="0"
           id="path1979"
           style="font-style:normal;font-variant:normal;font-weight:normal;font-stretch:normal;font-size:6.30479288px;line-height:1.25;font-family:Gothic;-inkscape-font-specification:Gothic;letter-spacing:0px;word-spacing:0px;fill:#000000;fill-opacity:1;stroke:none;stroke-width:0.1576198"
           d="m 91.621809,62.511613 v 0.277066 h -2.604421 q 0.03694,0.584918 0.35095,0.892769 0.317087,0.304773 0.880455,0.304773 0.326322,0 0.631095,-0.08004 0.307851,-0.08004 0.609545,-0.240124 v 0.535661 q -0.304773,0.129298 -0.624938,0.197025 -0.320165,0.06773 -0.649566,0.06773 -0.825041,0 -1.308368,-0.480248 -0.480248,-0.480248 -0.480248,-1.299133 0,-0.84659 0.45562,-1.342231 0.458699,-0.498719 1.234484,-0.498719 0.695743,0 1.099028,0.449463 0.406364,0.446384 0.406364,1.216012 z m -0.566446,-0.166239 q -0.0062,-0.464856 -0.261674,-0.741922 -0.252438,-0.277066 -0.671115,-0.277066 -0.474091,0 -0.760393,0.267831 -0.283223,0.26783 -0.326322,0.754235 z" />
      </g>
      <g
         style="fill:#000000;fill-opacity:1"
         transform="translate(-2.1307453,-18.075047)"
         id="g2143">
        <path
           inkscape:connector-curvature="0"
           id="path1989"
           style="font-style:normal;font-variant:normal;font-weight:normal;font-stretch:normal;font-size:6.30479288px;line-height:1.25;font-family:Gothic;-inkscape-font-specification:Gothic;letter-spacing:0px;word-spacing:0px;fill:#000000;fill-opacity:1;stroke:none;stroke-width:0.1576198"
           d="m 69.382636,71.740993 v 1.828636 h -0.569525 v -4.75938 h 0.569525 v 0.523347 q 0.178554,-0.307851 0.449463,-0.45562 0.273987,-0.150847 0.652644,-0.150847 0.628017,0 1.018988,0.498719 0.39405,0.498719 0.39405,1.311446 0,0.812728 -0.39405,1.311447 -0.390971,0.498719 -1.018988,0.498719 -0.378657,0 -0.652644,-0.147769 -0.270909,-0.150847 -0.449463,-0.458698 z m 1.927149,-1.203699 q 0,-0.624937 -0.258595,-0.978966 -0.255517,-0.357108 -0.70498,-0.357108 -0.449462,0 -0.708057,0.357108 -0.255517,0.354029 -0.255517,0.978966 0,0.624938 0.255517,0.982046 0.258595,0.354029 0.708057,0.354029 0.449463,0 0.70498,-0.354029 0.258595,-0.357108 0.258595,-0.982046 z" />
        <g
           style="fill:#000000;fill-opacity:1"
           id="g2112">
          <path
             d="m 53.568319,71.734836 h 1.015909 V 68.22841 l -1.105186,0.221653 v -0.566446 l 1.099029,-0.221653 h 0.621859 v 4.072872 h 1.015909 v 0.523347 h -2.64752 z"
             style="font-style:normal;font-variant:normal;font-weight:normal;font-stretch:normal;font-size:6.30479288px;line-height:1.25;font-family:Gothic;-inkscape-font-specification:Gothic;letter-spacing:0px;word-spacing:0px;fill:#000000;fill-opacity:1;stroke:none;stroke-width:0.1576198"
             id="path1981"
             inkscape:connector-curvature="0" />
          <path
             d="M 58.401583,67.661964 H 58.92493 L 57.324104,72.8431 h -0.523347 z"
             style="font-style:normal;font-variant:normal;font-weight:normal;font-stretch:normal;font-size:6.30479288px;line-height:1.25;font-family:Gothic;-inkscape-font-specification:Gothic;letter-spacing:0px;word-spacing:0px;fill:#000000;fill-opacity:1;stroke:none;stroke-width:0.1576198"
             id="path1983"
             inkscape:connector-curvature="0" />
          <path
             d="m 60.140943,71.734836 h 2.170351 v 0.523347 h -2.91843 v -0.523347 q 0.354029,-0.366343 0.963575,-0.982046 0.612624,-0.618781 0.769628,-0.797334 0.298615,-0.335558 0.415599,-0.566447 0.120062,-0.233966 0.120062,-0.458698 0,-0.366343 -0.258595,-0.597231 -0.255517,-0.230889 -0.668037,-0.230889 -0.292459,0 -0.618781,0.101591 -0.323244,0.101591 -0.692666,0.307851 v -0.628016 q 0.375579,-0.150847 0.701901,-0.22781 0.326322,-0.07696 0.597232,-0.07696 0.714214,0 1.139049,0.357108 0.424835,0.357107 0.424835,0.954338 0,0.283224 -0.107748,0.53874 -0.10467,0.252438 -0.384814,0.597231 -0.07696,0.08928 -0.489484,0.51719 -0.41252,0.424835 -1.163677,1.191385 z"
             style="font-style:normal;font-variant:normal;font-weight:normal;font-stretch:normal;font-size:6.30479288px;line-height:1.25;font-family:Gothic;-inkscape-font-specification:Gothic;letter-spacing:0px;word-spacing:0px;fill:#000000;fill-opacity:1;stroke:none;stroke-width:0.1576198"
             id="path1985"
             inkscape:connector-curvature="0" />
          <path
             d="m 67.744868,68.91184 v 0.535661 q -0.240124,-0.12314 -0.498719,-0.184711 -0.258595,-0.06157 -0.535661,-0.06157 -0.421756,0 -0.634173,0.129298 -0.209339,0.129297 -0.209339,0.387892 0,0.197025 0.150847,0.31093 0.150847,0.110826 0.606467,0.212417 l 0.193946,0.0431 q 0.603388,0.129298 0.855826,0.366343 0.255517,0.233967 0.255517,0.655724 0,0.480247 -0.381736,0.760392 -0.378657,0.280145 -1.043615,0.280145 -0.277066,0 -0.57876,-0.05541 -0.298616,-0.05233 -0.631095,-0.160082 v -0.584918 q 0.314008,0.163162 0.61878,0.246281 0.304773,0.08004 0.603389,0.08004 0.400206,0 0.615702,-0.135455 0.215496,-0.138533 0.215496,-0.387892 0,-0.230889 -0.157004,-0.354029 Q 67.03681,70.872855 66.510385,70.75895 L 66.31336,70.71277 q -0.526426,-0.110827 -0.760392,-0.338637 -0.233967,-0.230888 -0.233967,-0.631095 0,-0.486405 0.344793,-0.751157 0.344793,-0.264752 0.978967,-0.264752 0.314008,0 0.591074,0.04618 0.277066,0.04618 0.511033,0.138533 z"
             style="font-style:normal;font-variant:normal;font-weight:normal;font-stretch:normal;font-size:6.30479288px;line-height:1.25;font-family:Gothic;-inkscape-font-specification:Gothic;letter-spacing:0px;word-spacing:0px;fill:#000000;fill-opacity:1;stroke:none;stroke-width:0.1576198"
             id="path1987"
             inkscape:connector-curvature="0" />
          <path
             d="m 75.78594,70.392604 v 0.277066 h -2.604421 q 0.03694,0.584918 0.35095,0.892769 0.317087,0.304773 0.880455,0.304773 0.326322,0 0.631095,-0.08004 0.307851,-0.08004 0.609545,-0.240124 v 0.535662 q -0.304772,0.129297 -0.624938,0.197024 -0.320165,0.06773 -0.649566,0.06773 -0.825041,0 -1.308367,-0.480248 -0.480248,-0.480248 -0.480248,-1.299132 0,-0.846591 0.455619,-1.342232 0.458699,-0.498719 1.234484,-0.498719 0.695744,0 1.099029,0.449463 0.406363,0.446384 0.406363,1.216012 z m -0.566446,-0.166239 q -0.0062,-0.464856 -0.261674,-0.741922 -0.252437,-0.277066 -0.671115,-0.277066 -0.474091,0 -0.760393,0.267831 -0.283223,0.26783 -0.326322,0.754235 z"
             style="font-style:normal;font-variant:normal;font-weight:normal;font-stretch:normal;font-size:6.30479288px;line-height:1.25;font-family:Gothic;-inkscape-font-specification:Gothic;letter-spacing:0px;word-spacing:0px;fill:#000000;fill-opacity:1;stroke:none;stroke-width:0.1576198"
             id="path1991"
             inkscape:connector-curvature="0" />
          <path
             d="m 79.664866,70.392604 v 0.277066 h -2.604422 q 0.03694,0.584918 0.350951,0.892769 0.317086,0.304773 0.880454,0.304773 0.326322,0 0.631095,-0.08004 0.307851,-0.08004 0.609546,-0.240124 v 0.535662 q -0.304773,0.129297 -0.624938,0.197024 -0.320166,0.06773 -0.649566,0.06773 -0.825042,0 -1.308368,-0.480248 -0.480248,-0.480248 -0.480248,-1.299132 0,-0.846591 0.45562,-1.342232 0.458698,-0.498719 1.234483,-0.498719 0.695744,0 1.099029,0.449463 0.406364,0.446384 0.406364,1.216012 z m -0.566447,-0.166239 q -0.0062,-0.464856 -0.261673,-0.741922 -0.252438,-0.277066 -0.671116,-0.277066 -0.474091,0 -0.760392,0.267831 -0.283223,0.26783 -0.326323,0.754235 z"
             style="font-style:normal;font-variant:normal;font-weight:normal;font-stretch:normal;font-size:6.30479288px;line-height:1.25;font-family:Gothic;-inkscape-font-specification:Gothic;letter-spacing:0px;word-spacing:0px;fill:#000000;fill-opacity:1;stroke:none;stroke-width:0.1576198"
             id="path1993"
             inkscape:connector-curvature="0" />
          <path
             d="m 82.86344,69.333596 v -1.865578 h 0.566446 v 4.790165 H 82.86344 v -0.51719 q -0.178554,0.307851 -0.452542,0.458698 -0.270909,0.147769 -0.652644,0.147769 -0.624938,0 -1.018988,-0.498719 -0.390971,-0.498719 -0.390971,-1.311447 0,-0.812727 0.390971,-1.311446 0.39405,-0.498719 1.018988,-0.498719 0.381735,0 0.652644,0.150847 0.273988,0.147769 0.452542,0.45562 z m -1.930227,1.203698 q 0,0.624938 0.255516,0.982046 0.258595,0.354029 0.708058,0.354029 0.449463,0 0.708058,-0.354029 0.258595,-0.357108 0.258595,-0.982046 0,-0.624937 -0.258595,-0.978966 -0.258595,-0.357108 -0.708058,-0.357108 -0.449463,0 -0.708058,0.357108 -0.255516,0.354029 -0.255516,0.978966 z"
             style="font-style:normal;font-variant:normal;font-weight:normal;font-stretch:normal;font-size:6.30479288px;line-height:1.25;font-family:Gothic;-inkscape-font-specification:Gothic;letter-spacing:0px;word-spacing:0px;fill:#000000;fill-opacity:1;stroke:none;stroke-width:0.1576198"
             id="path1995"
             inkscape:connector-curvature="0" />
        </g>
      </g>
      <path
         inkscape:connector-curvature="0"
         id="path2152"
         d="m 50.886881,23.037323 v 0.263671 H 72.05485 v -0.263671 z"
         style="color:#000000;font-style:normal;font-variant:normal;font-weight:normal;font-stretch:normal;font-size:medium;line-height:normal;font-family:sans-serif;font-variant-ligatures:normal;font-variant-position:normal;font-variant-caps:normal;font-variant-numeric:normal;font-variant-alternates:normal;font-feature-settings:normal;text-indent:0;text-align:start;text-decoration:none;text-decoration-line:none;text-decoration-style:solid;text-decoration-color:#000000;letter-spacing:normal;word-spacing:normal;text-transform:none;writing-mode:lr-tb;direction:ltr;text-orientation:mixed;dominant-baseline:auto;baseline-shift:baseline;text-anchor:start;white-space:normal;shape-padding:0;clip-rule:nonzero;display:inline;overflow:visible;visibility:visible;opacity:1;isolation:auto;mix-blend-mode:normal;color-interpolation:sRGB;color-interpolation-filters:linearRGB;solid-color:#000000;solid-opacity:1;vector-effect:none;fill:#000000;fill-opacity:1;fill-rule:nonzero;stroke:none;stroke-width:0.26458332px;stroke-linecap:butt;stroke-linejoin:miter;stroke-miterlimit:4;stroke-dasharray:none;stroke-dashoffset:0;stroke-opacity:1;color-rendering:auto;image-rendering:auto;shape-rendering:auto;text-rendering:auto;enable-background:accumulate" />
      <path
         inkscape:connector-curvature="0"
         id="path2154"
         d="m 51.076335,34.09201 v 0.265625 H 84.81071 V 34.09201 Z"
         style="color:#000000;font-style:normal;font-variant:normal;font-weight:normal;font-stretch:normal;font-size:medium;line-height:normal;font-family:sans-serif;font-variant-ligatures:normal;font-variant-position:normal;font-variant-caps:normal;font-variant-numeric:normal;font-variant-alternates:normal;font-feature-settings:normal;text-indent:0;text-align:start;text-decoration:none;text-decoration-line:none;text-decoration-style:solid;text-decoration-color:#000000;letter-spacing:normal;word-spacing:normal;text-transform:none;writing-mode:lr-tb;direction:ltr;text-orientation:mixed;dominant-baseline:auto;baseline-shift:baseline;text-anchor:start;white-space:normal;shape-padding:0;clip-rule:nonzero;display:inline;overflow:visible;visibility:visible;opacity:1;isolation:auto;mix-blend-mode:normal;color-interpolation:sRGB;color-interpolation-filters:linearRGB;solid-color:#000000;solid-opacity:1;vector-effect:none;fill:#000000;fill-opacity:1;fill-rule:nonzero;stroke:none;stroke-width:0.26458332px;stroke-linecap:butt;stroke-linejoin:miter;stroke-miterlimit:4;stroke-dasharray:none;stroke-dashoffset:0;stroke-opacity:1;color-rendering:auto;image-rendering:auto;shape-rendering:auto;text-rendering:auto;enable-background:accumulate" />
      <path
         inkscape:connector-curvature="0"
         id="path2156"
         d="m 51.453288,45.431854 v 0.263672 h 38.648437 v -0.263672 z"
         style="color:#000000;font-style:normal;font-variant:normal;font-weight:normal;font-stretch:normal;font-size:medium;line-height:normal;font-family:sans-serif;font-variant-ligatures:normal;font-variant-position:normal;font-variant-caps:normal;font-variant-numeric:normal;font-variant-alternates:normal;font-feature-settings:normal;text-indent:0;text-align:start;text-decoration:none;text-decoration-line:none;text-decoration-style:solid;text-decoration-color:#000000;letter-spacing:normal;word-spacing:normal;text-transform:none;writing-mode:lr-tb;direction:ltr;text-orientation:mixed;dominant-baseline:auto;baseline-shift:baseline;text-anchor:start;white-space:normal;shape-padding:0;clip-rule:nonzero;display:inline;overflow:visible;visibility:visible;opacity:1;isolation:auto;mix-blend-mode:normal;color-interpolation:sRGB;color-interpolation-filters:linearRGB;solid-color:#000000;solid-opacity:1;vector-effect:none;fill:#000000;fill-opacity:1;fill-rule:nonzero;stroke:none;stroke-width:0.26458332px;stroke-linecap:butt;stroke-linejoin:miter;stroke-miterlimit:4;stroke-dasharray:none;stroke-dashoffset:0;stroke-opacity:1;color-rendering:auto;image-rendering:auto;shape-rendering:auto;text-rendering:auto;enable-background:accumulate" />
      <path
         inkscape:connector-curvature="0"
         id="path2158"
         d="M 51.642741,56.109588 V 56.37326 H 81.504069 V 56.109588 Z"
         style="color:#000000;font-style:normal;font-variant:normal;font-weight:normal;font-stretch:normal;font-size:medium;line-height:normal;font-family:sans-serif;font-variant-ligatures:normal;font-variant-position:normal;font-variant-caps:normal;font-variant-numeric:normal;font-variant-alternates:normal;font-feature-settings:normal;text-indent:0;text-align:start;text-decoration:none;text-decoration-line:none;text-decoration-style:solid;text-decoration-color:#000000;letter-spacing:normal;word-spacing:normal;text-transform:none;writing-mode:lr-tb;direction:ltr;text-orientation:mixed;dominant-baseline:auto;baseline-shift:baseline;text-anchor:start;white-space:normal;shape-padding:0;clip-rule:nonzero;display:inline;overflow:visible;visibility:visible;opacity:1;isolation:auto;mix-blend-mode:normal;color-interpolation:sRGB;color-interpolation-filters:linearRGB;solid-color:#000000;solid-opacity:1;vector-effect:none;fill:#000000;fill-opacity:1;fill-rule:nonzero;stroke:none;stroke-width:0.26458332px;stroke-linecap:butt;stroke-linejoin:miter;stroke-miterlimit:4;stroke-dasharray:none;stroke-dashoffset:0;stroke-opacity:1;color-rendering:auto;image-rendering:auto;shape-rendering:auto;text-rendering:auto;enable-background:accumulate" />
      <g
         transform="translate(0,17.991672)"
         id="g2324">
        <g
           id="g2122"
           transform="translate(-2.1061173,5.6165263)"
           style="fill:#000000;fill-opacity:1">
          <path
             d="m 55.686335,76.186364 v 1.714732 h 1.714732 v 0.523347 h -1.714732 v 1.714731 h -0.51719 v -1.714731 h -1.714731 v -0.523347 h 1.714731 v -1.714732 z"
             style="font-style:normal;font-variant:normal;font-weight:normal;font-stretch:normal;font-size:6.30479288px;line-height:1.25;font-family:Gothic;-inkscape-font-specification:Gothic;letter-spacing:0px;word-spacing:0px;fill:#000000;fill-opacity:1;stroke:none;stroke-width:0.1576198"
             id="path1997"
             inkscape:connector-curvature="0" />
          <path
             d="m 60.867471,77.984215 q 0.200104,0.06773 0.387893,0.289381 0.190868,0.221652 0.381735,0.609545 l 0.631095,1.256033 h -0.668037 l -0.587996,-1.17907 q -0.22781,-0.461777 -0.443305,-0.612624 -0.212418,-0.150847 -0.581839,-0.150847 h -0.677273 v 1.942541 h -0.621859 v -4.596219 h 1.403801 q 0.788099,0 1.175992,0.329401 0.387892,0.329401 0.387892,0.994359 0,0.434071 -0.203181,0.720372 -0.200104,0.286302 -0.584918,0.397128 z M 59.309744,76.053988 V 77.6856 h 0.781942 q 0.449463,0 0.677273,-0.206261 0.230888,-0.209338 0.230888,-0.612624 0,-0.403285 -0.230888,-0.606466 -0.22781,-0.206261 -0.677273,-0.206261 z"
             style="font-style:normal;font-variant:normal;font-weight:normal;font-stretch:normal;font-size:6.30479288px;line-height:1.25;font-family:Gothic;-inkscape-font-specification:Gothic;letter-spacing:0px;word-spacing:0px;fill:#000000;fill-opacity:1;stroke:none;stroke-width:0.1576198"
             id="path1999"
             inkscape:connector-curvature="0" />
          <path
             d="m 63.071687,75.542955 h 0.621859 v 4.072872 h 2.238078 v 0.523347 h -2.859937 z"
             style="font-style:normal;font-variant:normal;font-weight:normal;font-stretch:normal;font-size:6.30479288px;line-height:1.25;font-family:Gothic;-inkscape-font-specification:Gothic;letter-spacing:0px;word-spacing:0px;fill:#000000;fill-opacity:1;stroke:none;stroke-width:0.1576198"
             id="path2001"
             inkscape:connector-curvature="0" />
          <path
             d="m 65.112739,75.542955 h 0.668037 l 1.274505,1.890207 1.265268,-1.890207 h 0.668037 l -1.625454,2.407397 v 2.188822 h -0.624938 v -2.188822 z"
             style="font-style:normal;font-variant:normal;font-weight:normal;font-stretch:normal;font-size:6.30479288px;line-height:1.25;font-family:Gothic;-inkscape-font-specification:Gothic;letter-spacing:0px;word-spacing:0px;fill:#000000;fill-opacity:1;stroke:none;stroke-width:0.1576198"
             id="path2003"
             inkscape:connector-curvature="0" />
          <path
             d="m 75.047099,75.896984 v 0.655723 q -0.314008,-0.292458 -0.671115,-0.437149 -0.354029,-0.14469 -0.754236,-0.14469 -0.788099,0 -1.206777,0.483327 -0.418677,0.480248 -0.418677,1.391487 0,0.908161 0.418677,1.391488 0.418678,0.480248 1.206777,0.480248 0.400207,0 0.754236,-0.14469 0.357107,-0.14469 0.671115,-0.437149 v 0.649566 q -0.326322,0.221653 -0.692665,0.332479 -0.363264,0.110827 -0.769628,0.110827 -1.043616,0 -1.643925,-0.637252 -0.60031,-0.640331 -0.60031,-1.745517 0,-1.108264 0.60031,-1.745516 0.600309,-0.640331 1.643925,-0.640331 0.412521,0 0.775785,0.110827 0.366343,0.107748 0.686508,0.326322 z"
             style="font-style:normal;font-variant:normal;font-weight:normal;font-stretch:normal;font-size:6.30479288px;line-height:1.25;font-family:Gothic;-inkscape-font-specification:Gothic;letter-spacing:0px;word-spacing:0px;fill:#000000;fill-opacity:1;stroke:none;stroke-width:0.1576198"
             id="path2005"
             inkscape:connector-curvature="0" />
          <path
             d="m 77.879329,75.964711 q -0.677272,0 -1.077479,0.504876 -0.397128,0.504876 -0.397128,1.376095 0,0.868141 0.397128,1.373017 0.400207,0.504876 1.077479,0.504876 0.677273,0 1.071322,-0.504876 0.397129,-0.504876 0.397129,-1.373017 0,-0.871219 -0.397129,-1.376095 -0.394049,-0.504876 -1.071322,-0.504876 z m 0,-0.504876 q 0.966653,0 1.545413,0.649566 0.578761,0.646488 0.578761,1.736281 0,1.086715 -0.578761,1.736281 -0.57876,0.646488 -1.545413,0.646488 -0.969731,0 -1.55157,-0.646488 -0.57876,-0.646487 -0.57876,-1.736281 0,-1.089793 0.57876,-1.736281 0.581839,-0.649566 1.55157,-0.649566 z"
             style="font-style:normal;font-variant:normal;font-weight:normal;font-stretch:normal;font-size:6.30479288px;line-height:1.25;font-family:Gothic;-inkscape-font-specification:Gothic;letter-spacing:0px;word-spacing:0px;fill:#000000;fill-opacity:1;stroke:none;stroke-width:0.1576198"
             id="path2007"
             inkscape:connector-curvature="0" />
          <path
             d="m 80.976313,75.542955 h 0.62186 v 4.596219 h -0.62186 z"
             style="font-style:normal;font-variant:normal;font-weight:normal;font-stretch:normal;font-size:6.30479288px;line-height:1.25;font-family:Gothic;-inkscape-font-specification:Gothic;letter-spacing:0px;word-spacing:0px;fill:#000000;fill-opacity:1;stroke:none;stroke-width:0.1576198"
             id="path2009"
             inkscape:connector-curvature="0" />
          <path
             d="m 82.835734,75.542955 h 0.62186 v 4.072872 h 2.238078 v 0.523347 h -2.859938 z"
             style="font-style:normal;font-variant:normal;font-weight:normal;font-stretch:normal;font-size:6.30479288px;line-height:1.25;font-family:Gothic;-inkscape-font-specification:Gothic;letter-spacing:0px;word-spacing:0px;fill:#000000;fill-opacity:1;stroke:none;stroke-width:0.1576198"
             id="path2011"
             inkscape:connector-curvature="0" />
        </g>
        <g
           id="g2132"
           style="fill:#000000;fill-opacity:1"
           transform="translate(-1.7459313,8.668052)">
          <path
             d="m 53.094228,86.040682 h 1.659318 v 0.504876 h -1.659318 z"
             style="font-style:normal;font-variant:normal;font-weight:normal;font-stretch:normal;font-size:6.30479288px;line-height:1.25;font-family:Gothic;-inkscape-font-specification:Gothic;letter-spacing:0px;word-spacing:0px;fill:#000000;fill-opacity:1;stroke:none;stroke-width:0.1576198"
             id="path2013"
             inkscape:connector-curvature="0" />
          <path
             d="m 57.862844,85.865206 q 0.200103,0.06773 0.387892,0.289381 0.190868,0.221652 0.381736,0.609545 l 0.631095,1.256033 h -0.668038 l -0.587995,-1.17907 q -0.22781,-0.461777 -0.443306,-0.612624 -0.212417,-0.150847 -0.581839,-0.150847 h -0.677273 v 1.942541 h -0.621859 v -4.596219 h 1.403801 q 0.7881,0 1.175992,0.329401 0.387893,0.329401 0.387893,0.99436 0,0.43407 -0.203182,0.720371 -0.200103,0.286302 -0.584917,0.397128 z m -1.557728,-1.930227 v 1.631612 h 0.781942 q 0.449463,0 0.677273,-0.206261 0.230889,-0.209338 0.230889,-0.612623 0,-0.403286 -0.230889,-0.606467 -0.22781,-0.206261 -0.677273,-0.206261 z"
             style="font-style:normal;font-variant:normal;font-weight:normal;font-stretch:normal;font-size:6.30479288px;line-height:1.25;font-family:Gothic;-inkscape-font-specification:Gothic;letter-spacing:0px;word-spacing:0px;fill:#000000;fill-opacity:1;stroke:none;stroke-width:0.1576198"
             id="path2015"
             inkscape:connector-curvature="0" />
          <path
             d="m 59.0296,83.423946 h 0.668037 l 1.274504,1.890207 1.265269,-1.890207 h 0.668037 l -1.625455,2.407397 v 2.188822 h -0.624938 v -2.188822 z"
             style="font-style:normal;font-variant:normal;font-weight:normal;font-stretch:normal;font-size:6.30479288px;line-height:1.25;font-family:Gothic;-inkscape-font-specification:Gothic;letter-spacing:0px;word-spacing:0px;fill:#000000;fill-opacity:1;stroke:none;stroke-width:0.1576198"
             id="path2017"
             inkscape:connector-curvature="0" />
          <path
             d="m 63.514992,83.423946 h 0.621859 v 4.072872 h 2.238078 v 0.523347 h -2.859937 z"
             style="font-style:normal;font-variant:normal;font-weight:normal;font-stretch:normal;font-size:6.30479288px;line-height:1.25;font-family:Gothic;-inkscape-font-specification:Gothic;letter-spacing:0px;word-spacing:0px;fill:#000000;fill-opacity:1;stroke:none;stroke-width:0.1576198"
             id="path2019"
             inkscape:connector-curvature="0" />
          <path
             d="m 72.473462,83.777975 v 0.655723 q -0.314008,-0.292458 -0.671115,-0.437148 -0.354029,-0.14469 -0.754236,-0.14469 -0.788099,0 -1.206777,0.483326 -0.418677,0.480248 -0.418677,1.391487 0,0.908161 0.418677,1.391488 0.418678,0.480248 1.206777,0.480248 0.400207,0 0.754236,-0.14469 0.357107,-0.14469 0.671115,-0.437149 v 0.649566 q -0.326322,0.221653 -0.692665,0.332479 -0.363264,0.110827 -0.769628,0.110827 -1.043616,0 -1.643925,-0.637252 -0.60031,-0.640331 -0.60031,-1.745517 0,-1.108264 0.60031,-1.745516 0.600309,-0.64033 1.643925,-0.64033 0.412521,0 0.775785,0.110826 0.366343,0.107748 0.686508,0.326322 z"
             style="font-style:normal;font-variant:normal;font-weight:normal;font-stretch:normal;font-size:6.30479288px;line-height:1.25;font-family:Gothic;-inkscape-font-specification:Gothic;letter-spacing:0px;word-spacing:0px;fill:#000000;fill-opacity:1;stroke:none;stroke-width:0.1576198"
             id="path2021"
             inkscape:connector-curvature="0" />
          <path
             d="m 75.305694,83.845702 q -0.677273,0 -1.077479,0.504876 -0.397128,0.504876 -0.397128,1.376095 0,0.868141 0.397128,1.373017 0.400206,0.504876 1.077479,0.504876 0.677273,0 1.071322,-0.504876 0.397128,-0.504876 0.397128,-1.373017 0,-0.871219 -0.397128,-1.376095 -0.394049,-0.504876 -1.071322,-0.504876 z m 0,-0.504875 q 0.966653,0 1.545413,0.649566 0.578761,0.646487 0.578761,1.73628 0,1.086715 -0.578761,1.736281 -0.57876,0.646488 -1.545413,0.646488 -0.969731,0 -1.55157,-0.646488 -0.57876,-0.646487 -0.57876,-1.736281 0,-1.089793 0.57876,-1.73628 0.581839,-0.649566 1.55157,-0.649566 z"
             style="font-style:normal;font-variant:normal;font-weight:normal;font-stretch:normal;font-size:6.30479288px;line-height:1.25;font-family:Gothic;-inkscape-font-specification:Gothic;letter-spacing:0px;word-spacing:0px;fill:#000000;fill-opacity:1;stroke:none;stroke-width:0.1576198"
             id="path2023"
             inkscape:connector-curvature="0" />
          <path
             d="m 78.402676,83.423946 h 0.62186 v 4.596219 h -0.62186 z"
             style="font-style:normal;font-variant:normal;font-weight:normal;font-stretch:normal;font-size:6.30479288px;line-height:1.25;font-family:Gothic;-inkscape-font-specification:Gothic;letter-spacing:0px;word-spacing:0px;fill:#000000;fill-opacity:1;stroke:none;stroke-width:0.1576198"
             id="path2025"
             inkscape:connector-curvature="0" />
          <path
             d="m 80.262099,83.423946 h 0.62186 v 4.072872 h 2.238078 v 0.523347 h -2.859938 z"
             style="font-style:normal;font-variant:normal;font-weight:normal;font-stretch:normal;font-size:6.30479288px;line-height:1.25;font-family:Gothic;-inkscape-font-specification:Gothic;letter-spacing:0px;word-spacing:0px;fill:#000000;fill-opacity:1;stroke:none;stroke-width:0.1576198"
             id="path2027"
             inkscape:connector-curvature="0" />
        </g>
        <path
           style="color:#000000;font-style:normal;font-variant:normal;font-weight:normal;font-stretch:normal;font-size:medium;line-height:normal;font-family:sans-serif;font-variant-ligatures:normal;font-variant-position:normal;font-variant-caps:normal;font-variant-numeric:normal;font-variant-alternates:normal;font-feature-settings:normal;text-indent:0;text-align:start;text-decoration:none;text-decoration-line:none;text-decoration-style:solid;text-decoration-color:#000000;letter-spacing:normal;word-spacing:normal;text-transform:none;writing-mode:lr-tb;direction:ltr;text-orientation:mixed;dominant-baseline:auto;baseline-shift:baseline;text-anchor:start;white-space:normal;shape-padding:0;clip-rule:nonzero;display:inline;overflow:visible;visibility:visible;opacity:1;isolation:auto;mix-blend-mode:normal;color-interpolation:sRGB;color-interpolation-filters:linearRGB;solid-color:#000000;solid-opacity:1;vector-effect:none;fill:#000000;fill-opacity:1;fill-rule:nonzero;stroke:none;stroke-width:0.26458332px;stroke-linecap:butt;stroke-linejoin:miter;stroke-miterlimit:4;stroke-dasharray:none;stroke-dashoffset:0;stroke-opacity:1;color-rendering:auto;image-rendering:auto;shape-rendering:auto;text-rendering:auto;enable-background:accumulate"
           d="m 51.832194,87.349698 v 0.263671 H 84.05485 v -0.263671 z"
           id="path2160"
           inkscape:connector-curvature="0" />
        <path
           style="color:#000000;font-style:normal;font-variant:normal;font-weight:normal;font-stretch:normal;font-size:medium;line-height:normal;font-family:sans-serif;font-variant-ligatures:normal;font-variant-position:normal;font-variant-caps:normal;font-variant-numeric:normal;font-variant-alternates:normal;font-feature-settings:normal;text-indent:0;text-align:start;text-decoration:none;text-decoration-line:none;text-decoration-style:solid;text-decoration-color:#000000;letter-spacing:normal;word-spacing:normal;text-transform:none;writing-mode:lr-tb;direction:ltr;text-orientation:mixed;dominant-baseline:auto;baseline-shift:baseline;text-anchor:start;white-space:normal;shape-padding:0;clip-rule:nonzero;display:inline;overflow:visible;visibility:visible;opacity:1;isolation:auto;mix-blend-mode:normal;color-interpolation:sRGB;color-interpolation-filters:linearRGB;solid-color:#000000;solid-opacity:1;vector-effect:none;fill:#000000;fill-opacity:1;fill-rule:nonzero;stroke:none;stroke-width:0.26458332px;stroke-linecap:butt;stroke-linejoin:miter;stroke-miterlimit:4;stroke-dasharray:none;stroke-dashoffset:0;stroke-opacity:1;color-rendering:auto;image-rendering:auto;shape-rendering:auto;text-rendering:auto;enable-background:accumulate"
           d="M 51.265788,98.500088 V 98.76376 H 83.865397 V 98.500088 Z"
           id="path2162"
           inkscape:connector-curvature="0" />
      </g>
    </g>
  </g>
</svg>
