  0
SECTION
  2
HEADER
  9
$ACADVER
  1
AC1014
  9
$HANDSEED
  5
FFFF
  9
$MEASUREMENT
 70
     1
  0
ENDSEC
  0
SECTION
  2
TABLES
  0
TABLE
  2
VPORT
  5
8
330
0
100
AcDbSymbolTable
 70
     4
  0
VPORT
  5
2E
330
8
100
AcDbSymbolTableRecord
100
AcDbViewportTableRecord
  2
*ACTIVE
 70
     0
 10
0.0
 20
0.0
 11
1.0
 21
1.0
 12
210.0
 22
148.5
 13
0.0
 23
0.0
 14
10.0
 24
10.0
 15
10.0
 25
10.0
 16
0.0
 26
0.0
 36
1.0
 17
0.0
 27
0.0
 37
0.0
 40
341.0
 41
1.24
 42
50.0
 43
0.0
 44
0.0
 50
0.0
 51
0.0
 71
     0
 72
   100
 73
     1
 74
     3
 75
     0
 76
     0
 77
     0
 78
     0
  0
ENDTAB
  0
TABLE
  2
LTYPE
  5
5
330
0
100
AcDbSymbolTable
 70
     1
  0
LTYPE
  5
14
330
5
100
AcDbSymbolTableRecord
100
AcDbLinetypeTableRecord
  2
BYBLOCK
 70
     0
  3

 72
    65
 73
     0
 40
0.0
  0
LTYPE
  5
15
330
5
100
AcDbSymbolTableRecord
100
AcDbLinetypeTableRecord
  2
BYLAYER
 70
     0
  3

 72
    65
 73
     0
 40
0.0
  0
LTYPE
  5
16
330
5
100
AcDbSymbolTableRecord
100
AcDbLinetypeTableRecord
  2
CONTINUOUS
 70
     0
  3
Solid line
 72
    65
 73
     0
 40
0.0
  0
ENDTAB
  0
TABLE
  2
LAYER
  5
2
100
AcDbSymbolTable
 70
2
  0
LAYER
  5
50
100
AcDbSymbolTableRecord
100
AcDbLayerTableRecord
  2
0
 70
0
  6
CONTINUOUS
  0
LAYER
  5
51
100
AcDbSymbolTableRecord
100
AcDbLayerTableRecord
  2
Layer_1
 70
0
  6
CONTINUOUS
  0
ENDTAB
  0
TABLE
  2
STYLE
  5
3
330
0
100
AcDbSymbolTable
 70
     1
  0
STYLE
  5
11
330
3
100
AcDbSymbolTableRecord
100
AcDbTextStyleTableRecord
  2
STANDARD
 70
     0
 40
0.0
 41
1.0
 50
0.0
 71
     0
 42
2.5
  3
txt
  4

  0
ENDTAB
  0
TABLE
  2
VIEW
  5
6
330
0
100
AcDbSymbolTable
 70
     0
  0
ENDTAB
  0
TABLE
  2
UCS
  5
7
330
0
100
AcDbSymbolTable
 70
     0
  0
ENDTAB
  0
TABLE
  2
APPID
  5
9
330
0
100
AcDbSymbolTable
 70
     2
  0
APPID
  5
12
330
9
100
AcDbSymbolTableRecord
100
AcDbRegAppTableRecord
  2
ACAD
 70
     0
  0
ENDTAB
  0
TABLE
  2
DIMSTYLE
  5
A
330
0
100
AcDbSymbolTable
 70
     1
  0
DIMSTYLE
105
27
330
A
100
AcDbSymbolTableRecord
100
AcDbDimStyleTableRecord
  2
ISO-25
 70
     0
  3

  4

  5

  6

  7

 40
1.0
 41
2.5
 42
0.625
 43
3.75
 44
1.25
 45
0.0
 46
0.0
 47
0.0
 48
0.0
140
2.5
141
2.5
142
0.0
143
0.03937007874016
144
1.0
145
0.0
146
1.0
147
0.625
 71
     0
 72
     0
 73
     0
 74
     0
 75
     0
 76
     0
 77
     1
 78
     8
170
     0
171
     3
172
     1
173
     0
174
     0
175
     0
176
     0
177
     0
178
     0
270
     2
271
     2
272
     2
273
     2
274
     3
340
11
275
     0
280
     0
281
     0
282
     0
283
     0
284
     8
285
     0
286
     0
287
     3
288
     0
  0
ENDTAB
  0
TABLE
  2
BLOCK_RECORD
  5
1
330
0
100
AcDbSymbolTable
 70
     1
  0
BLOCK_RECORD
  5
1F
330
1
100
AcDbSymbolTableRecord
100
AcDbBlockTableRecord
  2
*MODEL_SPACE
  0
BLOCK_RECORD
  5
1B
330
1
100
AcDbSymbolTableRecord
100
AcDbBlockTableRecord
  2
*PAPER_SPACE
  0
ENDTAB
  0
ENDSEC
  0
SECTION
  2
BLOCKS
  0
BLOCK
  5
20
330
1F
100
AcDbEntity
  8
0
100
AcDbBlockBegin
  2
*MODEL_SPACE
 70
     0
 10
0.0
 20
0.0
 30
0.0
  3
*MODEL_SPACE
  1

  0
ENDBLK
  5
21
330
1F
100
AcDbEntity
  8
0
100
AcDbBlockEnd
  0
BLOCK
  5
1C
330
1B
100
AcDbEntity
 67
     1
  8
0
100
AcDbBlockBegin
  2
*PAPER_SPACE
  1

  0
ENDBLK
  5
1D
330
1B
100
AcDbEntity
 67
     1
  8
0
100
AcDbBlockEnd
  0
ENDSEC
  0
SECTION
  2
ENTITIES
  0
LINE
  5
100
100
AcDbEntity
  8
Layer_1
 62
7
100
AcDbLine
 10
2.006605
 20
3.205497
 30
0.0
 11
2.006605
 21
3.205498
 31
0.0
  0
SPLINE
  5
101
100
AcDbEntity
  8
Layer_1
 62
7
100
AcDbSpline
 70
0
 71
3
 72
31
 73
27
 74
25
 40
0.000000
 40
0.000000
 40
0.000000
 40
0.000000
 40
0.051765
 40
0.109262
 40
0.159638
 40
0.178213
 40
0.187975
 40
0.205586
 40
0.224185
 40
0.237293
 40
0.274636
 40
0.355199
 40
0.397844
 40
0.445018
 40
0.483926
 40
0.507851
 40
0.532531
 40
0.553792
 40
0.569327
 40
0.608967
 40
0.695593
 40
0.773862
 40
0.840687
 40
0.871254
 40
0.892930
 40
0.928823
 40
0.928823
 40
0.928823
 40
0.928823
 10
2.006605
 20
3.205498
 30
0.0
 10
1.992661
 20
3.215773
 30
0.0
 10
1.963228
 20
3.237461
 30
0.0
 10
1.933842
 20
3.284415
 30
0.0
 10
1.924484
 20
3.324122
 30
0.0
 10
1.921130
 20
3.352647
 30
0.0
 10
1.934409
 20
3.363870
 30
0.0
 10
1.949359
 20
3.358315
 30
0.0
 10
1.969107
 20
3.350230
 30
0.0
 10
1.976379
 20
3.377187
 30
0.0
 10
1.964311
 20
3.418345
 30
0.0
 10
1.961748
 20
3.466490
 30
0.0
 10
2.000403
 20
3.540746
 30
0.0
 10
2.023324
 20
3.477248
 30
0.0
 10
2.026457
 20
3.445751
 30
0.0
 10
2.053423
 20
3.421712
 30
0.0
 10
2.074668
 20
3.438053
 30
0.0
 10
2.086404
 20
3.461316
 30
0.0
 10
2.111722
 20
3.442574
 30
0.0
 10
2.127698
 20
3.399965
 30
0.0
 10
2.151173
 20
3.334097
 30
0.0
 10
2.141005
 20
3.253120
 30
0.0
 10
2.100534
 20
3.207284
 30
0.0
 10
2.064405
 20
3.188066
 30
0.0
 10
2.033947
 20
3.189709
 30
0.0
 10
2.017105
 20
3.199434
 30
0.0
 10
2.006605
 20
3.205497
 30
0.0
 11
2.006605
 21
3.205498
 31
0.0
 11
1.966864
 21
3.238668
 31
0.0
 11
1.935905
 21
3.287119
 31
0.0
 11
1.923286
 21
3.335889
 31
0.0
 11
1.924792
 21
3.354403
 31
0.0
 11
1.932266
 21
3.360682
 31
0.0
 11
1.949683
 21
3.358065
 31
0.0
 11
1.968086
 21
3.355378
 31
0.0
 11
1.973154
 21
3.367466
 31
0.0
 11
1.969193
 21
3.404599
 31
0.0
 11
1.973935
 21
3.485022
 31
0.0
 11
1.998387
 21
3.519960
 31
0.0
 11
2.020929
 21
3.478521
 31
0.0
 11
2.033621
 21
3.441741
 31
0.0
 11
2.053142
 21
3.427909
 31
0.0
 11
2.074207
 21
3.440769
 31
0.0
 11
2.089221
 21
3.455822
 31
0.0
 11
2.102782
 21
3.448243
 31
0.0
 11
2.122431
 21
3.413816
 31
0.0
 11
2.144912
 21
3.330157
 31
0.0
 11
2.132628
 21
3.252859
 31
0.0
 11
2.088832
 21
3.202387
 31
0.0
 11
2.060953
 21
3.189851
 31
0.0
 11
2.039292
 21
3.190670
 31
0.0
 11
2.006605
 21
3.205497
 31
0.0
  0
LINE
  5
102
100
AcDbEntity
  8
Layer_1
 62
7
100
AcDbLine
 10
5.624611
 20
4.166404
 30
0.0
 11
5.484038
 21
4.161195
 31
0.0
  0
LINE
  5
103
100
AcDbEntity
  8
Layer_1
 62
7
100
AcDbLine
 10
5.484038
 20
4.161195
 30
0.0
 11
5.484235
 21
3.943243
 31
0.0
  0
SPLINE
  5
104
100
AcDbEntity
  8
Layer_1
 62
7
100
AcDbSpline
 70
0
 71
3
 72
133
 73
129
 74
127
 40
0.000000
 40
0.000000
 40
0.000000
 40
0.000000
 40
0.178304
 40
0.385636
 40
0.581202
 40
0.858137
 40
1.234293
 40
1.519123
 40
1.611388
 40
1.757790
 40
1.926667
 40
2.207291
 40
2.459897
 40
2.734348
 40
2.813681
 40
2.890749
 40
2.948872
 40
2.997044
 40
3.048034
 40
3.090829
 40
3.147322
 40
3.234420
 40
3.333360
 40
3.441363
 40
3.497105
 40
3.514815
 40
3.537372
 40
3.590982
 40
3.683998
 40
3.821781
 40
4.005227
 40
4.179522
 40
4.522359
 40
4.917161
 40
5.332383
 40
5.434003
 40
5.580118
 40
5.739095
 40
6.060335
 40
6.354786
 40
6.604322
 40
6.692721
 40
6.773538
 40
6.829279
 40
6.870768
 40
6.914272
 40
6.950436
 40
6.996353
 40
7.065733
 40
7.143728
 40
7.242572
 40
7.293871
 40
7.338526
 40
7.398789
 40
7.443596
 40
7.491797
 40
7.548870
 40
7.599245
 40
7.657837
 40
7.722747
 40
7.789120
 40
7.835320
 40
7.847404
 40
7.867594
 40
7.892130
 40
7.916964
 40
7.938025
 40
7.951505
 40
8.098671
 40
8.351108
 40
8.494408
 40
8.535099
 40
8.649567
 40
8.861510
 40
9.091823
 40
9.198502
 40
9.235511
 40
9.258142
 40
9.294097
 40
9.351719
 40
9.435294
 40
9.469648
 40
9.491478
 40
9.524648
 40
9.620539
 40
9.826066
 40
10.028648
 40
10.124957
 40
10.156950
 40
10.182571
 40
10.238424
 40
10.332631
 40
10.427677
 40
10.524064
 40
10.600936
 40
10.658171
 40
10.703166
 40
10.726514
 40
10.745145
 40
10.783111
 40
10.849586
 40
10.905052
 40
10.944980
 40
10.961135
 40
10.985981
 40
11.042660
 40
11.118906
 40
11.194472
 40
11.249378
 40
11.271790
 40
11.301929
 40
11.377069
 40
11.480979
 40
11.613889
 40
11.674303
 40
11.693472
 40
11.718172
 40
11.767253
 40
11.830157
 40
11.936740
 40
11.986454
 40
12.062729
 40
12.137900
 40
12.185115
 40
12.206014
 40
12.228077
 40
12.280529
 40
12.352107
 40
12.352107
 40
12.352107
 40
12.352107
 10
5.678323
 20
3.202286
 30
0.0
 10
5.619330
 20
3.209552
 30
0.0
 10
5.491740
 20
3.225267
 30
0.0
 10
5.298934
 20
3.244007
 30
0.0
 10
5.073346
 20
3.266847
 30
0.0
 10
4.790184
 20
3.268631
 30
0.0
 10
4.477601
 20
3.266105
 30
0.0
 10
4.226723
 20
3.254189
 30
0.0
 10
4.052637
 20
3.242091
 30
0.0
 10
3.916848
 20
3.237389
 30
0.0
 10
3.718321
 20
3.231243
 30
0.0
 10
3.484235
 20
3.228569
 30
0.0
 10
3.215070
 20
3.239226
 30
0.0
 10
3.013834
 20
3.258867
 30
0.0
 10
2.871002
 20
3.273818
 30
0.0
 10
2.799827
 20
3.280743
 30
0.0
 10
2.738915
 20
3.285801
 30
0.0
 10
2.686693
 20
3.290438
 30
0.0
 10
2.639635
 20
3.295484
 30
0.0
 10
2.590107
 20
3.303151
 30
0.0
 10
2.528197
 20
3.308321
 30
0.0
 10
2.447129
 20
3.311812
 30
0.0
 10
2.350437
 20
3.312422
 30
0.0
 10
2.258334
 20
3.316591
 30
0.0
 10
2.205892
 20
3.313031
 30
0.0
 10
2.164386
 20
3.327245
 30
0.0
 10
2.203755
 20
3.353199
 30
0.0
 10
2.253265
 20
3.349295
 30
0.0
 10
2.352027
 20
3.357149
 30
0.0
 10
2.488122
 20
3.346554
 30
0.0
 10
2.653478
 20
3.334196
 30
0.0
 10
2.884966
 20
3.304755
 30
0.0
 10
3.187676
 20
3.274222
 30
0.0
 10
3.572105
 20
3.264420
 30
0.0
 10
3.876011
 20
3.270979
 30
0.0
 10
4.096722
 20
3.282000
 30
0.0
 10
4.232148
 20
3.288270
 30
0.0
 10
4.440658
 20
3.298825
 30
0.0
 10
4.698798
 20
3.307021
 30
0.0
 10
4.987301
 20
3.304767
 30
0.0
 10
5.197833
 20
3.291962
 30
0.0
 10
5.336699
 20
3.277799
 30
0.0
 10
5.411342
 20
3.270637
 30
0.0
 10
5.470490
 20
3.265695
 30
0.0
 10
5.517129
 20
3.260656
 30
0.0
 10
5.557159
 20
3.255090
 30
0.0
 10
5.598085
 20
3.246177
 30
0.0
 10
5.648232
 20
3.239783
 30
0.0
 10
5.712563
 20
3.236101
 30
0.0
 10
5.794747
 20
3.234453
 30
0.0
 10
5.870301
 20
3.233790
 30
0.0
 10
5.936284
 20
3.239115
 30
0.0
 10
5.982044
 20
3.265440
 30
0.0
 10
6.024721
 20
3.291626
 30
0.0
 10
6.055935
 20
3.334811
 30
0.0
 10
6.060093
 20
3.385881
 30
0.0
 10
6.055124
 20
3.438376
 30
0.0
 10
6.024222
 20
3.486855
 30
0.0
 10
5.974646
 20
3.518709
 30
0.0
 10
5.912710
 20
3.538271
 30
0.0
 10
5.857168
 20
3.542094
 30
0.0
 10
5.807791
 20
3.544432
 30
0.0
 10
5.793857
 20
3.520994
 30
0.0
 10
5.788703
 20
3.502826
 30
0.0
 10
5.784885
 20
3.479895
 30
0.0
 10
5.780672
 20
3.456840
 30
0.0
 10
5.774872
 20
3.437722
 30
0.0
 10
5.738663
 20
3.387296
 30
0.0
 10
5.564394
 20
3.435271
 30
0.0
 10
5.428334
 20
3.439147
 30
0.0
 10
5.223323
 20
3.393639
 30
0.0
 10
5.211187
 20
3.502412
 30
0.0
 10
5.207464
 20
3.619762
 30
0.0
 10
5.205087
 20
3.808316
 30
0.0
 10
5.198418
 20
3.989749
 30
0.0
 10
5.200891
 20
4.115553
 30
0.0
 10
5.185311
 20
4.169459
 30
0.0
 10
5.167356
 20
4.196445
 30
0.0
 10
5.164716
 20
4.236198
 30
0.0
 10
5.161480
 20
4.295082
 30
0.0
 10
5.162823
 20
4.351603
 30
0.0
 10
5.159831
 20
4.402093
 30
0.0
 10
5.183963
 20
4.422702
 30
0.0
 10
5.195112
 20
4.473702
 30
0.0
 10
5.193501
 20
4.584537
 30
0.0
 10
5.195290
 20
4.751704
 30
0.0
 10
5.194416
 20
4.924262
 30
0.0
 10
5.196280
 20
5.027147
 30
0.0
 10
5.203305
 20
5.086522
 30
0.0
 10
5.245806
 20
5.091936
 30
0.0
 10
5.301473
 20
5.094162
 30
0.0
 10
5.384639
 20
5.092457
 30
0.0
 10
5.479343
 20
5.090954
 30
0.0
 10
5.569024
 20
5.090487
 30
0.0
 10
5.645486
 20
5.091122
 30
0.0
 10
5.706042
 20
5.092271
 30
0.0
 10
5.745896
 20
5.088069
 30
0.0
 10
5.778363
 20
5.087834
 30
0.0
 10
5.790707
 20
5.061017
 30
0.0
 10
5.793680
 20
5.020851
 30
0.0
 10
5.796753
 20
4.967675
 30
0.0
 10
5.797606
 20
4.912395
 30
0.0
 10
5.795975
 20
4.878233
 30
0.0
 10
5.793503
 20
4.846015
 30
0.0
 10
5.751882
 20
4.856164
 30
0.0
 10
5.705054
 20
4.847750
 30
0.0
 10
5.633702
 20
4.849035
 30
0.0
 10
5.563305
 20
4.848368
 30
0.0
 10
5.517259
 20
4.842542
 30
0.0
 10
5.472946
 20
4.847024
 30
0.0
 10
5.483218
 20
4.791071
 30
0.0
 10
5.472791
 20
4.730416
 30
0.0
 10
5.473352
 20
4.622323
 30
0.0
 10
5.475512
 20
4.524020
 30
0.0
 10
5.468390
 20
4.454074
 30
0.0
 10
5.485216
 20
4.418347
 30
0.0
 10
5.520661
 20
4.424494
 30
0.0
 10
5.563779
 20
4.421178
 30
0.0
 10
5.637617
 20
4.422629
 30
0.0
 10
5.710939
 20
4.437647
 30
0.0
 10
5.786818
 20
4.393922
 30
0.0
 10
5.775376
 20
4.317859
 30
0.0
 10
5.779964
 20
4.252380
 30
0.0
 10
5.776360
 20
4.208160
 30
0.0
 10
5.774060
 20
4.171949
 30
0.0
 10
5.735490
 20
4.174964
 30
0.0
 10
5.691100
 20
4.167922
 30
0.0
 10
5.648941
 20
4.166959
 30
0.0
 10
5.624611
 20
4.166404
 30
0.0
 11
5.678323
 21
3.202286
 31
0.0
 11
5.501272
 21
3.223383
 31
0.0
 11
5.295021
 21
3.244531
 31
0.0
 11
5.100198
 21
3.261564
 31
0.0
 11
4.823335
 21
3.267859
 31
0.0
 11
4.447210
 21
3.263049
 31
0.0
 11
4.162698
 21
3.249574
 31
0.0
 11
4.070617
 21
3.243755
 31
0.0
 11
3.924339
 21
3.237731
 31
0.0
 11
3.755534
 21
3.232808
 31
0.0
 11
3.474916
 21
3.230973
 31
0.0
 11
3.222520
 21
3.241262
 31
0.0
 11
2.949156
 21
3.265679
 31
0.0
 11
2.870241
 21
3.273799
 31
0.0
 11
2.793524
 21
3.281148
 31
0.0
 11
2.735615
 21
3.286136
 31
0.0
 11
2.687641
 21
3.290497
 31
0.0
 11
2.636971
 21
3.296205
 31
0.0
 11
2.594574
 21
3.302023
 31
0.0
 11
2.538316
 21
3.307176
 31
0.0
 11
2.451308
 21
3.311139
 31
0.0
 11
2.352387
 21
3.313056
 31
0.0
 11
2.244400
 21
3.314892
 31
0.0
 11
2.188838
 21
3.319378
 31
0.0
 11
2.173115
 21
3.327528
 31
0.0
 11
2.189885
 21
3.342612
 31
0.0
 11
2.242803
 21
3.351198
 31
0.0
 11
2.335780
 21
3.353919
 31
0.0
 11
2.473425
 21
3.347759
 31
0.0
 11
2.656224
 21
3.332361
 31
0.0
 11
2.829365
 21
3.312339
 31
0.0
 11
3.170668
 21
3.279942
 31
0.0
 11
3.565277
 21
3.267614
 31
0.0
 11
3.980407
 21
3.276381
 31
0.0
 11
4.081911
 21
3.281210
 31
0.0
 11
4.227860
 21
3.288172
 31
0.0
 11
4.386657
 21
3.295761
 31
0.0
 11
4.707761
 21
3.305094
 31
0.0
 11
5.002193
 21
3.301838
 31
0.0
 11
5.251240
 21
3.286198
 31
0.0
 11
5.339222
 21
3.277634
 31
0.0
 11
5.419681
 21
3.270034
 31
0.0
 11
5.475198
 21
3.265043
 31
0.0
 11
5.516441
 21
3.260523
 31
0.0
 11
5.559477
 21
3.254158
 31
0.0
 11
5.594990
 21
3.247327
 31
0.0
 11
5.640495
 21
3.241197
 31
0.0
 11
5.709728
 21
3.236669
 31
0.0
 11
5.787698
 21
3.234723
 31
0.0
 11
5.886538
 21
3.235620
 31
0.0
 11
5.937278
 21
3.243168
 31
0.0
 11
5.977322
 21
3.262931
 31
0.0
 11
6.026314
 21
3.298023
 31
0.0
 11
6.051446
 21
3.335118
 31
0.0
 11
6.058531
 21
3.382795
 31
0.0
 11
6.050236
 21
3.439262
 31
0.0
 11
6.023445
 21
3.481922
 31
0.0
 11
5.975305
 21
3.515323
 31
0.0
 11
5.913613
 21
3.535505
 31
0.0
 11
5.847601
 21
3.542420
 31
0.0
 11
5.802280
 21
3.533447
 31
0.0
 11
5.795689
 21
3.523319
 31
0.0
 11
5.789424
 21
3.504126
 31
0.0
 11
5.784841
 21
3.480022
 31
0.0
 11
5.779937
 21
3.455677
 31
0.0
 11
5.772827
 21
3.435852
 31
0.0
 11
5.765051
 21
3.424841
 31
0.0
 11
5.618087
 21
3.417137
 31
0.0
 11
5.365697
 21
3.421986
 31
0.0
 11
5.223012
 21
3.435253
 31
0.0
 11
5.214512
 21
3.475046
 31
0.0
 11
5.208688
 21
3.589366
 31
0.0
 11
5.204365
 21
3.801265
 31
0.0
 11
5.199869
 21
4.031533
 31
0.0
 11
5.193409
 21
4.138017
 31
0.0
 11
5.181802
 21
4.173159
 31
0.0
 11
5.171302
 21
4.193207
 31
0.0
 11
5.165270
 21
4.228652
 31
0.0
 11
5.162564
 21
4.286210
 31
0.0
 11
5.161478
 21
4.369778
 31
0.0
 11
5.165686
 21
4.403874
 31
0.0
 11
5.179201
 21
4.421017
 31
0.0
 11
5.189807
 21
4.452445
 31
0.0
 11
5.194284
 21
4.548232
 31
0.0
 11
5.194754
 21
4.753758
 31
0.0
 11
5.195243
 21
4.956340
 31
0.0
 11
5.199534
 21
5.052553
 31
0.0
 11
5.209439
 21
5.082974
 31
0.0
 11
5.234017
 21
5.090211
 31
0.0
 11
5.289786
 21
5.093268
 31
0.0
 11
5.383991
 21
5.092542
 31
0.0
 11
5.479026
 21
5.091127
 31
0.0
 11
5.575412
 21
5.090694
 31
0.0
 11
5.652281
 21
5.091337
 31
0.0
 11
5.709515
 21
5.091072
 31
0.0
 11
5.754423
 21
5.088256
 31
0.0
 11
5.777281
 21
5.083500
 31
0.0
 11
5.786923
 21
5.067558
 31
0.0
 11
5.792923
 21
5.030070
 31
0.0
 11
5.796459
 21
4.963689
 31
0.0
 11
5.797047
 21
4.908226
 31
0.0
 11
5.795175
 21
4.868342
 31
0.0
 11
5.791250
 21
4.852670
 31
0.0
 11
5.766425
 21
4.851666
 31
0.0
 11
5.709764
 21
4.850232
 31
0.0
 11
5.633533
 21
4.848680
 31
0.0
 11
5.557992
 21
4.846774
 31
0.0
 11
5.503137
 21
4.844416
 31
0.0
 11
5.480843
 21
4.842115
 31
0.0
 11
5.478474
 21
4.812069
 31
0.0
 11
5.475853
 21
4.736976
 31
0.0
 11
5.473549
 21
4.633091
 31
0.0
 11
5.472312
 21
4.500186
 31
0.0
 11
5.475945
 21
4.439882
 31
0.0
 11
5.486166
 21
4.423665
 31
0.0
 11
5.510819
 21
4.422134
 31
0.0
 11
5.559900
 21
4.422178
 31
0.0
 11
5.622783
 21
4.423783
 31
0.0
 11
5.729362
 21
4.422899
 31
0.0
 11
5.770636
 21
4.395186
 31
0.0
 11
5.778385
 21
4.319306
 31
0.0
 11
5.778382
 21
4.244135
 31
0.0
 11
5.775686
 21
4.196997
 31
0.0
 11
5.770239
 21
4.176820
 31
0.0
 11
5.748430
 21
4.173483
 31
0.0
 11
5.696111
 21
4.169741
 31
0.0
 11
5.624611
 21
4.166404
 31
0.0
  0
LINE
  5
105
100
AcDbEntity
  8
Layer_1
 62
7
100
AcDbLine
 10
5.786377
 20
3.614007
 30
0.0
 11
5.793383
 21
3.579750
 31
0.0
  0
LINE
  5
106
100
AcDbEntity
  8
Layer_1
 62
7
100
AcDbLine
 10
5.793383
 20
3.579750
 30
0.0
 11
5.866066
 21
3.577022
 31
0.0
  0
SPLINE
  5
107
100
AcDbEntity
  8
Layer_1
 62
7
100
AcDbSpline
 70
0
 71
3
 72
19
 73
15
 74
13
 40
0.000000
 40
0.000000
 40
0.000000
 40
0.000000
 40
0.115708
 40
0.199325
 40
0.238116
 40
0.267614
 40
0.311820
 40
0.417253
 40
0.486249
 40
0.539177
 40
0.564863
 40
0.577283
 40
0.594720
 40
0.614058
 40
0.614058
 40
0.614058
 40
0.614058
 10
5.484235
 20
3.943243
 30
0.0
 10
5.484060
 20
3.904889
 30
0.0
 10
5.483760
 20
3.838817
 30
0.0
 10
5.480784
 20
3.757626
 30
0.0
 10
5.476516
 20
3.710253
 30
0.0
 10
5.461249
 20
3.666203
 30
0.0
 10
5.542928
 20
3.662296
 30
0.0
 10
5.603389
 20
3.662862
 30
0.0
 10
5.682797
 20
3.665518
 30
0.0
 10
5.729380
 20
3.661114
 30
0.0
 10
5.763227
 20
3.662738
 30
0.0
 10
5.774735
 20
3.646912
 30
0.0
 10
5.781656
 20
3.632199
 30
0.0
 10
5.784750
 20
3.620276
 30
0.0
 10
5.786377
 20
3.614007
 30
0.0
 11
5.484235
 21
3.943243
 31
0.0
 11
5.482973
 21
3.827542
 31
0.0
 11
5.479333
 21
3.744004
 31
0.0
 11
5.473883
 21
3.705598
 31
0.0
 11
5.470230
 21
3.676327
 31
0.0
 11
5.512668
 21
3.663950
 31
0.0
 11
5.618100
 21
3.663536
 31
0.0
 11
5.687094
 21
3.664085
 31
0.0
 11
5.739980
 21
3.662000
 31
0.0
 11
5.765309
 21
3.657733
 31
0.0
 11
5.773352
 21
3.648268
 31
0.0
 11
5.780921
 21
3.632560
 31
0.0
 11
5.786377
 21
3.614007
 31
0.0
  0
LINE
  5
108
100
AcDbEntity
  8
Layer_1
 62
7
100
AcDbLine
 10
5.678331
 20
3.202272
 30
0.0
 11
5.678323
 21
3.202286
 31
0.0
  0
SPLINE
  5
109
100
AcDbEntity
  8
Layer_1
 62
7
100
AcDbSpline
 70
0
 71
3
 72
19
 73
15
 74
13
 40
0.000000
 40
0.000000
 40
0.000000
 40
0.000000
 40
0.075284
 40
0.137652
 40
0.199067
 40
0.248154
 40
0.290364
 40
0.338677
 40
0.388338
 40
0.435905
 40
0.486411
 40
0.589186
 40
0.707230
 40
0.855626
 40
0.855626
 40
0.855626
 40
0.855626
 10
5.866066
 20
3.577022
 30
0.0
 10
5.891174
 20
3.575326
 30
0.0
 10
5.937083
 20
3.572227
 30
0.0
 10
6.000734
 20
3.549394
 30
0.0
 10
6.045976
 20
3.512741
 30
0.0
 10
6.080092
 20
3.474341
 30
0.0
 10
6.098444
 20
3.430571
 30
0.0
 10
6.101736
 20
3.383486
 30
0.0
 10
6.096005
 20
3.334728
 30
0.0
 10
6.072837
 20
3.289932
 30
0.0
 10
6.023206
 20
3.243790
 30
0.0
 10
5.939718
 20
3.204283
 30
0.0
 10
5.816188
 20
3.187916
 30
0.0
 10
5.727646
 20
3.197137
 30
0.0
 10
5.678331
 20
3.202272
 30
0.0
 11
5.866066
 21
3.577022
 31
0.0
 11
5.940824
 21
3.568141
 31
0.0
 11
5.999215
 21
3.546226
 31
0.0
 11
6.047894
 21
3.508781
 31
0.0
 11
6.079202
 21
3.470974
 31
0.0
 11
6.095517
 21
3.432045
 31
0.0
 11
6.100207
 21
3.383960
 31
0.0
 11
6.092943
 21
3.334833
 31
0.0
 11
6.071215
 21
3.292519
 31
0.0
 11
6.035113
 21
3.257198
 31
0.0
 11
5.943131
 21
3.211351
 31
0.0
 11
5.826461
 21
3.193390
 31
0.0
 11
5.678331
 21
3.202272
 31
0.0
  0
LINE
  5
10a
100
AcDbEntity
  8
Layer_1
 62
7
100
AcDbLine
 10
3.871720
 20
3.408286
 30
0.0
 11
3.761657
 21
3.411223
 31
0.0
  0
LINE
  5
10b
100
AcDbEntity
  8
Layer_1
 62
7
100
AcDbLine
 10
3.761657
 20
3.411223
 30
0.0
 11
3.761578
 21
3.508401
 31
0.0
  0
SPLINE
  5
10c
100
AcDbEntity
  8
Layer_1
 62
7
100
AcDbSpline
 70
0
 71
3
 72
31
 73
27
 74
25
 40
0.000000
 40
0.000000
 40
0.000000
 40
0.000000
 40
0.021541
 40
0.041844
 40
0.062735
 40
0.101196
 40
0.194963
 40
0.394788
 40
0.558441
 40
0.664646
 40
0.705443
 40
0.745448
 40
0.805445
 40
0.840505
 40
0.869576
 40
0.937925
 40
1.030817
 40
1.127230
 40
1.204853
 40
1.247053
 40
1.276384
 40
1.318228
 40
1.376769
 40
1.471128
 40
1.520842
 40
1.624870
 40
1.624870
 40
1.624870
 40
1.624870
 10
4.238017
 20
3.403460
 30
0.0
 10
4.230897
 20
3.404765
 30
0.0
 10
4.217067
 20
3.407300
 30
0.0
 10
4.198946
 20
3.418534
 30
0.0
 10
4.180839
 20
3.438701
 30
0.0
 10
4.168952
 20
3.490034
 30
0.0
 10
4.169373
 20
3.600404
 30
0.0
 10
4.166529
 20
3.751413
 30
0.0
 10
4.170460
 20
3.913160
 30
0.0
 10
4.159652
 20
4.006414
 30
0.0
 10
4.167079
 20
4.083643
 30
0.0
 10
4.106907
 20
4.081248
 30
0.0
 10
4.071211
 20
4.081395
 30
0.0
 10
4.016911
 20
4.083190
 30
0.0
 10
4.023637
 20
4.029496
 30
0.0
 10
4.015875
 20
3.971667
 30
0.0
 10
4.016954
 20
3.883363
 30
0.0
 10
4.013851
 20
3.795150
 30
0.0
 10
4.010606
 20
3.722938
 30
0.0
 10
4.004201
 20
3.673634
 30
0.0
 10
3.995953
 20
3.636587
 30
0.0
 10
3.999205
 20
3.592840
 30
0.0
 10
4.002994
 20
3.529828
 30
0.0
 10
4.030345
 20
3.455955
 30
0.0
 10
3.961915
 20
3.392228
 30
0.0
 10
3.908120
 20
3.401805
 30
0.0
 10
3.871720
 20
3.408286
 30
0.0
 11
4.238017
 21
3.403460
 31
0.0
 11
4.217120
 21
3.408689
 31
0.0
 11
4.199732
 21
3.419171
 31
0.0
 11
4.185933
 21
3.434856
 31
0.0
 11
4.174128
 21
3.471460
 31
0.0
 11
4.169014
 21
3.565088
 31
0.0
 11
4.167907
 21
3.764910
 31
0.0
 11
4.166657
 21
3.928558
 31
0.0
 11
4.163093
 21
4.034703
 31
0.0
 11
4.157490
 21
4.075113
 31
0.0
 11
4.118060
 21
4.081878
 31
0.0
 11
4.058063
 21
4.081929
 31
0.0
 11
4.023649
 21
4.075231
 31
0.0
 11
4.020849
 21
4.046296
 31
0.0
 11
4.018179
 21
3.977999
 31
0.0
 11
4.016218
 21
3.885128
 31
0.0
 11
4.013452
 21
3.788755
 31
0.0
 11
4.008669
 21
3.711279
 31
0.0
 11
4.002906
 21
3.669474
 31
0.0
 11
3.998046
 21
3.640549
 31
0.0
 11
3.998688
 21
3.598710
 31
0.0
 11
4.004887
 21
3.540497
 31
0.0
 11
4.010984
 21
3.446336
 31
0.0
 11
3.975705
 21
3.411310
 31
0.0
 11
3.871720
 21
3.408286
 31
0.0
  0
LINE
  5
10d
100
AcDbEntity
  8
Layer_1
 62
7
100
AcDbLine
 10
3.777726
 20
5.055489
 30
0.0
 11
3.800159
 21
5.093515
 31
0.0
  0
LINE
  5
10e
100
AcDbEntity
  8
Layer_1
 62
7
100
AcDbLine
 10
3.800159
 20
5.093515
 30
0.0
 11
4.051735
 21
5.093279
 31
0.0
  0
SPLINE
  5
10f
100
AcDbEntity
  8
Layer_1
 62
7
100
AcDbSpline
 70
0
 71
3
 72
28
 73
24
 74
22
 40
0.000000
 40
0.000000
 40
0.000000
 40
0.000000
 40
0.054989
 40
0.091296
 40
0.109521
 40
0.120616
 40
0.133011
 40
0.153700
 40
0.189475
 40
0.257847
 40
0.375401
 40
0.502979
 40
0.565569
 40
0.599985
 40
0.673376
 40
0.763282
 40
0.825304
 40
0.857217
 40
0.954559
 40
1.187286
 40
1.424173
 40
1.525067
 40
1.569027
 40
1.569027
 40
1.569027
 40
1.569027
 10
3.761578
 20
3.508401
 30
0.0
 10
3.761834
 20
3.526725
 30
0.0
 10
3.762260
 20
3.557147
 30
0.0
 10
3.764863
 20
3.593641
 30
0.0
 10
3.771710
 20
3.614862
 30
0.0
 10
3.782953
 20
3.624860
 30
0.0
 10
3.779933
 20
3.640990
 30
0.0
 10
3.768652
 20
3.660419
 30
0.0
 10
3.759297
 20
3.701955
 30
0.0
 10
3.757020
 20
3.775568
 30
0.0
 10
3.756738
 20
3.880511
 30
0.0
 10
3.754447
 20
3.981861
 30
0.0
 10
3.755812
 20
4.058869
 30
0.0
 10
3.728928
 20
4.109781
 30
0.0
 10
3.712679
 20
4.174033
 30
0.0
 10
3.710419
 20
4.250760
 30
0.0
 10
3.730547
 20
4.309318
 30
0.0
 10
3.762050
 20
4.365657
 30
0.0
 10
3.748312
 20
4.491759
 30
0.0
 10
3.757033
 20
4.677649
 30
0.0
 10
3.759455
 20
4.866920
 30
0.0
 10
3.752700
 20
4.997202
 30
0.0
 10
3.771899
 20
5.041918
 30
0.0
 10
3.777726
 20
5.055489
 30
0.0
 11
3.761578
 21
3.508401
 31
0.0
 11
3.762980
 21
3.563372
 31
0.0
 11
3.767240
 21
3.599428
 31
0.0
 11
3.774325
 21
3.616219
 31
0.0
 11
3.780832
 21
3.625206
 31
0.0
 11
3.780056
 21
3.637577
 31
0.0
 11
3.771797
 21
3.656546
 31
0.0
 11
3.762534
 21
3.691101
 31
0.0
 11
3.757760
 21
3.759305
 31
0.0
 11
3.756378
 21
3.876852
 31
0.0
 11
3.755120
 21
4.004424
 31
0.0
 11
3.749366
 21
4.066749
 31
0.0
 11
3.735908
 21
4.098424
 31
0.0
 11
3.716416
 21
4.169179
 31
0.0
 11
3.716498
 21
4.259085
 31
0.0
 11
3.736104
 21
4.317926
 31
0.0
 11
3.749677
 21
4.346810
 31
0.0
 11
3.754981
 21
4.444007
 31
0.0
 11
3.755685
 21
4.676733
 31
0.0
 11
3.756387
 21
4.913619
 31
0.0
 11
3.762251
 21
5.014343
 31
0.0
 11
3.777726
 21
5.055489
 31
0.0
  0
LINE
  5
110
100
AcDbEntity
  8
Layer_1
 62
7
100
AcDbLine
 10
4.376880
 20
4.228044
 30
0.0
 11
4.348351
 21
4.184933
 31
0.0
  0
LINE
  5
111
100
AcDbEntity
  8
Layer_1
 62
7
100
AcDbLine
 10
4.348351
 20
4.184933
 30
0.0
 11
4.379879
 21
4.152241
 31
0.0
  0
SPLINE
  5
112
100
AcDbEntity
  8
Layer_1
 62
7
100
AcDbSpline
 70
0
 71
3
 72
16
 73
12
 74
10
 40
0.000000
 40
0.000000
 40
0.000000
 40
0.000000
 40
0.167570
 40
0.251353
 40
0.297072
 40
0.357661
 40
0.448346
 40
0.664212
 40
0.949901
 40
1.098644
 40
1.175704
 40
1.175704
 40
1.175704
 40
1.175704
 10
4.051735
 20
5.093279
 30
0.0
 10
4.107401
 20
5.092876
 30
0.0
 10
4.190900
 20
5.092273
 30
0.0
 10
4.291090
 20
5.091174
 30
0.0
 10
4.351565
 20
5.073776
 30
0.0
 10
4.413293
 20
5.037647
 30
0.0
 10
4.416260
 20
4.902668
 30
0.0
 10
4.420417
 20
4.713244
 30
0.0
 10
4.414884
 20
4.495142
 30
0.0
 10
4.416985
 20
4.321528
 30
0.0
 10
4.387085
 20
4.251830
 30
0.0
 10
4.376880
 20
4.228044
 30
0.0
 11
4.051735
 21
5.093279
 31
0.0
 11
4.219299
 21
5.091927
 31
0.0
 11
4.302891
 21
5.086273
 31
0.0
 11
4.346740
 21
5.073331
 31
0.0
 11
4.396454
 21
5.038696
 31
0.0
 11
4.415220
 21
4.949973
 31
0.0
 11
4.418485
 21
4.734132
 31
0.0
 11
4.416089
 21
4.448453
 31
0.0
 11
4.403902
 21
4.300211
 31
0.0
 11
4.376880
 21
4.228044
 31
0.0
  0
LINE
  5
113
100
AcDbEntity
  8
Layer_1
 62
7
100
AcDbLine
 10
4.238004
 20
3.403466
 30
0.0
 11
4.238017
 21
3.403460
 31
0.0
  0
SPLINE
  5
114
100
AcDbEntity
  8
Layer_1
 62
7
100
AcDbSpline
 70
0
 71
3
 72
16
 73
12
 74
10
 40
0.000000
 40
0.000000
 40
0.000000
 40
0.000000
 40
0.026875
 40
0.053901
 40
0.075544
 40
0.266672
 40
0.576915
 40
0.747354
 40
0.791014
 40
0.864401
 40
0.931414
 40
0.931414
 40
0.931414
 40
0.931414
 10
4.379879
 20
4.152241
 30
0.0
 10
4.385813
 20
4.145523
 30
0.0
 10
4.397714
 20
4.132048
 30
0.0
 10
4.412105
 20
4.111300
 30
0.0
 10
4.448882
 20
4.039924
 30
0.0
 10
4.427993
 20
3.849468
 30
0.0
 10
4.405266
 20
3.665265
 30
0.0
 10
4.470669
 20
3.422577
 30
0.0
 10
4.366718
 20
3.406533
 30
0.0
 10
4.307608
 20
3.400854
 30
0.0
 10
4.260493
 20
3.402622
 30
0.0
 10
4.238004
 20
3.403466
 30
0.0
 11
4.379879
 21
4.152241
 31
0.0
 11
4.397275
 21
4.131756
 31
0.0
 11
4.412573
 21
4.109476
 31
0.0
 11
4.422463
 21
4.090225
 31
0.0
 11
4.433195
 21
3.899398
 31
0.0
 11
4.432287
 21
3.589157
 31
0.0
 11
4.420498
 21
3.419126
 31
0.0
 11
4.378126
 21
3.408599
 31
0.0
 11
4.305007
 21
3.402324
 31
0.0
 11
4.238004
 21
3.403466
 31
0.0
  0
LINE
  5
115
100
AcDbEntity
  8
Layer_1
 62
7
100
AcDbLine
 10
4.149706
 20
4.598639
 30
0.0
 11
4.146037
 21
4.827160
 31
0.0
  0
LINE
  5
116
100
AcDbEntity
  8
Layer_1
 62
7
100
AcDbLine
 10
4.146037
 20
4.827160
 30
0.0
 11
4.104889
 21
4.835741
 31
0.0
  0
SPLINE
  5
117
100
AcDbEntity
  8
Layer_1
 62
7
100
AcDbSpline
 70
0
 71
3
 72
10
 73
6
 74
4
 40
0.000000
 40
0.000000
 40
0.000000
 40
0.000000
 40
0.042346
 40
0.132271
 40
0.250367
 40
0.250367
 40
0.250367
 40
0.250367
 10
4.147911
 20
4.348339
 30
0.0
 10
4.148765
 20
4.362431
 30
0.0
 10
4.151432
 20
4.406448
 30
0.0
 10
4.150748
 20
4.489954
 30
0.0
 10
4.150084
 20
4.559281
 30
0.0
 10
4.149706
 20
4.598639
 30
0.0
 11
4.147911
 21
4.348339
 31
0.0
 11
4.150162
 21
4.390625
 31
0.0
 11
4.150807
 21
4.480547
 31
0.0
 11
4.149706
 21
4.598639
 31
0.0
  0
LINE
  5
118
100
AcDbEntity
  8
Layer_1
 62
7
100
AcDbLine
 10
4.037698
 20
4.841308
 30
0.0
 11
4.011657
 21
4.838292
 31
0.0
  0
LINE
  5
119
100
AcDbEntity
  8
Layer_1
 62
7
100
AcDbLine
 10
4.011657
 20
4.838292
 30
0.0
 11
4.010480
 21
4.635167
 31
0.0
  0
SPLINE
  5
11a
100
AcDbEntity
  8
Layer_1
 62
7
100
AcDbSpline
 70
0
 71
3
 72
10
 73
6
 74
4
 40
0.000000
 40
0.000000
 40
0.000000
 40
0.000000
 40
0.024608
 40
0.048829
 40
0.067588
 40
0.067588
 40
0.067588
 40
0.067588
 10
4.104889
 20
4.835741
 30
0.0
 10
4.096809
 20
4.837150
 30
0.0
 10
4.080776
 20
4.839947
 30
0.0
 10
4.058279
 20
4.842079
 30
0.0
 10
4.043952
 20
4.841542
 30
0.0
 10
4.037698
 20
4.841308
 30
0.0
 11
4.104889
 21
4.835741
 31
0.0
 11
4.080593
 21
4.839650
 31
0.0
 11
4.056454
 21
4.841650
 31
0.0
 11
4.037698
 21
4.841308
 31
0.0
  0
LINE
  5
11b
100
AcDbEntity
  8
Layer_1
 62
7
100
AcDbLine
 10
4.147911
 20
4.348337
 30
0.0
 11
4.147911
 21
4.348339
 31
0.0
  0
SPLINE
  5
11c
100
AcDbEntity
  8
Layer_1
 62
7
100
AcDbSpline
 70
0
 71
3
 72
19
 73
15
 74
13
 40
0.000000
 40
0.000000
 40
0.000000
 40
0.000000
 40
0.108341
 40
0.197138
 40
0.247235
 40
0.270830
 40
0.290017
 40
0.300985
 40
0.314151
 40
0.340946
 40
0.376111
 40
0.420931
 40
0.442893
 40
0.459154
 40
0.459154
 40
0.459154
 40
0.459154
 10
4.010480
 20
4.635167
 30
0.0
 10
4.010092
 20
4.599068
 30
0.0
 10
4.009386
 20
4.533382
 30
0.0
 10
4.006606
 20
4.450871
 30
0.0
 10
4.003568
 20
4.397044
 30
0.0
 10
3.998405
 20
4.365972
 30
0.0
 10
3.998267
 20
4.349016
 30
0.0
 10
3.998237
 20
4.332314
 30
0.0
 10
4.018221
 20
4.329120
 30
0.0
 10
4.041213
 20
4.326154
 30
0.0
 10
4.078063
 20
4.325721
 30
0.0
 10
4.110108
 20
4.326342
 30
0.0
 10
4.141034
 20
4.330235
 30
0.0
 10
4.145859
 20
4.342935
 30
0.0
 10
4.147911
 20
4.348337
 30
0.0
 11
4.010480
 21
4.635167
 31
0.0
 11
4.008860
 21
4.526838
 31
0.0
 11
4.005748
 21
4.438096
 31
0.0
 11
4.001816
 21
4.388154
 31
0.0
 11
3.998850
 21
4.364746
 31
0.0
 11
3.998269
 21
4.345567
 31
0.0
 11
4.000198
 21
4.334770
 31
0.0
 11
4.012499
 21
4.330076
 31
0.0
 11
4.039104
 21
4.326895
 31
0.0
 11
4.074256
 21
4.325917
 31
0.0
 11
4.119040
 21
4.327708
 31
0.0
 11
4.140051
 21
4.334103
 31
0.0
 11
4.147911
 21
4.348337
 31
0.0
  0
LINE
  5
11d
100
AcDbEntity
  8
Layer_1
 62
7
100
AcDbLine
 10
2.256448
 20
3.820953
 30
0.0
 11
2.256448
 21
4.153606
 31
0.0
  0
LINE
  5
11e
100
AcDbEntity
  8
Layer_1
 62
7
100
AcDbLine
 10
2.256448
 20
4.153606
 30
0.0
 11
2.231995
 21
4.169628
 31
0.0
  0
SPLINE
  5
11f
100
AcDbEntity
  8
Layer_1
 62
7
100
AcDbSpline
 70
0
 71
3
 72
13
 73
9
 74
7
 40
0.000000
 40
0.000000
 40
0.000000
 40
0.000000
 40
0.011084
 40
0.027366
 40
0.045786
 40
0.090950
 40
0.199406
 40
0.409367
 40
0.409367
 40
0.409367
 40
0.409367
 10
2.300500
 20
3.423391
 30
0.0
 10
2.297458
 20
3.425525
 30
0.0
 10
2.289947
 20
3.430795
 30
0.0
 10
2.280914
 20
3.443305
 30
0.0
 10
2.266126
 20
3.465672
 30
0.0
 10
2.259292
 20
3.524392
 30
0.0
 10
2.256629
 20
3.644306
 30
0.0
 10
2.256520
 20
3.750759
 30
0.0
 10
2.256448
 20
3.820953
 30
0.0
 11
2.300500
 21
3.423391
 31
0.0
 11
2.291720
 21
3.430156
 31
0.0
 11
2.281428
 21
3.442773
 31
0.0
 11
2.271854
 21
3.458509
 31
0.0
 11
2.262236
 21
3.502637
 31
0.0
 11
2.257630
 21
3.610995
 31
0.0
 11
2.256448
 21
3.820953
 31
0.0
  0
LINE
  5
120
100
AcDbEntity
  8
Layer_1
 62
7
100
AcDbLine
 10
2.258928
 20
4.781002
 30
0.0
 11
2.261657
 21
5.088294
 31
0.0
  0
LINE
  5
121
100
AcDbEntity
  8
Layer_1
 62
7
100
AcDbLine
 10
2.261657
 20
5.088294
 30
0.0
 11
2.497974
 21
5.091093
 31
0.0
  0
LINE
  5
122
100
AcDbEntity
  8
Layer_1
 62
7
100
AcDbLine
 10
2.497974
 20
5.091093
 30
0.0
 11
2.734292
 21
5.093892
 31
0.0
  0
LINE
  5
123
100
AcDbEntity
  8
Layer_1
 62
7
100
AcDbLine
 10
2.734292
 20
5.093892
 30
0.0
 11
2.748049
 21
5.065052
 31
0.0
  0
SPLINE
  5
124
100
AcDbEntity
  8
Layer_1
 62
7
100
AcDbSpline
 70
0
 71
3
 72
16
 73
12
 74
10
 40
0.000000
 40
0.000000
 40
0.000000
 40
0.000000
 40
0.022721
 40
0.053352
 40
0.114591
 40
0.176300
 40
0.218838
 40
0.262472
 40
0.315157
 40
0.409842
 40
0.626695
 40
0.626695
 40
0.626695
 40
0.626695
 10
2.231995
 20
4.169628
 30
0.0
 10
2.225786
 20
4.174425
 30
0.0
 10
2.211205
 20
4.185690
 30
0.0
 10
2.206891
 20
4.226315
 30
0.0
 10
2.205835
 20
4.276166
 30
0.0
 10
2.204754
 20
4.331684
 30
0.0
 10
2.211610
 20
4.381032
 30
0.0
 10
2.231846
 20
4.422923
 30
0.0
 10
2.256301
 20
4.482313
 30
0.0
 10
2.255451
 20
4.605807
 30
0.0
 10
2.257501
 20
4.709102
 30
0.0
 10
2.258928
 20
4.781002
 30
0.0
 11
2.231995
 21
4.169628
 31
0.0
 11
2.215647
 21
4.185407
 31
0.0
 11
2.208357
 21
4.215158
 31
0.0
 11
2.205849
 21
4.276345
 31
0.0
 11
2.206561
 21
4.338050
 31
0.0
 11
2.213646
 21
4.379994
 31
0.0
 11
2.230177
 21
4.420375
 31
0.0
 11
2.248468
 21
4.469783
 31
0.0
 11
2.255993
 21
4.564169
 31
0.0
 11
2.258928
 21
4.781002
 31
0.0
  0
LINE
  5
125
100
AcDbEntity
  8
Layer_1
 62
7
100
AcDbLine
 10
2.800793
 20
5.032980
 30
0.0
 11
2.839782
 21
5.029747
 31
0.0
  0
LINE
  5
126
100
AcDbEntity
  8
Layer_1
 62
7
100
AcDbLine
 10
2.839782
 20
5.029747
 30
0.0
 11
2.839782
 21
4.947657
 31
0.0
  0
SPLINE
  5
127
100
AcDbEntity
  8
Layer_1
 62
7
100
AcDbSpline
 70
0
 71
3
 72
10
 73
6
 74
4
 40
0.000000
 40
0.000000
 40
0.000000
 40
0.000000
 40
0.021322
 40
0.040236
 40
0.065540
 40
0.065540
 40
0.065540
 40
0.065540
 10
2.748049
 20
5.065052
 30
0.0
 10
2.751383
 20
5.058620
 30
0.0
 10
2.757674
 20
5.046482
 30
0.0
 10
2.777566
 20
5.035114
 30
0.0
 10
2.792339
 20
5.033756
 30
0.0
 10
2.800793
 20
5.032980
 30
0.0
 11
2.748049
 21
5.065052
 31
0.0
 11
2.759714
 21
5.047204
 31
0.0
 11
2.775874
 21
5.037377
 31
0.0
 11
2.800793
 21
5.032980
 31
0.0
  0
LINE
  5
128
100
AcDbEntity
  8
Layer_1
 62
7
100
AcDbLine
 10
2.694126
 20
4.846618
 30
0.0
 11
2.568948
 21
4.840324
 31
0.0
  0
LINE
  5
129
100
AcDbEntity
  8
Layer_1
 62
7
100
AcDbLine
 10
2.568948
 20
4.840324
 30
0.0
 11
2.568325
 21
4.771602
 31
0.0
  0
SPLINE
  5
12a
100
AcDbEntity
  8
Layer_1
 62
7
100
AcDbSpline
 70
0
 71
3
 72
13
 73
9
 74
7
 40
0.000000
 40
0.000000
 40
0.000000
 40
0.000000
 40
0.042240
 40
0.074217
 40
0.089547
 40
0.112223
 40
0.161083
 40
0.225665
 40
0.225665
 40
0.225665
 40
0.225665
 10
2.839782
 20
4.947657
 30
0.0
 10
2.839541
 20
4.933396
 30
0.0
 10
2.839118
 20
4.908337
 30
0.0
 10
2.836072
 20
4.880222
 30
0.0
 10
2.831083
 20
4.853979
 30
0.0
 10
2.795896
 20
4.856615
 30
0.0
 10
2.754562
 20
4.848804
 30
0.0
 10
2.716050
 20
4.847411
 30
0.0
 10
2.694126
 20
4.846618
 30
0.0
 11
2.839782
 21
4.947657
 31
0.0
 11
2.838379
 21
4.905441
 31
0.0
 11
2.834700
 21
4.873676
 31
0.0
 11
2.829543
 21
4.859240
 31
0.0
 11
2.807232
 21
4.855190
 31
0.0
 11
2.758582
 21
4.850656
 31
0.0
 11
2.694126
 21
4.846618
 31
0.0
  0
LINE
  5
12b
100
AcDbEntity
  8
Layer_1
 62
7
100
AcDbLine
 10
2.300500
 20
3.423393
 30
0.0
 11
2.300500
 21
3.423391
 31
0.0
  0
SPLINE
  5
12c
100
AcDbEntity
  8
Layer_1
 62
7
100
AcDbSpline
 70
0
 71
3
 72
37
 73
33
 74
31
 40
0.000000
 40
0.000000
 40
0.000000
 40
0.000000
 40
0.051977
 40
0.122185
 40
0.195429
 40
0.270464
 40
0.313277
 40
0.331391
 40
0.352684
 40
0.395219
 40
0.449976
 40
0.562879
 40
0.608942
 40
0.691524
 40
0.787219
 40
0.837923
 40
0.936509
 40
0.998098
 40
1.037126
 40
1.055968
 40
1.106454
 40
1.232922
 40
1.423524
 40
1.603704
 40
1.735621
 40
1.790716
 40
1.805354
 40
1.846138
 40
1.921583
 40
1.987682
 40
2.038330
 40
2.062647
 40
2.062647
 40
2.062647
 40
2.062647
 10
2.568325
 20
4.771602
 30
0.0
 10
2.568014
 20
4.754282
 30
0.0
 10
2.567282
 20
4.713568
 30
0.0
 10
2.565311
 20
4.648376
 30
0.0
 10
2.562286
 20
4.575932
 30
0.0
 10
2.560706
 20
4.511188
 30
0.0
 10
2.560281
 20
4.467913
 30
0.0
 10
2.567885
 20
4.437518
 30
0.0
 10
2.599627
 20
4.437650
 30
0.0
 10
2.636468
 20
4.431949
 30
0.0
 10
2.707427
 20
4.426714
 30
0.0
 10
2.780064
 20
4.441306
 30
0.0
 10
2.855472
 20
4.390248
 30
0.0
 10
2.830067
 20
4.307054
 30
0.0
 10
2.853397
 20
4.227426
 30
0.0
 10
2.786504
 20
4.163652
 30
0.0
 10
2.711344
 20
4.180031
 30
0.0
 10
2.645372
 20
4.175589
 30
0.0
 10
2.606492
 20
4.174051
 30
0.0
 10
2.568763
 20
4.161784
 30
0.0
 10
2.584181
 20
4.080385
 30
0.0
 10
2.566961
 20
3.970123
 30
0.0
 10
2.570495
 20
3.799903
 30
0.0
 10
2.577391
 20
3.629331
 30
0.0
 10
2.557156
 20
3.517079
 30
0.0
 10
2.583957
 20
3.435801
 30
0.0
 10
2.549281
 20
3.416512
 30
0.0
 10
2.504929
 20
3.419219
 30
0.0
 10
2.444539
 20
3.416307
 30
0.0
 10
2.380410
 20
3.418428
 30
0.0
 10
2.333344
 20
3.419193
 30
0.0
 10
2.308544
 20
3.422364
 30
0.0
 10
2.300500
 20
3.423393
 30
0.0
 11
2.568325
 21
4.771602
 31
0.0
 11
2.567301
 21
4.719635
 31
0.0
 11
2.565212
 21
4.649458
 31
0.0
 11
2.562513
 21
4.576264
 31
0.0
 11
2.560686
 21
4.501251
 31
0.0
 11
2.563080
 21
4.458506
 31
0.0
 11
2.570047
 21
4.441784
 31
0.0
 11
2.590854
 21
4.437263
 31
0.0
 11
2.633172
 21
4.432968
 31
0.0
 11
2.687839
 21
4.429829
 31
0.0
 11
2.800561
 21
4.423444
 31
0.0
 11
2.837054
 21
4.395337
 31
0.0
 11
2.839782
 21
4.312800
 31
0.0
 11
2.834528
 21
4.217250
 31
0.0
 11
2.798143
 21
4.181937
 31
0.0
 11
2.699688
 21
4.176838
 31
0.0
 11
2.638116
 21
4.175441
 31
0.0
 11
2.599324
 21
4.171150
 31
0.0
 11
2.581967
 21
4.163817
 31
0.0
 11
2.576389
 21
4.113641
 31
0.0
 11
2.572688
 21
3.987227
 31
0.0
 11
2.571217
 21
3.796630
 31
0.0
 11
2.570894
 21
3.616450
 31
0.0
 11
2.570418
 21
3.484535
 31
0.0
 11
2.569890
 21
3.429442
 31
0.0
 11
2.557387
 21
3.421830
 31
0.0
 11
2.516786
 21
3.417977
 31
0.0
 11
2.441344
 21
3.417244
 31
0.0
 11
2.375255
 21
3.418388
 31
0.0
 11
2.324656
 21
3.420598
 31
0.0
 11
2.300500
 21
3.423393
 31
0.0
  0
LINE
  5
12d
100
AcDbEntity
  8
Layer_1
 62
7
100
AcDbLine
 10
3.252618
 20
3.654708
 30
0.0
 11
3.278863
 21
3.630052
 31
0.0
  0
LINE
  5
12e
100
AcDbEntity
  8
Layer_1
 62
7
100
AcDbLine
 10
3.278863
 20
3.630052
 30
0.0
 11
3.319739
 21
3.673874
 31
0.0
  0
LINE
  5
12f
100
AcDbEntity
  8
Layer_1
 62
7
100
AcDbLine
 10
3.319739
 20
3.673874
 30
0.0
 11
3.360615
 21
3.717695
 31
0.0
  0
LINE
  5
130
100
AcDbEntity
  8
Layer_1
 62
7
100
AcDbLine
 10
3.360615
 20
3.717695
 30
0.0
 11
3.359914
 21
3.876953
 31
0.0
  0
SPLINE
  5
131
100
AcDbEntity
  8
Layer_1
 62
7
100
AcDbSpline
 70
0
 71
3
 72
31
 73
27
 74
25
 40
0.000000
 40
0.000000
 40
0.000000
 40
0.000000
 40
0.023958
 40
0.048146
 40
0.067767
 40
0.479417
 40
1.213458
 40
1.612343
 40
1.623732
 40
1.644711
 40
1.671048
 40
1.706884
 40
1.733942
 40
1.775534
 40
1.816252
 40
1.843784
 40
1.876995
 40
1.927628
 40
1.979032
 40
2.106189
 40
2.244880
 40
2.459544
 40
2.703749
 40
3.042791
 40
3.181963
 40
3.249418
 40
3.249418
 40
3.249418
 40
3.249418
 10
2.962736
 20
3.445780
 30
0.0
 10
2.956920
 20
3.451258
 30
0.0
 10
2.945232
 20
3.462267
 30
0.0
 10
2.931057
 20
3.480031
 30
0.0
 10
2.859367
 20
3.614544
 30
0.0
 10
2.939106
 20
4.043673
 30
0.0
 10
3.003798
 20
4.460486
 30
0.0
 10
2.799273
 20
4.994275
 30
0.0
 10
2.934392
 20
5.048895
 30
0.0
 10
2.953954
 20
5.051276
 30
0.0
 10
2.981380
 20
5.053423
 30
0.0
 10
3.011817
 20
5.056130
 30
0.0
 10
3.044355
 20
5.040432
 30
0.0
 10
3.068022
 20
5.012198
 30
0.0
 10
3.092338
 20
4.984741
 30
0.0
 10
3.123404
 20
4.968225
 30
0.0
 10
3.159684
 20
4.968247
 30
0.0
 10
3.214051
 20
4.970930
 30
0.0
 10
3.226500
 20
4.880357
 30
0.0
 10
3.212033
 20
4.783097
 30
0.0
 10
3.208098
 20
4.619664
 30
0.0
 10
3.203080
 20
4.422268
 30
0.0
 10
3.197682
 20
4.153999
 30
0.0
 10
3.206847
 20
3.920771
 30
0.0
 10
3.192370
 20
3.726367
 30
0.0
 10
3.237790
 20
3.672344
 30
0.0
 10
3.252618
 20
3.654708
 30
0.0
 11
2.962736
 21
3.445780
 31
0.0
 11
2.945688
 21
3.462613
 31
0.0
 11
2.930793
 21
3.481672
 31
0.0
 11
2.921275
 21
3.498828
 31
0.0
 11
2.913120
 21
3.910398
 31
0.0
 11
2.912912
 21
4.644439
 31
0.0
 11
2.920838
 21
5.043245
 31
0.0
 11
2.931467
 21
5.047335
 31
0.0
 11
2.952137
 21
5.050921
 31
0.0
 11
2.978373
 21
5.053228
 31
0.0
 11
3.014206
 21
5.052709
 31
0.0
 11
3.038816
 21
5.041465
 31
0.0
 11
3.068315
 21
5.012144
 31
0.0
 11
3.097317
 21
4.983563
 31
0.0
 11
3.121909
 21
4.971183
 31
0.0
 11
3.155012
 21
4.968502
 31
0.0
 11
3.205006
 21
4.960487
 31
0.0
 11
3.220907
 21
4.911604
 31
0.0
 11
3.214835
 21
4.784593
 31
0.0
 11
3.208709
 21
4.646036
 31
0.0
 11
3.203492
 21
4.431436
 31
0.0
 11
3.200312
 21
4.187252
 31
0.0
 11
3.199956
 21
3.848210
 31
0.0
 11
3.213559
 21
3.709704
 31
0.0
 11
3.252618
 21
3.654708
 31
0.0
  0
LINE
  5
132
100
AcDbEntity
  8
Layer_1
 62
7
100
AcDbLine
 10
3.250558
 20
3.418113
 30
0.0
 11
2.993735
 21
3.419695
 31
0.0
  0
LINE
  5
133
100
AcDbEntity
  8
Layer_1
 62
7
100
AcDbLine
 10
2.993735
 20
3.419695
 30
0.0
 11
2.962737
 21
3.445778
 31
0.0
  0
LINE
  5
134
100
AcDbEntity
  8
Layer_1
 62
7
100
AcDbLine
 10
2.962737
 20
3.445778
 30
0.0
 11
2.962736
 21
3.445780
 31
0.0
  0
SPLINE
  5
135
100
AcDbEntity
  8
Layer_1
 62
7
100
AcDbSpline
 70
0
 71
3
 72
34
 73
30
 74
28
 40
0.000000
 40
0.000000
 40
0.000000
 40
0.000000
 40
0.425363
 40
0.810707
 40
1.007444
 40
1.046797
 40
1.068255
 40
1.090455
 40
1.110668
 40
1.124954
 40
1.144371
 40
1.180294
 40
1.218043
 40
1.265319
 40
1.294402
 40
1.317639
 40
1.356392
 40
1.385866
 40
1.408873
 40
1.421792
 40
1.693391
 40
2.240418
 40
2.729350
 40
2.891302
 40
2.960111
 40
2.994568
 40
3.058113
 40
3.154815
 40
3.358288
 40
3.358288
 40
3.358288
 40
3.358288
 10
3.359914
 20
3.876953
 30
0.0
 10
3.359166
 20
4.018946
 30
0.0
 10
3.357739
 20
4.289573
 30
0.0
 10
3.338750
 20
4.622897
 30
0.0
 10
3.344025
 20
4.833717
 30
0.0
 10
3.321087
 20
4.915827
 30
0.0
 10
3.321915
 20
4.945183
 30
0.0
 10
3.337972
 20
4.960609
 30
0.0
 10
3.351003
 20
4.974622
 30
0.0
 10
3.369912
 20
4.978614
 30
0.0
 10
3.390903
 20
4.967222
 30
0.0
 10
3.422923
 20
4.961223
 30
0.0
 10
3.460795
 20
4.981162
 30
0.0
 10
3.484228
 20
5.011110
 30
0.0
 10
3.500451
 20
5.041606
 30
0.0
 10
3.530275
 20
5.053242
 30
0.0
 10
3.560964
 20
5.051970
 30
0.0
 10
3.591152
 20
5.050679
 30
0.0
 10
3.613234
 20
5.048217
 30
0.0
 10
3.703639
 20
4.995263
 30
0.0
 10
3.575836
 20
4.637386
 30
0.0
 10
3.660638
 20
4.253653
 30
0.0
 10
3.640008
 20
3.838385
 30
0.0
 10
3.627090
 20
3.603238
 30
0.0
 10
3.627342
 20
3.511281
 30
0.0
 10
3.595717
 20
3.464124
 30
0.0
 10
3.542202
 20
3.422765
 30
0.0
 10
3.416718
 20
3.417932
 30
0.0
 10
3.317686
 20
3.418040
 30
0.0
 10
3.250558
 20
3.418113
 30
0.0
 11
3.359914
 21
3.876953
 31
0.0
 11
3.353855
 21
4.302272
 31
0.0
 11
3.342169
 21
4.687439
 31
0.0
 11
3.329368
 21
4.883760
 31
0.0
 11
3.322016
 21
4.922420
 31
0.0
 11
3.324454
 21
4.943738
 31
0.0
 11
3.338221
 21
4.961154
 31
0.0
 11
3.353797
 21
4.974037
 31
0.0
 11
3.367815
 21
4.976795
 31
0.0
 11
3.386216
 21
4.970598
 31
0.0
 11
3.421754
 21
4.965357
 31
0.0
 11
3.456005
 21
4.981227
 31
0.0
 11
3.486721
 21
5.017166
 31
0.0
 11
3.504063
 21
5.040511
 31
0.0
 11
3.525264
 21
5.050026
 31
0.0
 11
3.563975
 21
5.051835
 31
0.0
 11
3.593404
 21
5.050199
 31
0.0
 11
3.615996
 21
5.045855
 31
0.0
 11
3.627330
 21
5.039655
 31
0.0
 11
3.637861
 21
4.768260
 31
0.0
 11
3.640698
 21
4.221240
 31
0.0
 11
3.634110
 21
3.732353
 31
0.0
 11
3.627566
 21
3.570533
 31
0.0
 11
3.618639
 21
3.502306
 31
0.0
 11
3.600199
 21
3.473198
 31
0.0
 11
3.549548
 21
3.434826
 31
0.0
 11
3.454024
 21
3.419776
 31
0.0
 11
3.250558
 21
3.418113
 31
0.0
  0
LINE
  5
136
100
AcDbEntity
  8
Layer_1
 62
7
100
AcDbLine
 10
4.809222
 20
5.091067
 30
0.0
 11
5.094989
 21
5.088291
 31
0.0
  0
LINE
  5
137
100
AcDbEntity
  8
Layer_1
 62
7
100
AcDbLine
 10
5.094989
 20
5.088291
 30
0.0
 11
5.097926
 21
4.965781
 31
0.0
  0
SPLINE
  5
138
100
AcDbEntity
  8
Layer_1
 62
7
100
AcDbSpline
 70
0
 71
3
 72
49
 73
45
 74
43
 40
0.000000
 40
0.000000
 40
0.000000
 40
0.000000
 40
0.032076
 40
0.069563
 40
0.132458
 40
0.191246
 40
0.249862
 40
0.301580
 40
0.473575
 40
0.654086
 40
0.753613
 40
0.770136
 40
0.786218
 40
0.798959
 40
0.812781
 40
0.832683
 40
0.855293
 40
0.891622
 40
0.947506
 40
1.011048
 40
1.083157
 40
1.161403
 40
1.228847
 40
1.286374
 40
1.338631
 40
1.374320
 40
1.396994
 40
1.415290
 40
1.425786
 40
1.445507
 40
1.492036
 40
1.559671
 40
1.673893
 40
1.725172
 40
1.772195
 40
1.804272
 40
1.846192
 40
1.888882
 40
1.926679
 40
1.955876
 40
1.970491
 40
2.013881
 40
2.119466
 40
2.264516
 40
2.264516
 40
2.264516
 40
2.264516
 10
4.506450
 20
3.449008
 30
0.0
 10
4.501086
 20
3.458398
 30
0.0
 10
4.489453
 20
3.478762
 30
0.0
 10
4.486073
 20
3.523731
 30
0.0
 10
4.487746
 20
3.576461
 30
0.0
 10
4.492477
 20
3.636491
 30
0.0
 10
4.501038
 20
3.692289
 30
0.0
 10
4.524771
 20
3.783439
 30
0.0
 10
4.565992
 20
3.911745
 30
0.0
 10
4.607043
 20
4.056705
 30
0.0
 10
4.632562
 20
4.152287
 30
0.0
 10
4.643173
 20
4.194971
 30
0.0
 10
4.649353
 20
4.209067
 30
0.0
 10
4.659163
 20
4.219461
 30
0.0
 10
4.667636
 20
4.232634
 30
0.0
 10
4.671894
 20
4.251267
 30
0.0
 10
4.673110
 20
4.277478
 30
0.0
 10
4.677751
 20
4.315550
 30
0.0
 10
4.688882
 20
4.366303
 30
0.0
 10
4.704887
 20
4.428111
 30
0.0
 10
4.724546
 20
4.496653
 30
0.0
 10
4.743857
 20
4.566633
 30
0.0
 10
4.761643
 20
4.632007
 30
0.0
 10
4.777524
 20
4.688874
 30
0.0
 10
4.791068
 20
4.735539
 30
0.0
 10
4.802586
 20
4.770349
 30
0.0
 10
4.810511
 20
4.795105
 30
0.0
 10
4.813495
 20
4.811060
 30
0.0
 10
4.814178
 20
4.829937
 30
0.0
 10
4.780476
 20
4.828110
 30
0.0
 10
4.741633
 20
4.831170
 30
0.0
 10
4.661476
 20
4.826665
 30
0.0
 10
4.590678
 20
4.819457
 30
0.0
 10
4.507952
 20
4.832988
 30
0.0
 10
4.506845
 20
4.884318
 30
0.0
 10
4.507672
 20
4.923183
 30
0.0
 10
4.507764
 20
4.962562
 30
0.0
 10
4.507466
 20
5.003083
 30
0.0
 10
4.508076
 20
5.040145
 30
0.0
 10
4.510220
 20
5.066162
 30
0.0
 10
4.515843
 20
5.097983
 30
0.0
 10
4.587895
 20
5.081046
 30
0.0
 10
4.673261
 20
5.096300
 30
0.0
 10
4.759382
 20
5.092985
 30
0.0
 10
4.809222
 20
5.091067
 30
0.0
 11
4.506450
 21
3.449008
 31
0.0
 11
4.492454
 21
3.477869
 31
0.0
 11
4.487226
 21
3.514990
 31
0.0
 11
4.488301
 21
3.577876
 31
0.0
 11
4.493200
 21
3.636459
 31
0.0
 11
4.502429
 21
3.694344
 31
0.0
 11
4.514874
 21
3.744542
 31
0.0
 11
4.564187
 21
3.909316
 31
0.0
 11
4.613843
 21
4.082863
 31
0.0
 11
4.639214
 21
4.179103
 31
0.0
 11
4.643677
 21
4.195011
 31
0.0
 11
4.650650
 21
4.209503
 31
0.0
 11
4.658623
 21
4.219441
 31
0.0
 11
4.665923
 21
4.231178
 31
0.0
 11
4.671129
 21
4.250387
 31
0.0
 11
4.673115
 21
4.272909
 31
0.0
 11
4.677405
 21
4.308984
 31
0.0
 11
4.688651
 21
4.363725
 31
0.0
 11
4.704420
 21
4.425280
 31
0.0
 11
4.723869
 21
4.494716
 31
0.0
 11
4.744767
 21
4.570120
 31
0.0
 11
4.762587
 21
4.635167
 31
0.0
 11
4.778101
 21
4.690563
 31
0.0
 11
4.792953
 21
4.740664
 31
0.0
 11
4.803925
 21
4.774625
 31
0.0
 11
4.810394
 21
4.796357
 31
0.0
 11
4.813437
 21
4.814398
 31
0.0
 11
4.812396
 21
4.824842
 31
0.0
 11
4.793123
 21
4.829022
 31
0.0
 11
4.746602
 21
4.829880
 31
0.0
 11
4.679016
 21
4.827303
 31
0.0
 11
4.564818
 21
4.824967
 31
0.0
 11
4.516481
 21
4.842087
 31
0.0
 11
4.507147
 21
4.888174
 31
0.0
 11
4.507521
 21
4.920249
 31
0.0
 11
4.507697
 21
4.962169
 31
0.0
 11
4.507635
 21
5.004858
 31
0.0
 11
4.508566
 21
5.042644
 31
0.0
 11
4.511347
 21
5.071708
 31
0.0
 11
4.515372
 21
5.085758
 31
0.0
 11
4.558604
 21
5.089450
 31
0.0
 11
4.664173
 21
5.091357
 31
0.0
 11
4.809222
 21
5.091067
 31
0.0
  0
LINE
  5
139
100
AcDbEntity
  8
Layer_1
 62
7
100
AcDbLine
 10
4.506450
 20
3.449007
 30
0.0
 11
4.506450
 21
3.449008
 31
0.0
  0
LINE
  5
13a
100
AcDbEntity
  8
Layer_1
 62
7
100
AcDbLine
 10
3.081233
 20
5.037790
 30
0.0
 11
3.039814
 21
5.086246
 31
0.0
  0
LINE
  5
13b
100
AcDbEntity
  8
Layer_1
 62
7
100
AcDbLine
 10
3.039814
 20
5.086246
 30
0.0
 11
2.912747
 21
5.073521
 31
0.0
  0
SPLINE
  5
13c
100
AcDbEntity
  8
Layer_1
 62
7
100
AcDbSpline
 70
0
 71
3
 72
40
 73
36
 74
34
 40
0.000000
 40
0.000000
 40
0.000000
 40
0.000000
 40
0.087499
 40
0.149953
 40
0.227575
 40
0.296741
 40
0.375661
 40
0.447264
 40
0.756041
 40
0.988480
 40
1.094641
 40
1.105798
 40
1.116411
 40
1.125047
 40
1.143079
 40
1.178522
 40
1.223942
 40
1.301735
 40
1.344860
 40
1.458472
 40
1.581330
 40
1.638822
 40
1.731822
 40
1.792106
 40
1.828025
 40
1.848991
 40
1.877701
 40
1.950329
 40
2.098512
 40
2.220154
 40
2.316993
 40
2.368119
 40
2.395083
 40
2.413682
 40
2.442248
 40
2.442248
 40
2.442248
 40
2.442248
 10
5.097926
 20
4.965781
 30
0.0
 10
5.098879
 20
4.936601
 30
0.0
 10
5.100514
 20
4.886594
 30
0.0
 10
5.091129
 20
4.810883
 30
0.0
 10
5.068816
 20
4.744570
 30
0.0
 10
5.046833
 20
4.672672
 30
0.0
 10
5.026181
 20
4.602389
 30
0.0
 10
4.985488
 20
4.454850
 30
0.0
 10
4.934178
 20
4.256324
 30
0.0
 10
4.866790
 20
4.053283
 30
0.0
 10
4.837584
 20
3.937540
 30
0.0
 10
4.813134
 20
3.902590
 30
0.0
 10
4.809726
 20
3.892652
 30
0.0
 10
4.811579
 20
3.880195
 30
0.0
 10
4.809458
 20
3.859510
 30
0.0
 10
4.801736
 20
3.827074
 30
0.0
 10
4.791987
 20
3.777591
 30
0.0
 10
4.755780
 20
3.715238
 30
0.0
 10
4.832699
 20
3.665858
 30
0.0
 10
4.926077
 20
3.686642
 30
0.0
 10
5.025729
 20
3.701184
 30
0.0
 10
5.112615
 20
3.647320
 30
0.0
 10
5.097938
 20
3.566775
 30
0.0
 10
5.099983
 20
3.505447
 30
0.0
 10
5.096597
 20
3.466629
 30
0.0
 10
5.084657
 20
3.438450
 30
0.0
 10
5.041227
 20
3.428631
 30
0.0
 10
4.960496
 20
3.427625
 30
0.0
 10
4.844966
 20
3.426514
 30
0.0
 10
4.723168
 20
3.426631
 30
0.0
 10
4.633079
 20
3.423306
 30
0.0
 10
4.575124
 20
3.423131
 30
0.0
 10
4.542630
 20
3.414774
 30
0.0
 10
4.518993
 20
3.426490
 30
0.0
 10
4.511181
 20
3.440514
 30
0.0
 10
4.506450
 20
3.449007
 30
0.0
 11
5.097926
 21
4.965781
 31
0.0
 11
5.098125
 21
4.878282
 31
0.0
 11
5.089933
 21
4.816368
 31
0.0
 11
5.068293
 21
4.741823
 31
0.0
 11
5.047893
 21
4.675735
 31
0.0
 11
5.025717
 21
4.599994
 31
0.0
 11
5.006567
 21
4.531000
 31
0.0
 11
4.924199
 21
4.233412
 31
0.0
 11
4.856931
 21
4.010919
 31
0.0
 11
4.819313
 21
3.911647
 31
0.0
 11
4.813481
 21
3.902134
 31
0.0
 11
4.810451
 21
3.891964
 31
0.0
 11
4.810877
 21
3.883338
 31
0.0
 11
4.809785
 21
3.865339
 31
0.0
 11
4.802773
 21
3.830597
 31
0.0
 11
4.791360
 21
3.786633
 31
0.0
 11
4.775542
 21
3.710466
 31
0.0
 11
4.809652
 21
3.684080
 31
0.0
 11
4.923263
 21
3.684597
 31
0.0
 11
5.046118
 21
3.683786
 31
0.0
 11
5.092818
 21
3.650252
 31
0.0
 11
5.100198
 21
3.557545
 31
0.0
 11
5.098746
 21
3.497279
 31
0.0
 11
5.093656
 21
3.461723
 31
0.0
 11
5.083829
 21
3.443202
 31
0.0
 11
5.057079
 21
3.432777
 31
0.0
 11
4.984611
 21
3.427949
 31
0.0
 11
4.836433
 21
3.426718
 31
0.0
 11
4.714796
 21
3.425782
 31
0.0
 11
4.617984
 21
3.423460
 31
0.0
 11
4.566959
 21
3.420247
 31
0.0
 11
4.540093
 21
3.417952
 31
0.0
 11
4.523295
 21
3.425936
 31
0.0
 11
4.506450
 21
3.449007
 31
0.0
  0
LINE
  5
13d
100
AcDbEntity
  8
Layer_1
 62
7
100
AcDbLine
 10
3.185925
 20
5.187715
 30
0.0
 11
3.272463
 21
5.155053
 31
0.0
  0
LINE
  5
13e
100
AcDbEntity
  8
Layer_1
 62
7
100
AcDbLine
 10
3.272463
 20
5.155053
 30
0.0
 11
3.329560
 21
5.182002
 31
0.0
  0
SPLINE
  5
13f
100
AcDbEntity
  8
Layer_1
 62
7
100
AcDbSpline
 70
0
 71
3
 72
22
 73
18
 74
16
 40
0.000000
 40
0.000000
 40
0.000000
 40
0.000000
 40
0.065080
 40
0.112984
 40
0.133518
 40
0.147292
 40
0.192464
 40
0.284046
 40
0.348165
 40
0.396268
 40
0.417998
 40
0.426490
 40
0.440366
 40
0.457015
 40
0.498435
 40
0.533981
 40
0.608899
 40
0.608899
 40
0.608899
 40
0.608899
 10
2.912747
 20
5.073521
 30
0.0
 10
2.890276
 20
5.070949
 30
0.0
 10
2.851265
 20
5.066485
 30
0.0
 10
2.814324
 20
5.068839
 30
0.0
 10
2.775176
 20
5.061094
 30
0.0
 10
2.786570
 20
5.095306
 30
0.0
 10
2.845819
 20
5.089330
 30
0.0
 10
2.906067
 20
5.108856
 30
0.0
 10
2.975723
 20
5.114778
 30
0.0
 10
3.017082
 20
5.125954
 30
0.0
 10
3.046438
 20
5.125688
 30
0.0
 10
3.054977
 20
5.138511
 30
0.0
 10
3.059639
 20
5.150634
 30
0.0
 10
3.065846
 20
5.173198
 30
0.0
 10
3.071945
 20
5.210173
 30
0.0
 10
3.130780
 20
5.212723
 30
0.0
 10
3.163639
 20
5.197822
 30
0.0
 10
3.185925
 20
5.187715
 30
0.0
 11
2.912747
 21
5.073521
 31
0.0
 11
2.847906
 21
5.067948
 31
0.0
 11
2.800061
 21
5.065572
 31
0.0
 11
2.779571
 21
5.066905
 31
0.0
 11
2.782874
 21
5.080278
 31
0.0
 11
2.826154
 21
5.093215
 31
0.0
 11
2.916558
 21
5.107854
 31
0.0
 11
2.979987
 21
5.117235
 31
0.0
 11
3.027413
 21
5.125277
 31
0.0
 11
3.048569
 21
5.130239
 31
0.0
 11
3.053695
 21
5.137010
 31
0.0
 11
3.059098
 21
5.149791
 31
0.0
 11
3.063608
 21
5.165817
 31
0.0
 11
3.079510
 21
5.204063
 31
0.0
 11
3.114500
 21
5.210327
 31
0.0
 11
3.185925
 21
5.187715
 31
0.0
  0
LINE
  5
140
100
AcDbEntity
  8
Layer_1
 62
7
100
AcDbLine
 10
3.575067
 20
5.079458
 30
0.0
 11
3.498112
 21
5.085963
 31
0.0
  0
LINE
  5
141
100
AcDbEntity
  8
Layer_1
 62
7
100
AcDbLine
 10
3.498112
 20
5.085963
 30
0.0
 11
3.470585
 21
5.042359
 31
0.0
  0
SPLINE
  5
142
100
AcDbEntity
  8
Layer_1
 62
7
100
AcDbSpline
 70
0
 71
3
 72
25
 73
21
 74
19
 40
0.000000
 40
0.000000
 40
0.000000
 40
0.000000
 40
0.033145
 40
0.076429
 40
0.118808
 40
0.135742
 40
0.159066
 40
0.186250
 40
0.227381
 40
0.273412
 40
0.376076
 40
0.425239
 40
0.460830
 40
0.475739
 40
0.482705
 40
0.497318
 40
0.519394
 40
0.551278
 40
0.594203
 40
0.638890
 40
0.638890
 40
0.638890
 40
0.638890
 10
3.329560
 20
5.182002
 30
0.0
 10
3.335180
 20
5.192275
 30
0.0
 10
3.348138
 20
5.215965
 30
0.0
 10
3.391733
 20
5.218387
 30
0.0
 10
3.426684
 20
5.219210
 30
0.0
 10
3.450024
 20
5.203115
 30
0.0
 10
3.463511
 20
5.184777
 30
0.0
 10
3.477478
 20
5.158075
 30
0.0
 10
3.491367
 20
5.119378
 30
0.0
 10
3.558315
 20
5.101969
 30
0.0
 10
3.619492
 20
5.096192
 30
0.0
 10
3.686151
 20
5.086030
 30
0.0
 10
3.710472
 20
5.079788
 30
0.0
 10
3.740283
 20
5.072262
 30
0.0
 10
3.727652
 20
5.062579
 30
0.0
 10
3.713383
 20
5.064476
 30
0.0
 10
3.690505
 20
5.066299
 30
0.0
 10
3.658625
 20
5.071355
 30
0.0
 10
3.618974
 20
5.075388
 30
0.0
 10
3.589898
 20
5.078084
 30
0.0
 10
3.575067
 20
5.079458
 30
0.0
 11
3.329560
 21
5.182002
 31
0.0
 11
3.349256
 21
5.208660
 31
0.0
 11
3.391491
 21
5.218135
 31
0.0
 11
3.433589
 21
5.213274
 31
0.0
 11
3.447632
 21
5.203810
 31
0.0
 11
3.462227
 21
5.185617
 31
0.0
 11
3.475018
 21
5.161630
 31
0.0
 11
3.495260
 21
5.125825
 31
0.0
 11
3.537723
 21
5.108054
 31
0.0
 11
3.639260
 21
5.092893
 31
0.0
 11
3.687794
 21
5.085054
 31
0.0
 11
3.722411
 21
5.076778
 31
0.0
 11
3.735615
 21
5.069856
 31
0.0
 11
3.730343
 21
5.065303
 31
0.0
 11
3.715783
 21
5.064054
 31
0.0
 11
3.693819
 21
5.066270
 31
0.0
 11
3.662220
 21
5.070528
 31
0.0
 11
3.619558
 21
5.075266
 31
0.0
 11
3.575067
 21
5.079458
 31
0.0
  0
LINE
  5
143
100
AcDbEntity
  8
Layer_1
 62
7
100
AcDbLine
 10
3.081233
 20
5.037789
 30
0.0
 11
3.081233
 21
5.037790
 31
0.0
  0
SPLINE
  5
144
100
AcDbEntity
  8
Layer_1
 62
7
100
AcDbSpline
 70
0
 71
3
 72
22
 73
18
 74
16
 40
0.000000
 40
0.000000
 40
0.000000
 40
0.000000
 40
0.027773
 40
0.051189
 40
0.065593
 40
0.094966
 40
0.147439
 40
0.213018
 40
0.261461
 40
0.293271
 40
0.340589
 40
0.403550
 40
0.445066
 40
0.466629
 40
0.480995
 40
0.507448
 40
0.540837
 40
0.540837
 40
0.540837
 40
0.540837
 10
3.470585
 20
5.042359
 30
0.0
 10
3.465407
 20
5.034602
 30
0.0
 10
3.455862
 20
5.020304
 30
0.0
 10
3.441938
 20
5.004235
 30
0.0
 10
3.424655
 20
4.987035
 30
0.0
 10
3.390291
 20
5.005469
 30
0.0
 10
3.355848
 20
5.036284
 30
0.0
 10
3.319755
 20
5.078259
 30
0.0
 10
3.290912
 20
5.122272
 30
0.0
 10
3.241849
 20
5.121814
 30
0.0
 10
3.215418
 20
5.077405
 30
0.0
 10
3.187199
 20
5.035861
 30
0.0
 10
3.162370
 20
5.005087
 30
0.0
 10
3.138851
 20
4.985018
 30
0.0
 10
3.119953
 20
4.998645
 30
0.0
 10
3.102185
 20
5.014406
 30
0.0
 10
3.088737
 20
5.029415
 30
0.0
 10
3.081233
 20
5.037789
 30
0.0
 11
3.470585
 21
5.042359
 31
0.0
 11
3.454661
 21
5.019604
 31
0.0
 11
3.439373
 21
5.001867
 31
0.0
 11
3.428032
 21
4.992987
 31
0.0
 11
3.399839
 21
5.001229
 31
0.0
 11
3.359303
 21
5.034549
 31
0.0
 11
3.316757
 21
5.084454
 31
0.0
 11
3.282160
 21
5.118362
 31
0.0
 11
3.250353
 21
5.117919
 31
0.0
 11
3.218330
 21
5.083083
 31
0.0
 11
3.182791
 21
5.031112
 31
0.0
 11
3.155524
 21
4.999806
 31
0.0
 11
3.136675
 21
4.989333
 31
0.0
 11
3.123936
 21
4.995974
 31
0.0
 11
3.104018
 21
5.013382
 31
0.0
 11
3.081233
 21
5.037789
 31
0.0
  0
ENDSEC
  0
SECTION
  2
OBJECTS
  0
DICTIONARY
  5
C
330
0
100
AcDbDictionary
  3
ACAD_GROUP
350
D
  3
ACAD_MLINESTYLE
350
17
  0
DICTIONARY
  5
D
330
C
100
AcDbDictionary
  0
DICTIONARY
  5
1A
330
C
100
AcDbDictionary
  0
DICTIONARY
  5
17
330
C
100
AcDbDictionary
  3
STANDARD
350
18
  0
DICTIONARY
  5
19
330
C
100
AcDbDictionary
  0
ENDSEC
  0
EOF
