<?xml version="1.0" encoding="UTF-8" standalone="no"?>
<!-- Created with Inkscape (http://www.inkscape.org/) -->

<svg
   xmlns:dc="http://purl.org/dc/elements/1.1/"
   xmlns:cc="http://creativecommons.org/ns#"
   xmlns:rdf="http://www.w3.org/1999/02/22-rdf-syntax-ns#"
   xmlns:svg="http://www.w3.org/2000/svg"
   xmlns="http://www.w3.org/2000/svg"
   xmlns:sodipodi="http://sodipodi.sourceforge.net/DTD/sodipodi-0.dtd"
   xmlns:inkscape="http://www.inkscape.org/namespaces/inkscape"
   width="210mm"
   height="297mm"
   viewBox="0 0 210 297"
   version="1.1"
   id="svg8"
   inkscape:version="0.92.4 (5da689c313, 2019-01-14)"
   sodipodi:docname="Logo 1.svg">
  <defs
     id="defs2" />
  <sodipodi:namedview
     id="base"
     pagecolor="#ffffff"
     bordercolor="#666666"
     borderopacity="1.0"
     inkscape:pageopacity="0.0"
     inkscape:pageshadow="2"
     inkscape:zoom="0.98994949"
     inkscape:cx="416.48812"
     inkscape:cy="431.83045"
     inkscape:document-units="mm"
     inkscape:current-layer="layer1"
     showgrid="false"
     inkscape:window-width="1536"
     inkscape:window-height="841"
     inkscape:window-x="-8"
     inkscape:window-y="712"
     inkscape:window-maximized="1" />
  <metadata
     id="metadata5">
    <rdf:RDF>
      <cc:Work
         rdf:about="">
        <dc:format>image/svg+xml</dc:format>
        <dc:type
           rdf:resource="http://purl.org/dc/dcmitype/StillImage" />
        <dc:title></dc:title>
      </cc:Work>
    </rdf:RDF>
  </metadata>
  <g
     inkscape:label="Layer 1"
     inkscape:groupmode="layer"
     id="layer1">
    <path
       inkscape:connector-curvature="0"
       id="path836"
       d="m 50.967771,215.58034 c -1.039986,-0.52178 -2.109671,-2.19579 -2.116302,-3.31192 -0.0039,-0.6539 0.06818,-0.71444 0.670469,-0.56328 0.673253,0.16898 0.674404,0.16623 0.495562,-1.18195 -0.312915,-2.35887 0.948844,-4.16173 1.314089,-1.87763 0.190918,1.19394 0.843362,1.65625 1.353269,0.95891 0.463667,-0.6341 0.584616,-0.5665 1.224881,0.68461 1.04009,2.03239 0.63169,4.60231 -0.853416,5.37029 -0.933056,0.4825 -0.972281,0.48102 -2.088552,-0.079 z m 93.261639,0.0816 c -3.78226,-0.49994 -10.22503,-1.16054 -14.68437,-1.50566 -4.15561,-0.32162 -19.36549,-0.1271 -23.8125,0.30454 -1.38245,0.13418 -6.036341,0.32581 -10.341986,0.42585 -7.90257,0.1836 -12.855812,-0.0183 -20.481979,-0.83491 -1.891771,-0.20257 -4.332552,-0.43639 -5.423958,-0.51961 -1.091407,-0.0832 -2.703502,-0.26481 -3.582435,-0.40353 -0.878932,-0.13872 -3.647136,-0.26482 -6.151562,-0.28023 -3.515249,-0.0216 -4.553503,-0.10544 -4.553503,-0.3676 0,-0.47106 1.228238,-0.67032 4.131699,-0.67032 2.458624,0 8.726006,0.52796 12.537051,1.05611 7.714519,1.06911 18.709157,1.41259 29.236463,0.91335 1.74625,-0.0828 6.38968,-0.30433 10.31875,-0.49225 8.33632,-0.39873 16.36949,-0.30987 21.96041,0.24289 2.18282,0.21582 4.74266,0.45762 5.68855,0.53735 0.94588,0.0797 2.3151,0.28221 3.0427,0.44997 0.72761,0.16776 2.93026,0.31182 4.8948,0.32015 3.43807,0.0146 3.61849,-0.0123 4.81644,-0.71648 1.59664,-0.93856 2.06272,-1.62649 2.06272,-3.04456 0,-1.64809 -0.59587,-2.59693 -2.11395,-3.3662 -1.30037,-0.65895 -3.71822,-0.91221 -4.39483,-0.46035 -0.16008,0.10692 -0.35942,0.71757 -0.44295,1.357 -0.0835,0.63944 -0.30975,1.27016 -0.50268,1.4016 -0.57251,0.39005 -13.3583,0.14444 -13.76779,-0.26447 -0.25981,-0.25944 -0.37294,-2.48005 -0.47363,-9.2967 -0.11618,-7.8649 -0.18599,-9.01557 -0.57309,-9.44611 -0.33314,-0.37052 -0.45249,-1.07186 -0.48866,-2.87151 -0.0608,-3.02624 -0.0729,-2.92862 0.42258,-3.42408 0.36519,-0.36519 0.41605,-1.45332 0.39504,-8.45164 -0.0205,-6.84 0.0348,-8.08142 0.37302,-8.36209 0.28949,-0.24025 1.49135,-0.30613 4.43361,-0.24302 2.22005,0.0476 5.28661,0.0614 6.81458,0.0306 1.52797,-0.0308 2.95672,0.0588 3.175,0.19906 0.30109,0.19348 0.41865,0.928 0.48711,3.04321 0.0496,1.5335 -0.01,2.80244 -0.1323,2.81987 -0.12238,0.0174 -1.92509,0.0631 -4.00601,0.10137 -2.08091,0.0383 -3.82617,0.11336 -3.87834,0.16674 -0.0522,0.0534 -0.13554,2.44254 -0.18526,5.30922 -0.0787,4.53922 -0.0374,5.22599 0.32047,5.3194 0.22597,0.059 1.78751,0.0575 3.47008,-0.003 3.80555,-0.13761 3.91214,-0.066 3.95229,2.65374 0.0336,2.27442 -0.0331,3.43996 -0.20692,3.61912 -0.0706,0.0728 -1.73513,0.19182 -3.69894,0.26458 l -3.57057,0.1323 0.005,5.53598 c 0.003,3.23749 -0.10636,5.74366 -0.26292,6.03618 -0.53506,0.99977 0.042,1.16808 3.6631,1.06838 1.86008,-0.0512 3.54268,0.0151 3.73912,0.14741 0.19643,0.13229 0.43723,0.63207 0.53511,1.11064 l 0.17796,0.87012 1.84614,0.0693 c 2.16309,0.0812 3.44898,0.56383 4.61845,1.7333 1.01413,1.01412 1.32873,1.7648 1.32873,3.17047 0,1.33284 -0.55464,2.41294 -1.65337,3.21975 -2.08016,1.5275 -4.84289,1.95281 -9.06226,1.39511 z m -36.58378,-5.10983 c -0.57466,-0.0657 -1.01873,-0.33336 -1.32292,-0.79746 -0.40758,-0.62186 -0.45788,-1.5429 -0.45788,-8.38337 0,-4.8172 -0.0987,-7.75731 -0.26459,-7.87916 -0.34955,-0.25681 -3.24108,-0.25908 -3.39955,-0.003 -0.0679,0.1099 -0.15286,2.28279 -0.18875,4.82864 -0.0359,2.54586 -0.18804,5.01078 -0.33812,5.4776 -0.19289,0.59999 -0.17815,1.56018 0.0503,3.27601 0.44901,3.37241 0.3627,3.4581 -3.382421,3.35816 l -2.795615,-0.0746 -0.002,-2.46831 c -0.001,-1.63355 0.10823,-2.55971 0.323765,-2.73859 0.25607,-0.21251 0.24233,-0.43147 -0.0642,-1.02429 -0.301595,-0.58322 -0.390305,-1.85059 -0.391645,-5.59578 -0.002,-4.3619 -0.0531,-4.9197 -0.51995,-5.62793 -0.74408,-1.12883 -0.74054,-4.90044 0.005,-5.57536 0.48081,-0.43513 0.50684,-0.91215 0.49734,-9.11369 -0.01,-8.39454 0.007,-8.68354 0.559845,-9.62039 l 0.56981,-0.96587 6.390011,0.006 c 5.69706,0.005 6.50964,0.0601 7.49314,0.50668 1.78656,0.81116 1.80546,0.90053 1.82231,8.61564 0.0208,9.52122 -0.13927,11.46825 -1.05675,12.85465 l -0.72464,1.09501 0.80081,0.83038 c 0.44044,0.4567 0.92717,1.16554 1.08162,1.5752 0.42689,1.1323 0.38128,16.70596 -0.0499,17.04592 -0.37369,0.29462 -3.32322,0.54773 -4.63534,0.39777 z m -2.28869,-23.99992 c 0.0764,-0.30425 0.0969,-3.16518 0.0456,-6.35761 l -0.0932,-5.80444 -1.04517,-0.21796 c -0.57485,-0.11987 -1.34283,-0.1835 -1.70663,-0.1414 l -0.66146,0.0766 -0.0299,5.15938 c -0.0165,2.83765 -0.11548,5.66102 -0.22005,6.27414 -0.10457,0.61312 -0.12305,1.22329 -0.0411,1.35593 0.082,0.13265 0.92845,0.23384 1.88106,0.22488 1.52938,-0.0144 1.74826,-0.081 1.87086,-0.56948 z m -46.924244,23.49369 c -0.184963,-0.0744 -0.512384,-0.47582 -0.727604,-0.89201 -0.32139,-0.6215 -0.391309,-2.26644 -0.391309,-9.20608 v -8.44938 l -0.621106,-0.40696 c -0.566539,-0.37122 -0.624883,-0.60935 -0.664113,-2.71062 -0.03682,-1.97235 0.05204,-2.49846 0.617935,-3.65836 0.653608,-1.33968 0.661715,-1.44135 0.73026,-9.15992 l 0.06932,-7.80521 6.002472,-0.0711 6.002476,-0.0711 0.349406,0.73253 c 0.275304,0.57718 0.559424,0.74994 1.339712,0.81465 l 0.990309,0.0821 v 2.08508 c 0,1.1468 -0.117028,2.15741 -0.260062,2.24581 -0.143031,0.0884 -1.690843,0.23266 -3.439583,0.32059 l -3.179522,0.15987 -0.01582,1.74554 c -0.0087,0.96005 -0.07514,3.19276 -0.147645,4.96159 -0.09706,2.36796 -0.0466,3.26871 0.191362,3.41578 0.17775,0.10985 1.524114,0.2465 2.991917,0.30367 4.190809,0.1632 3.859355,-0.0921 3.859355,2.97252 0,3.44622 -0.0074,3.45344 -3.558376,3.45344 -1.864659,0 -2.810073,0.10457 -2.990109,0.33073 -0.162555,0.2042 -0.26702,3.77234 -0.273055,9.32656 -0.0054,4.94771 -0.02053,9.14467 -0.0337,9.32657 -0.01783,0.24651 -0.849276,0.32541 -3.265073,0.30984 -1.78263,-0.0115 -3.392479,-0.0818 -3.577441,-0.1562 z m 16.8208,-0.56869 c -0.433043,-0.36438 -0.906941,-0.97073 -1.053105,-1.34743 -0.306496,-0.78993 -0.317312,-38.92456 -0.01111,-39.22819 0.104579,-0.1037 0.762203,-0.2178 1.461391,-0.25356 1.189086,-0.0608 1.336742,0.007 2.28454,1.04352 0.902036,0.98681 1.14381,1.10852 2.202082,1.10852 1.805445,0 1.850178,0.13752 1.519505,4.6713 -0.157557,2.16022 -0.323551,8.98781 -0.368872,15.17245 -0.08903,12.14929 -0.08411,12.19948 1.32856,13.52661 l 0.666629,0.62627 1.038257,-1.11307 1.038259,-1.11307 -0.01781,-4.04514 c -0.04427,-10.05413 -0.474771,-24.24363 -0.775872,-25.5729 -0.298087,-1.31596 -0.281699,-1.45925 0.224862,-1.96581 0.465696,-0.46569 0.645729,-0.50112 1.219062,-0.23989 0.90002,0.41007 1.83657,-0.0239 2.55284,-1.18281 0.5071,-0.82051 0.641,-0.88061 1.96225,-0.88061 0.79685,0 1.50178,0.13553 1.60923,0.30939 0.35054,0.56718 0.47387,24.35181 0.17219,33.20546 -0.19627,5.76005 -0.21181,5.87881 -0.86134,6.58253 -1.25064,1.355 -1.80796,1.44281 -8.880878,1.39918 l -6.523302,-0.0402 -0.787353,-0.66251 z m 39.210344,-0.082 c -0.48776,-0.77641 -0.54748,-1.20048 -0.461,-3.27323 0.06,-1.43772 0.32743,-3.1151 0.67497,-4.23333 1.03963,-3.34504 3.03077,-10.30398 3.15823,-11.03784 0.0687,-0.3955 0.29053,-0.85657 0.49299,-1.02459 0.20245,-0.16802 0.36809,-0.77916 0.36809,-1.35809 0,-0.57893 0.35781,-2.32052 0.79514,-3.87021 0.43734,-1.54968 1.10219,-3.9487 1.47745,-5.33114 0.37527,-1.38245 0.84776,-2.97645 1.04999,-3.54224 0.20223,-0.56578 0.29905,-1.13976 0.21515,-1.27551 -0.0911,-0.14739 -1.45598,-0.17257 -3.38785,-0.0625 -3.96446,0.22586 -4.39634,0.0729 -4.36547,-1.54613 0.0117,-0.61283 0.0173,-1.94653 0.0124,-2.96378 -0.005,-1.01725 0.0836,-1.94194 0.19652,-2.05486 0.11292,-0.11293 3.47163,-0.1736 7.46379,-0.13484 l 7.25847,0.0705 0.0746,3.11175 c 0.0688,2.87096 0.0106,3.31115 -0.75266,5.68854 -0.45498,1.41724 -1.16052,3.82695 -1.56786,5.35492 -2.16072,8.105 -4.30049,15.18239 -4.75625,15.73156 -0.17813,0.21463 -0.27454,0.5382 -0.21426,0.71905 0.0603,0.18085 -0.16279,1.28618 -0.49573,2.45629 -0.78547,2.76058 -0.79546,2.75285 3.35034,2.59172 4.39957,-0.171 4.49415,-0.10308 4.49415,3.22712 0,1.90954 -0.0967,2.58528 -0.41578,2.90432 -0.35279,0.35279 -1.30466,0.41621 -6.28385,0.41869 -3.22745,0.002 -6.30754,0.0756 -6.84465,0.16437 -0.89589,0.14813 -1.02285,0.0878 -1.53692,-0.73052 z m -36.20051,-40.35505 -1.052044,-1.23079 -3.227501,0.32322 c -1.775124,0.17777 -3.297328,0.25339 -3.382674,0.16804 -0.363286,-0.36329 0.524211,-0.62858 3.479461,-1.04011 1.727412,-0.24054 3.236299,-0.49641 3.353083,-0.56858 0.116782,-0.0722 0.288676,-0.47883 0.381987,-0.90367 0.308351,-1.4039 0.683104,-1.47099 3.106843,-0.55621 l 2.198087,0.82961 1.450253,-0.68449 c 0.02205,-0.91945 1.766745,-1.07575 2.642339,-0.79431 0.32975,0.10465 0.77024,0.65376 1.05229,1.31175 0.54398,1.26908 0.53042,1.2634 4.17176,1.74592 1.34607,0.17837 2.4474,0.44167 2.4474,0.58513 0,0.15624 -0.42566,0.19276 -1.06162,0.0911 -0.58389,-0.0934 -1.94122,-0.24411 -3.01629,-0.33499 l -1.95467,-0.16523 -0.69917,1.10756 c -0.38455,0.60916 -0.87093,1.17348 -1.08084,1.25403 -0.47185,0.18107 -1.807694,-0.91697 -2.82639,-2.32324 -0.939676,-1.29719 -1.65848,-1.28717 -2.500043,0.0348 -1.006517,1.58113 -1.703419,2.38125 -2.074053,2.38125 -0.195892,0 -0.829585,-0.55385 -1.408208,-1.23078 z"
       style="fill:none;stroke:#000000;stroke-width:0.26458332;stroke-opacity:1"
       sodipodi:nodetypes="cccsccscccccccscscssscccccccscccccsccccccsccccccccccccccccccccscccccsccccssccccccccccccsccccccccccccccscccccsscccssccccccscscccccsscccccccccccsssccccsscccscsccccccccccscccccccccccccccccscccccccscccscccccsscccccccscc" />
  </g>
</svg>
