0
SECTION
2
HEADER
9
$INSUNITS
70
1
9
$ACADVER
1
AC1014
9
$HANDSEED
5
FFFF
0
ENDSEC
0
SECTION
2
TABLES
0
TABLE
2
VPORT
5
8
100
AcDbSymbolTable
0
ENDTAB
0
TABLE
2
LTYPE
5
5
100
AcDbSymbolTable
0
LTYPE
5
14
100
AcDbSymbolTableRecord
100
AcDbLinetypeTableRecord
2
BYBLOCK
70
0
0
LTYPE
5
15
100
AcDbSymbolTableRecord
100
AcDbLinetypeTableRecord
2
BYLAYER
70
0
0
ENDTAB
0
TABLE
2
LAYER
5
2
100
AcDbSymbolTable
70
2
0
LAYER
5
50
100
AcDbSymbolTableRecord
100
AcDbLayerTableRecord
2
0
70
0
6
CONTINUOUS
0
ENDTAB
0
TABLE
2
STYLE
5
3
100
AcDbSymbolTable
70
1
0
STYLE
5
11
100
AcDbSymbolTableRecord
100
AcDbTextStyleTableRecord
2
STANDARD
70
0
0
ENDTAB
0
TABLE
2
VIEW
5
6
100
AcDbSymbolTable
70
0
0
ENDTAB
0
TABLE
2
UCS
5
7
100
AcDbSymbolTable
70
0
0
ENDTAB
0
TABLE
2
APPID
5
9
100
AcDbSymbolTable
70
2
0
APPID
5
12
100
AcDbSymbolTableRecord
100
AcDbRegAppTableRecord
2
ACAD
70
0
0
ENDTAB
0
TABLE
2
DIMSTYLE
5
A
100
AcDbSymbolTable
70
1
0
ENDTAB
0
TABLE
2
BLOCK_RECORD
5
1
100
AcDbSymbolTable
70
1
0
BLOCK_RECORD
5
1F
100
AcDbSymbolTableRecord
100
AcDbBlockTableRecord
2
*MODEL_SPACE
0
BLOCK_RECORD
5
1B
100
AcDbSymbolTableRecord
100
AcDbBlockTableRecord
2
*PAPER_SPACE
0
ENDTAB
0
ENDSEC
0
SECTION
2
BLOCKS
0
BLOCK
5
20
100
AcDbEntity
100
AcDbBlockBegin
2
*MODEL_SPACE
0
ENDBLK
5
21
100
AcDbEntity
100
AcDbBlockEnd
0
BLOCK
5
1C
100
AcDbEntity
100
AcDbBlockBegin
2
*PAPER_SPACE
0
ENDBLK
5
1D
100
AcDbEntity
100
AcDbBlockEnd
0
ENDSEC
0
SECTION
2
ENTITIES
0
LINE
5
100
100
AcDbEntity
8
0
100
AcDbLine
10
-0.019171332336060661
20
-26.054402523481674
30
0
11
-0.019171332336060661
21
29.427762927941487
31
0
0
SPLINE
5
101
100
AcDbEntity
8
0
100
AcDbSpline
70
4
71
5
72
61
73
55
74
0
42
0.000000001
43
0.0000000001
44
0.0000000001
40
0
40
0
40
0
40
0
40
0
40
0
40
0.02
40
0.040000000000000001
40
0.059999999999999998
40
0.080000000000000002
40
0.10000000000000001
40
0.12000000000000001
40
0.14000000000000001
40
0.16
40
0.17999999999999999
40
0.19999999999999998
40
0.21999999999999997
40
0.23999999999999996
40
0.25999999999999995
40
0.27999999999999997
40
0.29999999999999999
40
0.32000000000000001
40
0.34000000000000002
40
0.36000000000000004
40
0.38000000000000006
40
0.40000000000000008
40
0.4200000000000001
40
0.44000000000000011
40
0.46000000000000013
40
0.48000000000000015
40
0.50000000000000011
40
0.52000000000000013
40
0.54000000000000015
40
0.56000000000000016
40
0.58000000000000018
40
0.6000000000000002
40
0.62000000000000022
40
0.64000000000000024
40
0.66000000000000025
40
0.68000000000000027
40
0.70000000000000029
40
0.72000000000000031
40
0.74000000000000032
40
0.76000000000000034
40
0.78000000000000036
40
0.80000000000000038
40
0.8200000000000004
40
0.84000000000000041
40
0.86000000000000043
40
0.88000000000000045
40
0.90000000000000047
40
0.92000000000000048
40
0.9400000000000005
40
0.96000000000000052
40
0.98000000000000054
40
1
40
1
40
1
40
1
40
1
40
1
41
1
41
1
41
1
41
1
41
1
41
1
41
1
41
1
41
1
41
1
41
1
41
1
41
1
41
1
41
1
41
1
41
1
41
1
41
1
41
1
41
1
41
1
41
1
41
1
41
1
41
1
41
1
41
1
41
1
41
1
41
1
41
1
41
1
41
1
41
1
41
1
41
1
41
1
41
1
41
1
41
1
41
1
41
1
41
1
41
1
41
1
41
1
41
1
41
1
41
1
41
1
41
1
41
1
41
1
41
1
10
-0.019171332336060661
20
-26.054402523481674
30
0
10
0.12787011200181861
20
-26.059030445898379
30
0
10
0.42088414240126437
20
-26.064735904215699
30
0
10
0.85719995258849213
20
-26.062641756916012
30
0
10
1.4325247337884508
20
-26.038514093603801
30
0
10
2.1416802680625344
20
-25.971428125308634
30
0
10
2.8428412231243563
20
-25.863913535053136
30
0
10
3.5404963103544693
20
-25.70890291533912
30
0
10
4.2403936764112569
20
-25.496453870601353
30
0
10
4.9462525681550753
20
-25.216257035356044
30
0
10
5.6570301233725431
20
-24.859641772002082
30
0
10
6.3640037529421374
20
-24.421769923086028
30
0
10
7.0541507361949893
20
-23.900997979756095
30
0
10
7.7134376954485804
20
-23.298311336073731
30
0
10
8.3300992429287977
20
-22.616740370628655
30
0
10
8.8980382704857295
20
-21.86079016767712
30
0
10
9.4158337303665114
20
-21.035867027946509
30
0
10
9.8855943241346811
20
-20.147690344244179
30
0
10
10.311904767180843
20
-19.201751372684214
30
0
10
10.700684858771485
20
-18.202663397267838
30
0
10
11.058278672269232
20
-17.153854751627161
30
0
10
11.391024712509406
20
-16.058041232993371
30
0
10
11.704738797884216
20
-14.917539204262775
30
0
10
12.004215185025025
20
-13.734645664520819
30
0
10
12.292755569963335
20
-12.511982511540634
30
0
10
12.571584510518239
20
-11.252879167349921
30
0
10
12.840144983920821
20
-9.9615713540232509
30
0
10
13.096576956303295
20
-8.643377768490268
30
0
10
13.338128137652435
20
-7.3048680121322853
30
0
10
13.56159317525386
20
-5.9540826167406271
30
0
10
13.763733758388735
20
-4.600632356293417
30
0
10
13.941720730209225
20
-3.2561064103282922
30
0
10
14.093519816615657
20
-1.933427455752267
30
0
10
14.218222140375911
20
-0.64477658215893452
30
0
10
14.316370853669303
20
0.6000952693199384
30
0
10
14.390338199016059
20
1.7957881597273198
30
0
10
14.444584285643952
20
2.9429262337186799
30
0
10
14.486220005111434
20
4.0503402448242412
30
0
10
14.5246400131072
20
5.1358026313967331
30
0
10
14.568819375702988
20
6.2233035862769102
30
0
10
14.625125189923219
20
7.3409509518892779
30
0
10
14.69479198416183
20
8.5187709656226112
30
0
10
14.77182019879271
20
9.7862449237602256
30
0
10
14.839912974444847
20
11.170748941295651
30
0
10
14.877949186892076
20
12.68883374448324
30
0
10
14.86574376683568
20
14.338580084412149
30
0
10
14.791163832894789
20
16.087759526201641
30
0
10
14.653419393464423
20
17.872136959316961
30
0
10
14.47560125925653
20
19.569760736534271
30
0
10
14.295535925103389
20
21.031333838027773
30
0
10
14.211459202045315
20
21.968866638477664
30
0
10
14.190936278949039
20
22.371561977819308
30
0
10
14.160759967370332
20
22.586722574992844
30
0
10
14.126370969030686
20
22.712266704019044
30
0
10
14.105604847231264
20
22.770573576775018
30
0
0
LINE
5
102
100
AcDbEntity
8
0
100
AcDbLine
10
14.105604847231264
20
22.770573576775018
30
0
11
12.558555789160907
21
22.770573576775014
31
0
0
SPLINE
5
103
100
AcDbEntity
8
0
100
AcDbSpline
70
4
71
5
72
41
73
35
74
0
42
0.000000001
43
0.0000000001
44
0.0000000001
40
0
40
0
40
0
40
0
40
0
40
0
40
0.033333333333333333
40
0.066666666666666666
40
0.10000000000000001
40
0.13333333333333333
40
0.16666666666666666
40
0.19999999999999998
40
0.23333333333333331
40
0.26666666666666666
40
0.29999999999999999
40
0.33333333333333331
40
0.36666666666666664
40
0.39999999999999997
40
0.43333333333333329
40
0.46666666666666662
40
0.49999999999999994
40
0.53333333333333333
40
0.56666666666666665
40
0.59999999999999998
40
0.6333333333333333
40
0.66666666666666663
40
0.69999999999999996
40
0.73333333333333328
40
0.76666666666666661
40
0.79999999999999993
40
0.83333333333333326
40
0.86666666666666659
40
0.89999999999999991
40
0.93333333333333324
40
0.96666666666666656
40
1
40
1
40
1
40
1
40
1
40
1
41
1
41
1
41
1
41
1
41
1
41
1
41
1
41
1
41
1
41
1
41
1
41
1
41
1
41
1
41
1
41
1
41
1
41
1
41
1
41
1
41
1
41
1
41
1
41
1
41
1
41
1
41
1
41
1
41
1
41
1
41
1
41
1
41
1
41
1
41
1
10
12.558555789160907
20
22.770573576775014
30
0
10
12.549664977644788
20
22.853364653840568
30
0
10
12.520933517799007
20
23.020627363457336
30
0
10
12.444986714292407
20
23.276563076247346
30
0
10
12.281640652579121
20
23.627194125989455
30
0
10
11.995113450894701
20
24.07665134266021
30
0
10
11.653602417575955
20
24.530846378098662
30
0
10
11.2847930334304
20
24.982138249849417
30
0
10
10.911018690860832
20
25.422415662487179
30
0
10
10.542982208643773
20
25.843841529004706
30
0
10
10.182289923137041
20
26.239435526542106
30
0
10
9.8245674040584419
20
26.603625147911988
30
0
10
9.4624157187102895
20
26.932872368494934
30
0
10
9.088172664095838
20
27.226175738202308
30
0
10
8.6973353081362816
20
27.485938666981358
30
0
10
8.2886496621641328
20
27.717211255696203
30
0
10
7.8625955301546249
20
27.926163576131806
30
0
10
7.4203871162301915
20
28.118807972374512
30
0
10
6.9627935754005277
20
28.299647449714978
30
0
10
6.4889788894861038
20
28.470290072278143
30
0
10
5.9974214860727013
20
28.630223196777692
30
0
10
5.4869028478368387
20
28.777652731890054
30
0
10
4.9575162808350894
20
28.910330330533444
30
0
10
4.4115818534186744
20
29.026334633639916
30
0
10
3.8548740187970245
20
29.125002063339601
30
0
10
3.2957126290105476
20
29.206786620346044
30
0
10
2.7436105902922958
20
29.272888473007463
30
0
10
2.2080402433909465
20
29.324965890577921
30
0
10
1.6972539177047534
20
29.364832757173509
30
0
10
1.216823977405656
20
29.394136255129649
30
0
10
0.76911947841508999
20
29.414150773154752
30
0
10
0.43751607395909498
20
29.423475565786354
30
0
10
0.20351349908459013
20
29.42696105212956
30
0
10
0.053979099311225749
20
29.42775122233741
30
0
10
-0.019171332336060661
20
29.427762927941487
30
0
0
SPLINE
5
104
100
AcDbEntity
8
0
100
AcDbSpline
70
4
71
5
72
61
73
55
74
0
42
0.000000001
43
0.0000000001
44
0.0000000001
40
0
40
0
40
0
40
0
40
0
40
0
40
0.02
40
0.040000000000000001
40
0.059999999999999998
40
0.080000000000000002
40
0.10000000000000001
40
0.12000000000000001
40
0.14000000000000001
40
0.16
40
0.17999999999999999
40
0.19999999999999998
40
0.21999999999999997
40
0.23999999999999996
40
0.25999999999999995
40
0.27999999999999997
40
0.29999999999999999
40
0.32000000000000001
40
0.34000000000000002
40
0.36000000000000004
40
0.38000000000000006
40
0.40000000000000008
40
0.4200000000000001
40
0.44000000000000011
40
0.46000000000000013
40
0.48000000000000015
40
0.50000000000000011
40
0.52000000000000013
40
0.54000000000000015
40
0.56000000000000016
40
0.58000000000000018
40
0.6000000000000002
40
0.62000000000000022
40
0.64000000000000024
40
0.66000000000000025
40
0.68000000000000027
40
0.70000000000000029
40
0.72000000000000031
40
0.74000000000000032
40
0.76000000000000034
40
0.78000000000000036
40
0.80000000000000038
40
0.8200000000000004
40
0.84000000000000041
40
0.86000000000000043
40
0.88000000000000045
40
0.90000000000000047
40
0.92000000000000048
40
0.9400000000000005
40
0.96000000000000052
40
0.98000000000000054
40
1
40
1
40
1
40
1
40
1
40
1
41
1
41
1
41
1
41
1
41
1
41
1
41
1
41
1
41
1
41
1
41
1
41
1
41
1
41
1
41
1
41
1
41
1
41
1
41
1
41
1
41
1
41
1
41
1
41
1
41
1
41
1
41
1
41
1
41
1
41
1
41
1
41
1
41
1
41
1
41
1
41
1
41
1
41
1
41
1
41
1
41
1
41
1
41
1
41
1
41
1
41
1
41
1
41
1
41
1
41
1
41
1
41
1
41
1
41
1
41
1
10
-0.019171332336060661
20
-26.054402523481674
30
0
10
-0.16621277667393991
20
-26.059030445898379
30
0
10
-0.45922680707338775
20
-26.064735904215691
30
0
10
-0.89554261726061923
20
-26.062641756916012
30
0
10
-1.4708673984605729
20
-26.038514093603769
30
0
10
-2.1800229327346465
20
-25.971428125308645
30
0
10
-2.8811838877964804
20
-25.863913535053111
30
0
10
-3.5788389750266192
20
-25.708902915339159
30
0
10
-4.2787363410834045
20
-25.496453870601382
30
0
10
-4.984595232827199
20
-25.216257035356058
30
0
10
-5.6953727880446268
20
-24.85964177200206
30
0
10
-6.4023464176142495
20
-24.421769923086003
30
0
10
-7.0924934008670997
20
-23.900997979756053
30
0
10
-7.7517803601206978
20
-23.298311336073716
30
0
10
-8.3684419076009249
20
-22.616740370628722
30
0
10
-8.9363809351578745
20
-21.86079016767734
30
0
10
-9.454176395038667
20
-21.035867027946797
30
0
10
-9.9239369888068243
20
-20.147690344244367
30
0
10
-10.350247431852948
20
-19.201751372684157
30
0
10
-10.739027523443569
20
-18.2026633972675
30
0
10
-11.096621336941288
20
-17.153854751626657
30
0
10
-11.429367377181437
20
-16.058041232992899
30
0
10
-11.743081462556244
20
-14.91753920426253
30
0
10
-12.042557849697111
20
-13.734645664520816
30
0
10
-12.33109823463554
20
-12.511982511540774
30
0
10
-12.609927175190569
20
-11.252879167350025
30
0
10
-12.878487648593213
20
-9.9615713540231745
30
0
10
-13.134919620975646
20
-8.6433777684899784
30
0
10
-13.376470802324679
20
-7.3048680121319256
30
0
10
-13.599935839926001
20
-5.9540826167404388
30
0
10
-13.802076423060832
20
-4.60063235629356
30
0
10
-13.980063394881292
20
-3.2561064103287851
30
0
10
-14.131862481287715
20
-1.9334274557529723
30
0
10
-14.256564805047958
20
-0.6447765821596434
30
0
10
-14.354713518341359
20
0.60009526931941948
30
0
10
-14.428680863688145
20
1.7957881597271035
30
0
10
-14.482926950316081
20
2.94292623371877
30
0
10
-14.524562669783624
20
4.0503402448245547
30
0
10
-14.562982677779441
20
5.1358026313971301
30
0
10
-14.607162040375247
20
6.2233035862772486
30
0
10
-14.663467854595442
20
7.3409509518894653
30
0
10
-14.733134648833964
20
8.5187709656226094
30
0
10
-14.810162863464752
20
9.7862449237600586
30
0
10
-14.878255639116828
20
11.170748941295402
30
0
10
-14.916291851564045
20
12.688833744482997
30
0
10
-14.904086431507674
20
14.338580084411975
30
0
10
-14.82950649756685
20
16.087759526201562
30
0
10
-14.691762058136529
20
17.872136959316929
30
0
10
-14.513943923928666
20
19.569760736534271
30
0
10
-14.3338785897755
20
21.031333838027759
30
0
10
-14.249801866717451
20
21.968866638477692
30
0
10
-14.229278943621189
20
22.371561977819326
30
0
10
-14.199102632042463
20
22.586722574992841
30
0
10
-14.164713633702807
20
22.712266704019044
30
0
10
-14.143947511903384
20
22.770573576775018
30
0
0
LINE
5
105
100
AcDbEntity
8
0
100
AcDbLine
10
-14.143947511903384
20
22.770573576775018
30
0
11
-12.596898453833028
21
22.770573576775018
31
0
0
SPLINE
5
106
100
AcDbEntity
8
0
100
AcDbSpline
70
4
71
5
72
41
73
35
74
0
42
0.000000001
43
0.0000000001
44
0.0000000001
40
0
40
0
40
0
40
0
40
0
40
0
40
0.033333333333333333
40
0.066666666666666666
40
0.10000000000000001
40
0.13333333333333333
40
0.16666666666666666
40
0.19999999999999998
40
0.23333333333333331
40
0.26666666666666666
40
0.29999999999999999
40
0.33333333333333331
40
0.36666666666666664
40
0.39999999999999997
40
0.43333333333333329
40
0.46666666666666662
40
0.49999999999999994
40
0.53333333333333333
40
0.56666666666666665
40
0.59999999999999998
40
0.6333333333333333
40
0.66666666666666663
40
0.69999999999999996
40
0.73333333333333328
40
0.76666666666666661
40
0.79999999999999993
40
0.83333333333333326
40
0.86666666666666659
40
0.89999999999999991
40
0.93333333333333324
40
0.96666666666666656
40
1
40
1
40
1
40
1
40
1
40
1
41
1
41
1
41
1
41
1
41
1
41
1
41
1
41
1
41
1
41
1
41
1
41
1
41
1
41
1
41
1
41
1
41
1
41
1
41
1
41
1
41
1
41
1
41
1
41
1
41
1
41
1
41
1
41
1
41
1
41
1
41
1
41
1
41
1
41
1
41
1
10
-12.596898453833028
20
22.770573576775018
30
0
10
-12.58800764231691
20
22.853364653840568
30
0
10
-12.559276182471161
20
23.020627363457411
30
0
10
-12.48332937896472
20
23.276563076247786
30
0
10
-12.319983317251626
20
23.6271941259903
30
0
10
-12.033456115567297
20
24.076651342661243
30
0
10
-11.691945082248402
20
24.530846378099415
30
0
10
-11.323135698102554
20
24.982138249849474
30
0
10
-10.949361355532661
20
25.422415662486575
30
0
10
-10.581324873315413
20
25.843841529003655
30
0
10
-10.220632587808673
20
26.239435526541012
30
0
10
-9.8629100687302387
20
26.603625147911288
30
0
10
-9.5007583833823368
20
26.93287236849477
30
0
10
-9.1265153287681073
20
27.22617573820262
30
0
10
-8.7356779728086522
20
27.485938666981856
30
0
10
-8.3269923268364749
20
27.717211255696647
30
0
10
-7.9009381948268622
20
27.926163576132051
30
0
10
-7.4587297809023072
20
28.118807972374523
30
0
10
-7.0011362400725483
20
28.299647449714737
30
0
10
-6.5273215541580729
20
28.470290072277741
30
0
10
-6.035764150744682
20
28.630223196777312
30
0
10
-5.5252455125088815
20
28.777652731889855
30
0
10
-4.9958589455072024
20
28.910330330533441
30
0
10
-4.4499245180908389
20
29.026334633640033
30
0
10
-3.8932166834692152
20
29.125002063339767
30
0
10
-3.3340552936827388
20
29.206786620346215
30
0
10
-2.7819532549644639
20
29.272888473007569
30
0
10
-2.2463829080630831
20
29.324965890577939
30
0
10
-1.7355965823768593
20
29.364832757173506
30
0
10
-1.2551666420777547
20
29.394136255129588
30
0
10
-0.80746214308719211
20
29.414150773154667
30
0
10
-0.4758587386312102
20
29.423475565786298
30
0
10
-0.2418561637567114
20
29.426961052129549
30
0
10
-0.092321763983346988
20
29.42775122233741
30
0
10
-0.019171332336060661
20
29.427762927941487
30
0
0
LINE
5
107
100
AcDbEntity
8
0
100
AcDbLine
10
-0.019171332336060661
20
-26.054402523481674
30
0
11
-0.019171332336060661
21
-29.054402523481674
31
0
0
SPLINE
5
108
100
AcDbEntity
8
0
100
AcDbSpline
70
4
71
5
72
66
73
60
74
0
42
0.000000001
43
0.0000000001
44
0.0000000001
40
0
40
0
40
0
40
0
40
0
40
0
40
0.018181818181818181
40
0.036363636363636362
40
0.054545454545454543
40
0.072727272727272724
40
0.090909090909090912
40
0.1090909090909091
40
0.12727272727272729
40
0.14545454545454548
40
0.16363636363636366
40
0.18181818181818185
40
0.20000000000000004
40
0.21818181818181823
40
0.23636363636363641
40
0.25454545454545457
40
0.27272727272727276
40
0.29090909090909095
40
0.30909090909090914
40
0.32727272727272733
40
0.34545454545454551
40
0.3636363636363637
40
0.38181818181818189
40
0.40000000000000008
40
0.41818181818181827
40
0.43636363636363645
40
0.45454545454545464
40
0.47272727272727283
40
0.49090909090909102
40
0.50909090909090915
40
0.52727272727272734
40
0.54545454545454553
40
0.56363636363636371
40
0.5818181818181819
40
0.60000000000000009
40
0.61818181818181828
40
0.63636363636363646
40
0.65454545454545465
40
0.67272727272727284
40
0.69090909090909103
40
0.70909090909090922
40
0.7272727272727274
40
0.74545454545454559
40
0.76363636363636378
40
0.78181818181818197
40
0.80000000000000016
40
0.81818181818181834
40
0.83636363636363653
40
0.85454545454545472
40
0.87272727272727291
40
0.89090909090909109
40
0.90909090909090928
40
0.92727272727272747
40
0.94545454545454566
40
0.96363636363636385
40
0.98181818181818203
40
1
40
1
40
1
40
1
40
1
40
1
41
1
41
1
41
1
41
1
41
1
41
1
41
1
41
1
41
1
41
1
41
1
41
1
41
1
41
1
41
1
41
1
41
1
41
1
41
1
41
1
41
1
41
1
41
1
41
1
41
1
41
1
41
1
41
1
41
1
41
1
41
1
41
1
41
1
41
1
41
1
41
1
41
1
41
1
41
1
41
1
41
1
41
1
41
1
41
1
41
1
41
1
41
1
41
1
41
1
41
1
41
1
41
1
41
1
41
1
41
1
41
1
41
1
41
1
41
1
41
1
10
-0.019171332336060661
20
-29.054402523481674
30
0
10
0.20063448662580705
20
-29.04821384349901
30
0
10
0.64337210575214598
20
-29.03545767377819
30
0
10
1.3168564198322261
20
-29.015186865970563
30
0
10
2.2336018899054459
20
-28.985885891536732
30
0
10
3.4082802826069254
20
-28.940899982961259
30
0
10
4.6040168261972063
20
-28.873866460172504
30
0
10
5.8053289158664159
20
-28.757360816596918
30
0
10
6.98635851923828
20
-28.545725522345034
30
0
10
8.1171469336812869
20
-28.188556120597159
30
0
10
9.1699299198111159
20
-27.644270188635478
30
0
10
10.125270173383122
20
-26.893270721761432
30
0
10
10.978694169223461
20
-25.952371681182285
30
0
10
11.736764674348382
20
-24.861937648528873
30
0
10
12.412405012979201
20
-23.67079979307254
30
0
10
13.02082444946203
20
-22.423357807651076
30
0
10
13.574454452343495
20
-21.142529445549425
30
0
10
14.081249086302709
20
-19.827167917306294
30
0
10
14.546239049212605
20
-18.463399294547713
30
0
10
14.97222515974056
20
-17.032525265923969
30
0
10
15.360760931770292
20
-15.519505450852737
30
0
10
15.713150770680629
20
-13.923184337590444
30
0
10
16.030852673573094
20
-12.25755480746834
30
0
10
16.315276969049467
20
-10.544802955073395
30
0
10
16.567761985281624
20
-8.810815254979607
30
0
10
16.789472554786826
20
-7.0794437629568439
30
0
10
16.98134312384979
20
-5.3678683003709153
30
0
10
17.143973169573588
20
-3.6800353561367922
30
0
10
17.277699987437739
20
-2.0087852822857659
30
0
10
17.382746225386629
20
-0.34179026725117895
30
0
10
17.459341811759007
20
1.3338146330663696
30
0
10
17.507861883660613
20
3.0260872279953159
30
0
10
17.528947237298606
20
4.7336398143262288
30
0
10
17.523663927989531
20
6.4396003416267975
30
0
10
17.493296613491921
20
8.1177591954029538
30
0
10
17.439076948199492
20
9.740280751962068
30
0
10
17.36195896615952
20
11.285175150219109
30
0
10
17.262321559114714
20
12.743164869484596
30
0
10
17.139828517566755
20
14.126551493295572
30
0
10
16.992827433123754
20
15.471857173289417
30
0
10
16.816619574330581
20
16.824998103644038
30
0
10
16.60174643340898
20
18.229031889018767
30
0
10
16.33264074542236
20
19.71212976448771
30
0
10
15.985193957540925
20
21.272438695621869
30
0
10
15.528088374937012
20
22.875019012759552
30
0
10
14.929512093857479
20
24.466205439288935
30
0
10
14.162438644525109
20
25.983486193580653
30
0
10
13.210745975080732
20
27.367510336694313
30
0
10
12.074423074993245
20
28.572394789170854
30
0
10
10.776709208753843
20
29.578846729706569
30
0
10
9.3589185417792446
20
30.390285920254673
30
0
10
7.8724830533504662
20
31.025106615089683
30
0
10
6.3717475422247025
20
31.510111538934389
30
0
10
4.9069653877306401
20
31.873886383749088
30
0
10
3.5159882452209956
20
32.139233491951771
30
0
10
2.2206346560110011
20
32.319335421986295
30
0
10
1.2696668074647732
20
32.400728755601925
30
0
10
0.60598617165497504
20
32.427545974447767
30
0
10
0.185545801691374
20
32.430224105619409
30
0
10
-0.019171332336060661
20
32.427762927941487
30
0
0
LINE
5
109
100
AcDbEntity
8
0
100
AcDbLine
10
-0.019171332336060661
20
32.427762927941487
30
0
11
-0.019171332336060661
21
29.427762927941487
31
0
0
SPLINE
5
110
100
AcDbEntity
8
0
100
AcDbSpline
70
4
71
5
72
66
73
60
74
0
42
0.000000001
43
0.0000000001
44
0.0000000001
40
0
40
0
40
0
40
0
40
0
40
0
40
0.018181818181818181
40
0.036363636363636362
40
0.054545454545454543
40
0.072727272727272724
40
0.090909090909090912
40
0.1090909090909091
40
0.12727272727272729
40
0.14545454545454548
40
0.16363636363636366
40
0.18181818181818185
40
0.20000000000000004
40
0.21818181818181823
40
0.23636363636363641
40
0.25454545454545457
40
0.27272727272727276
40
0.29090909090909095
40
0.30909090909090914
40
0.32727272727272733
40
0.34545454545454551
40
0.3636363636363637
40
0.38181818181818189
40
0.40000000000000008
40
0.41818181818181827
40
0.43636363636363645
40
0.45454545454545464
40
0.47272727272727283
40
0.49090909090909102
40
0.50909090909090915
40
0.52727272727272734
40
0.54545454545454553
40
0.56363636363636371
40
0.5818181818181819
40
0.60000000000000009
40
0.61818181818181828
40
0.63636363636363646
40
0.65454545454545465
40
0.67272727272727284
40
0.69090909090909103
40
0.70909090909090922
40
0.7272727272727274
40
0.74545454545454559
40
0.76363636363636378
40
0.78181818181818197
40
0.80000000000000016
40
0.81818181818181834
40
0.83636363636363653
40
0.85454545454545472
40
0.87272727272727291
40
0.89090909090909109
40
0.90909090909090928
40
0.92727272727272747
40
0.94545454545454566
40
0.96363636363636385
40
0.98181818181818203
40
1
40
1
40
1
40
1
40
1
40
1
41
1
41
1
41
1
41
1
41
1
41
1
41
1
41
1
41
1
41
1
41
1
41
1
41
1
41
1
41
1
41
1
41
1
41
1
41
1
41
1
41
1
41
1
41
1
41
1
41
1
41
1
41
1
41
1
41
1
41
1
41
1
41
1
41
1
41
1
41
1
41
1
41
1
41
1
41
1
41
1
41
1
41
1
41
1
41
1
41
1
41
1
41
1
41
1
41
1
41
1
41
1
41
1
41
1
41
1
41
1
41
1
41
1
41
1
41
1
41
1
10
-0.019171332336060661
20
-29.054402523481674
30
0
10
-0.23897715129792838
20
-29.04821384349901
30
0
10
-0.68171477042426731
20
-29.03545767377819
30
0
10
-1.3551990845043473
20
-29.015186865970563
30
0
10
-2.2719445545775674
20
-28.985885891536732
30
0
10
-3.4466229472790468
20
-28.940899982961259
30
0
10
-4.6423594908693282
20
-28.873866460172504
30
0
10
-5.8436715805385377
20
-28.757360816596918
30
0
10
-7.024701183910401
20
-28.545725522345034
30
0
10
-8.155489598353407
20
-28.188556120597159
30
0
10
-9.2082725844832378
20
-27.644270188635478
30
0
10
-10.163612838055244
20
-26.893270721761432
30
0
10
-11.017036833895581
20
-25.952371681182285
30
0
10
-11.775107339020504
20
-24.861937648528873
30
0
10
-12.450747677651323
20
-23.67079979307254
30
0
10
-13.059167114134153
20
-22.423357807651076
30
0
10
-13.612797117015619
20
-21.142529445549425
30
0
10
-14.119591750974829
20
-19.827167917306294
30
0
10
-14.584581713884729
20
-18.463399294547713
30
0
10
-15.01056782441268
20
-17.032525265923969
30
0
10
-15.399103596442414
20
-15.519505450852737
30
0
10
-15.751493435352751
20
-13.923184337590444
30
0
10
-16.069195338245216
20
-12.25755480746834
30
0
10
-16.353619633721589
20
-10.544802955073395
30
0
10
-16.606104649953746
20
-8.810815254979607
30
0
10
-16.827815219458948
20
-7.0794437629568439
30
0
10
-17.019685788521912
20
-5.3678683003709153
30
0
10
-17.18231583424571
20
-3.6800353561367922
30
0
10
-17.316042652109861
20
-2.0087852822857659
30
0
10
-17.421088890058751
20
-0.34179026725117895
30
0
10
-17.497684476431129
20
1.3338146330663696
30
0
10
-17.546204548332735
20
3.0260872279953159
30
0
10
-17.567289901970724
20
4.7336398143262288
30
0
10
-17.562006592661653
20
6.4396003416267975
30
0
10
-17.53163927816404
20
8.1177591954029538
30
0
10
-17.477419612871614
20
9.740280751962068
30
0
10
-17.400301630831642
20
11.285175150219109
30
0
10
-17.300664223786832
20
12.743164869484596
30
0
10
-17.178171182238874
20
14.126551493295572
30
0
10
-17.031170097795876
20
15.471857173289417
30
0
10
-16.854962239002703
20
16.824998103644038
30
0
10
-16.640089098081102
20
18.229031889018767
30
0
10
-16.370983410094482
20
19.71212976448771
30
0
10
-16.023536622213044
20
21.272438695621869
30
0
10
-15.566431039609135
20
22.875019012759552
30
0
10
-14.967854758529601
20
24.466205439288935
30
0
10
-14.200781309197229
20
25.983486193580653
30
0
10
-13.249088639752854
20
27.367510336694313
30
0
10
-12.112765739665367
20
28.572394789170854
30
0
10
-10.815051873425965
20
29.578846729706569
30
0
10
-9.3972612064513665
20
30.390285920254673
30
0
10
-7.9108257180225872
20
31.025106615089683
30
0
10
-6.4100902068968244
20
31.510111538934389
30
0
10
-4.9453080524027619
20
31.873886383749088
30
0
10
-3.5543309098931171
20
32.139233491951771
30
0
10
-2.2589773206831221
20
32.319335421986295
30
0
10
-1.3080094721368947
20
32.400728755601925
30
0
10
-0.64432883632709637
20
32.427545974447767
30
0
10
-0.2238884663634953
20
32.430224105619409
30
0
10
-0.019171332336060661
20
32.427762927941487
30
0
0
LINE
5
111
100
AcDbEntity
8
0
100
AcDbLine
10
13.520457104281984
20
10.578145026353083
30
0
11
7.5204571042819905
21
10.578145026353083
31
0
0
LINE
5
112
100
AcDbEntity
8
0
100
AcDbLine
10
7.5204571042819905
20
10.578145026353083
30
0
11
7.520457104281987
21
21.578145026353081
31
0
0
LINE
5
113
100
AcDbEntity
8
0
100
AcDbLine
10
7.520457104281987
20
21.578145026353081
30
0
11
13.520457104281984
21
21.578145026353081
31
0
0
LINE
5
114
100
AcDbEntity
8
0
100
AcDbLine
10
13.520457104281984
20
21.578145026353081
30
0
11
13.520457104281984
21
10.578145026353083
31
0
0
LINE
5
115
100
AcDbEntity
8
0
100
AcDbLine
10
13.520457104281984
20
10.578145026353083
30
0
11
7.520457104281987
21
21.578145026353081
31
0
0
LINE
5
116
100
AcDbEntity
8
0
100
AcDbLine
10
7.5204571042819905
20
10.578145026353083
30
0
11
13.520457104281984
21
21.578145026353081
31
0
0
LINE
5
117
100
AcDbEntity
8
0
100
AcDbLine
10
-13.558799768954104
20
21.578145026353081
30
0
11
-13.558799768954104
21
10.578145026353083
31
0
0
LINE
5
118
100
AcDbEntity
8
0
100
AcDbLine
10
-13.558799768954104
20
10.578145026353083
30
0
11
-7.5587997689541053
21
10.578145026353083
31
0
0
LINE
5
119
100
AcDbEntity
8
0
100
AcDbLine
10
-7.5587997689541035
20
21.578145026353081
30
0
11
-13.558799768954104
21
21.578145026353081
31
0
0
LINE
5
120
100
AcDbEntity
8
0
100
AcDbLine
10
-7.5587997689541053
20
10.578145026353083
30
0
11
-7.5587997689541035
21
21.578145026353081
31
0
0
LINE
5
121
100
AcDbEntity
8
0
100
AcDbLine
10
-7.5587997689541053
20
10.578145026353083
30
0
11
-13.558799768954104
21
21.578145026353081
31
0
0
LINE
5
122
100
AcDbEntity
8
0
100
AcDbLine
10
-13.558799768954104
20
10.578145026353083
30
0
11
-7.5587997689541035
21
21.578145026353081
31
0
0
SPLINE
5
123
100
AcDbEntity
8
0
100
AcDbSpline
70
4
71
5
72
51
73
45
74
0
42
0.000000001
43
0.0000000001
44
0.0000000001
40
0
40
0
40
0
40
0
40
0
40
0
40
0.025000000000000001
40
0.050000000000000003
40
0.075000000000000011
40
0.10000000000000001
40
0.125
40
0.14999999999999999
40
0.17499999999999999
40
0.19999999999999998
40
0.22499999999999998
40
0.24999999999999997
40
0.27499999999999997
40
0.29999999999999999
40
0.32500000000000001
40
0.35000000000000003
40
0.37500000000000006
40
0.40000000000000008
40
0.4250000000000001
40
0.45000000000000012
40
0.47500000000000014
40
0.50000000000000011
40
0.52500000000000013
40
0.55000000000000016
40
0.57500000000000018
40
0.6000000000000002
40
0.62500000000000022
40
0.65000000000000024
40
0.67500000000000027
40
0.70000000000000029
40
0.72500000000000031
40
0.75000000000000033
40
0.77500000000000036
40
0.80000000000000038
40
0.8250000000000004
40
0.85000000000000042
40
0.87500000000000044
40
0.90000000000000047
40
0.92500000000000049
40
0.95000000000000051
40
0.97500000000000053
40
1
40
1
40
1
40
1
40
1
40
1
41
1
41
1
41
1
41
1
41
1
41
1
41
1
41
1
41
1
41
1
41
1
41
1
41
1
41
1
41
1
41
1
41
1
41
1
41
1
41
1
41
1
41
1
41
1
41
1
41
1
41
1
41
1
41
1
41
1
41
1
41
1
41
1
41
1
41
1
41
1
41
1
41
1
41
1
41
1
41
1
41
1
41
1
41
1
41
1
41
1
10
-0.019171658835222288
20
-27.8007284309239
30
0
10
-0.2533521384969562
20
-27.8007284309239
30
0
10
-0.73437886174536815
20
-27.797004372411006
30
0
10
-1.4939166954687817
20
-27.780253751535554
30
0
10
-2.5768191392386535
20
-27.720029902130719
30
0
10
-4.011916402732485
20
-27.500294445662071
30
0
10
-5.4798614483295189
20
-27.045710164113
30
0
10
-6.9270014593635469
20
-26.293863909417084
30
0
10
-8.3019742713769098
20
-25.237001004122256
30
0
10
-9.5595253928065382
20
-23.90480206383652
30
0
10
-10.665132548470615
20
-22.353460931778976
30
0
10
-11.598779374598998
20
-20.652754914407957
30
0
10
-12.360554391753604
20
-18.873331518215792
30
0
10
-12.970682482073043
20
-17.076537915694455
30
0
10
-13.460931504113775
20
-15.30951419531517
30
0
10
-13.867889206357791
20
-13.59851463098002
30
0
10
-14.225957283473571
20
-11.943838174502536
30
0
10
-14.559437176631519
20
-10.311631180464245
30
0
10
-14.87839686577307
20
-8.6345822843534368
30
0
10
-15.18317797128617
20
-6.8317624451741752
30
0
10
-15.467097879154185
20
-4.8246264737998157
30
0
10
-15.719799483478177
20
-2.554247822248092
30
0
10
-15.930401167082564
20
0.0012071871292653996
30
0
10
-16.090453738819306
20
2.8109278011408723
30
0
10
-16.192668672756195
20
5.8058220219705579
30
0
10
-16.229959149377841
20
8.8907169518837392
30
0
10
-16.194343299954927
20
11.957327976747301
30
0
10
-16.075961566235616
20
14.896630474615128
30
0
10
-15.861918809009309
20
17.611905633142428
30
0
10
-15.535485211448222
20
20.030519261248312
30
0
10
-15.074435932787022
20
22.118808844324519
30
0
10
-14.451968484204428
20
23.887921405651795
30
0
10
-13.644064375656033
20
25.376172775001141
30
0
10
-12.636001919538064
20
26.635480229941869
30
0
10
-11.428521031928302
20
27.71724542853142
30
0
10
-10.045942571650079
20
28.656195208974911
30
0
10
-8.5378857664752861
20
29.462621406542077
30
0
10
-6.9665908140629522
20
30.13402864267881
30
0
10
-5.3968296649387391
20
30.663222493726618
30
0
10
-3.8856474145126381
20
31.046859020626755
30
0
10
-2.4700416128597533
20
31.296192781361221
30
0
10
-1.4289695918332677
20
31.404865464770545
30
0
10
-0.70278055758152114
20
31.4441473214894
30
0
10
-0.24298550555972562
20
31.452877529284461
30
0
10
-0.019171332336060661
20
31.452877529284461
30
0
0
SPLINE
5
124
100
AcDbEntity
8
0
100
AcDbSpline
70
4
71
5
72
51
73
45
74
0
42
0.000000001
43
0.0000000001
44
0.0000000001
40
0
40
0
40
0
40
0
40
0
40
0
40
0.025000000000000001
40
0.050000000000000003
40
0.075000000000000011
40
0.10000000000000001
40
0.125
40
0.14999999999999999
40
0.17499999999999999
40
0.19999999999999998
40
0.22499999999999998
40
0.24999999999999997
40
0.27499999999999997
40
0.29999999999999999
40
0.32500000000000001
40
0.35000000000000003
40
0.37500000000000006
40
0.40000000000000008
40
0.4250000000000001
40
0.45000000000000012
40
0.47500000000000014
40
0.50000000000000011
40
0.52500000000000013
40
0.55000000000000016
40
0.57500000000000018
40
0.6000000000000002
40
0.62500000000000022
40
0.65000000000000024
40
0.67500000000000027
40
0.70000000000000029
40
0.72500000000000031
40
0.75000000000000033
40
0.77500000000000036
40
0.80000000000000038
40
0.8250000000000004
40
0.85000000000000042
40
0.87500000000000044
40
0.90000000000000047
40
0.92500000000000049
40
0.95000000000000051
40
0.97500000000000053
40
1
40
1
40
1
40
1
40
1
40
1
41
1
41
1
41
1
41
1
41
1
41
1
41
1
41
1
41
1
41
1
41
1
41
1
41
1
41
1
41
1
41
1
41
1
41
1
41
1
41
1
41
1
41
1
41
1
41
1
41
1
41
1
41
1
41
1
41
1
41
1
41
1
41
1
41
1
41
1
41
1
41
1
41
1
41
1
41
1
41
1
41
1
41
1
41
1
41
1
41
1
10
-0.019171005836899034
20
-27.8007284309239
30
0
10
0.2150094738248349
20
-27.8007284309239
30
0
10
0.6960361970732456
20
-27.797004372411006
30
0
10
1.4555740307966547
20
-27.780253751535554
30
0
10
2.5384764745665147
20
-27.720029902130719
30
0
10
3.9735737380603382
20
-27.500294445662071
30
0
10
5.4415187836574006
20
-27.045710164113
30
0
10
6.888658794691473
20
-26.293863909417084
30
0
10
8.2636316067048554
20
-25.237001004122256
30
0
10
9.5211827281344696
20
-23.90480206383652
30
0
10
10.626789883798505
20
-22.353460931778976
30
0
10
11.560436709926869
20
-20.652754914407957
30
0
10
12.322211727081479
20
-18.873331518215792
30
0
10
12.932339817400939
20
-17.076537915694455
30
0
10
13.422588839441689
20
-15.30951419531517
30
0
10
13.829546541685694
20
-13.59851463098002
30
0
10
14.187614618801449
20
-11.943838174502536
30
0
10
14.521094511959339
20
-10.311631180464245
30
0
10
14.840054201100841
20
-8.6345822843534368
30
0
10
15.144835306613905
20
-6.8317624451741752
30
0
10
15.428755214481958
20
-4.8246264737998157
30
0
10
15.68145681880606
20
-2.554247822248092
30
0
10
15.892058502410581
20
0.0012071871292653996
30
0
10
16.052111074147422
20
2.8109278011408723
30
0
10
16.154326008084382
20
5.8058220219705579
30
0
10
16.191616484706049
20
8.8907169518837392
30
0
10
16.156000635283103
20
11.957327976747301
30
0
10
16.037618901563707
20
14.896630474615128
30
0
10
15.823576144337277
20
17.611905633142428
30
0
10
15.497142546776054
20
20.030519261248312
30
0
10
15.036093268114781
20
22.118808844324519
30
0
10
14.413625819532175
20
23.887921405651795
30
0
10
13.605721710983806
20
25.376172775001141
30
0
10
12.597659254865903
20
26.635480229941869
30
0
10
11.390178367256205
20
27.71724542853142
30
0
10
10.00759990697801
20
28.656195208974911
30
0
10
8.4995431018032246
20
29.462621406542077
30
0
10
6.9282481493908659
20
30.13402864267881
30
0
10
5.3584870002666234
20
30.663222493726618
30
0
10
3.8473047498404984
20
31.046859020626755
30
0
10
2.4316989481876146
20
31.296192781361221
30
0
10
1.3906269271611384
20
31.404865464770545
30
0
10
0.66443789290939848
20
31.4441473214894
30
0
10
0.20464284088760432
20
31.452877529284461
30
0
10
-0.019171332336060661
20
31.452877529284461
30
0
0
ENDSEC
0
SECTION
2
OBJECTS
0
DICTIONARY
5
C
100
AcDbDictionary
3
ACAD_GROUP
350
D
3
ACAD_MLINESTYLE
350
17
0
DICTIONARY
5
D
100
AcDbDictionary
0
DICTIONARY
5
1A
330
C
100
AcDbDictionary
0
DICTIONARY
5
17
100
AcDbDictionary
0
ENDSEC
0
EOF
