  0
SECTION
  2
HEADER
  9
$ACADVER
  1
AC1014
  9
$HANDSEED
  5
FFFF
  9
$MEASUREMENT
 70
     1
  0
ENDSEC
  0
SECTION
  2
TABLES
  0
TABLE
  2
VPORT
  5
8
330
0
100
AcDbSymbolTable
 70
     4
  0
VPORT
  5
2E
330
8
100
AcDbSymbolTableRecord
100
AcDbViewportTableRecord
  2
*ACTIVE
 70
     0
 10
0.0
 20
0.0
 11
1.0
 21
1.0
 12
210.0
 22
148.5
 13
0.0
 23
0.0
 14
10.0
 24
10.0
 15
10.0
 25
10.0
 16
0.0
 26
0.0
 36
1.0
 17
0.0
 27
0.0
 37
0.0
 40
341.0
 41
1.24
 42
50.0
 43
0.0
 44
0.0
 50
0.0
 51
0.0
 71
     0
 72
   100
 73
     1
 74
     3
 75
     0
 76
     0
 77
     0
 78
     0
  0
ENDTAB
  0
TABLE
  2
LTYPE
  5
5
330
0
100
AcDbSymbolTable
 70
     1
  0
LTYPE
  5
14
330
5
100
AcDbSymbolTableRecord
100
AcDbLinetypeTableRecord
  2
BYBLOCK
 70
     0
  3

 72
    65
 73
     0
 40
0.0
  0
LTYPE
  5
15
330
5
100
AcDbSymbolTableRecord
100
AcDbLinetypeTableRecord
  2
BYLAYER
 70
     0
  3

 72
    65
 73
     0
 40
0.0
  0
LTYPE
  5
16
330
5
100
AcDbSymbolTableRecord
100
AcDbLinetypeTableRecord
  2
CONTINUOUS
 70
     0
  3
Solid line
 72
    65
 73
     0
 40
0.0
  0
ENDTAB
  0
TABLE
  2
LAYER
  5
2
100
AcDbSymbolTable
 70
3
  0
LAYER
  5
50
100
AcDbSymbolTableRecord
100
AcDbLayerTableRecord
  2
0
 70
0
  6
CONTINUOUS
  0
LAYER
  5
51
100
AcDbSymbolTableRecord
100
AcDbLayerTableRecord
  2
CUTOUTS
 70
0
  6
CONTINUOUS
  0
LAYER
  5
52
100
AcDbSymbolTableRecord
100
AcDbLayerTableRecord
  2
PERIMETER
 70
0
  6
CONTINUOUS
  0
ENDTAB
  0
TABLE
  2
STYLE
  5
3
330
0
100
AcDbSymbolTable
 70
     1
  0
STYLE
  5
11
330
3
100
AcDbSymbolTableRecord
100
AcDbTextStyleTableRecord
  2
STANDARD
 70
     0
 40
0.0
 41
1.0
 50
0.0
 71
     0
 42
2.5
  3
txt
  4

  0
ENDTAB
  0
TABLE
  2
VIEW
  5
6
330
0
100
AcDbSymbolTable
 70
     0
  0
ENDTAB
  0
TABLE
  2
UCS
  5
7
330
0
100
AcDbSymbolTable
 70
     0
  0
ENDTAB
  0
TABLE
  2
APPID
  5
9
330
0
100
AcDbSymbolTable
 70
     2
  0
APPID
  5
12
330
9
100
AcDbSymbolTableRecord
100
AcDbRegAppTableRecord
  2
ACAD
 70
     0
  0
ENDTAB
  0
TABLE
  2
DIMSTYLE
  5
A
330
0
100
AcDbSymbolTable
 70
     1
  0
DIMSTYLE
105
27
330
A
100
AcDbSymbolTableRecord
100
AcDbDimStyleTableRecord
  2
ISO-25
 70
     0
  3

  4

  5

  6

  7

 40
1.0
 41
2.5
 42
0.625
 43
3.75
 44
1.25
 45
0.0
 46
0.0
 47
0.0
 48
0.0
140
2.5
141
2.5
142
0.0
143
0.03937007874016
144
1.0
145
0.0
146
1.0
147
0.625
 71
     0
 72
     0
 73
     0
 74
     0
 75
     0
 76
     0
 77
     1
 78
     8
170
     0
171
     3
172
     1
173
     0
174
     0
175
     0
176
     0
177
     0
178
     0
270
     2
271
     2
272
     2
273
     2
274
     3
340
11
275
     0
280
     0
281
     0
282
     0
283
     0
284
     8
285
     0
286
     0
287
     3
288
     0
  0
ENDTAB
  0
TABLE
  2
BLOCK_RECORD
  5
1
330
0
100
AcDbSymbolTable
 70
     1
  0
BLOCK_RECORD
  5
1F
330
1
100
AcDbSymbolTableRecord
100
AcDbBlockTableRecord
  2
*MODEL_SPACE
  0
BLOCK_RECORD
  5
1B
330
1
100
AcDbSymbolTableRecord
100
AcDbBlockTableRecord
  2
*PAPER_SPACE
  0
ENDTAB
  0
ENDSEC
  0
SECTION
  2
BLOCKS
  0
BLOCK
  5
20
330
1F
100
AcDbEntity
  8
0
100
AcDbBlockBegin
  2
*MODEL_SPACE
 70
     0
 10
0.0
 20
0.0
 30
0.0
  3
*MODEL_SPACE
  1

  0
ENDBLK
  5
21
330
1F
100
AcDbEntity
  8
0
100
AcDbBlockEnd
  0
BLOCK
  5
1C
330
1B
100
AcDbEntity
 67
     1
  8
0
100
AcDbBlockBegin
  2
*PAPER_SPACE
  1

  0
ENDBLK
  5
1D
330
1B
100
AcDbEntity
 67
     1
  8
0
100
AcDbBlockEnd
  0
ENDSEC
  0
SECTION
  2
ENTITIES
  0
SPLINE
  5
100
100
AcDbEntity
  8
CUTOUTS
 62
1
100
AcDbSpline
 70
8
 71
3
 72
8
 73
4
 74
0
 40
0
 40
0
 40
0
 40
0
 40
1
 40
1
 40
1
 40
1
 10
11.359210
 20
260.933894
 30
0.0
 10
11.359210
 20
261.442998
 30
0.0
 10
11.087607
 20
261.913430
 30
0.0
 10
10.646711
 20
262.167983
 30
0.0
  0
SPLINE
  5
101
100
AcDbEntity
  8
CUTOUTS
 62
1
100
AcDbSpline
 70
8
 71
3
 72
8
 73
4
 74
0
 40
0
 40
0
 40
0
 40
0
 40
1
 40
1
 40
1
 40
1
 10
10.646711
 20
262.167983
 30
0.0
 10
10.205814
 20
262.422533
 30
0.0
 10
9.662608
 20
262.422533
 30
0.0
 10
9.221711
 20
262.167983
 30
0.0
  0
SPLINE
  5
102
100
AcDbEntity
  8
CUTOUTS
 62
1
100
AcDbSpline
 70
8
 71
3
 72
8
 73
4
 74
0
 40
0
 40
0
 40
0
 40
0
 40
1
 40
1
 40
1
 40
1
 10
9.221711
 20
262.167983
 30
0.0
 10
8.780815
 20
261.913430
 30
0.0
 10
8.509211
 20
261.442998
 30
0.0
 10
8.509211
 20
260.933894
 30
0.0
  0
SPLINE
  5
103
100
AcDbEntity
  8
CUTOUTS
 62
1
100
AcDbSpline
 70
8
 71
3
 72
8
 73
4
 74
0
 40
0
 40
0
 40
0
 40
0
 40
1
 40
1
 40
1
 40
1
 10
8.509211
 20
260.933894
 30
0.0
 10
8.509211
 20
260.424791
 30
0.0
 10
8.780815
 20
259.954362
 30
0.0
 10
9.221711
 20
259.699809
 30
0.0
  0
SPLINE
  5
104
100
AcDbEntity
  8
CUTOUTS
 62
1
100
AcDbSpline
 70
8
 71
3
 72
8
 73
4
 74
0
 40
0
 40
0
 40
0
 40
0
 40
1
 40
1
 40
1
 40
1
 10
9.221711
 20
259.699809
 30
0.0
 10
9.662608
 20
259.445259
 30
0.0
 10
10.205814
 20
259.445259
 30
0.0
 10
10.646711
 20
259.699809
 30
0.0
  0
SPLINE
  5
105
100
AcDbEntity
  8
CUTOUTS
 62
1
100
AcDbSpline
 70
8
 71
3
 72
8
 73
4
 74
0
 40
0
 40
0
 40
0
 40
0
 40
1
 40
1
 40
1
 40
1
 10
10.646711
 20
259.699809
 30
0.0
 10
11.087607
 20
259.954362
 30
0.0
 10
11.359210
 20
260.424791
 30
0.0
 10
11.359210
 20
260.933894
 30
0.0
  0
SPLINE
  5
106
100
AcDbEntity
  8
CUTOUTS
 62
1
100
AcDbSpline
 70
8
 71
3
 72
8
 73
4
 74
0
 40
0
 40
0
 40
0
 40
0
 40
1
 40
1
 40
1
 40
1
 10
11.359210
 20
220.933895
 30
0.0
 10
11.359210
 20
221.442998
 30
0.0
 10
11.087607
 20
221.913430
 30
0.0
 10
10.646711
 20
222.167983
 30
0.0
  0
SPLINE
  5
107
100
AcDbEntity
  8
CUTOUTS
 62
1
100
AcDbSpline
 70
8
 71
3
 72
8
 73
4
 74
0
 40
0
 40
0
 40
0
 40
0
 40
1
 40
1
 40
1
 40
1
 10
10.646711
 20
222.167983
 30
0.0
 10
10.205814
 20
222.422533
 30
0.0
 10
9.662608
 20
222.422533
 30
0.0
 10
9.221711
 20
222.167983
 30
0.0
  0
SPLINE
  5
108
100
AcDbEntity
  8
CUTOUTS
 62
1
100
AcDbSpline
 70
8
 71
3
 72
8
 73
4
 74
0
 40
0
 40
0
 40
0
 40
0
 40
1
 40
1
 40
1
 40
1
 10
9.221711
 20
222.167983
 30
0.0
 10
8.780815
 20
221.913430
 30
0.0
 10
8.509211
 20
221.442998
 30
0.0
 10
8.509211
 20
220.933895
 30
0.0
  0
SPLINE
  5
109
100
AcDbEntity
  8
CUTOUTS
 62
1
100
AcDbSpline
 70
8
 71
3
 72
8
 73
4
 74
0
 40
0
 40
0
 40
0
 40
0
 40
1
 40
1
 40
1
 40
1
 10
8.509211
 20
220.933895
 30
0.0
 10
8.509211
 20
220.424792
 30
0.0
 10
8.780815
 20
219.954363
 30
0.0
 10
9.221711
 20
219.699810
 30
0.0
  0
SPLINE
  5
10a
100
AcDbEntity
  8
CUTOUTS
 62
1
100
AcDbSpline
 70
8
 71
3
 72
8
 73
4
 74
0
 40
0
 40
0
 40
0
 40
0
 40
1
 40
1
 40
1
 40
1
 10
9.221711
 20
219.699810
 30
0.0
 10
9.662608
 20
219.445257
 30
0.0
 10
10.205814
 20
219.445257
 30
0.0
 10
10.646711
 20
219.699810
 30
0.0
  0
SPLINE
  5
10b
100
AcDbEntity
  8
CUTOUTS
 62
1
100
AcDbSpline
 70
8
 71
3
 72
8
 73
4
 74
0
 40
0
 40
0
 40
0
 40
0
 40
1
 40
1
 40
1
 40
1
 10
10.646711
 20
219.699810
 30
0.0
 10
11.087607
 20
219.954363
 30
0.0
 10
11.359210
 20
220.424792
 30
0.0
 10
11.359210
 20
220.933895
 30
0.0
  0
SPLINE
  5
10c
100
AcDbEntity
  8
CUTOUTS
 62
1
100
AcDbSpline
 70
8
 71
3
 72
8
 73
4
 74
0
 40
0
 40
0
 40
0
 40
0
 40
1
 40
1
 40
1
 40
1
 10
97.147925
 20
190.933894
 30
0.0
 10
97.148454
 20
191.443291
 30
0.0
 10
96.876857
 20
191.914181
 30
0.0
 10
96.435780
 20
192.169004
 30
0.0
  0
SPLINE
  5
10d
100
AcDbEntity
  8
CUTOUTS
 62
1
100
AcDbSpline
 70
8
 71
3
 72
8
 73
4
 74
0
 40
0
 40
0
 40
0
 40
0
 40
1
 40
1
 40
1
 40
1
 10
96.435780
 20
192.169004
 30
0.0
 10
95.994702
 20
192.423829
 30
0.0
 10
95.451147
 20
192.423829
 30
0.0
 10
95.010071
 20
192.169004
 30
0.0
  0
SPLINE
  5
10e
100
AcDbEntity
  8
CUTOUTS
 62
1
100
AcDbSpline
 70
8
 71
3
 72
8
 73
4
 74
0
 40
0
 40
0
 40
0
 40
0
 40
1
 40
1
 40
1
 40
1
 10
95.010071
 20
192.169004
 30
0.0
 10
94.568994
 20
191.914181
 30
0.0
 10
94.297487
 20
191.443291
 30
0.0
 10
94.297926
 20
190.933894
 30
0.0
  0
SPLINE
  5
10f
100
AcDbEntity
  8
CUTOUTS
 62
1
100
AcDbSpline
 70
8
 71
3
 72
8
 73
4
 74
0
 40
0
 40
0
 40
0
 40
0
 40
1
 40
1
 40
1
 40
1
 10
94.297926
 20
190.933894
 30
0.0
 10
94.297397
 20
190.424500
 30
0.0
 10
94.568994
 20
189.953610
 30
0.0
 10
95.010071
 20
189.698785
 30
0.0
  0
SPLINE
  5
110
100
AcDbEntity
  8
CUTOUTS
 62
1
100
AcDbSpline
 70
8
 71
3
 72
8
 73
4
 74
0
 40
0
 40
0
 40
0
 40
0
 40
1
 40
1
 40
1
 40
1
 10
95.010071
 20
189.698785
 30
0.0
 10
95.451147
 20
189.443962
 30
0.0
 10
95.994702
 20
189.443962
 30
0.0
 10
96.435780
 20
189.698785
 30
0.0
  0
SPLINE
  5
111
100
AcDbEntity
  8
CUTOUTS
 62
1
100
AcDbSpline
 70
8
 71
3
 72
8
 73
4
 74
0
 40
0
 40
0
 40
0
 40
0
 40
1
 40
1
 40
1
 40
1
 10
96.435780
 20
189.698785
 30
0.0
 10
96.876857
 20
189.953610
 30
0.0
 10
97.148364
 20
190.424500
 30
0.0
 10
97.147925
 20
190.933894
 30
0.0
  0
SPLINE
  5
112
100
AcDbEntity
  8
CUTOUTS
 62
1
100
AcDbSpline
 70
8
 71
3
 72
8
 73
4
 74
0
 40
0
 40
0
 40
0
 40
0
 40
1
 40
1
 40
1
 40
1
 10
7.147926
 20
190.933894
 30
0.0
 10
7.147926
 20
191.442998
 30
0.0
 10
6.876322
 20
191.913429
 30
0.0
 10
6.435425
 20
192.167982
 30
0.0
  0
SPLINE
  5
113
100
AcDbEntity
  8
CUTOUTS
 62
1
100
AcDbSpline
 70
8
 71
3
 72
8
 73
4
 74
0
 40
0
 40
0
 40
0
 40
0
 40
1
 40
1
 40
1
 40
1
 10
6.435425
 20
192.167982
 30
0.0
 10
5.994529
 20
192.422533
 30
0.0
 10
5.451322
 20
192.422533
 30
0.0
 10
5.010425
 20
192.167982
 30
0.0
  0
SPLINE
  5
114
100
AcDbEntity
  8
CUTOUTS
 62
1
100
AcDbSpline
 70
8
 71
3
 72
8
 73
4
 74
0
 40
0
 40
0
 40
0
 40
0
 40
1
 40
1
 40
1
 40
1
 10
5.010425
 20
192.167982
 30
0.0
 10
4.569529
 20
191.913429
 30
0.0
 10
4.297924
 20
191.442998
 30
0.0
 10
4.297924
 20
190.933894
 30
0.0
  0
SPLINE
  5
115
100
AcDbEntity
  8
CUTOUTS
 62
1
100
AcDbSpline
 70
8
 71
3
 72
8
 73
4
 74
0
 40
0
 40
0
 40
0
 40
0
 40
1
 40
1
 40
1
 40
1
 10
4.297924
 20
190.933894
 30
0.0
 10
4.297924
 20
190.424791
 30
0.0
 10
4.569529
 20
189.954362
 30
0.0
 10
5.010425
 20
189.699809
 30
0.0
  0
SPLINE
  5
116
100
AcDbEntity
  8
CUTOUTS
 62
1
100
AcDbSpline
 70
8
 71
3
 72
8
 73
4
 74
0
 40
0
 40
0
 40
0
 40
0
 40
1
 40
1
 40
1
 40
1
 10
5.010425
 20
189.699809
 30
0.0
 10
5.451322
 20
189.445256
 30
0.0
 10
5.994529
 20
189.445256
 30
0.0
 10
6.435425
 20
189.699809
 30
0.0
  0
SPLINE
  5
117
100
AcDbEntity
  8
CUTOUTS
 62
1
100
AcDbSpline
 70
8
 71
3
 72
8
 73
4
 74
0
 40
0
 40
0
 40
0
 40
0
 40
1
 40
1
 40
1
 40
1
 10
6.435425
 20
189.699809
 30
0.0
 10
6.876322
 20
189.954362
 30
0.0
 10
7.147926
 20
190.424791
 30
0.0
 10
7.147926
 20
190.933894
 30
0.0
  0
SPLINE
  5
118
100
AcDbEntity
  8
CUTOUTS
 62
1
100
AcDbSpline
 70
8
 71
3
 72
8
 73
4
 74
0
 40
0
 40
0
 40
0
 40
0
 40
1
 40
1
 40
1
 40
1
 10
7.147926
 20
290.933896
 30
0.0
 10
7.147926
 20
291.442999
 30
0.0
 10
6.876322
 20
291.913430
 30
0.0
 10
6.435425
 20
292.167982
 30
0.0
  0
SPLINE
  5
119
100
AcDbEntity
  8
CUTOUTS
 62
1
100
AcDbSpline
 70
8
 71
3
 72
8
 73
4
 74
0
 40
0
 40
0
 40
0
 40
0
 40
1
 40
1
 40
1
 40
1
 10
6.435425
 20
292.167982
 30
0.0
 10
5.994529
 20
292.422534
 30
0.0
 10
5.451322
 20
292.422534
 30
0.0
 10
5.010425
 20
292.167982
 30
0.0
  0
SPLINE
  5
11a
100
AcDbEntity
  8
CUTOUTS
 62
1
100
AcDbSpline
 70
8
 71
3
 72
8
 73
4
 74
0
 40
0
 40
0
 40
0
 40
0
 40
1
 40
1
 40
1
 40
1
 10
5.010425
 20
292.167982
 30
0.0
 10
4.569529
 20
291.913430
 30
0.0
 10
4.297924
 20
291.442999
 30
0.0
 10
4.297924
 20
290.933896
 30
0.0
  0
SPLINE
  5
11b
100
AcDbEntity
  8
CUTOUTS
 62
1
100
AcDbSpline
 70
8
 71
3
 72
8
 73
4
 74
0
 40
0
 40
0
 40
0
 40
0
 40
1
 40
1
 40
1
 40
1
 10
4.297924
 20
290.933896
 30
0.0
 10
4.297924
 20
290.424792
 30
0.0
 10
4.569529
 20
289.954361
 30
0.0
 10
5.010425
 20
289.699809
 30
0.0
  0
SPLINE
  5
11c
100
AcDbEntity
  8
CUTOUTS
 62
1
100
AcDbSpline
 70
8
 71
3
 72
8
 73
4
 74
0
 40
0
 40
0
 40
0
 40
0
 40
1
 40
1
 40
1
 40
1
 10
5.010425
 20
289.699809
 30
0.0
 10
5.451322
 20
289.445257
 30
0.0
 10
5.994529
 20
289.445257
 30
0.0
 10
6.435425
 20
289.699809
 30
0.0
  0
SPLINE
  5
11d
100
AcDbEntity
  8
CUTOUTS
 62
1
100
AcDbSpline
 70
8
 71
3
 72
8
 73
4
 74
0
 40
0
 40
0
 40
0
 40
0
 40
1
 40
1
 40
1
 40
1
 10
6.435425
 20
289.699809
 30
0.0
 10
6.876322
 20
289.954361
 30
0.0
 10
7.147926
 20
290.424792
 30
0.0
 10
7.147926
 20
290.933896
 30
0.0
  0
SPLINE
  5
11e
100
AcDbEntity
  8
CUTOUTS
 62
1
100
AcDbSpline
 70
8
 71
3
 72
8
 73
4
 74
0
 40
0
 40
0
 40
0
 40
0
 40
1
 40
1
 40
1
 40
1
 10
97.147925
 20
290.933896
 30
0.0
 10
97.148454
 20
291.443291
 30
0.0
 10
96.876857
 20
291.914180
 30
0.0
 10
96.435780
 20
292.169005
 30
0.0
  0
SPLINE
  5
11f
100
AcDbEntity
  8
CUTOUTS
 62
1
100
AcDbSpline
 70
8
 71
3
 72
8
 73
4
 74
0
 40
0
 40
0
 40
0
 40
0
 40
1
 40
1
 40
1
 40
1
 10
96.435780
 20
292.169005
 30
0.0
 10
95.994702
 20
292.423830
 30
0.0
 10
95.451147
 20
292.423830
 30
0.0
 10
95.010071
 20
292.169005
 30
0.0
  0
SPLINE
  5
120
100
AcDbEntity
  8
CUTOUTS
 62
1
100
AcDbSpline
 70
8
 71
3
 72
8
 73
4
 74
0
 40
0
 40
0
 40
0
 40
0
 40
1
 40
1
 40
1
 40
1
 10
95.010071
 20
292.169005
 30
0.0
 10
94.568994
 20
291.914180
 30
0.0
 10
94.297487
 20
291.443291
 30
0.0
 10
94.297926
 20
290.933896
 30
0.0
  0
SPLINE
  5
121
100
AcDbEntity
  8
CUTOUTS
 62
1
100
AcDbSpline
 70
8
 71
3
 72
8
 73
4
 74
0
 40
0
 40
0
 40
0
 40
0
 40
1
 40
1
 40
1
 40
1
 10
94.297926
 20
290.933896
 30
0.0
 10
94.297397
 20
290.424500
 30
0.0
 10
94.568994
 20
289.953611
 30
0.0
 10
95.010071
 20
289.698786
 30
0.0
  0
SPLINE
  5
122
100
AcDbEntity
  8
CUTOUTS
 62
1
100
AcDbSpline
 70
8
 71
3
 72
8
 73
4
 74
0
 40
0
 40
0
 40
0
 40
0
 40
1
 40
1
 40
1
 40
1
 10
95.010071
 20
289.698786
 30
0.0
 10
95.451147
 20
289.443961
 30
0.0
 10
95.994702
 20
289.443961
 30
0.0
 10
96.435780
 20
289.698786
 30
0.0
  0
SPLINE
  5
123
100
AcDbEntity
  8
CUTOUTS
 62
1
100
AcDbSpline
 70
8
 71
3
 72
8
 73
4
 74
0
 40
0
 40
0
 40
0
 40
0
 40
1
 40
1
 40
1
 40
1
 10
96.435780
 20
289.698786
 30
0.0
 10
96.876857
 20
289.953611
 30
0.0
 10
97.148364
 20
290.424500
 30
0.0
 10
97.147925
 20
290.933896
 30
0.0
  0
LWPOLYLINE
  5
124
100
AcDbEntity
  8
CUTOUTS
 62
5
100
AcDbPolyline
 90
12
 70
1
 10
22.097926
 20
227.414959
 30
0.0
 10
19.497925
 20
230.014964
 30
0.0
 10
19.497925
 20
261.952829
 30
0.0
 10
22.097926
 20
264.552831
 30
0.0
 10
22.097926
 20
267.508893
 30
0.0
 10
86.991859
 20
267.508893
 30
0.0
 10
87.947926
 20
266.552827
 30
0.0
 10
87.947926
 20
215.314960
 30
0.0
 10
86.991859
 20
214.358893
 30
0.0
 10
23.053992
 20
214.358893
 30
0.0
 10
22.097926
 20
215.314960
 30
0.0
 10
22.097926
 20
227.414959
 30
0.0
  0
LWPOLYLINE
  5
125
100
AcDbEntity
  8
CUTOUTS
 62
1
100
AcDbPolyline
 90
5
 70
1
 10
18.455068
 20
199.058894
 30
0.0
 10
31.562212
 20
199.058894
 30
0.0
 10
31.562212
 20
195.808895
 30
0.0
 10
18.455068
 20
195.808895
 30
0.0
 10
18.455068
 20
199.058894
 30
0.0
  0
LWPOLYLINE
  5
126
100
AcDbEntity
  8
CUTOUTS
 62
1
100
AcDbPolyline
 90
5
 70
1
 10
31.562212
 20
282.808895
 30
0.0
 10
18.455068
 20
282.808895
 30
0.0
 10
18.455068
 20
286.058895
 30
0.0
 10
31.562212
 20
286.058895
 30
0.0
 10
31.562212
 20
282.808895
 30
0.0
  0
LWPOLYLINE
  5
127
100
AcDbEntity
  8
CUTOUTS
 62
1
100
AcDbPolyline
 90
5
 70
1
 10
57.276497
 20
282.808895
 30
0.0
 10
44.169354
 20
282.808895
 30
0.0
 10
44.169354
 20
286.058895
 30
0.0
 10
57.276497
 20
286.058895
 30
0.0
 10
57.276497
 20
282.808895
 30
0.0
  0
LWPOLYLINE
  5
128
100
AcDbEntity
  8
CUTOUTS
 62
1
100
AcDbPolyline
 90
5
 70
1
 10
82.990783
 20
282.808895
 30
0.0
 10
69.883639
 20
282.808895
 30
0.0
 10
69.883639
 20
286.058895
 30
0.0
 10
82.990783
 20
286.058895
 30
0.0
 10
82.990783
 20
282.808895
 30
0.0
  0
LWPOLYLINE
  5
129
100
AcDbEntity
  8
CUTOUTS
 62
1
100
AcDbPolyline
 90
5
 70
1
 10
69.883639
 20
199.058894
 30
0.0
 10
82.990783
 20
199.058894
 30
0.0
 10
82.990783
 20
195.808895
 30
0.0
 10
69.883639
 20
195.808895
 30
0.0
 10
69.883639
 20
199.058894
 30
0.0
  0
SPLINE
  5
12a
100
AcDbEntity
  8
PERIMETER
 62
1
100
AcDbSpline
 70
8
 71
3
 72
8
 73
4
 74
0
 40
0
 40
0
 40
0
 40
0
 40
1
 40
1
 40
1
 40
1
 10
10.797371
 20
291.008895
 30
0.0
 10
10.756237
 20
293.791929
 30
0.0
 10
8.481229
 20
296.022545
 30
0.0
 10
5.697925
 20
296.008834
 30
0.0
  0
SPLINE
  5
12b
100
AcDbEntity
  8
PERIMETER
 62
1
100
AcDbSpline
 70
8
 71
3
 72
8
 73
4
 74
0
 40
0
 40
0
 40
0
 40
0
 40
1
 40
1
 40
1
 40
1
 10
5.697925
 20
296.008834
 30
0.0
 10
2.914621
 20
295.995122
 30
0.0
 10
0.661699
 20
293.742200
 30
0.0
 10
0.647987
 20
290.958896
 30
0.0
  0
SPLINE
  5
12c
100
AcDbEntity
  8
PERIMETER
 62
1
100
AcDbSpline
 70
8
 71
3
 72
8
 73
4
 74
0
 40
0
 40
0
 40
0
 40
0
 40
1
 40
1
 40
1
 40
1
 10
0.647987
 20
290.958896
 30
0.0
 10
0.634276
 20
288.175592
 30
0.0
 10
2.864891
 20
285.900583
 30
0.0
 10
5.647925
 20
285.859450
 30
0.0
  0
SPLINE
  5
12d
100
AcDbEntity
  8
PERIMETER
 62
1
100
AcDbSpline
 70
8
 71
3
 72
8
 73
4
 74
0
 40
0
 40
0
 40
0
 40
0
 40
1
 40
1
 40
1
 40
1
 10
5.647925
 20
196.008341
 30
0.0
 10
2.864892
 20
195.967208
 30
0.0
 10
0.634276
 20
193.692199
 30
0.0
 10
0.647987
 20
190.908896
 30
0.0
  0
SPLINE
  5
12e
100
AcDbEntity
  8
PERIMETER
 62
1
100
AcDbSpline
 70
8
 71
3
 72
8
 73
4
 74
0
 40
0
 40
0
 40
0
 40
0
 40
1
 40
1
 40
1
 40
1
 10
0.647987
 20
190.908896
 30
0.0
 10
0.661699
 20
188.125591
 30
0.0
 10
2.914620
 20
185.872669
 30
0.0
 10
5.697924
 20
185.858958
 30
0.0
  0
SPLINE
  5
12f
100
AcDbEntity
  8
PERIMETER
 62
1
100
AcDbSpline
 70
8
 71
3
 72
8
 73
4
 74
0
 40
0
 40
0
 40
0
 40
0
 40
1
 40
1
 40
1
 40
1
 10
5.697924
 20
185.858958
 30
0.0
 10
8.481227
 20
185.845253
 30
0.0
 10
10.756237
 20
188.075860
 30
0.0
 10
10.797371
 20
190.858893
 30
0.0
  0
LWPOLYLINE
  5
130
100
AcDbEntity
  8
CUTOUTS
 62
1
100
AcDbPolyline
 90
5
 70
1
 10
57.276497
 20
199.058894
 30
0.0
 10
57.276497
 20
195.808895
 30
0.0
 10
44.169354
 20
195.808895
 30
0.0
 10
44.169354
 20
199.058894
 30
0.0
 10
57.276497
 20
199.058894
 30
0.0
  0
SPLINE
  5
131
100
AcDbEntity
  8
PERIMETER
 62
1
100
AcDbSpline
 70
8
 71
3
 72
8
 73
4
 74
0
 40
0
 40
0
 40
0
 40
0
 40
1
 40
1
 40
1
 40
1
 10
90.648480
 20
190.858893
 30
0.0
 10
90.689613
 20
188.075860
 30
0.0
 10
92.964624
 20
185.845245
 30
0.0
 10
95.747927
 20
185.858958
 30
0.0
  0
SPLINE
  5
132
100
AcDbEntity
  8
PERIMETER
 62
1
100
AcDbSpline
 70
8
 71
3
 72
8
 73
4
 74
0
 40
0
 40
0
 40
0
 40
0
 40
1
 40
1
 40
1
 40
1
 10
95.747927
 20
185.858958
 30
0.0
 10
98.531233
 20
185.872664
 30
0.0
 10
100.784152
 20
188.125591
 30
0.0
 10
100.797863
 20
190.908896
 30
0.0
  0
SPLINE
  5
133
100
AcDbEntity
  8
PERIMETER
 62
1
100
AcDbSpline
 70
8
 71
3
 72
8
 73
4
 74
0
 40
0
 40
0
 40
0
 40
0
 40
1
 40
1
 40
1
 40
1
 10
100.797863
 20
190.908896
 30
0.0
 10
100.811568
 20
193.692199
 30
0.0
 10
98.580959
 20
195.967208
 30
0.0
 10
95.797926
 20
196.008341
 30
0.0
  0
LWPOLYLINE
  5
134
100
AcDbEntity
  8
PERIMETER
 62
1
100
AcDbPolyline
 90
2
 70
0
 10
90.648480
 20
291.008895
 30
0.0
 10
10.797371
 20
291.008895
 30
0.0
  0
SPLINE
  5
135
100
AcDbEntity
  8
PERIMETER
 62
1
100
AcDbSpline
 70
8
 71
3
 72
8
 73
4
 74
0
 40
0
 40
0
 40
0
 40
0
 40
1
 40
1
 40
1
 40
1
 10
95.797926
 20
285.859450
 30
0.0
 10
98.580959
 20
285.900582
 30
0.0
 10
100.811573
 20
288.175592
 30
0.0
 10
100.797863
 20
290.958896
 30
0.0
  0
SPLINE
  5
136
100
AcDbEntity
  8
PERIMETER
 62
1
100
AcDbSpline
 70
8
 71
3
 72
8
 73
4
 74
0
 40
0
 40
0
 40
0
 40
0
 40
1
 40
1
 40
1
 40
1
 10
100.797863
 20
290.958896
 30
0.0
 10
100.784152
 20
293.742200
 30
0.0
 10
98.531230
 20
295.995122
 30
0.0
 10
95.747927
 20
296.008834
 30
0.0
  0
SPLINE
  5
137
100
AcDbEntity
  8
PERIMETER
 62
1
100
AcDbSpline
 70
8
 71
3
 72
8
 73
4
 74
0
 40
0
 40
0
 40
0
 40
0
 40
1
 40
1
 40
1
 40
1
 10
95.747927
 20
296.008834
 30
0.0
 10
92.964622
 20
296.022545
 30
0.0
 10
90.689613
 20
293.791929
 30
0.0
 10
90.648480
 20
291.008895
 30
0.0
  0
SPLINE
  5
138
100
AcDbEntity
  8
PERIMETER
 62
1
100
AcDbSpline
 70
8
 71
3
 72
8
 73
4
 74
0
 40
0
 40
0
 40
0
 40
0
 40
1
 40
1
 40
1
 40
1
 10
75.000538
 20
216.675567
 30
0.0
 10
75.000538
 20
217.324563
 30
0.0
 10
74.654299
 20
217.924268
 30
0.0
 10
74.092242
 20
218.248779
 30
0.0
  0
SPLINE
  5
139
100
AcDbEntity
  8
PERIMETER
 62
1
100
AcDbSpline
 70
8
 71
3
 72
8
 73
4
 74
0
 40
0
 40
0
 40
0
 40
0
 40
1
 40
1
 40
1
 40
1
 10
74.092242
 20
218.248779
 30
0.0
 10
73.530187
 20
218.573264
 30
0.0
 10
72.837707
 20
218.573264
 30
0.0
 10
72.275652
 20
218.248779
 30
0.0
  0
SPLINE
  5
13a
100
AcDbEntity
  8
PERIMETER
 62
1
100
AcDbSpline
 70
8
 71
3
 72
8
 73
4
 74
0
 40
0
 40
0
 40
0
 40
0
 40
1
 40
1
 40
1
 40
1
 10
72.275652
 20
218.248779
 30
0.0
 10
71.713598
 20
217.924268
 30
0.0
 10
71.367356
 20
217.324563
 30
0.0
 10
71.367356
 20
216.675567
 30
0.0
  0
SPLINE
  5
13b
100
AcDbEntity
  8
PERIMETER
 62
1
100
AcDbSpline
 70
8
 71
3
 72
8
 73
4
 74
0
 40
0
 40
0
 40
0
 40
0
 40
1
 40
1
 40
1
 40
1
 10
71.367356
 20
216.675567
 30
0.0
 10
71.367356
 20
216.026544
 30
0.0
 10
71.713598
 20
215.426839
 30
0.0
 10
72.275652
 20
215.102354
 30
0.0
  0
SPLINE
  5
13c
100
AcDbEntity
  8
PERIMETER
 62
1
100
AcDbSpline
 70
8
 71
3
 72
8
 73
4
 74
0
 40
0
 40
0
 40
0
 40
0
 40
1
 40
1
 40
1
 40
1
 10
72.275652
 20
215.102354
 30
0.0
 10
72.837707
 20
214.777843
 30
0.0
 10
73.530187
 20
214.777843
 30
0.0
 10
74.092242
 20
215.102354
 30
0.0
  0
SPLINE
  5
13d
100
AcDbEntity
  8
PERIMETER
 62
1
100
AcDbSpline
 70
8
 71
3
 72
8
 73
4
 74
0
 40
0
 40
0
 40
0
 40
0
 40
1
 40
1
 40
1
 40
1
 10
74.092242
 20
215.102354
 30
0.0
 10
74.654299
 20
215.426839
 30
0.0
 10
75.000538
 20
216.026544
 30
0.0
 10
75.000538
 20
216.675567
 30
0.0
  0
SPLINE
  5
13e
100
AcDbEntity
  8
PERIMETER
 62
1
100
AcDbSpline
 70
8
 71
3
 72
8
 73
4
 74
0
 40
0
 40
0
 40
0
 40
0
 40
1
 40
1
 40
1
 40
1
 10
24.168645
 20
232.000948
 30
0.0
 10
24.168645
 20
232.649944
 30
0.0
 10
23.822405
 20
233.249649
 30
0.0
 10
23.260348
 20
233.574160
 30
0.0
  0
SPLINE
  5
13f
100
AcDbEntity
  8
PERIMETER
 62
1
100
AcDbSpline
 70
8
 71
3
 72
8
 73
4
 74
0
 40
0
 40
0
 40
0
 40
0
 40
1
 40
1
 40
1
 40
1
 10
23.260348
 20
233.574160
 30
0.0
 10
22.698294
 20
233.898672
 30
0.0
 10
22.005814
 20
233.898672
 30
0.0
 10
21.443759
 20
233.574160
 30
0.0
  0
SPLINE
  5
140
100
AcDbEntity
  8
PERIMETER
 62
1
100
AcDbSpline
 70
8
 71
3
 72
8
 73
4
 74
0
 40
0
 40
0
 40
0
 40
0
 40
1
 40
1
 40
1
 40
1
 10
21.443759
 20
233.574160
 30
0.0
 10
20.881704
 20
233.249649
 30
0.0
 10
20.535464
 20
232.649944
 30
0.0
 10
20.535464
 20
232.000948
 30
0.0
  0
SPLINE
  5
141
100
AcDbEntity
  8
PERIMETER
 62
1
100
AcDbSpline
 70
8
 71
3
 72
8
 73
4
 74
0
 40
0
 40
0
 40
0
 40
0
 40
1
 40
1
 40
1
 40
1
 10
20.535464
 20
232.000948
 30
0.0
 10
20.535464
 20
231.351951
 30
0.0
 10
20.881704
 20
230.752247
 30
0.0
 10
21.443759
 20
230.427735
 30
0.0
  0
SPLINE
  5
142
100
AcDbEntity
  8
PERIMETER
 62
1
100
AcDbSpline
 70
8
 71
3
 72
8
 73
4
 74
0
 40
0
 40
0
 40
0
 40
0
 40
1
 40
1
 40
1
 40
1
 10
21.443759
 20
230.427735
 30
0.0
 10
22.005814
 20
230.103224
 30
0.0
 10
22.698294
 20
230.103224
 30
0.0
 10
23.260348
 20
230.427735
 30
0.0
  0
SPLINE
  5
143
100
AcDbEntity
  8
PERIMETER
 62
1
100
AcDbSpline
 70
8
 71
3
 72
8
 73
4
 74
0
 40
0
 40
0
 40
0
 40
0
 40
1
 40
1
 40
1
 40
1
 10
23.260348
 20
230.427735
 30
0.0
 10
23.822405
 20
230.752247
 30
0.0
 10
24.168645
 20
231.351951
 30
0.0
 10
24.168645
 20
232.000948
 30
0.0
  0
SPLINE
  5
144
100
AcDbEntity
  8
PERIMETER
 62
1
100
AcDbSpline
 70
8
 71
3
 72
8
 73
4
 74
0
 40
0
 40
0
 40
0
 40
0
 40
1
 40
1
 40
1
 40
1
 10
24.072162
 20
259.885120
 30
0.0
 10
24.072162
 20
260.888394
 30
0.0
 10
23.258846
 20
261.701723
 30
0.0
 10
22.255572
 20
261.701723
 30
0.0
  0
SPLINE
  5
145
100
AcDbEntity
  8
PERIMETER
 62
1
100
AcDbSpline
 70
8
 71
3
 72
8
 73
4
 74
0
 40
0
 40
0
 40
0
 40
0
 40
1
 40
1
 40
1
 40
1
 10
22.255572
 20
261.701723
 30
0.0
 10
21.252296
 20
261.701723
 30
0.0
 10
20.438982
 20
260.888394
 30
0.0
 10
20.438982
 20
259.885120
 30
0.0
  0
SPLINE
  5
146
100
AcDbEntity
  8
PERIMETER
 62
1
100
AcDbSpline
 70
8
 71
3
 72
8
 73
4
 74
0
 40
0
 40
0
 40
0
 40
0
 40
1
 40
1
 40
1
 40
1
 10
20.438982
 20
259.885120
 30
0.0
 10
20.438982
 20
259.236124
 30
0.0
 10
20.785221
 20
258.636419
 30
0.0
 10
21.347275
 20
258.311908
 30
0.0
  0
SPLINE
  5
147
100
AcDbEntity
  8
PERIMETER
 62
1
100
AcDbSpline
 70
8
 71
3
 72
8
 73
4
 74
0
 40
0
 40
0
 40
0
 40
0
 40
1
 40
1
 40
1
 40
1
 10
21.347275
 20
258.311908
 30
0.0
 10
21.909331
 20
257.987423
 30
0.0
 10
22.601811
 20
257.987423
 30
0.0
 10
23.163865
 20
258.311908
 30
0.0
  0
SPLINE
  5
148
100
AcDbEntity
  8
PERIMETER
 62
1
100
AcDbSpline
 70
8
 71
3
 72
8
 73
4
 74
0
 40
0
 40
0
 40
0
 40
0
 40
1
 40
1
 40
1
 40
1
 10
23.163865
 20
258.311908
 30
0.0
 10
23.725920
 20
258.636419
 30
0.0
 10
24.072162
 20
259.236124
 30
0.0
 10
24.072162
 20
259.885120
 30
0.0
  0
SPLINE
  5
149
100
AcDbEntity
  8
PERIMETER
 62
1
100
AcDbSpline
 70
8
 71
3
 72
8
 73
4
 74
0
 40
0
 40
0
 40
0
 40
0
 40
1
 40
1
 40
1
 40
1
 10
76.174087
 20
265.191789
 30
0.0
 10
76.174087
 20
266.195089
 30
0.0
 10
75.360773
 20
267.008392
 30
0.0
 10
74.357497
 20
267.008392
 30
0.0
  0
SPLINE
  5
14a
100
AcDbEntity
  8
PERIMETER
 62
1
100
AcDbSpline
 70
8
 71
3
 72
8
 73
4
 74
0
 40
0
 40
0
 40
0
 40
0
 40
1
 40
1
 40
1
 40
1
 10
74.357497
 20
267.008392
 30
0.0
 10
73.354224
 20
267.008392
 30
0.0
 10
72.540908
 20
266.195089
 30
0.0
 10
72.540908
 20
265.191789
 30
0.0
  0
SPLINE
  5
14b
100
AcDbEntity
  8
PERIMETER
 62
1
100
AcDbSpline
 70
8
 71
3
 72
8
 73
4
 74
0
 40
0
 40
0
 40
0
 40
0
 40
1
 40
1
 40
1
 40
1
 10
72.540908
 20
265.191789
 30
0.0
 10
72.540908
 20
264.542793
 30
0.0
 10
72.887147
 20
263.943088
 30
0.0
 10
73.449204
 20
263.618577
 30
0.0
  0
SPLINE
  5
14c
100
AcDbEntity
  8
PERIMETER
 62
1
100
AcDbSpline
 70
8
 71
3
 72
8
 73
4
 74
0
 40
0
 40
0
 40
0
 40
0
 40
1
 40
1
 40
1
 40
1
 10
73.449204
 20
263.618577
 30
0.0
 10
74.011258
 20
263.294092
 30
0.0
 10
74.703739
 20
263.294092
 30
0.0
 10
75.265793
 20
263.618577
 30
0.0
  0
SPLINE
  5
14d
100
AcDbEntity
  8
PERIMETER
 62
1
100
AcDbSpline
 70
8
 71
3
 72
8
 73
4
 74
0
 40
0
 40
0
 40
0
 40
0
 40
1
 40
1
 40
1
 40
1
 10
75.265793
 20
263.618577
 30
0.0
 10
75.827848
 20
263.943088
 30
0.0
 10
76.174087
 20
264.542793
 30
0.0
 10
76.174087
 20
265.191789
 30
0.0
  0
LWPOLYLINE
  5
14e
100
AcDbEntity
  8
PERIMETER
 62
1
100
AcDbPolyline
 90
2
 70
0
 10
5.647925
 20
285.859450
 30
0.0
 10
5.647925
 20
196.008341
 30
0.0
  0
LWPOLYLINE
  5
14f
100
AcDbEntity
  8
PERIMETER
 62
1
100
AcDbPolyline
 90
2
 70
0
 10
10.797371
 20
190.858893
 30
0.0
 10
90.648480
 20
190.858893
 30
0.0
  0
SPLINE
  5
150
100
AcDbEntity
  8
PERIMETER
 62
1
100
AcDbSpline
 70
8
 71
3
 72
8
 73
4
 74
0
 40
0
 40
0
 40
0
 40
0
 40
1
 40
1
 40
1
 40
1
 10
81.455432
 20
223.367170
 30
0.0
 10
81.455432
 20
221.633911
 30
0.0
 10
82.935805
 20
220.228815
 30
0.0
 10
84.650231
 20
220.228815
 30
0.0
  0
SPLINE
  5
151
100
AcDbEntity
  8
PERIMETER
 62
1
100
AcDbSpline
 70
8
 71
3
 72
8
 73
4
 74
0
 40
0
 40
0
 40
0
 40
0
 40
1
 40
1
 40
1
 40
1
 10
84.650231
 20
220.228815
 30
0.0
 10
86.364659
 20
220.228815
 30
0.0
 10
87.754479
 20
221.633911
 30
0.0
 10
87.754479
 20
223.367170
 30
0.0
  0
SPLINE
  5
152
100
AcDbEntity
  8
PERIMETER
 62
1
100
AcDbSpline
 70
8
 71
3
 72
8
 73
4
 74
0
 40
0
 40
0
 40
0
 40
0
 40
1
 40
1
 40
1
 40
1
 10
87.754479
 20
223.367170
 30
0.0
 10
87.754479
 20
225.100455
 30
0.0
 10
86.364659
 20
226.505552
 30
0.0
 10
84.650231
 20
226.505552
 30
0.0
  0
LWPOLYLINE
  5
153
100
AcDbEntity
  8
PERIMETER
 62
1
100
AcDbPolyline
 90
2
 70
0
 10
95.797926
 20
196.008341
 30
0.0
 10
95.797926
 20
285.859450
 30
0.0
  0
SPLINE
  5
154
100
AcDbEntity
  8
PERIMETER
 62
1
100
AcDbSpline
 70
8
 71
3
 72
8
 73
4
 74
0
 40
0
 40
0
 40
0
 40
0
 40
1
 40
1
 40
1
 40
1
 10
84.650231
 20
232.263758
 30
0.0
 10
86.364659
 20
232.263758
 30
0.0
 10
87.754479
 20
233.668828
 30
0.0
 10
87.754479
 20
235.402113
 30
0.0
  0
SPLINE
  5
155
100
AcDbEntity
  8
PERIMETER
 62
1
100
AcDbSpline
 70
8
 71
3
 72
8
 73
4
 74
0
 40
0
 40
0
 40
0
 40
0
 40
1
 40
1
 40
1
 40
1
 10
87.754479
 20
235.402113
 30
0.0
 10
87.754479
 20
237.135372
 30
0.0
 10
86.364662
 20
238.540469
 30
0.0
 10
84.650231
 20
238.540469
 30
0.0
  0
SPLINE
  5
156
100
AcDbEntity
  8
PERIMETER
 62
1
100
AcDbSpline
 70
8
 71
3
 72
8
 73
4
 74
0
 40
0
 40
0
 40
0
 40
0
 40
1
 40
1
 40
1
 40
1
 10
84.650231
 20
238.540469
 30
0.0
 10
82.935800
 20
238.540469
 30
0.0
 10
81.455432
 20
237.135372
 30
0.0
 10
81.455432
 20
235.402113
 30
0.0
  0
LWPOLYLINE
  5
157
100
AcDbEntity
  8
PERIMETER
 62
3
100
AcDbPolyline
 90
5
 70
1
 10
23.871698
 20
244.833451
 30
0.0
 10
60.825467
 20
244.833451
 30
0.0
 10
60.825467
 20
249.657705
 30
0.0
 10
23.871698
 20
249.657705
 30
0.0
 10
23.871698
 20
244.833451
 30
0.0
  0
LWPOLYLINE
  5
158
100
AcDbEntity
  8
PERIMETER
 62
3
100
AcDbPolyline
 90
5
 70
1
 10
23.871698
 20
252.552246
 30
0.0
 10
60.825467
 20
252.552246
 30
0.0
 10
60.825467
 20
257.376500
 30
0.0
 10
23.871698
 20
257.376500
 30
0.0
 10
23.871698
 20
252.552246
 30
0.0
  0
LWPOLYLINE
  5
159
100
AcDbEntity
  8
PERIMETER
 62
3
100
AcDbPolyline
 90
5
 70
1
 10
23.058595
 20
262.523707
 30
0.0
 10
62.509942
 20
262.523707
 30
0.0
 10
62.509942
 20
266.930313
 30
0.0
 10
23.058595
 20
266.930313
 30
0.0
 10
23.058595
 20
262.523707
 30
0.0
  0
LWPOLYLINE
  5
15a
100
AcDbEntity
  8
PERIMETER
 62
1
100
AcDbPolyline
 90
2
 70
0
 10
84.650231
 20
226.505552
 30
0.0
 10
84.650231
 20
232.263758
 30
0.0
  0
LWPOLYLINE
  5
15b
100
AcDbEntity
  8
PERIMETER
 62
1
100
AcDbPolyline
 90
6
 70
0
 10
81.455432
 20
235.402113
 30
0.0
 10
81.455432
 20
232.632164
 30
0.0
 10
77.534339
 20
232.632164
 30
0.0
 10
77.534339
 20
226.000674
 30
0.0
 10
81.455432
 20
226.000674
 30
0.0
 10
81.455432
 20
223.367170
 30
0.0
  0
LWPOLYLINE
  5
15c
100
AcDbEntity
  8
PERIMETER
 62
3
100
AcDbPolyline
 90
5
 70
1
 10
64.574952
 20
238.854317
 30
0.0
 10
73.785360
 20
238.854317
 30
0.0
 10
73.785360
 20
243.834755
 30
0.0
 10
64.574952
 20
243.834755
 30
0.0
 10
64.574952
 20
238.854317
 30
0.0
  0
LWPOLYLINE
  5
15d
100
AcDbEntity
  8
PERIMETER
 62
1
100
AcDbPolyline
 90
7
 70
1
 10
81.522099
 20
267.099541
 30
0.0
 10
78.411030
 20
267.099541
 30
0.0
 10
73.771712
 20
260.686385
 30
0.0
 10
73.771712
 20
256.415480
 30
0.0
 10
85.711125
 20
256.415480
 30
0.0
 10
85.711125
 20
261.368642
 30
0.0
 10
81.522099
 20
267.099541
 30
0.0
  0
LWPOLYLINE
  5
15e
100
AcDbEntity
  8
PERIMETER
 62
3
100
AcDbPolyline
 90
5
 70
1
 10
20.637903
 20
235.238363
 30
0.0
 10
26.232373
 20
235.238363
 30
0.0
 10
26.232373
 20
243.630073
 30
0.0
 10
20.637903
 20
243.630073
 30
0.0
 10
20.637903
 20
235.238363
 30
0.0
  0
LWPOLYLINE
  5
15f
100
AcDbEntity
  8
PERIMETER
 62
3
100
AcDbPolyline
 90
9
 70
1
 10
74.453967
 20
218.683942
 30
0.0
 10
74.453967
 20
229.739422
 30
0.0
 10
65.502811
 20
229.739422
 30
0.0
 10
65.502811
 20
219.257027
 30
0.0
 10
23.494836
 20
219.257027
 30
0.0
 10
23.494836
 20
214.882221
 30
0.0
 10
70.998749
 20
214.882221
 30
0.0
 10
70.998749
 20
218.683942
 30
0.0
 10
74.453967
 20
218.683942
 30
0.0
  0
ENDSEC
  0
SECTION
  2
OBJECTS
  0
DICTIONARY
  5
C
330
0
100
AcDbDictionary
  3
ACAD_GROUP
350
D
  3
ACAD_MLINESTYLE
350
17
  0
DICTIONARY
  5
D
330
C
100
AcDbDictionary
  0
DICTIONARY
  5
1A
330
C
100
AcDbDictionary
  0
DICTIONARY
  5
17
330
C
100
AcDbDictionary
  3
STANDARD
350
18
  0
DICTIONARY
  5
19
330
C
100
AcDbDictionary
  0
ENDSEC
  0
EOF
