  0
SECTION
  2
HEADER
  9
$ACADVER
  1
AC1014
  9
$HANDSEED
  5
FFFF
  9
$MEASUREMENT
 70
     1
  0
ENDSEC
  0
SECTION
  2
TABLES
  0
TABLE
  2
VPORT
  5
8
330
0
100
AcDbSymbolTable
 70
     4
  0
VPORT
  5
2E
330
8
100
AcDbSymbolTableRecord
100
AcDbViewportTableRecord
  2
*ACTIVE
 70
     0
 10
0.0
 20
0.0
 11
1.0
 21
1.0
 12
210.0
 22
148.5
 13
0.0
 23
0.0
 14
10.0
 24
10.0
 15
10.0
 25
10.0
 16
0.0
 26
0.0
 36
1.0
 17
0.0
 27
0.0
 37
0.0
 40
341.0
 41
1.24
 42
50.0
 43
0.0
 44
0.0
 50
0.0
 51
0.0
 71
     0
 72
   100
 73
     1
 74
     3
 75
     0
 76
     0
 77
     0
 78
     0
  0
ENDTAB
  0
TABLE
  2
LTYPE
  5
5
330
0
100
AcDbSymbolTable
 70
     1
  0
LTYPE
  5
14
330
5
100
AcDbSymbolTableRecord
100
AcDbLinetypeTableRecord
  2
BYBLOCK
 70
     0
  3

 72
    65
 73
     0
 40
0.0
  0
LTYPE
  5
15
330
5
100
AcDbSymbolTableRecord
100
AcDbLinetypeTableRecord
  2
BYLAYER
 70
     0
  3

 72
    65
 73
     0
 40
0.0
  0
LTYPE
  5
16
330
5
100
AcDbSymbolTableRecord
100
AcDbLinetypeTableRecord
  2
CONTINUOUS
 70
     0
  3
Solid line
 72
    65
 73
     0
 40
0.0
  0
ENDTAB
  0
TABLE
  2
LAYER
  5
2
100
AcDbSymbolTable
 70
3
  0
LAYER
  5
50
100
AcDbSymbolTableRecord
100
AcDbLayerTableRecord
  2
0
 70
0
  6
CONTINUOUS
  0
LAYER
  5
51
100
AcDbSymbolTableRecord
100
AcDbLayerTableRecord
  2
CUTOUTS
 70
0
  6
CONTINUOUS
  0
LAYER
  5
52
100
AcDbSymbolTableRecord
100
AcDbLayerTableRecord
  2
PERIMETER
 70
0
  6
CONTINUOUS
  0
ENDTAB
  0
TABLE
  2
STYLE
  5
3
330
0
100
AcDbSymbolTable
 70
     1
  0
STYLE
  5
11
330
3
100
AcDbSymbolTableRecord
100
AcDbTextStyleTableRecord
  2
STANDARD
 70
     0
 40
0.0
 41
1.0
 50
0.0
 71
     0
 42
2.5
  3
txt
  4

  0
ENDTAB
  0
TABLE
  2
VIEW
  5
6
330
0
100
AcDbSymbolTable
 70
     0
  0
ENDTAB
  0
TABLE
  2
UCS
  5
7
330
0
100
AcDbSymbolTable
 70
     0
  0
ENDTAB
  0
TABLE
  2
APPID
  5
9
330
0
100
AcDbSymbolTable
 70
     2
  0
APPID
  5
12
330
9
100
AcDbSymbolTableRecord
100
AcDbRegAppTableRecord
  2
ACAD
 70
     0
  0
ENDTAB
  0
TABLE
  2
DIMSTYLE
  5
A
330
0
100
AcDbSymbolTable
 70
     1
  0
DIMSTYLE
105
27
330
A
100
AcDbSymbolTableRecord
100
AcDbDimStyleTableRecord
  2
ISO-25
 70
     0
  3

  4

  5

  6

  7

 40
1.0
 41
2.5
 42
0.625
 43
3.75
 44
1.25
 45
0.0
 46
0.0
 47
0.0
 48
0.0
140
2.5
141
2.5
142
0.0
143
0.03937007874016
144
1.0
145
0.0
146
1.0
147
0.625
 71
     0
 72
     0
 73
     0
 74
     0
 75
     0
 76
     0
 77
     1
 78
     8
170
     0
171
     3
172
     1
173
     0
174
     0
175
     0
176
     0
177
     0
178
     0
270
     2
271
     2
272
     2
273
     2
274
     3
340
11
275
     0
280
     0
281
     0
282
     0
283
     0
284
     8
285
     0
286
     0
287
     3
288
     0
  0
ENDTAB
  0
TABLE
  2
BLOCK_RECORD
  5
1
330
0
100
AcDbSymbolTable
 70
     1
  0
BLOCK_RECORD
  5
1F
330
1
100
AcDbSymbolTableRecord
100
AcDbBlockTableRecord
  2
*MODEL_SPACE
  0
BLOCK_RECORD
  5
1B
330
1
100
AcDbSymbolTableRecord
100
AcDbBlockTableRecord
  2
*PAPER_SPACE
  0
ENDTAB
  0
ENDSEC
  0
SECTION
  2
BLOCKS
  0
BLOCK
  5
20
330
1F
100
AcDbEntity
  8
0
100
AcDbBlockBegin
  2
*MODEL_SPACE
 70
     0
 10
0.0
 20
0.0
 30
0.0
  3
*MODEL_SPACE
  1

  0
ENDBLK
  5
21
330
1F
100
AcDbEntity
  8
0
100
AcDbBlockEnd
  0
BLOCK
  5
1C
330
1B
100
AcDbEntity
 67
     1
  8
0
100
AcDbBlockBegin
  2
*PAPER_SPACE
  1

  0
ENDBLK
  5
1D
330
1B
100
AcDbEntity
 67
     1
  8
0
100
AcDbBlockEnd
  0
ENDSEC
  0
SECTION
  2
ENTITIES
  0
SPLINE
  5
100
100
AcDbEntity
  8
CUTOUTS
 62
1
100
AcDbSpline
 70
8
 71
3
 72
8
 73
4
 74
0
 40
0
 40
0
 40
0
 40
0
 40
1
 40
1
 40
1
 40
1
 10
9.372615
 20
290.711426
 30
0.0
 10
9.372615
 20
291.220530
 30
0.0
 10
9.101012
 20
291.690961
 30
0.0
 10
8.660115
 20
291.945512
 30
0.0
  0
SPLINE
  5
101
100
AcDbEntity
  8
CUTOUTS
 62
1
100
AcDbSpline
 70
8
 71
3
 72
8
 73
4
 74
0
 40
0
 40
0
 40
0
 40
0
 40
1
 40
1
 40
1
 40
1
 10
8.660115
 20
291.945512
 30
0.0
 10
8.219218
 20
292.200064
 30
0.0
 10
7.676012
 20
292.200064
 30
0.0
 10
7.235115
 20
291.945512
 30
0.0
  0
SPLINE
  5
102
100
AcDbEntity
  8
CUTOUTS
 62
1
100
AcDbSpline
 70
8
 71
3
 72
8
 73
4
 74
0
 40
0
 40
0
 40
0
 40
0
 40
1
 40
1
 40
1
 40
1
 10
7.235115
 20
291.945512
 30
0.0
 10
6.794218
 20
291.690961
 30
0.0
 10
6.522615
 20
291.220530
 30
0.0
 10
6.522615
 20
290.711426
 30
0.0
  0
SPLINE
  5
103
100
AcDbEntity
  8
CUTOUTS
 62
1
100
AcDbSpline
 70
8
 71
3
 72
8
 73
4
 74
0
 40
0
 40
0
 40
0
 40
0
 40
1
 40
1
 40
1
 40
1
 10
6.522615
 20
290.711426
 30
0.0
 10
6.522615
 20
290.202323
 30
0.0
 10
6.794218
 20
289.731892
 30
0.0
 10
7.235115
 20
289.477340
 30
0.0
  0
SPLINE
  5
104
100
AcDbEntity
  8
CUTOUTS
 62
1
100
AcDbSpline
 70
8
 71
3
 72
8
 73
4
 74
0
 40
0
 40
0
 40
0
 40
0
 40
1
 40
1
 40
1
 40
1
 10
7.235115
 20
289.477340
 30
0.0
 10
7.676012
 20
289.222788
 30
0.0
 10
8.219218
 20
289.222788
 30
0.0
 10
8.660115
 20
289.477340
 30
0.0
  0
SPLINE
  5
105
100
AcDbEntity
  8
CUTOUTS
 62
1
100
AcDbSpline
 70
8
 71
3
 72
8
 73
4
 74
0
 40
0
 40
0
 40
0
 40
0
 40
1
 40
1
 40
1
 40
1
 10
8.660115
 20
289.477340
 30
0.0
 10
9.101012
 20
289.731892
 30
0.0
 10
9.372615
 20
290.202323
 30
0.0
 10
9.372615
 20
290.711426
 30
0.0
  0
SPLINE
  5
106
100
AcDbEntity
  8
CUTOUTS
 62
1
100
AcDbSpline
 70
8
 71
3
 72
8
 73
4
 74
0
 40
0
 40
0
 40
0
 40
0
 40
1
 40
1
 40
1
 40
1
 10
99.372613
 20
290.711426
 30
0.0
 10
99.373052
 20
291.220822
 30
0.0
 10
99.101545
 20
291.691711
 30
0.0
 10
98.660468
 20
291.946536
 30
0.0
  0
SPLINE
  5
107
100
AcDbEntity
  8
CUTOUTS
 62
1
100
AcDbSpline
 70
8
 71
3
 72
8
 73
4
 74
0
 40
0
 40
0
 40
0
 40
0
 40
1
 40
1
 40
1
 40
1
 10
98.660468
 20
291.946536
 30
0.0
 10
98.219391
 20
292.201360
 30
0.0
 10
97.675836
 20
292.201360
 30
0.0
 10
97.234759
 20
291.946536
 30
0.0
  0
SPLINE
  5
108
100
AcDbEntity
  8
CUTOUTS
 62
1
100
AcDbSpline
 70
8
 71
3
 72
8
 73
4
 74
0
 40
0
 40
0
 40
0
 40
0
 40
1
 40
1
 40
1
 40
1
 10
97.234759
 20
291.946536
 30
0.0
 10
96.793682
 20
291.691711
 30
0.0
 10
96.522175
 20
291.220822
 30
0.0
 10
96.522614
 20
290.711426
 30
0.0
  0
SPLINE
  5
109
100
AcDbEntity
  8
CUTOUTS
 62
1
100
AcDbSpline
 70
8
 71
3
 72
8
 73
4
 74
0
 40
0
 40
0
 40
0
 40
0
 40
1
 40
1
 40
1
 40
1
 10
96.522614
 20
290.711426
 30
0.0
 10
96.522175
 20
290.202030
 30
0.0
 10
96.793682
 20
289.731141
 30
0.0
 10
97.234759
 20
289.476317
 30
0.0
  0
SPLINE
  5
10a
100
AcDbEntity
  8
CUTOUTS
 62
1
100
AcDbSpline
 70
8
 71
3
 72
8
 73
4
 74
0
 40
0
 40
0
 40
0
 40
0
 40
1
 40
1
 40
1
 40
1
 10
97.234759
 20
289.476317
 30
0.0
 10
97.675836
 20
289.221492
 30
0.0
 10
98.219391
 20
289.221492
 30
0.0
 10
98.660468
 20
289.476317
 30
0.0
  0
SPLINE
  5
10b
100
AcDbEntity
  8
CUTOUTS
 62
1
100
AcDbSpline
 70
8
 71
3
 72
8
 73
4
 74
0
 40
0
 40
0
 40
0
 40
0
 40
1
 40
1
 40
1
 40
1
 10
98.660468
 20
289.476317
 30
0.0
 10
99.101545
 20
289.731141
 30
0.0
 10
99.373052
 20
290.202030
 30
0.0
 10
99.372613
 20
290.711426
 30
0.0
  0
LWPOLYLINE
  5
10c
100
AcDbEntity
  8
CUTOUTS
 62
1
100
AcDbPolyline
 90
1
 70
1
 10
9.372615
 20
290.711426
 30
0.0
  0
SPLINE
  5
10d
100
AcDbEntity
  8
CUTOUTS
 62
1
100
AcDbSpline
 70
8
 71
3
 72
8
 73
4
 74
0
 40
0
 40
0
 40
0
 40
0
 40
1
 40
1
 40
1
 40
1
 10
99.372613
 20
190.711425
 30
0.0
 10
99.373052
 20
191.220820
 30
0.0
 10
99.101545
 20
191.691709
 30
0.0
 10
98.660468
 20
191.946534
 30
0.0
  0
SPLINE
  5
10e
100
AcDbEntity
  8
CUTOUTS
 62
1
100
AcDbSpline
 70
8
 71
3
 72
8
 73
4
 74
0
 40
0
 40
0
 40
0
 40
0
 40
1
 40
1
 40
1
 40
1
 10
98.660468
 20
191.946534
 30
0.0
 10
98.219391
 20
192.201359
 30
0.0
 10
97.675836
 20
192.201359
 30
0.0
 10
97.234759
 20
191.946534
 30
0.0
  0
SPLINE
  5
10f
100
AcDbEntity
  8
CUTOUTS
 62
1
100
AcDbSpline
 70
8
 71
3
 72
8
 73
4
 74
0
 40
0
 40
0
 40
0
 40
0
 40
1
 40
1
 40
1
 40
1
 10
97.234759
 20
191.946534
 30
0.0
 10
96.793682
 20
191.691709
 30
0.0
 10
96.522175
 20
191.220820
 30
0.0
 10
96.522614
 20
190.711425
 30
0.0
  0
SPLINE
  5
110
100
AcDbEntity
  8
CUTOUTS
 62
1
100
AcDbSpline
 70
8
 71
3
 72
8
 73
4
 74
0
 40
0
 40
0
 40
0
 40
0
 40
1
 40
1
 40
1
 40
1
 10
96.522614
 20
190.711425
 30
0.0
 10
96.522175
 20
190.202029
 30
0.0
 10
96.793682
 20
189.731140
 30
0.0
 10
97.234759
 20
189.476315
 30
0.0
  0
SPLINE
  5
111
100
AcDbEntity
  8
CUTOUTS
 62
1
100
AcDbSpline
 70
8
 71
3
 72
8
 73
4
 74
0
 40
0
 40
0
 40
0
 40
0
 40
1
 40
1
 40
1
 40
1
 10
97.234759
 20
189.476315
 30
0.0
 10
97.675836
 20
189.221490
 30
0.0
 10
98.219391
 20
189.221490
 30
0.0
 10
98.660468
 20
189.476315
 30
0.0
  0
SPLINE
  5
112
100
AcDbEntity
  8
CUTOUTS
 62
1
100
AcDbSpline
 70
8
 71
3
 72
8
 73
4
 74
0
 40
0
 40
0
 40
0
 40
0
 40
1
 40
1
 40
1
 40
1
 10
98.660468
 20
189.476315
 30
0.0
 10
99.101545
 20
189.731140
 30
0.0
 10
99.373052
 20
190.202029
 30
0.0
 10
99.372613
 20
190.711425
 30
0.0
  0
LWPOLYLINE
  5
113
100
AcDbEntity
  8
CUTOUTS
 62
1
100
AcDbPolyline
 90
1
 70
1
 10
99.372613
 20
290.711426
 30
0.0
  0
SPLINE
  5
114
100
AcDbEntity
  8
CUTOUTS
 62
1
100
AcDbSpline
 70
8
 71
3
 72
8
 73
4
 74
0
 40
0
 40
0
 40
0
 40
0
 40
1
 40
1
 40
1
 40
1
 10
9.372615
 20
190.711425
 30
0.0
 10
9.372615
 20
191.220528
 30
0.0
 10
9.101012
 20
191.690959
 30
0.0
 10
8.660115
 20
191.945511
 30
0.0
  0
SPLINE
  5
115
100
AcDbEntity
  8
CUTOUTS
 62
1
100
AcDbSpline
 70
8
 71
3
 72
8
 73
4
 74
0
 40
0
 40
0
 40
0
 40
0
 40
1
 40
1
 40
1
 40
1
 10
8.660115
 20
191.945511
 30
0.0
 10
8.219218
 20
192.200063
 30
0.0
 10
7.676012
 20
192.200063
 30
0.0
 10
7.235115
 20
191.945511
 30
0.0
  0
SPLINE
  5
116
100
AcDbEntity
  8
CUTOUTS
 62
1
100
AcDbSpline
 70
8
 71
3
 72
8
 73
4
 74
0
 40
0
 40
0
 40
0
 40
0
 40
1
 40
1
 40
1
 40
1
 10
7.235115
 20
191.945511
 30
0.0
 10
6.794218
 20
191.690959
 30
0.0
 10
6.522615
 20
191.220528
 30
0.0
 10
6.522615
 20
190.711425
 30
0.0
  0
SPLINE
  5
117
100
AcDbEntity
  8
CUTOUTS
 62
1
100
AcDbSpline
 70
8
 71
3
 72
8
 73
4
 74
0
 40
0
 40
0
 40
0
 40
0
 40
1
 40
1
 40
1
 40
1
 10
6.522615
 20
190.711425
 30
0.0
 10
6.522615
 20
190.202321
 30
0.0
 10
6.794218
 20
189.731890
 30
0.0
 10
7.235115
 20
189.477338
 30
0.0
  0
SPLINE
  5
118
100
AcDbEntity
  8
CUTOUTS
 62
1
100
AcDbSpline
 70
8
 71
3
 72
8
 73
4
 74
0
 40
0
 40
0
 40
0
 40
0
 40
1
 40
1
 40
1
 40
1
 10
7.235115
 20
189.477338
 30
0.0
 10
7.676012
 20
189.222787
 30
0.0
 10
8.219218
 20
189.222787
 30
0.0
 10
8.660115
 20
189.477338
 30
0.0
  0
SPLINE
  5
119
100
AcDbEntity
  8
CUTOUTS
 62
1
100
AcDbSpline
 70
8
 71
3
 72
8
 73
4
 74
0
 40
0
 40
0
 40
0
 40
0
 40
1
 40
1
 40
1
 40
1
 10
8.660115
 20
189.477338
 30
0.0
 10
9.101012
 20
189.731890
 30
0.0
 10
9.372615
 20
190.202321
 30
0.0
 10
9.372615
 20
190.711425
 30
0.0
  0
LWPOLYLINE
  5
11a
100
AcDbEntity
  8
CUTOUTS
 62
1
100
AcDbPolyline
 90
1
 70
1
 10
99.372613
 20
190.711425
 30
0.0
  0
SPLINE
  5
11b
100
AcDbEntity
  8
CUTOUTS
 62
1
100
AcDbSpline
 70
8
 71
3
 72
8
 73
4
 74
0
 40
0
 40
0
 40
0
 40
0
 40
1
 40
1
 40
1
 40
1
 10
95.372613
 20
217.193443
 30
0.0
 10
95.373052
 20
217.702839
 30
0.0
 10
95.101545
 20
218.173728
 30
0.0
 10
94.660468
 20
218.428553
 30
0.0
  0
SPLINE
  5
11c
100
AcDbEntity
  8
CUTOUTS
 62
1
100
AcDbSpline
 70
8
 71
3
 72
8
 73
4
 74
0
 40
0
 40
0
 40
0
 40
0
 40
1
 40
1
 40
1
 40
1
 10
94.660468
 20
218.428553
 30
0.0
 10
94.219392
 20
218.683378
 30
0.0
 10
93.675836
 20
218.683378
 30
0.0
 10
93.234759
 20
218.428553
 30
0.0
  0
SPLINE
  5
11d
100
AcDbEntity
  8
CUTOUTS
 62
1
100
AcDbSpline
 70
8
 71
3
 72
8
 73
4
 74
0
 40
0
 40
0
 40
0
 40
0
 40
1
 40
1
 40
1
 40
1
 10
93.234759
 20
218.428553
 30
0.0
 10
92.793682
 20
218.173728
 30
0.0
 10
92.522175
 20
217.702839
 30
0.0
 10
92.522614
 20
217.193443
 30
0.0
  0
SPLINE
  5
11e
100
AcDbEntity
  8
CUTOUTS
 62
1
100
AcDbSpline
 70
8
 71
3
 72
8
 73
4
 74
0
 40
0
 40
0
 40
0
 40
0
 40
1
 40
1
 40
1
 40
1
 10
92.522614
 20
217.193443
 30
0.0
 10
92.522175
 20
216.684048
 30
0.0
 10
92.793682
 20
216.213159
 30
0.0
 10
93.234759
 20
215.958334
 30
0.0
  0
SPLINE
  5
11f
100
AcDbEntity
  8
CUTOUTS
 62
1
100
AcDbSpline
 70
8
 71
3
 72
8
 73
4
 74
0
 40
0
 40
0
 40
0
 40
0
 40
1
 40
1
 40
1
 40
1
 10
93.234759
 20
215.958334
 30
0.0
 10
93.675836
 20
215.703509
 30
0.0
 10
94.219392
 20
215.703509
 30
0.0
 10
94.660468
 20
215.958334
 30
0.0
  0
SPLINE
  5
120
100
AcDbEntity
  8
CUTOUTS
 62
1
100
AcDbSpline
 70
8
 71
3
 72
8
 73
4
 74
0
 40
0
 40
0
 40
0
 40
0
 40
1
 40
1
 40
1
 40
1
 10
94.660468
 20
215.958334
 30
0.0
 10
95.101545
 20
216.213159
 30
0.0
 10
95.373052
 20
216.684048
 30
0.0
 10
95.372613
 20
217.193443
 30
0.0
  0
LWPOLYLINE
  5
121
100
AcDbEntity
  8
CUTOUTS
 62
1
100
AcDbPolyline
 90
1
 70
1
 10
9.372615
 20
190.711425
 30
0.0
  0
SPLINE
  5
122
100
AcDbEntity
  8
CUTOUTS
 62
1
100
AcDbSpline
 70
8
 71
3
 72
8
 73
4
 74
0
 40
0
 40
0
 40
0
 40
0
 40
1
 40
1
 40
1
 40
1
 10
95.372613
 20
207.193445
 30
0.0
 10
95.373052
 20
207.702841
 30
0.0
 10
95.101545
 20
208.173730
 30
0.0
 10
94.660468
 20
208.428554
 30
0.0
  0
SPLINE
  5
123
100
AcDbEntity
  8
CUTOUTS
 62
1
100
AcDbSpline
 70
8
 71
3
 72
8
 73
4
 74
0
 40
0
 40
0
 40
0
 40
0
 40
1
 40
1
 40
1
 40
1
 10
94.660468
 20
208.428554
 30
0.0
 10
94.219392
 20
208.683379
 30
0.0
 10
93.675836
 20
208.683379
 30
0.0
 10
93.234759
 20
208.428554
 30
0.0
  0
SPLINE
  5
124
100
AcDbEntity
  8
CUTOUTS
 62
1
100
AcDbSpline
 70
8
 71
3
 72
8
 73
4
 74
0
 40
0
 40
0
 40
0
 40
0
 40
1
 40
1
 40
1
 40
1
 10
93.234759
 20
208.428554
 30
0.0
 10
92.793682
 20
208.173730
 30
0.0
 10
92.522175
 20
207.702841
 30
0.0
 10
92.522614
 20
207.193445
 30
0.0
  0
SPLINE
  5
125
100
AcDbEntity
  8
CUTOUTS
 62
1
100
AcDbSpline
 70
8
 71
3
 72
8
 73
4
 74
0
 40
0
 40
0
 40
0
 40
0
 40
1
 40
1
 40
1
 40
1
 10
92.522614
 20
207.193445
 30
0.0
 10
92.522175
 20
206.684049
 30
0.0
 10
92.793682
 20
206.213160
 30
0.0
 10
93.234759
 20
205.958335
 30
0.0
  0
SPLINE
  5
126
100
AcDbEntity
  8
CUTOUTS
 62
1
100
AcDbSpline
 70
8
 71
3
 72
8
 73
4
 74
0
 40
0
 40
0
 40
0
 40
0
 40
1
 40
1
 40
1
 40
1
 10
93.234759
 20
205.958335
 30
0.0
 10
93.675836
 20
205.703511
 30
0.0
 10
94.219392
 20
205.703511
 30
0.0
 10
94.660468
 20
205.958335
 30
0.0
  0
SPLINE
  5
127
100
AcDbEntity
  8
CUTOUTS
 62
1
100
AcDbSpline
 70
8
 71
3
 72
8
 73
4
 74
0
 40
0
 40
0
 40
0
 40
0
 40
1
 40
1
 40
1
 40
1
 10
94.660468
 20
205.958335
 30
0.0
 10
95.101545
 20
206.213160
 30
0.0
 10
95.373052
 20
206.684049
 30
0.0
 10
95.372613
 20
207.193445
 30
0.0
  0
LWPOLYLINE
  5
128
100
AcDbEntity
  8
CUTOUTS
 62
1
100
AcDbPolyline
 90
1
 70
1
 10
95.372613
 20
217.193443
 30
0.0
  0
LWPOLYLINE
  5
129
100
AcDbEntity
  8
CUTOUTS
 62
1
100
AcDbPolyline
 90
1
 70
1
 10
95.372613
 20
207.193445
 30
0.0
  0
LWPOLYLINE
  5
12a
100
AcDbEntity
  8
CUTOUTS
 62
1
100
AcDbPolyline
 90
4
 70
1
 10
20.679758
 20
198.836424
 30
0.0
 10
33.786900
 20
198.836424
 30
0.0
 10
33.786900
 20
195.586425
 30
0.0
 10
20.679758
 20
195.586425
 30
0.0
  0
LWPOLYLINE
  5
12b
100
AcDbEntity
  8
CUTOUTS
 62
1
100
AcDbPolyline
 90
4
 70
1
 10
20.679758
 20
282.586427
 30
0.0
 10
20.679758
 20
285.836425
 30
0.0
 10
33.786900
 20
285.836425
 30
0.0
 10
33.786900
 20
282.586427
 30
0.0
  0
LWPOLYLINE
  5
12c
100
AcDbEntity
  8
CUTOUTS
 62
1
100
AcDbPolyline
 90
4
 70
1
 10
59.501185
 20
285.836425
 30
0.0
 10
59.501185
 20
282.586427
 30
0.0
 10
46.394042
 20
282.586427
 30
0.0
 10
46.394042
 20
285.836425
 30
0.0
  0
LWPOLYLINE
  5
12d
100
AcDbEntity
  8
CUTOUTS
 62
1
100
AcDbPolyline
 90
4
 70
1
 10
85.215471
 20
282.586427
 30
0.0
 10
72.108330
 20
282.586427
 30
0.0
 10
72.108330
 20
285.836425
 30
0.0
 10
85.215471
 20
285.836425
 30
0.0
  0
LWPOLYLINE
  5
12e
100
AcDbEntity
  8
CUTOUTS
 62
1
100
AcDbPolyline
 90
4
 70
1
 10
85.215471
 20
198.836424
 30
0.0
 10
85.215471
 20
195.586425
 30
0.0
 10
72.108330
 20
195.586425
 30
0.0
 10
72.108330
 20
198.836424
 30
0.0
  0
SPLINE
  5
12f
100
AcDbEntity
  8
CUTOUTS
 62
1
100
AcDbSpline
 70
8
 71
3
 72
8
 73
4
 74
0
 40
0
 40
0
 40
0
 40
0
 40
1
 40
1
 40
1
 40
1
 10
32.163509
 20
225.878709
 30
0.0
 10
32.163510
 20
224.815561
 30
0.0
 10
33.025361
 20
223.953709
 30
0.0
 10
34.088509
 20
223.953709
 30
0.0
  0
LWPOLYLINE
  5
130
100
AcDbEntity
  8
CUTOUTS
 62
1
100
AcDbPolyline
 90
4
 70
1
 10
59.501185
 20
198.836424
 30
0.0
 10
59.501185
 20
195.586425
 30
0.0
 10
46.394042
 20
195.586425
 30
0.0
 10
46.394042
 20
198.836424
 30
0.0
  0
SPLINE
  5
131
100
AcDbEntity
  8
CUTOUTS
 62
1
100
AcDbSpline
 70
8
 71
3
 72
8
 73
4
 74
0
 40
0
 40
0
 40
0
 40
0
 40
1
 40
1
 40
1
 40
1
 10
82.501129
 20
223.953709
 30
0.0
 10
83.564277
 20
223.953709
 30
0.0
 10
84.426129
 20
224.815561
 30
0.0
 10
84.426129
 20
225.878709
 30
0.0
  0
LWPOLYLINE
  5
132
100
AcDbEntity
  8
CUTOUTS
 62
1
100
AcDbPolyline
 90
2
 70
0
 10
82.501129
 20
223.953709
 30
0.0
 10
34.088509
 20
223.953709
 30
0.0
  0
SPLINE
  5
133
100
AcDbEntity
  8
CUTOUTS
 62
1
100
AcDbSpline
 70
8
 71
3
 72
8
 73
4
 74
0
 40
0
 40
0
 40
0
 40
0
 40
1
 40
1
 40
1
 40
1
 10
84.426129
 20
260.166650
 30
0.0
 10
84.426129
 20
261.229798
 30
0.0
 10
83.564277
 20
262.091650
 30
0.0
 10
82.501129
 20
262.091650
 30
0.0
  0
LWPOLYLINE
  5
134
100
AcDbEntity
  8
CUTOUTS
 62
1
100
AcDbPolyline
 90
2
 70
0
 10
84.426129
 20
260.166650
 30
0.0
 10
84.426129
 20
225.878709
 30
0.0
  0
SPLINE
  5
135
100
AcDbEntity
  8
CUTOUTS
 62
1
100
AcDbSpline
 70
8
 71
3
 72
8
 73
4
 74
0
 40
0
 40
0
 40
0
 40
0
 40
1
 40
1
 40
1
 40
1
 10
50.993754
 20
262.091650
 30
0.0
 10
49.930606
 20
262.091650
 30
0.0
 10
49.068755
 20
261.229798
 30
0.0
 10
49.068755
 20
260.166650
 30
0.0
  0
LWPOLYLINE
  5
136
100
AcDbEntity
  8
CUTOUTS
 62
1
100
AcDbPolyline
 90
2
 70
0
 10
50.993754
 20
262.091650
 30
0.0
 10
82.501129
 20
262.091650
 30
0.0
  0
SPLINE
  5
137
100
AcDbEntity
  8
CUTOUTS
 62
1
100
AcDbSpline
 70
8
 71
3
 72
8
 73
4
 74
0
 40
0
 40
0
 40
0
 40
0
 40
1
 40
1
 40
1
 40
1
 10
46.993754
 20
253.409234
 30
0.0
 10
47.544079
 20
253.409234
 30
0.0
 10
48.071863
 20
253.627850
 30
0.0
 10
48.461001
 20
254.016988
 30
0.0
  0
SPLINE
  5
138
100
AcDbEntity
  8
CUTOUTS
 62
1
100
AcDbSpline
 70
8
 71
3
 72
8
 73
4
 74
0
 40
0
 40
0
 40
0
 40
0
 40
1
 40
1
 40
1
 40
1
 10
48.461001
 20
254.016988
 30
0.0
 10
48.850139
 20
254.406126
 30
0.0
 10
49.068755
 20
254.933910
 30
0.0
 10
49.068755
 20
255.484234
 30
0.0
  0
LWPOLYLINE
  5
139
100
AcDbEntity
  8
CUTOUTS
 62
1
100
AcDbPolyline
 90
2
 70
0
 10
49.068755
 20
255.484234
 30
0.0
 10
49.068755
 20
260.166650
 30
0.0
  0
SPLINE
  5
13a
100
AcDbEntity
  8
CUTOUTS
 62
1
100
AcDbSpline
 70
8
 71
3
 72
8
 73
4
 74
0
 40
0
 40
0
 40
0
 40
0
 40
1
 40
1
 40
1
 40
1
 10
34.088509
 20
253.409234
 30
0.0
 10
33.025361
 20
253.409234
 30
0.0
 10
32.163510
 20
252.547383
 30
0.0
 10
32.163509
 20
251.484235
 30
0.0
  0
LWPOLYLINE
  5
13b
100
AcDbEntity
  8
CUTOUTS
 62
1
100
AcDbPolyline
 90
2
 70
0
 10
34.088509
 20
253.409234
 30
0.0
 10
46.993754
 20
253.409234
 30
0.0
  0
SPLINE
  5
13c
100
AcDbEntity
  8
CUTOUTS
 62
1
100
AcDbSpline
 70
8
 71
3
 72
8
 73
4
 74
0
 40
0
 40
0
 40
0
 40
0
 40
1
 40
1
 40
1
 40
1
 10
69.935622
 20
272.342892
 30
0.0
 10
68.872474
 20
272.342892
 30
0.0
 10
68.010622
 20
271.481040
 30
0.0
 10
68.010622
 20
270.417892
 30
0.0
  0
LWPOLYLINE
  5
13d
100
AcDbEntity
  8
CUTOUTS
 62
1
100
AcDbPolyline
 90
2
 70
0
 10
32.163509
 20
225.878709
 30
0.0
 10
32.163509
 20
251.484235
 30
0.0
  0
SPLINE
  5
13e
100
AcDbEntity
  8
CUTOUTS
 62
1
100
AcDbSpline
 70
8
 71
3
 72
8
 73
4
 74
0
 40
0
 40
0
 40
0
 40
0
 40
1
 40
1
 40
1
 40
1
 10
68.010622
 20
267.512113
 30
0.0
 10
68.010622
 20
266.448965
 30
0.0
 10
68.872474
 20
265.587114
 30
0.0
 10
69.935622
 20
265.587114
 30
0.0
  0
LWPOLYLINE
  5
13f
100
AcDbEntity
  8
CUTOUTS
 62
1
100
AcDbPolyline
 90
2
 70
0
 10
68.010622
 20
267.512113
 30
0.0
 10
68.010622
 20
270.417892
 30
0.0
  0
SPLINE
  5
140
100
AcDbEntity
  8
CUTOUTS
 62
1
100
AcDbSpline
 70
8
 71
3
 72
8
 73
4
 74
0
 40
0
 40
0
 40
0
 40
0
 40
1
 40
1
 40
1
 40
1
 10
72.841403
 20
265.587114
 30
0.0
 10
73.904551
 20
265.587114
 30
0.0
 10
74.766403
 20
266.448965
 30
0.0
 10
74.766403
 20
267.512113
 30
0.0
  0
LWPOLYLINE
  5
141
100
AcDbEntity
  8
CUTOUTS
 62
1
100
AcDbPolyline
 90
2
 70
0
 10
72.841403
 20
265.587114
 30
0.0
 10
69.935622
 20
265.587114
 30
0.0
  0
SPLINE
  5
142
100
AcDbEntity
  8
CUTOUTS
 62
1
100
AcDbSpline
 70
8
 71
3
 72
8
 73
4
 74
0
 40
0
 40
0
 40
0
 40
0
 40
1
 40
1
 40
1
 40
1
 10
74.766403
 20
270.417892
 30
0.0
 10
74.766403
 20
271.481040
 30
0.0
 10
73.904551
 20
272.342892
 30
0.0
 10
72.841403
 20
272.342892
 30
0.0
  0
LWPOLYLINE
  5
143
100
AcDbEntity
  8
CUTOUTS
 62
1
100
AcDbPolyline
 90
2
 70
0
 10
74.766403
 20
270.417892
 30
0.0
 10
74.766403
 20
267.512113
 30
0.0
  0
LWPOLYLINE
  5
144
100
AcDbEntity
  8
CUTOUTS
 62
1
100
AcDbPolyline
 90
2
 70
0
 10
69.935622
 20
272.342892
 30
0.0
 10
72.841403
 20
272.342892
 30
0.0
  0
SPLINE
  5
145
100
AcDbEntity
  8
CUTOUTS
 62
1
100
AcDbSpline
 70
8
 71
3
 72
8
 73
4
 74
0
 40
0
 40
0
 40
0
 40
0
 40
1
 40
1
 40
1
 40
1
 10
86.002217
 20
203.301117
 30
0.0
 10
87.065365
 20
203.301117
 30
0.0
 10
87.927217
 20
204.162969
 30
0.0
 10
87.927217
 20
205.226117
 30
0.0
  0
LWPOLYLINE
  5
146
100
AcDbEntity
  8
CUTOUTS
 62
1
100
AcDbPolyline
 90
2
 70
0
 10
87.927217
 20
215.343546
 30
0.0
 10
87.927217
 20
205.226117
 30
0.0
  0
SPLINE
  5
147
100
AcDbEntity
  8
CUTOUTS
 62
1
100
AcDbSpline
 70
8
 71
3
 72
8
 73
4
 74
0
 40
0
 40
0
 40
0
 40
0
 40
1
 40
1
 40
1
 40
1
 10
29.368038
 20
205.226117
 30
0.0
 10
29.368038
 20
204.162969
 30
0.0
 10
30.229890
 20
203.301117
 30
0.0
 10
31.293038
 20
203.301117
 30
0.0
  0
LWPOLYLINE
  5
148
100
AcDbEntity
  8
CUTOUTS
 62
1
100
AcDbPolyline
 90
2
 70
0
 10
86.002217
 20
203.301117
 30
0.0
 10
31.293038
 20
203.301117
 30
0.0
  0
SPLINE
  5
149
100
AcDbEntity
  8
CUTOUTS
 62
1
100
AcDbSpline
 70
8
 71
3
 72
8
 73
4
 74
0
 40
0
 40
0
 40
0
 40
0
 40
1
 40
1
 40
1
 40
1
 10
31.293038
 20
217.268545
 30
0.0
 10
30.229890
 20
217.268545
 30
0.0
 10
29.368038
 20
216.406694
 30
0.0
 10
29.368038
 20
215.343546
 30
0.0
  0
LWPOLYLINE
  5
14a
100
AcDbEntity
  8
CUTOUTS
 62
1
100
AcDbPolyline
 90
2
 70
0
 10
29.368038
 20
205.226117
 30
0.0
 10
29.368038
 20
215.343546
 30
0.0
  0
SPLINE
  5
14b
100
AcDbEntity
  8
CUTOUTS
 62
1
100
AcDbSpline
 70
8
 71
3
 72
8
 73
4
 74
0
 40
0
 40
0
 40
0
 40
0
 40
1
 40
1
 40
1
 40
1
 10
87.927217
 20
215.343546
 30
0.0
 10
87.927217
 20
216.406694
 30
0.0
 10
87.065365
 20
217.268545
 30
0.0
 10
86.002217
 20
217.268545
 30
0.0
  0
LWPOLYLINE
  5
14c
100
AcDbEntity
  8
CUTOUTS
 62
1
100
AcDbPolyline
 90
2
 70
0
 10
31.293038
 20
217.268545
 30
0.0
 10
86.002217
 20
217.268545
 30
0.0
  0
SPLINE
  5
14d
100
AcDbEntity
  8
PERIMETER
 62
1
100
AcDbSpline
 70
8
 71
3
 72
8
 73
4
 74
0
 40
0
 40
0
 40
0
 40
0
 40
1
 40
1
 40
1
 40
1
 10
22.035669
 20
201.434437
 30
0.0
 10
23.098817
 20
201.434437
 30
0.0
 10
23.960669
 20
202.296289
 30
0.0
 10
23.960669
 20
203.359437
 30
0.0
  0
LWPOLYLINE
  5
14e
100
AcDbEntity
  8
PERIMETER
 62
1
100
AcDbPolyline
 90
2
 70
0
 10
23.960669
 20
259.974222
 30
0.0
 10
23.960669
 20
203.359437
 30
0.0
  0
SPLINE
  5
14f
100
AcDbEntity
  8
PERIMETER
 62
1
100
AcDbSpline
 70
8
 71
3
 72
8
 73
4
 74
0
 40
0
 40
0
 40
0
 40
0
 40
1
 40
1
 40
1
 40
1
 10
9.947615
 20
201.434437
 30
0.0
 10
9.397291
 20
201.434437
 30
0.0
 10
8.869506
 20
201.215821
 30
0.0
 10
8.480368
 20
200.826683
 30
0.0
  0
SPLINE
  5
150
100
AcDbEntity
  8
PERIMETER
 62
1
100
AcDbSpline
 70
8
 71
3
 72
8
 73
4
 74
0
 40
0
 40
0
 40
0
 40
0
 40
1
 40
1
 40
1
 40
1
 10
8.480368
 20
200.826683
 30
0.0
 10
8.091230
 20
200.437545
 30
0.0
 10
7.872615
 20
199.909761
 30
0.0
 10
7.872615
 20
199.359437
 30
0.0
  0
LWPOLYLINE
  5
151
100
AcDbEntity
  8
PERIMETER
 62
1
100
AcDbPolyline
 90
2
 70
0
 10
22.035669
 20
201.434437
 30
0.0
 10
9.947615
 20
201.434437
 30
0.0
  0
SPLINE
  5
152
100
AcDbEntity
  8
PERIMETER
 62
1
100
AcDbSpline
 70
8
 71
3
 72
8
 73
4
 74
0
 40
0
 40
0
 40
0
 40
0
 40
1
 40
1
 40
1
 40
1
 10
7.872615
 20
195.785871
 30
0.0
 10
5.089581
 20
195.744738
 30
0.0
 10
2.858965
 20
193.469728
 30
0.0
 10
2.872677
 20
190.686424
 30
0.0
  0
SPLINE
  5
153
100
AcDbEntity
  8
PERIMETER
 62
1
100
AcDbSpline
 70
8
 71
3
 72
8
 73
4
 74
0
 40
0
 40
0
 40
0
 40
0
 40
1
 40
1
 40
1
 40
1
 10
2.872677
 20
190.686424
 30
0.0
 10
2.886389
 20
187.903120
 30
0.0
 10
5.139311
 20
185.650198
 30
0.0
 10
7.922615
 20
185.636487
 30
0.0
  0
SPLINE
  5
154
100
AcDbEntity
  8
PERIMETER
 62
1
100
AcDbSpline
 70
8
 71
3
 72
8
 73
4
 74
0
 40
0
 40
0
 40
0
 40
0
 40
1
 40
1
 40
1
 40
1
 10
7.922615
 20
185.636487
 30
0.0
 10
10.705919
 20
185.622776
 30
0.0
 10
12.980928
 20
187.853392
 30
0.0
 10
13.022061
 20
190.636426
 30
0.0
  0
LWPOLYLINE
  5
155
100
AcDbEntity
  8
PERIMETER
 62
1
100
AcDbPolyline
 90
2
 70
0
 10
7.872615
 20
199.359437
 30
0.0
 10
7.872615
 20
195.785871
 30
0.0
  0
SPLINE
  5
156
100
AcDbEntity
  8
PERIMETER
 62
1
100
AcDbSpline
 70
8
 71
3
 72
8
 73
4
 74
0
 40
0
 40
0
 40
0
 40
0
 40
1
 40
1
 40
1
 40
1
 10
92.873169
 20
190.636426
 30
0.0
 10
92.914301
 20
187.853392
 30
0.0
 10
95.189311
 20
185.622776
 30
0.0
 10
97.972615
 20
185.636487
 30
0.0
  0
SPLINE
  5
157
100
AcDbEntity
  8
PERIMETER
 62
1
100
AcDbSpline
 70
8
 71
3
 72
8
 73
4
 74
0
 40
0
 40
0
 40
0
 40
0
 40
1
 40
1
 40
1
 40
1
 10
97.972615
 20
185.636487
 30
0.0
 10
100.755919
 20
185.650198
 30
0.0
 10
103.008841
 20
187.903120
 30
0.0
 10
103.022553
 20
190.686425
 30
0.0
  0
SPLINE
  5
158
100
AcDbEntity
  8
PERIMETER
 62
1
100
AcDbSpline
 70
8
 71
3
 72
8
 73
4
 74
0
 40
0
 40
0
 40
0
 40
0
 40
1
 40
1
 40
1
 40
1
 10
103.022553
 20
190.686425
 30
0.0
 10
103.036264
 20
193.469729
 30
0.0
 10
100.805648
 20
195.744738
 30
0.0
 10
98.022614
 20
195.785871
 30
0.0
  0
LWPOLYLINE
  5
159
100
AcDbEntity
  8
PERIMETER
 62
1
100
AcDbPolyline
 90
2
 70
0
 10
13.022061
 20
190.636426
 30
0.0
 10
92.873169
 20
190.636426
 30
0.0
  0
SPLINE
  5
15a
100
AcDbEntity
  8
PERIMETER
 62
1
100
AcDbSpline
 70
8
 71
3
 72
8
 73
4
 74
0
 40
0
 40
0
 40
0
 40
0
 40
1
 40
1
 40
1
 40
1
 10
98.022614
 20
285.636980
 30
0.0
 10
100.805648
 20
285.678113
 30
0.0
 10
103.036264
 20
287.953122
 30
0.0
 10
103.022553
 20
290.736426
 30
0.0
  0
SPLINE
  5
15b
100
AcDbEntity
  8
PERIMETER
 62
1
100
AcDbSpline
 70
8
 71
3
 72
8
 73
4
 74
0
 40
0
 40
0
 40
0
 40
0
 40
1
 40
1
 40
1
 40
1
 10
103.022553
 20
290.736426
 30
0.0
 10
103.008841
 20
293.519730
 30
0.0
 10
100.755919
 20
295.772652
 30
0.0
 10
97.972615
 20
295.786364
 30
0.0
  0
SPLINE
  5
15c
100
AcDbEntity
  8
PERIMETER
 62
1
100
AcDbSpline
 70
8
 71
3
 72
8
 73
4
 74
0
 40
0
 40
0
 40
0
 40
0
 40
1
 40
1
 40
1
 40
1
 10
97.972615
 20
295.786364
 30
0.0
 10
95.189311
 20
295.800075
 30
0.0
 10
92.914301
 20
293.569459
 30
0.0
 10
92.873169
 20
290.786425
 30
0.0
  0
LWPOLYLINE
  5
15d
100
AcDbEntity
  8
PERIMETER
 62
1
100
AcDbPolyline
 90
2
 70
0
 10
98.022614
 20
195.785871
 30
0.0
 10
98.022614
 20
285.636980
 30
0.0
  0
SPLINE
  5
15e
100
AcDbEntity
  8
PERIMETER
 62
1
100
AcDbSpline
 70
8
 71
3
 72
8
 73
4
 74
0
 40
0
 40
0
 40
0
 40
0
 40
1
 40
1
 40
1
 40
1
 10
13.022061
 20
290.786425
 30
0.0
 10
12.980928
 20
293.569459
 30
0.0
 10
10.705919
 20
295.800075
 30
0.0
 10
7.922615
 20
295.786364
 30
0.0
  0
SPLINE
  5
15f
100
AcDbEntity
  8
PERIMETER
 62
1
100
AcDbSpline
 70
8
 71
3
 72
8
 73
4
 74
0
 40
0
 40
0
 40
0
 40
0
 40
1
 40
1
 40
1
 40
1
 10
7.922615
 20
295.786364
 30
0.0
 10
5.139311
 20
295.772653
 30
0.0
 10
2.886389
 20
293.519731
 30
0.0
 10
2.872677
 20
290.736427
 30
0.0
  0
SPLINE
  5
160
100
AcDbEntity
  8
PERIMETER
 62
1
100
AcDbSpline
 70
8
 71
3
 72
8
 73
4
 74
0
 40
0
 40
0
 40
0
 40
0
 40
1
 40
1
 40
1
 40
1
 10
2.872677
 20
290.736427
 30
0.0
 10
2.858965
 20
287.953122
 30
0.0
 10
5.089581
 20
285.678113
 30
0.0
 10
7.872615
 20
285.636980
 30
0.0
  0
LWPOLYLINE
  5
161
100
AcDbEntity
  8
PERIMETER
 62
1
100
AcDbPolyline
 90
2
 70
0
 10
92.873169
 20
290.786425
 30
0.0
 10
13.022061
 20
290.786425
 30
0.0
  0
SPLINE
  5
162
100
AcDbEntity
  8
PERIMETER
 62
1
100
AcDbSpline
 70
8
 71
3
 72
8
 73
4
 74
0
 40
0
 40
0
 40
0
 40
0
 40
1
 40
1
 40
1
 40
1
 10
7.872615
 20
278.479299
 30
0.0
 10
7.872615
 20
277.928975
 30
0.0
 10
8.091230
 20
277.401191
 30
0.0
 10
8.480368
 20
277.012053
 30
0.0
  0
SPLINE
  5
163
100
AcDbEntity
  8
PERIMETER
 62
1
100
AcDbSpline
 70
8
 71
3
 72
8
 73
4
 74
0
 40
0
 40
0
 40
0
 40
0
 40
1
 40
1
 40
1
 40
1
 10
8.480368
 20
277.012053
 30
0.0
 10
8.869506
 20
276.622915
 30
0.0
 10
9.397291
 20
276.404299
 30
0.0
 10
9.947615
 20
276.404299
 30
0.0
  0
LWPOLYLINE
  5
164
100
AcDbEntity
  8
PERIMETER
 62
1
100
AcDbPolyline
 90
2
 70
0
 10
7.872615
 20
285.636980
 30
0.0
 10
7.872615
 20
278.479299
 30
0.0
  0
SPLINE
  5
165
100
AcDbEntity
  8
PERIMETER
 62
1
100
AcDbSpline
 70
8
 71
3
 72
8
 73
4
 74
0
 40
0
 40
0
 40
0
 40
0
 40
1
 40
1
 40
1
 40
1
 10
41.898321
 20
274.479300
 30
0.0
 10
41.898321
 20
275.542448
 30
0.0
 10
41.036469
 20
276.404299
 30
0.0
 10
39.973321
 20
276.404299
 30
0.0
  0
LWPOLYLINE
  5
166
100
AcDbEntity
  8
PERIMETER
 62
1
100
AcDbPolyline
 90
2
 70
0
 10
9.947615
 20
276.404299
 30
0.0
 10
39.973321
 20
276.404299
 30
0.0
  0
SPLINE
  5
167
100
AcDbEntity
  8
PERIMETER
 62
1
100
AcDbSpline
 70
8
 71
3
 72
8
 73
4
 74
0
 40
0
 40
0
 40
0
 40
0
 40
1
 40
1
 40
1
 40
1
 10
39.973321
 20
262.049222
 30
0.0
 10
41.036469
 20
262.049222
 30
0.0
 10
41.898321
 20
262.911073
 30
0.0
 10
41.898321
 20
263.974222
 30
0.0
  0
LWPOLYLINE
  5
168
100
AcDbEntity
  8
PERIMETER
 62
1
100
AcDbPolyline
 90
2
 70
0
 10
41.898321
 20
274.479300
 30
0.0
 10
41.898321
 20
263.974222
 30
0.0
  0
SPLINE
  5
169
100
AcDbEntity
  8
PERIMETER
 62
1
100
AcDbSpline
 70
8
 71
3
 72
8
 73
4
 74
0
 40
0
 40
0
 40
0
 40
0
 40
1
 40
1
 40
1
 40
1
 10
26.035669
 20
262.049222
 30
0.0
 10
25.485345
 20
262.049222
 30
0.0
 10
24.957561
 20
261.830606
 30
0.0
 10
24.568423
 20
261.441468
 30
0.0
  0
SPLINE
  5
16a
100
AcDbEntity
  8
PERIMETER
 62
1
100
AcDbSpline
 70
8
 71
3
 72
8
 73
4
 74
0
 40
0
 40
0
 40
0
 40
0
 40
1
 40
1
 40
1
 40
1
 10
24.568423
 20
261.441468
 30
0.0
 10
24.179285
 20
261.052330
 30
0.0
 10
23.960669
 20
260.524546
 30
0.0
 10
23.960669
 20
259.974222
 30
0.0
  0
LWPOLYLINE
  5
16b
100
AcDbEntity
  8
PERIMETER
 62
1
100
AcDbPolyline
 90
2
 70
0
 10
39.973321
 20
262.049222
 30
0.0
 10
26.035669
 20
262.049222
 30
0.0
  0
ENDSEC
  0
SECTION
  2
OBJECTS
  0
DICTIONARY
  5
C
330
0
100
AcDbDictionary
  3
ACAD_GROUP
350
D
  3
ACAD_MLINESTYLE
350
17
  0
DICTIONARY
  5
D
330
C
100
AcDbDictionary
  0
DICTIONARY
  5
1A
330
C
100
AcDbDictionary
  0
DICTIONARY
  5
17
330
C
100
AcDbDictionary
  3
STANDARD
350
18
  0
DICTIONARY
  5
19
330
C
100
AcDbDictionary
  0
ENDSEC
  0
EOF
