  0
SECTION
  2
HEADER
  9
$ACADVER
  1
AC1014
  9
$HANDSEED
  5
FFFF
  9
$MEASUREMENT
 70
     1
  0
ENDSEC
  0
SECTION
  2
TABLES
  0
TABLE
  2
VPORT
  5
8
330
0
100
AcDbSymbolTable
 70
     4
  0
VPORT
  5
2E
330
8
100
AcDbSymbolTableRecord
100
AcDbViewportTableRecord
  2
*ACTIVE
 70
     0
 10
0.0
 20
0.0
 11
1.0
 21
1.0
 12
210.0
 22
148.5
 13
0.0
 23
0.0
 14
10.0
 24
10.0
 15
10.0
 25
10.0
 16
0.0
 26
0.0
 36
1.0
 17
0.0
 27
0.0
 37
0.0
 40
341.0
 41
1.24
 42
50.0
 43
0.0
 44
0.0
 50
0.0
 51
0.0
 71
     0
 72
   100
 73
     1
 74
     3
 75
     0
 76
     0
 77
     0
 78
     0
  0
ENDTAB
  0
TABLE
  2
LTYPE
  5
5
330
0
100
AcDbSymbolTable
 70
     1
  0
LTYPE
  5
14
330
5
100
AcDbSymbolTableRecord
100
AcDbLinetypeTableRecord
  2
BYBLOCK
 70
     0
  3

 72
    65
 73
     0
 40
0.0
  0
LTYPE
  5
15
330
5
100
AcDbSymbolTableRecord
100
AcDbLinetypeTableRecord
  2
BYLAYER
 70
     0
  3

 72
    65
 73
     0
 40
0.0
  0
LTYPE
  5
16
330
5
100
AcDbSymbolTableRecord
100
AcDbLinetypeTableRecord
  2
CONTINUOUS
 70
     0
  3
Solid line
 72
    65
 73
     0
 40
0.0
  0
ENDTAB
  0
TABLE
  2
LAYER
  5
2
100
AcDbSymbolTable
 70
3
  0
LAYER
  5
50
100
AcDbSymbolTableRecord
100
AcDbLayerTableRecord
  2
0
 70
0
  6
CONTINUOUS
  0
LAYER
  5
51
100
AcDbSymbolTableRecord
100
AcDbLayerTableRecord
  2
CUTOUTS
 70
0
  6
CONTINUOUS
  0
LAYER
  5
52
100
AcDbSymbolTableRecord
100
AcDbLayerTableRecord
  2
PERIMETER
 70
0
  6
CONTINUOUS
  0
ENDTAB
  0
TABLE
  2
STYLE
  5
3
330
0
100
AcDbSymbolTable
 70
     1
  0
STYLE
  5
11
330
3
100
AcDbSymbolTableRecord
100
AcDbTextStyleTableRecord
  2
STANDARD
 70
     0
 40
0.0
 41
1.0
 50
0.0
 71
     0
 42
2.5
  3
txt
  4

  0
ENDTAB
  0
TABLE
  2
VIEW
  5
6
330
0
100
AcDbSymbolTable
 70
     0
  0
ENDTAB
  0
TABLE
  2
UCS
  5
7
330
0
100
AcDbSymbolTable
 70
     0
  0
ENDTAB
  0
TABLE
  2
APPID
  5
9
330
0
100
AcDbSymbolTable
 70
     2
  0
APPID
  5
12
330
9
100
AcDbSymbolTableRecord
100
AcDbRegAppTableRecord
  2
ACAD
 70
     0
  0
ENDTAB
  0
TABLE
  2
DIMSTYLE
  5
A
330
0
100
AcDbSymbolTable
 70
     1
  0
DIMSTYLE
105
27
330
A
100
AcDbSymbolTableRecord
100
AcDbDimStyleTableRecord
  2
ISO-25
 70
     0
  3

  4

  5

  6

  7

 40
1.0
 41
2.5
 42
0.625
 43
3.75
 44
1.25
 45
0.0
 46
0.0
 47
0.0
 48
0.0
140
2.5
141
2.5
142
0.0
143
0.03937007874016
144
1.0
145
0.0
146
1.0
147
0.625
 71
     0
 72
     0
 73
     0
 74
     0
 75
     0
 76
     0
 77
     1
 78
     8
170
     0
171
     3
172
     1
173
     0
174
     0
175
     0
176
     0
177
     0
178
     0
270
     2
271
     2
272
     2
273
     2
274
     3
340
11
275
     0
280
     0
281
     0
282
     0
283
     0
284
     8
285
     0
286
     0
287
     3
288
     0
  0
ENDTAB
  0
TABLE
  2
BLOCK_RECORD
  5
1
330
0
100
AcDbSymbolTable
 70
     1
  0
BLOCK_RECORD
  5
1F
330
1
100
AcDbSymbolTableRecord
100
AcDbBlockTableRecord
  2
*MODEL_SPACE
  0
BLOCK_RECORD
  5
1B
330
1
100
AcDbSymbolTableRecord
100
AcDbBlockTableRecord
  2
*PAPER_SPACE
  0
ENDTAB
  0
ENDSEC
  0
SECTION
  2
BLOCKS
  0
BLOCK
  5
20
330
1F
100
AcDbEntity
  8
0
100
AcDbBlockBegin
  2
*MODEL_SPACE
 70
     0
 10
0.0
 20
0.0
 30
0.0
  3
*MODEL_SPACE
  1

  0
ENDBLK
  5
21
330
1F
100
AcDbEntity
  8
0
100
AcDbBlockEnd
  0
BLOCK
  5
1C
330
1B
100
AcDbEntity
 67
     1
  8
0
100
AcDbBlockBegin
  2
*PAPER_SPACE
  1

  0
ENDBLK
  5
1D
330
1B
100
AcDbEntity
 67
     1
  8
0
100
AcDbBlockEnd
  0
ENDSEC
  0
SECTION
  2
ENTITIES
  0
SPLINE
  5
100
100
AcDbEntity
  8
CUTOUTS
 62
1
100
AcDbSpline
 70
8
 71
3
 72
8
 73
4
 74
0
 40
0
 40
0
 40
0
 40
0
 40
1
 40
1
 40
1
 40
1
 10
82.780931
 20
268.330501
 30
0.0
 10
82.780931
 20
269.911402
 30
0.0
 10
81.937531
 20
271.372214
 30
0.0
 10
80.568431
 20
272.162664
 30
0.0
  0
SPLINE
  5
101
100
AcDbEntity
  8
CUTOUTS
 62
1
100
AcDbSpline
 70
8
 71
3
 72
8
 73
4
 74
0
 40
0
 40
0
 40
0
 40
0
 40
1
 40
1
 40
1
 40
1
 10
80.568431
 20
272.162664
 30
0.0
 10
79.199331
 20
272.953114
 30
0.0
 10
77.512531
 20
272.953114
 30
0.0
 10
76.143431
 20
272.162664
 30
0.0
  0
SPLINE
  5
102
100
AcDbEntity
  8
CUTOUTS
 62
1
100
AcDbSpline
 70
8
 71
3
 72
8
 73
4
 74
0
 40
0
 40
0
 40
0
 40
0
 40
1
 40
1
 40
1
 40
1
 10
76.143431
 20
272.162664
 30
0.0
 10
74.774331
 20
271.372214
 30
0.0
 10
73.930931
 20
269.911402
 30
0.0
 10
73.930931
 20
268.330501
 30
0.0
  0
SPLINE
  5
103
100
AcDbEntity
  8
CUTOUTS
 62
1
100
AcDbSpline
 70
8
 71
3
 72
8
 73
4
 74
0
 40
0
 40
0
 40
0
 40
0
 40
1
 40
1
 40
1
 40
1
 10
73.930931
 20
268.330501
 30
0.0
 10
73.930931
 20
266.749601
 30
0.0
 10
74.774331
 20
265.288789
 30
0.0
 10
76.143431
 20
264.498339
 30
0.0
  0
SPLINE
  5
104
100
AcDbEntity
  8
CUTOUTS
 62
1
100
AcDbSpline
 70
8
 71
3
 72
8
 73
4
 74
0
 40
0
 40
0
 40
0
 40
0
 40
1
 40
1
 40
1
 40
1
 10
76.143431
 20
264.498339
 30
0.0
 10
77.512531
 20
263.707889
 30
0.0
 10
79.199331
 20
263.707889
 30
0.0
 10
80.568431
 20
264.498339
 30
0.0
  0
SPLINE
  5
105
100
AcDbEntity
  8
CUTOUTS
 62
1
100
AcDbSpline
 70
8
 71
3
 72
8
 73
4
 74
0
 40
0
 40
0
 40
0
 40
0
 40
1
 40
1
 40
1
 40
1
 10
80.568431
 20
264.498339
 30
0.0
 10
81.937531
 20
265.288789
 30
0.0
 10
82.780931
 20
266.749601
 30
0.0
 10
82.780931
 20
268.330501
 30
0.0
  0
SPLINE
  5
106
100
AcDbEntity
  8
CUTOUTS
 62
1
100
AcDbSpline
 70
8
 71
3
 72
8
 73
4
 74
0
 40
0
 40
0
 40
0
 40
0
 40
1
 40
1
 40
1
 40
1
 10
59.780929
 20
277.330501
 30
0.0
 10
59.781290
 20
278.018477
 30
0.0
 10
59.414466
 20
278.654348
 30
0.0
 10
58.818721
 20
278.998441
 30
0.0
  0
SPLINE
  5
107
100
AcDbEntity
  8
CUTOUTS
 62
1
100
AcDbSpline
 70
8
 71
3
 72
8
 73
4
 74
0
 40
0
 40
0
 40
0
 40
0
 40
1
 40
1
 40
1
 40
1
 10
58.818721
 20
278.998441
 30
0.0
 10
58.222976
 20
279.342533
 30
0.0
 10
57.488883
 20
279.342533
 30
0.0
 10
56.893138
 20
278.998441
 30
0.0
  0
SPLINE
  5
108
100
AcDbEntity
  8
CUTOUTS
 62
1
100
AcDbSpline
 70
8
 71
3
 72
8
 73
4
 74
0
 40
0
 40
0
 40
0
 40
0
 40
1
 40
1
 40
1
 40
1
 10
56.893138
 20
278.998441
 30
0.0
 10
56.297393
 20
278.654348
 30
0.0
 10
55.930569
 20
278.018477
 30
0.0
 10
55.930930
 20
277.330501
 30
0.0
  0
SPLINE
  5
109
100
AcDbEntity
  8
CUTOUTS
 62
1
100
AcDbSpline
 70
8
 71
3
 72
8
 73
4
 74
0
 40
0
 40
0
 40
0
 40
0
 40
1
 40
1
 40
1
 40
1
 10
55.930930
 20
277.330501
 30
0.0
 10
55.930569
 20
276.642524
 30
0.0
 10
56.297393
 20
276.006653
 30
0.0
 10
56.893138
 20
275.662561
 30
0.0
  0
SPLINE
  5
10a
100
AcDbEntity
  8
CUTOUTS
 62
1
100
AcDbSpline
 70
8
 71
3
 72
8
 73
4
 74
0
 40
0
 40
0
 40
0
 40
0
 40
1
 40
1
 40
1
 40
1
 10
56.893138
 20
275.662561
 30
0.0
 10
57.488883
 20
275.318468
 30
0.0
 10
58.222976
 20
275.318468
 30
0.0
 10
58.818721
 20
275.662561
 30
0.0
  0
SPLINE
  5
10b
100
AcDbEntity
  8
CUTOUTS
 62
1
100
AcDbSpline
 70
8
 71
3
 72
8
 73
4
 74
0
 40
0
 40
0
 40
0
 40
0
 40
1
 40
1
 40
1
 40
1
 10
58.818721
 20
275.662561
 30
0.0
 10
59.414466
 20
276.006653
 30
0.0
 10
59.781290
 20
276.642524
 30
0.0
 10
59.780929
 20
277.330501
 30
0.0
  0
LWPOLYLINE
  5
10c
100
AcDbEntity
  8
CUTOUTS
 62
1
100
AcDbPolyline
 90
1
 70
1
 10
82.780931
 20
268.330501
 30
0.0
  0
SPLINE
  5
10d
100
AcDbEntity
  8
CUTOUTS
 62
1
100
AcDbSpline
 70
8
 71
3
 72
8
 73
4
 74
0
 40
0
 40
0
 40
0
 40
0
 40
1
 40
1
 40
1
 40
1
 10
59.780929
 20
259.330501
 30
0.0
 10
59.781290
 20
260.018477
 30
0.0
 10
59.414466
 20
260.654348
 30
0.0
 10
58.818721
 20
260.998441
 30
0.0
  0
SPLINE
  5
10e
100
AcDbEntity
  8
CUTOUTS
 62
1
100
AcDbSpline
 70
8
 71
3
 72
8
 73
4
 74
0
 40
0
 40
0
 40
0
 40
0
 40
1
 40
1
 40
1
 40
1
 10
58.818721
 20
260.998441
 30
0.0
 10
58.222976
 20
261.342533
 30
0.0
 10
57.488883
 20
261.342533
 30
0.0
 10
56.893138
 20
260.998441
 30
0.0
  0
SPLINE
  5
10f
100
AcDbEntity
  8
CUTOUTS
 62
1
100
AcDbSpline
 70
8
 71
3
 72
8
 73
4
 74
0
 40
0
 40
0
 40
0
 40
0
 40
1
 40
1
 40
1
 40
1
 10
56.893138
 20
260.998441
 30
0.0
 10
56.297393
 20
260.654348
 30
0.0
 10
55.930569
 20
260.018477
 30
0.0
 10
55.930930
 20
259.330501
 30
0.0
  0
SPLINE
  5
110
100
AcDbEntity
  8
CUTOUTS
 62
1
100
AcDbSpline
 70
8
 71
3
 72
8
 73
4
 74
0
 40
0
 40
0
 40
0
 40
0
 40
1
 40
1
 40
1
 40
1
 10
55.930930
 20
259.330501
 30
0.0
 10
55.930569
 20
258.642524
 30
0.0
 10
56.297393
 20
258.006653
 30
0.0
 10
56.893138
 20
257.662561
 30
0.0
  0
SPLINE
  5
111
100
AcDbEntity
  8
CUTOUTS
 62
1
100
AcDbSpline
 70
8
 71
3
 72
8
 73
4
 74
0
 40
0
 40
0
 40
0
 40
0
 40
1
 40
1
 40
1
 40
1
 10
56.893138
 20
257.662561
 30
0.0
 10
57.488883
 20
257.318468
 30
0.0
 10
58.222976
 20
257.318468
 30
0.0
 10
58.818721
 20
257.662561
 30
0.0
  0
SPLINE
  5
112
100
AcDbEntity
  8
CUTOUTS
 62
1
100
AcDbSpline
 70
8
 71
3
 72
8
 73
4
 74
0
 40
0
 40
0
 40
0
 40
0
 40
1
 40
1
 40
1
 40
1
 10
58.818721
 20
257.662561
 30
0.0
 10
59.414466
 20
258.006653
 30
0.0
 10
59.781290
 20
258.642524
 30
0.0
 10
59.780929
 20
259.330501
 30
0.0
  0
LWPOLYLINE
  5
113
100
AcDbEntity
  8
CUTOUTS
 62
1
100
AcDbPolyline
 90
1
 70
1
 10
59.780929
 20
277.330501
 30
0.0
  0
SPLINE
  5
114
100
AcDbEntity
  8
CUTOUTS
 62
1
100
AcDbSpline
 70
8
 71
3
 72
8
 73
4
 74
0
 40
0
 40
0
 40
0
 40
0
 40
1
 40
1
 40
1
 40
1
 10
27.855931
 20
277.255127
 30
0.0
 10
24.667469
 20
277.255127
 30
0.0
 10
21.721209
 20
275.554103
 30
0.0
 10
20.126978
 20
272.792814
 30
0.0
  0
SPLINE
  5
115
100
AcDbEntity
  8
CUTOUTS
 62
1
100
AcDbSpline
 70
8
 71
3
 72
8
 73
4
 74
0
 40
0
 40
0
 40
0
 40
0
 40
1
 40
1
 40
1
 40
1
 10
20.126978
 20
272.792814
 30
0.0
 10
18.532747
 20
270.031524
 30
0.0
 10
18.532747
 20
266.629476
 30
0.0
 10
20.126978
 20
263.868187
 30
0.0
  0
SPLINE
  5
116
100
AcDbEntity
  8
CUTOUTS
 62
1
100
AcDbSpline
 70
8
 71
3
 72
8
 73
4
 74
0
 40
0
 40
0
 40
0
 40
0
 40
1
 40
1
 40
1
 40
1
 10
20.126978
 20
263.868187
 30
0.0
 10
21.721209
 20
261.106898
 30
0.0
 10
24.667469
 20
259.405873
 30
0.0
 10
27.855931
 20
259.405873
 30
0.0
  0
LWPOLYLINE
  5
117
100
AcDbEntity
  8
CUTOUTS
 62
1
100
AcDbPolyline
 90
1
 70
1
 10
59.780929
 20
259.330501
 30
0.0
  0
LWPOLYLINE
  5
118
100
AcDbEntity
  8
CUTOUTS
 62
1
100
AcDbPolyline
 90
4
 70
0
 10
27.855931
 20
277.255128
 30
0.0
 10
52.780930
 20
277.255128
 30
0.0
 10
52.780930
 20
259.405873
 30
0.0
 10
27.855931
 20
259.405873
 30
0.0
  0
LWPOLYLINE
  5
119
100
AcDbEntity
  8
PERIMETER
 62
1
100
AcDbPolyline
 90
28
 70
1
 10
20.638074
 20
289.905501
 30
0.0
 10
20.638074
 20
286.905501
 30
0.0
 10
7.780931
 20
286.905501
 30
0.0
 10
7.780931
 20
256.755502
 30
0.0
 10
20.638074
 20
256.755502
 30
0.0
 10
20.638074
 20
253.755500
 30
0.0
 10
33.645216
 20
253.755500
 30
0.0
 10
33.645216
 20
256.755502
 30
0.0
 10
46.352359
 20
256.755502
 30
0.0
 10
46.352359
 20
253.755500
 30
0.0
 10
59.359501
 20
253.755500
 30
0.0
 10
59.359501
 20
256.755502
 30
0.0
 10
72.066645
 20
256.755502
 30
0.0
 10
72.066645
 20
253.755500
 30
0.0
 10
85.073789
 20
253.755500
 30
0.0
 10
85.073789
 20
256.755502
 30
0.0
 10
97.930930
 20
256.755502
 30
0.0
 10
97.930930
 20
286.905501
 30
0.0
 10
85.073789
 20
286.905501
 30
0.0
 10
85.073789
 20
289.905501
 30
0.0
 10
72.066645
 20
289.905501
 30
0.0
 10
72.066645
 20
286.905501
 30
0.0
 10
59.359501
 20
286.905501
 30
0.0
 10
59.359501
 20
289.905501
 30
0.0
 10
46.352359
 20
289.905501
 30
0.0
 10
46.352359
 20
286.905501
 30
0.0
 10
33.645216
 20
286.905501
 30
0.0
 10
33.645216
 20
289.905501
 30
0.0
  0
ENDSEC
  0
SECTION
  2
OBJECTS
  0
DICTIONARY
  5
C
330
0
100
AcDbDictionary
  3
ACAD_GROUP
350
D
  3
ACAD_MLINESTYLE
350
17
  0
DICTIONARY
  5
D
330
C
100
AcDbDictionary
  0
DICTIONARY
  5
1A
330
C
100
AcDbDictionary
  0
DICTIONARY
  5
17
330
C
100
AcDbDictionary
  3
STANDARD
350
18
  0
DICTIONARY
  5
19
330
C
100
AcDbDictionary
  0
ENDSEC
  0
EOF
