  0
SECTION
  2
HEADER
  9
$ACADVER
  1
AC1014
  9
$HANDSEED
  5
FFFF
  9
$MEASUREMENT
 70
     1
  0
ENDSEC
  0
SECTION
  2
TABLES
  0
TABLE
  2
VPORT
  5
8
330
0
100
AcDbSymbolTable
 70
     4
  0
VPORT
  5
2E
330
8
100
AcDbSymbolTableRecord
100
AcDbViewportTableRecord
  2
*ACTIVE
 70
     0
 10
0.0
 20
0.0
 11
1.0
 21
1.0
 12
210.0
 22
148.5
 13
0.0
 23
0.0
 14
10.0
 24
10.0
 15
10.0
 25
10.0
 16
0.0
 26
0.0
 36
1.0
 17
0.0
 27
0.0
 37
0.0
 40
341.0
 41
1.24
 42
50.0
 43
0.0
 44
0.0
 50
0.0
 51
0.0
 71
     0
 72
   100
 73
     1
 74
     3
 75
     0
 76
     0
 77
     0
 78
     0
  0
ENDTAB
  0
TABLE
  2
LTYPE
  5
5
330
0
100
AcDbSymbolTable
 70
     1
  0
LTYPE
  5
14
330
5
100
AcDbSymbolTableRecord
100
AcDbLinetypeTableRecord
  2
BYBLOCK
 70
     0
  3

 72
    65
 73
     0
 40
0.0
  0
LTYPE
  5
15
330
5
100
AcDbSymbolTableRecord
100
AcDbLinetypeTableRecord
  2
BYLAYER
 70
     0
  3

 72
    65
 73
     0
 40
0.0
  0
LTYPE
  5
16
330
5
100
AcDbSymbolTableRecord
100
AcDbLinetypeTableRecord
  2
CONTINUOUS
 70
     0
  3
Solid line
 72
    65
 73
     0
 40
0.0
  0
ENDTAB
  0
TABLE
  2
LAYER
  5
2
100
AcDbSymbolTable
 70
3
  0
LAYER
  5
50
100
AcDbSymbolTableRecord
100
AcDbLayerTableRecord
  2
0
 70
0
  6
CONTINUOUS
  0
LAYER
  5
51
100
AcDbSymbolTableRecord
100
AcDbLayerTableRecord
  2
CUTOUTS
 70
0
  6
CONTINUOUS
  0
LAYER
  5
52
100
AcDbSymbolTableRecord
100
AcDbLayerTableRecord
  2
PERIMETER
 70
0
  6
CONTINUOUS
  0
ENDTAB
  0
TABLE
  2
STYLE
  5
3
330
0
100
AcDbSymbolTable
 70
     1
  0
STYLE
  5
11
330
3
100
AcDbSymbolTableRecord
100
AcDbTextStyleTableRecord
  2
STANDARD
 70
     0
 40
0.0
 41
1.0
 50
0.0
 71
     0
 42
2.5
  3
txt
  4

  0
ENDTAB
  0
TABLE
  2
VIEW
  5
6
330
0
100
AcDbSymbolTable
 70
     0
  0
ENDTAB
  0
TABLE
  2
UCS
  5
7
330
0
100
AcDbSymbolTable
 70
     0
  0
ENDTAB
  0
TABLE
  2
APPID
  5
9
330
0
100
AcDbSymbolTable
 70
     2
  0
APPID
  5
12
330
9
100
AcDbSymbolTableRecord
100
AcDbRegAppTableRecord
  2
ACAD
 70
     0
  0
ENDTAB
  0
TABLE
  2
DIMSTYLE
  5
A
330
0
100
AcDbSymbolTable
 70
     1
  0
DIMSTYLE
105
27
330
A
100
AcDbSymbolTableRecord
100
AcDbDimStyleTableRecord
  2
ISO-25
 70
     0
  3

  4

  5

  6

  7

 40
1.0
 41
2.5
 42
0.625
 43
3.75
 44
1.25
 45
0.0
 46
0.0
 47
0.0
 48
0.0
140
2.5
141
2.5
142
0.0
143
0.03937007874016
144
1.0
145
0.0
146
1.0
147
0.625
 71
     0
 72
     0
 73
     0
 74
     0
 75
     0
 76
     0
 77
     1
 78
     8
170
     0
171
     3
172
     1
173
     0
174
     0
175
     0
176
     0
177
     0
178
     0
270
     2
271
     2
272
     2
273
     2
274
     3
340
11
275
     0
280
     0
281
     0
282
     0
283
     0
284
     8
285
     0
286
     0
287
     3
288
     0
  0
ENDTAB
  0
TABLE
  2
BLOCK_RECORD
  5
1
330
0
100
AcDbSymbolTable
 70
     1
  0
BLOCK_RECORD
  5
1F
330
1
100
AcDbSymbolTableRecord
100
AcDbBlockTableRecord
  2
*MODEL_SPACE
  0
BLOCK_RECORD
  5
1B
330
1
100
AcDbSymbolTableRecord
100
AcDbBlockTableRecord
  2
*PAPER_SPACE
  0
ENDTAB
  0
ENDSEC
  0
SECTION
  2
BLOCKS
  0
BLOCK
  5
20
330
1F
100
AcDbEntity
  8
0
100
AcDbBlockBegin
  2
*MODEL_SPACE
 70
     0
 10
0.0
 20
0.0
 30
0.0
  3
*MODEL_SPACE
  1

  0
ENDBLK
  5
21
330
1F
100
AcDbEntity
  8
0
100
AcDbBlockEnd
  0
BLOCK
  5
1C
330
1B
100
AcDbEntity
 67
     1
  8
0
100
AcDbBlockBegin
  2
*PAPER_SPACE
  1

  0
ENDBLK
  5
1D
330
1B
100
AcDbEntity
 67
     1
  8
0
100
AcDbBlockEnd
  0
ENDSEC
  0
SECTION
  2
ENTITIES
  0
SPLINE
  5
100
100
AcDbEntity
  8
CUTOUTS
 62
1
100
AcDbSpline
 70
8
 71
3
 72
8
 73
4
 74
0
 40
0
 40
0
 40
0
 40
0
 40
1
 40
1
 40
1
 40
1
 10
47.856354
 20
236.593215
 30
0.0
 10
47.856715
 20
237.281191
 30
0.0
 10
47.489891
 20
237.917062
 30
0.0
 10
46.894146
 20
238.261155
 30
0.0
  0
SPLINE
  5
101
100
AcDbEntity
  8
CUTOUTS
 62
1
100
AcDbSpline
 70
8
 71
3
 72
8
 73
4
 74
0
 40
0
 40
0
 40
0
 40
0
 40
1
 40
1
 40
1
 40
1
 10
46.894146
 20
238.261155
 30
0.0
 10
46.298401
 20
238.605247
 30
0.0
 10
45.564308
 20
238.605247
 30
0.0
 10
44.968563
 20
238.261155
 30
0.0
  0
SPLINE
  5
102
100
AcDbEntity
  8
CUTOUTS
 62
1
100
AcDbSpline
 70
8
 71
3
 72
8
 73
4
 74
0
 40
0
 40
0
 40
0
 40
0
 40
1
 40
1
 40
1
 40
1
 10
44.968563
 20
238.261155
 30
0.0
 10
44.372818
 20
237.917062
 30
0.0
 10
44.005994
 20
237.281191
 30
0.0
 10
44.006355
 20
236.593215
 30
0.0
  0
SPLINE
  5
103
100
AcDbEntity
  8
CUTOUTS
 62
1
100
AcDbSpline
 70
8
 71
3
 72
8
 73
4
 74
0
 40
0
 40
0
 40
0
 40
0
 40
1
 40
1
 40
1
 40
1
 10
44.006355
 20
236.593215
 30
0.0
 10
44.005994
 20
235.905238
 30
0.0
 10
44.372818
 20
235.269367
 30
0.0
 10
44.968563
 20
234.925275
 30
0.0
  0
SPLINE
  5
104
100
AcDbEntity
  8
CUTOUTS
 62
1
100
AcDbSpline
 70
8
 71
3
 72
8
 73
4
 74
0
 40
0
 40
0
 40
0
 40
0
 40
1
 40
1
 40
1
 40
1
 10
44.968563
 20
234.925275
 30
0.0
 10
45.564308
 20
234.581182
 30
0.0
 10
46.298401
 20
234.581182
 30
0.0
 10
46.894146
 20
234.925275
 30
0.0
  0
SPLINE
  5
105
100
AcDbEntity
  8
CUTOUTS
 62
1
100
AcDbSpline
 70
8
 71
3
 72
8
 73
4
 74
0
 40
0
 40
0
 40
0
 40
0
 40
1
 40
1
 40
1
 40
1
 10
46.894146
 20
234.925275
 30
0.0
 10
47.489891
 20
235.269367
 30
0.0
 10
47.856715
 20
235.905238
 30
0.0
 10
47.856354
 20
236.593215
 30
0.0
  0
SPLINE
  5
106
100
AcDbEntity
  8
CUTOUTS
 62
1
100
AcDbSpline
 70
8
 71
3
 72
8
 73
4
 74
0
 40
0
 40
0
 40
0
 40
0
 40
1
 40
1
 40
1
 40
1
 10
49.412123
 20
206.111714
 30
0.0
 10
49.412502
 20
206.871156
 30
0.0
 10
49.007562
 20
207.573072
 30
0.0
 10
48.349929
 20
207.952902
 30
0.0
  0
SPLINE
  5
107
100
AcDbEntity
  8
CUTOUTS
 62
1
100
AcDbSpline
 70
8
 71
3
 72
8
 73
4
 74
0
 40
0
 40
0
 40
0
 40
0
 40
1
 40
1
 40
1
 40
1
 10
48.349929
 20
207.952902
 30
0.0
 10
47.692296
 20
208.332732
 30
0.0
 10
46.881950
 20
208.332732
 30
0.0
 10
46.224317
 20
207.952902
 30
0.0
  0
SPLINE
  5
108
100
AcDbEntity
  8
CUTOUTS
 62
1
100
AcDbSpline
 70
8
 71
3
 72
8
 73
4
 74
0
 40
0
 40
0
 40
0
 40
0
 40
1
 40
1
 40
1
 40
1
 10
46.224317
 20
207.952902
 30
0.0
 10
45.566684
 20
207.573072
 30
0.0
 10
45.161744
 20
206.871156
 30
0.0
 10
45.162123
 20
206.111714
 30
0.0
  0
SPLINE
  5
109
100
AcDbEntity
  8
CUTOUTS
 62
1
100
AcDbSpline
 70
8
 71
3
 72
8
 73
4
 74
0
 40
0
 40
0
 40
0
 40
0
 40
1
 40
1
 40
1
 40
1
 10
45.162123
 20
206.111714
 30
0.0
 10
45.161744
 20
205.352273
 30
0.0
 10
45.566684
 20
204.650357
 30
0.0
 10
46.224317
 20
204.270527
 30
0.0
  0
SPLINE
  5
10a
100
AcDbEntity
  8
CUTOUTS
 62
1
100
AcDbSpline
 70
8
 71
3
 72
8
 73
4
 74
0
 40
0
 40
0
 40
0
 40
0
 40
1
 40
1
 40
1
 40
1
 10
46.224317
 20
204.270527
 30
0.0
 10
46.881950
 20
203.890696
 30
0.0
 10
47.692296
 20
203.890696
 30
0.0
 10
48.349929
 20
204.270527
 30
0.0
  0
SPLINE
  5
10b
100
AcDbEntity
  8
CUTOUTS
 62
1
100
AcDbSpline
 70
8
 71
3
 72
8
 73
4
 74
0
 40
0
 40
0
 40
0
 40
0
 40
1
 40
1
 40
1
 40
1
 10
48.349929
 20
204.270527
 30
0.0
 10
49.007562
 20
204.650357
 30
0.0
 10
49.412502
 20
205.352273
 30
0.0
 10
49.412123
 20
206.111714
 30
0.0
  0
LWPOLYLINE
  5
10c
100
AcDbEntity
  8
CUTOUTS
 62
1
100
AcDbPolyline
 90
1
 70
1
 10
47.856354
 20
236.593215
 30
0.0
  0
SPLINE
  5
10d
100
AcDbEntity
  8
CUTOUTS
 62
1
100
AcDbSpline
 70
8
 71
3
 72
8
 73
4
 74
0
 40
0
 40
0
 40
0
 40
0
 40
1
 40
1
 40
1
 40
1
 10
60.812124
 20
206.111714
 30
0.0
 10
60.812561
 20
207.121281
 30
0.0
 10
60.274215
 20
208.054346
 30
0.0
 10
59.399977
 20
208.559255
 30
0.0
  0
SPLINE
  5
10e
100
AcDbEntity
  8
CUTOUTS
 62
1
100
AcDbSpline
 70
8
 71
3
 72
8
 73
4
 74
0
 40
0
 40
0
 40
0
 40
0
 40
1
 40
1
 40
1
 40
1
 10
59.399977
 20
208.559255
 30
0.0
 10
58.525740
 20
209.064165
 30
0.0
 10
57.448509
 20
209.064165
 30
0.0
 10
56.574271
 20
208.559255
 30
0.0
  0
SPLINE
  5
10f
100
AcDbEntity
  8
CUTOUTS
 62
1
100
AcDbSpline
 70
8
 71
3
 72
8
 73
4
 74
0
 40
0
 40
0
 40
0
 40
0
 40
1
 40
1
 40
1
 40
1
 10
56.574271
 20
208.559255
 30
0.0
 10
55.700034
 20
208.054346
 30
0.0
 10
55.161688
 20
207.121281
 30
0.0
 10
55.162125
 20
206.111714
 30
0.0
  0
SPLINE
  5
110
100
AcDbEntity
  8
CUTOUTS
 62
1
100
AcDbSpline
 70
8
 71
3
 72
8
 73
4
 74
0
 40
0
 40
0
 40
0
 40
0
 40
1
 40
1
 40
1
 40
1
 10
55.162125
 20
206.111714
 30
0.0
 10
55.161688
 20
205.102148
 30
0.0
 10
55.700034
 20
204.169083
 30
0.0
 10
56.574271
 20
203.664174
 30
0.0
  0
SPLINE
  5
111
100
AcDbEntity
  8
CUTOUTS
 62
1
100
AcDbSpline
 70
8
 71
3
 72
8
 73
4
 74
0
 40
0
 40
0
 40
0
 40
0
 40
1
 40
1
 40
1
 40
1
 10
56.574271
 20
203.664174
 30
0.0
 10
57.448509
 20
203.159264
 30
0.0
 10
58.525740
 20
203.159264
 30
0.0
 10
59.399977
 20
203.664174
 30
0.0
  0
SPLINE
  5
112
100
AcDbEntity
  8
CUTOUTS
 62
1
100
AcDbSpline
 70
8
 71
3
 72
8
 73
4
 74
0
 40
0
 40
0
 40
0
 40
0
 40
1
 40
1
 40
1
 40
1
 10
59.399977
 20
203.664174
 30
0.0
 10
60.274215
 20
204.169083
 30
0.0
 10
60.812561
 20
205.102148
 30
0.0
 10
60.812124
 20
206.111714
 30
0.0
  0
LWPOLYLINE
  5
113
100
AcDbEntity
  8
CUTOUTS
 62
1
100
AcDbPolyline
 90
1
 70
1
 10
49.412123
 20
206.111714
 30
0.0
  0
SPLINE
  5
114
100
AcDbEntity
  8
CUTOUTS
 62
1
100
AcDbSpline
 70
8
 71
3
 72
8
 73
4
 74
0
 40
0
 40
0
 40
0
 40
0
 40
1
 40
1
 40
1
 40
1
 10
59.256353
 20
236.593215
 30
0.0
 10
59.256353
 20
237.531037
 30
0.0
 10
58.756031
 20
238.397620
 30
0.0
 10
57.943853
 20
238.866531
 30
0.0
  0
SPLINE
  5
115
100
AcDbEntity
  8
CUTOUTS
 62
1
100
AcDbSpline
 70
8
 71
3
 72
8
 73
4
 74
0
 40
0
 40
0
 40
0
 40
0
 40
1
 40
1
 40
1
 40
1
 10
57.943853
 20
238.866531
 30
0.0
 10
57.131675
 20
239.335442
 30
0.0
 10
56.131031
 20
239.335442
 30
0.0
 10
55.318853
 20
238.866531
 30
0.0
  0
SPLINE
  5
116
100
AcDbEntity
  8
CUTOUTS
 62
1
100
AcDbSpline
 70
8
 71
3
 72
8
 73
4
 74
0
 40
0
 40
0
 40
0
 40
0
 40
1
 40
1
 40
1
 40
1
 10
55.318853
 20
238.866531
 30
0.0
 10
54.506675
 20
238.397620
 30
0.0
 10
54.006353
 20
237.531037
 30
0.0
 10
54.006353
 20
236.593215
 30
0.0
  0
SPLINE
  5
117
100
AcDbEntity
  8
CUTOUTS
 62
1
100
AcDbSpline
 70
8
 71
3
 72
8
 73
4
 74
0
 40
0
 40
0
 40
0
 40
0
 40
1
 40
1
 40
1
 40
1
 10
54.006353
 20
236.593215
 30
0.0
 10
54.006353
 20
235.655392
 30
0.0
 10
54.506675
 20
234.788809
 30
0.0
 10
55.318853
 20
234.319898
 30
0.0
  0
SPLINE
  5
118
100
AcDbEntity
  8
CUTOUTS
 62
1
100
AcDbSpline
 70
8
 71
3
 72
8
 73
4
 74
0
 40
0
 40
0
 40
0
 40
0
 40
1
 40
1
 40
1
 40
1
 10
55.318853
 20
234.319898
 30
0.0
 10
56.131031
 20
233.850987
 30
0.0
 10
57.131675
 20
233.850987
 30
0.0
 10
57.943853
 20
234.319898
 30
0.0
  0
SPLINE
  5
119
100
AcDbEntity
  8
CUTOUTS
 62
1
100
AcDbSpline
 70
8
 71
3
 72
8
 73
4
 74
0
 40
0
 40
0
 40
0
 40
0
 40
1
 40
1
 40
1
 40
1
 10
57.943853
 20
234.319898
 30
0.0
 10
58.756031
 20
234.788809
 30
0.0
 10
59.256353
 20
235.655392
 30
0.0
 10
59.256353
 20
236.593215
 30
0.0
  0
LWPOLYLINE
  5
11a
100
AcDbEntity
  8
CUTOUTS
 62
1
100
AcDbPolyline
 90
1
 70
1
 10
60.812124
 20
206.111714
 30
0.0
  0
SPLINE
  5
11b
100
AcDbEntity
  8
CUTOUTS
 62
1
100
AcDbSpline
 70
8
 71
3
 72
8
 73
4
 74
0
 40
0
 40
0
 40
0
 40
0
 40
1
 40
1
 40
1
 40
1
 10
38.256354
 20
245.593213
 30
0.0
 10
38.256354
 20
246.280949
 30
0.0
 10
37.889452
 20
246.916443
 30
0.0
 10
37.293854
 20
247.260312
 30
0.0
  0
SPLINE
  5
11c
100
AcDbEntity
  8
CUTOUTS
 62
1
100
AcDbSpline
 70
8
 71
3
 72
8
 73
4
 74
0
 40
0
 40
0
 40
0
 40
0
 40
1
 40
1
 40
1
 40
1
 10
37.293854
 20
247.260312
 30
0.0
 10
36.698257
 20
247.604180
 30
0.0
 10
35.964451
 20
247.604180
 30
0.0
 10
35.368854
 20
247.260312
 30
0.0
  0
SPLINE
  5
11d
100
AcDbEntity
  8
CUTOUTS
 62
1
100
AcDbSpline
 70
8
 71
3
 72
8
 73
4
 74
0
 40
0
 40
0
 40
0
 40
0
 40
1
 40
1
 40
1
 40
1
 10
35.368854
 20
247.260312
 30
0.0
 10
34.773257
 20
246.916443
 30
0.0
 10
34.406354
 20
246.280949
 30
0.0
 10
34.406355
 20
245.593213
 30
0.0
  0
SPLINE
  5
11e
100
AcDbEntity
  8
CUTOUTS
 62
1
100
AcDbSpline
 70
8
 71
3
 72
8
 73
4
 74
0
 40
0
 40
0
 40
0
 40
0
 40
1
 40
1
 40
1
 40
1
 10
34.406355
 20
245.593213
 30
0.0
 10
34.406355
 20
244.905476
 30
0.0
 10
34.773258
 20
244.269982
 30
0.0
 10
35.368855
 20
243.926114
 30
0.0
  0
SPLINE
  5
11f
100
AcDbEntity
  8
CUTOUTS
 62
1
100
AcDbSpline
 70
8
 71
3
 72
8
 73
4
 74
0
 40
0
 40
0
 40
0
 40
0
 40
1
 40
1
 40
1
 40
1
 10
35.368855
 20
243.926114
 30
0.0
 10
35.964452
 20
243.582245
 30
0.0
 10
36.698258
 20
243.582245
 30
0.0
 10
37.293855
 20
243.926114
 30
0.0
  0
SPLINE
  5
120
100
AcDbEntity
  8
CUTOUTS
 62
1
100
AcDbSpline
 70
8
 71
3
 72
8
 73
4
 74
0
 40
0
 40
0
 40
0
 40
0
 40
1
 40
1
 40
1
 40
1
 10
37.293855
 20
243.926114
 30
0.0
 10
37.889452
 20
244.269982
 30
0.0
 10
38.256355
 20
244.905476
 30
0.0
 10
38.256355
 20
245.593213
 30
0.0
  0
LWPOLYLINE
  5
121
100
AcDbEntity
  8
CUTOUTS
 62
1
100
AcDbPolyline
 90
1
 70
1
 10
59.256353
 20
236.593215
 30
0.0
  0
SPLINE
  5
122
100
AcDbEntity
  8
CUTOUTS
 62
1
100
AcDbSpline
 70
8
 71
3
 72
8
 73
4
 74
0
 40
0
 40
0
 40
0
 40
0
 40
1
 40
1
 40
1
 40
1
 10
39.812124
 20
215.111715
 30
0.0
 10
39.812503
 20
215.871157
 30
0.0
 10
39.407563
 20
216.573072
 30
0.0
 10
38.749930
 20
216.952903
 30
0.0
  0
SPLINE
  5
123
100
AcDbEntity
  8
CUTOUTS
 62
1
100
AcDbSpline
 70
8
 71
3
 72
8
 73
4
 74
0
 40
0
 40
0
 40
0
 40
0
 40
1
 40
1
 40
1
 40
1
 10
38.749930
 20
216.952903
 30
0.0
 10
38.092298
 20
217.332733
 30
0.0
 10
37.281951
 20
217.332733
 30
0.0
 10
36.624318
 20
216.952903
 30
0.0
  0
SPLINE
  5
124
100
AcDbEntity
  8
CUTOUTS
 62
1
100
AcDbSpline
 70
8
 71
3
 72
8
 73
4
 74
0
 40
0
 40
0
 40
0
 40
0
 40
1
 40
1
 40
1
 40
1
 10
36.624318
 20
216.952903
 30
0.0
 10
35.966685
 20
216.573072
 30
0.0
 10
35.561746
 20
215.871157
 30
0.0
 10
35.562125
 20
215.111715
 30
0.0
  0
SPLINE
  5
125
100
AcDbEntity
  8
CUTOUTS
 62
1
100
AcDbSpline
 70
8
 71
3
 72
8
 73
4
 74
0
 40
0
 40
0
 40
0
 40
0
 40
1
 40
1
 40
1
 40
1
 10
35.562125
 20
215.111715
 30
0.0
 10
35.561746
 20
214.352273
 30
0.0
 10
35.966685
 20
213.650358
 30
0.0
 10
36.624318
 20
213.270527
 30
0.0
  0
SPLINE
  5
126
100
AcDbEntity
  8
CUTOUTS
 62
1
100
AcDbSpline
 70
8
 71
3
 72
8
 73
4
 74
0
 40
0
 40
0
 40
0
 40
0
 40
1
 40
1
 40
1
 40
1
 10
36.624318
 20
213.270527
 30
0.0
 10
37.281951
 20
212.890697
 30
0.0
 10
38.092298
 20
212.890697
 30
0.0
 10
38.749930
 20
213.270527
 30
0.0
  0
SPLINE
  5
127
100
AcDbEntity
  8
CUTOUTS
 62
1
100
AcDbSpline
 70
8
 71
3
 72
8
 73
4
 74
0
 40
0
 40
0
 40
0
 40
0
 40
1
 40
1
 40
1
 40
1
 10
38.749930
 20
213.270527
 30
0.0
 10
39.407563
 20
213.650358
 30
0.0
 10
39.812503
 20
214.352273
 30
0.0
 10
39.812124
 20
215.111715
 30
0.0
  0
LWPOLYLINE
  5
128
100
AcDbEntity
  8
CUTOUTS
 62
1
100
AcDbPolyline
 90
1
 70
1
 10
38.256355
 20
245.593213
 30
0.0
  0
SPLINE
  5
129
100
AcDbEntity
  8
CUTOUTS
 62
1
100
AcDbSpline
 70
8
 71
3
 72
8
 73
4
 74
0
 40
0
 40
0
 40
0
 40
0
 40
1
 40
1
 40
1
 40
1
 10
39.812124
 20
197.111717
 30
0.0
 10
39.812503
 20
197.871158
 30
0.0
 10
39.407563
 20
198.573074
 30
0.0
 10
38.749930
 20
198.952904
 30
0.0
  0
SPLINE
  5
12a
100
AcDbEntity
  8
CUTOUTS
 62
1
100
AcDbSpline
 70
8
 71
3
 72
8
 73
4
 74
0
 40
0
 40
0
 40
0
 40
0
 40
1
 40
1
 40
1
 40
1
 10
38.749930
 20
198.952904
 30
0.0
 10
38.092298
 20
199.332735
 30
0.0
 10
37.281951
 20
199.332735
 30
0.0
 10
36.624318
 20
198.952904
 30
0.0
  0
SPLINE
  5
12b
100
AcDbEntity
  8
CUTOUTS
 62
1
100
AcDbSpline
 70
8
 71
3
 72
8
 73
4
 74
0
 40
0
 40
0
 40
0
 40
0
 40
1
 40
1
 40
1
 40
1
 10
36.624318
 20
198.952904
 30
0.0
 10
35.966685
 20
198.573074
 30
0.0
 10
35.561746
 20
197.871158
 30
0.0
 10
35.562125
 20
197.111717
 30
0.0
  0
SPLINE
  5
12c
100
AcDbEntity
  8
CUTOUTS
 62
1
100
AcDbSpline
 70
8
 71
3
 72
8
 73
4
 74
0
 40
0
 40
0
 40
0
 40
0
 40
1
 40
1
 40
1
 40
1
 10
35.562125
 20
197.111717
 30
0.0
 10
35.561746
 20
196.352275
 30
0.0
 10
35.966685
 20
195.650359
 30
0.0
 10
36.624318
 20
195.270529
 30
0.0
  0
SPLINE
  5
12d
100
AcDbEntity
  8
CUTOUTS
 62
1
100
AcDbSpline
 70
8
 71
3
 72
8
 73
4
 74
0
 40
0
 40
0
 40
0
 40
0
 40
1
 40
1
 40
1
 40
1
 10
36.624318
 20
195.270529
 30
0.0
 10
37.281951
 20
194.890699
 30
0.0
 10
38.092298
 20
194.890699
 30
0.0
 10
38.749930
 20
195.270529
 30
0.0
  0
SPLINE
  5
12e
100
AcDbEntity
  8
CUTOUTS
 62
1
100
AcDbSpline
 70
8
 71
3
 72
8
 73
4
 74
0
 40
0
 40
0
 40
0
 40
0
 40
1
 40
1
 40
1
 40
1
 10
38.749930
 20
195.270529
 30
0.0
 10
39.407563
 20
195.650359
 30
0.0
 10
39.812503
 20
196.352275
 30
0.0
 10
39.812124
 20
197.111717
 30
0.0
  0
LWPOLYLINE
  5
12f
100
AcDbEntity
  8
CUTOUTS
 62
1
100
AcDbPolyline
 90
1
 70
1
 10
39.812124
 20
215.111715
 30
0.0
  0
SPLINE
  5
130
100
AcDbEntity
  8
CUTOUTS
 62
1
100
AcDbSpline
 70
8
 71
3
 72
8
 73
4
 74
0
 40
0
 40
0
 40
0
 40
0
 40
1
 40
1
 40
1
 40
1
 10
38.256354
 20
227.593214
 30
0.0
 10
38.256354
 20
228.280950
 30
0.0
 10
37.889452
 20
228.916445
 30
0.0
 10
37.293854
 20
229.260313
 30
0.0
  0
SPLINE
  5
131
100
AcDbEntity
  8
CUTOUTS
 62
1
100
AcDbSpline
 70
8
 71
3
 72
8
 73
4
 74
0
 40
0
 40
0
 40
0
 40
0
 40
1
 40
1
 40
1
 40
1
 10
37.293854
 20
229.260313
 30
0.0
 10
36.698257
 20
229.604181
 30
0.0
 10
35.964451
 20
229.604181
 30
0.0
 10
35.368854
 20
229.260313
 30
0.0
  0
SPLINE
  5
132
100
AcDbEntity
  8
CUTOUTS
 62
1
100
AcDbSpline
 70
8
 71
3
 72
8
 73
4
 74
0
 40
0
 40
0
 40
0
 40
0
 40
1
 40
1
 40
1
 40
1
 10
35.368854
 20
229.260313
 30
0.0
 10
34.773257
 20
228.916445
 30
0.0
 10
34.406354
 20
228.280950
 30
0.0
 10
34.406355
 20
227.593214
 30
0.0
  0
SPLINE
  5
133
100
AcDbEntity
  8
CUTOUTS
 62
1
100
AcDbSpline
 70
8
 71
3
 72
8
 73
4
 74
0
 40
0
 40
0
 40
0
 40
0
 40
1
 40
1
 40
1
 40
1
 10
34.406355
 20
227.593214
 30
0.0
 10
34.406355
 20
226.905478
 30
0.0
 10
34.773258
 20
226.269983
 30
0.0
 10
35.368855
 20
225.926115
 30
0.0
  0
SPLINE
  5
134
100
AcDbEntity
  8
CUTOUTS
 62
1
100
AcDbSpline
 70
8
 71
3
 72
8
 73
4
 74
0
 40
0
 40
0
 40
0
 40
0
 40
1
 40
1
 40
1
 40
1
 10
35.368855
 20
225.926115
 30
0.0
 10
35.964452
 20
225.582247
 30
0.0
 10
36.698258
 20
225.582247
 30
0.0
 10
37.293855
 20
225.926115
 30
0.0
  0
SPLINE
  5
135
100
AcDbEntity
  8
CUTOUTS
 62
1
100
AcDbSpline
 70
8
 71
3
 72
8
 73
4
 74
0
 40
0
 40
0
 40
0
 40
0
 40
1
 40
1
 40
1
 40
1
 10
37.293855
 20
225.926115
 30
0.0
 10
37.889452
 20
226.269983
 30
0.0
 10
38.256355
 20
226.905478
 30
0.0
 10
38.256355
 20
227.593214
 30
0.0
  0
LWPOLYLINE
  5
136
100
AcDbEntity
  8
CUTOUTS
 62
1
100
AcDbPolyline
 90
1
 70
1
 10
39.812124
 20
197.111717
 30
0.0
  0
SPLINE
  5
137
100
AcDbEntity
  8
CUTOUTS
 62
1
100
AcDbSpline
 70
8
 71
3
 72
8
 73
4
 74
0
 40
0
 40
0
 40
0
 40
0
 40
1
 40
1
 40
1
 40
1
 10
13.056354
 20
286.593214
 30
0.0
 10
13.056354
 20
287.102317
 30
0.0
 10
12.784751
 20
287.572748
 30
0.0
 10
12.343854
 20
287.827300
 30
0.0
  0
SPLINE
  5
138
100
AcDbEntity
  8
CUTOUTS
 62
1
100
AcDbSpline
 70
8
 71
3
 72
8
 73
4
 74
0
 40
0
 40
0
 40
0
 40
0
 40
1
 40
1
 40
1
 40
1
 10
12.343854
 20
287.827300
 30
0.0
 10
11.902958
 20
288.081852
 30
0.0
 10
11.359751
 20
288.081852
 30
0.0
 10
10.918854
 20
287.827300
 30
0.0
  0
SPLINE
  5
139
100
AcDbEntity
  8
CUTOUTS
 62
1
100
AcDbSpline
 70
8
 71
3
 72
8
 73
4
 74
0
 40
0
 40
0
 40
0
 40
0
 40
1
 40
1
 40
1
 40
1
 10
10.918854
 20
287.827300
 30
0.0
 10
10.477958
 20
287.572748
 30
0.0
 10
10.206354
 20
287.102317
 30
0.0
 10
10.206354
 20
286.593214
 30
0.0
  0
SPLINE
  5
13a
100
AcDbEntity
  8
CUTOUTS
 62
1
100
AcDbSpline
 70
8
 71
3
 72
8
 73
4
 74
0
 40
0
 40
0
 40
0
 40
0
 40
1
 40
1
 40
1
 40
1
 10
10.206354
 20
286.593214
 30
0.0
 10
10.206354
 20
286.084110
 30
0.0
 10
10.477958
 20
285.613679
 30
0.0
 10
10.918854
 20
285.359127
 30
0.0
  0
SPLINE
  5
13b
100
AcDbEntity
  8
CUTOUTS
 62
1
100
AcDbSpline
 70
8
 71
3
 72
8
 73
4
 74
0
 40
0
 40
0
 40
0
 40
0
 40
1
 40
1
 40
1
 40
1
 10
10.918854
 20
285.359127
 30
0.0
 10
11.359751
 20
285.104576
 30
0.0
 10
11.902958
 20
285.104576
 30
0.0
 10
12.343854
 20
285.359127
 30
0.0
  0
SPLINE
  5
13c
100
AcDbEntity
  8
CUTOUTS
 62
1
100
AcDbSpline
 70
8
 71
3
 72
8
 73
4
 74
0
 40
0
 40
0
 40
0
 40
0
 40
1
 40
1
 40
1
 40
1
 10
12.343854
 20
285.359127
 30
0.0
 10
12.784751
 20
285.613679
 30
0.0
 10
13.056354
 20
286.084110
 30
0.0
 10
13.056354
 20
286.593214
 30
0.0
  0
LWPOLYLINE
  5
13d
100
AcDbEntity
  8
CUTOUTS
 62
1
100
AcDbPolyline
 90
1
 70
1
 10
38.256355
 20
227.593214
 30
0.0
  0
SPLINE
  5
13e
100
AcDbEntity
  8
CUTOUTS
 62
1
100
AcDbSpline
 70
8
 71
3
 72
8
 73
4
 74
0
 40
0
 40
0
 40
0
 40
0
 40
1
 40
1
 40
1
 40
1
 10
103.056354
 20
186.593214
 30
0.0
 10
103.056793
 20
187.102610
 30
0.0
 10
102.785286
 20
187.573499
 30
0.0
 10
102.344209
 20
187.828324
 30
0.0
  0
SPLINE
  5
13f
100
AcDbEntity
  8
CUTOUTS
 62
1
100
AcDbSpline
 70
8
 71
3
 72
8
 73
4
 74
0
 40
0
 40
0
 40
0
 40
0
 40
1
 40
1
 40
1
 40
1
 10
102.344209
 20
187.828324
 30
0.0
 10
101.903132
 20
188.083148
 30
0.0
 10
101.359577
 20
188.083148
 30
0.0
 10
100.918500
 20
187.828324
 30
0.0
  0
SPLINE
  5
140
100
AcDbEntity
  8
CUTOUTS
 62
1
100
AcDbSpline
 70
8
 71
3
 72
8
 73
4
 74
0
 40
0
 40
0
 40
0
 40
0
 40
1
 40
1
 40
1
 40
1
 10
100.918500
 20
187.828324
 30
0.0
 10
100.477423
 20
187.573499
 30
0.0
 10
100.205916
 20
187.102610
 30
0.0
 10
100.206355
 20
186.593214
 30
0.0
  0
SPLINE
  5
141
100
AcDbEntity
  8
CUTOUTS
 62
1
100
AcDbSpline
 70
8
 71
3
 72
8
 73
4
 74
0
 40
0
 40
0
 40
0
 40
0
 40
1
 40
1
 40
1
 40
1
 10
100.206355
 20
186.593214
 30
0.0
 10
100.205916
 20
186.083818
 30
0.0
 10
100.477423
 20
185.612929
 30
0.0
 10
100.918500
 20
185.358105
 30
0.0
  0
SPLINE
  5
142
100
AcDbEntity
  8
CUTOUTS
 62
1
100
AcDbSpline
 70
8
 71
3
 72
8
 73
4
 74
0
 40
0
 40
0
 40
0
 40
0
 40
1
 40
1
 40
1
 40
1
 10
100.918500
 20
185.358105
 30
0.0
 10
101.359577
 20
185.103280
 30
0.0
 10
101.903132
 20
185.103280
 30
0.0
 10
102.344209
 20
185.358105
 30
0.0
  0
SPLINE
  5
143
100
AcDbEntity
  8
CUTOUTS
 62
1
100
AcDbSpline
 70
8
 71
3
 72
8
 73
4
 74
0
 40
0
 40
0
 40
0
 40
0
 40
1
 40
1
 40
1
 40
1
 10
102.344209
 20
185.358105
 30
0.0
 10
102.785286
 20
185.612929
 30
0.0
 10
103.056793
 20
186.083818
 30
0.0
 10
103.056354
 20
186.593214
 30
0.0
  0
LWPOLYLINE
  5
144
100
AcDbEntity
  8
CUTOUTS
 62
1
100
AcDbPolyline
 90
1
 70
1
 10
13.056354
 20
286.593214
 30
0.0
  0
SPLINE
  5
145
100
AcDbEntity
  8
CUTOUTS
 62
1
100
AcDbSpline
 70
8
 71
3
 72
8
 73
4
 74
0
 40
0
 40
0
 40
0
 40
0
 40
1
 40
1
 40
1
 40
1
 10
13.056354
 20
186.593214
 30
0.0
 10
13.056354
 20
187.102318
 30
0.0
 10
12.784751
 20
187.572749
 30
0.0
 10
12.343854
 20
187.827300
 30
0.0
  0
SPLINE
  5
146
100
AcDbEntity
  8
CUTOUTS
 62
1
100
AcDbSpline
 70
8
 71
3
 72
8
 73
4
 74
0
 40
0
 40
0
 40
0
 40
0
 40
1
 40
1
 40
1
 40
1
 10
12.343854
 20
187.827300
 30
0.0
 10
11.902958
 20
188.081852
 30
0.0
 10
11.359751
 20
188.081852
 30
0.0
 10
10.918854
 20
187.827300
 30
0.0
  0
SPLINE
  5
147
100
AcDbEntity
  8
CUTOUTS
 62
1
100
AcDbSpline
 70
8
 71
3
 72
8
 73
4
 74
0
 40
0
 40
0
 40
0
 40
0
 40
1
 40
1
 40
1
 40
1
 10
10.918854
 20
187.827300
 30
0.0
 10
10.477958
 20
187.572749
 30
0.0
 10
10.206354
 20
187.102318
 30
0.0
 10
10.206354
 20
186.593214
 30
0.0
  0
SPLINE
  5
148
100
AcDbEntity
  8
CUTOUTS
 62
1
100
AcDbSpline
 70
8
 71
3
 72
8
 73
4
 74
0
 40
0
 40
0
 40
0
 40
0
 40
1
 40
1
 40
1
 40
1
 10
10.206354
 20
186.593214
 30
0.0
 10
10.206354
 20
186.084111
 30
0.0
 10
10.477958
 20
185.613680
 30
0.0
 10
10.918854
 20
185.359128
 30
0.0
  0
SPLINE
  5
149
100
AcDbEntity
  8
CUTOUTS
 62
1
100
AcDbSpline
 70
8
 71
3
 72
8
 73
4
 74
0
 40
0
 40
0
 40
0
 40
0
 40
1
 40
1
 40
1
 40
1
 10
10.918854
 20
185.359128
 30
0.0
 10
11.359751
 20
185.104576
 30
0.0
 10
11.902958
 20
185.104576
 30
0.0
 10
12.343854
 20
185.359128
 30
0.0
  0
SPLINE
  5
14a
100
AcDbEntity
  8
CUTOUTS
 62
1
100
AcDbSpline
 70
8
 71
3
 72
8
 73
4
 74
0
 40
0
 40
0
 40
0
 40
0
 40
1
 40
1
 40
1
 40
1
 10
12.343854
 20
185.359128
 30
0.0
 10
12.784751
 20
185.613680
 30
0.0
 10
13.056354
 20
186.084111
 30
0.0
 10
13.056354
 20
186.593214
 30
0.0
  0
LWPOLYLINE
  5
14b
100
AcDbEntity
  8
CUTOUTS
 62
1
100
AcDbPolyline
 90
1
 70
1
 10
103.056354
 20
186.593214
 30
0.0
  0
SPLINE
  5
14c
100
AcDbEntity
  8
CUTOUTS
 62
1
100
AcDbSpline
 70
8
 71
3
 72
8
 73
4
 74
0
 40
0
 40
0
 40
0
 40
0
 40
1
 40
1
 40
1
 40
1
 10
103.056354
 20
286.593214
 30
0.0
 10
103.056793
 20
287.102609
 30
0.0
 10
102.785286
 20
287.573498
 30
0.0
 10
102.344209
 20
287.828323
 30
0.0
  0
SPLINE
  5
14d
100
AcDbEntity
  8
CUTOUTS
 62
1
100
AcDbSpline
 70
8
 71
3
 72
8
 73
4
 74
0
 40
0
 40
0
 40
0
 40
0
 40
1
 40
1
 40
1
 40
1
 10
102.344209
 20
287.828323
 30
0.0
 10
101.903132
 20
288.083148
 30
0.0
 10
101.359577
 20
288.083148
 30
0.0
 10
100.918500
 20
287.828323
 30
0.0
  0
SPLINE
  5
14e
100
AcDbEntity
  8
CUTOUTS
 62
1
100
AcDbSpline
 70
8
 71
3
 72
8
 73
4
 74
0
 40
0
 40
0
 40
0
 40
0
 40
1
 40
1
 40
1
 40
1
 10
100.918500
 20
287.828323
 30
0.0
 10
100.477423
 20
287.573498
 30
0.0
 10
100.205916
 20
287.102609
 30
0.0
 10
100.206355
 20
286.593214
 30
0.0
  0
SPLINE
  5
14f
100
AcDbEntity
  8
CUTOUTS
 62
1
100
AcDbSpline
 70
8
 71
3
 72
8
 73
4
 74
0
 40
0
 40
0
 40
0
 40
0
 40
1
 40
1
 40
1
 40
1
 10
100.206355
 20
286.593214
 30
0.0
 10
100.205916
 20
286.083818
 30
0.0
 10
100.477423
 20
285.612929
 30
0.0
 10
100.918500
 20
285.358104
 30
0.0
  0
SPLINE
  5
150
100
AcDbEntity
  8
CUTOUTS
 62
1
100
AcDbSpline
 70
8
 71
3
 72
8
 73
4
 74
0
 40
0
 40
0
 40
0
 40
0
 40
1
 40
1
 40
1
 40
1
 10
100.918500
 20
285.358104
 30
0.0
 10
101.359577
 20
285.103279
 30
0.0
 10
101.903132
 20
285.103279
 30
0.0
 10
102.344209
 20
285.358104
 30
0.0
  0
SPLINE
  5
151
100
AcDbEntity
  8
CUTOUTS
 62
1
100
AcDbSpline
 70
8
 71
3
 72
8
 73
4
 74
0
 40
0
 40
0
 40
0
 40
0
 40
1
 40
1
 40
1
 40
1
 10
102.344209
 20
285.358104
 30
0.0
 10
102.785286
 20
285.612929
 30
0.0
 10
103.056793
 20
286.083818
 30
0.0
 10
103.056354
 20
286.593214
 30
0.0
  0
LWPOLYLINE
  5
152
100
AcDbEntity
  8
CUTOUTS
 62
1
100
AcDbPolyline
 90
1
 70
1
 10
13.056354
 20
186.593214
 30
0.0
  0
LWPOLYLINE
  5
153
100
AcDbEntity
  8
CUTOUTS
 62
1
100
AcDbPolyline
 90
1
 70
1
 10
103.056354
 20
286.593214
 30
0.0
  0
LWPOLYLINE
  5
154
100
AcDbEntity
  8
CUTOUTS
 62
1
100
AcDbPolyline
 90
4
 70
1
 10
28.399624
 20
209.161715
 30
0.0
 10
28.399624
 20
203.061717
 30
0.0
 10
25.674624
 20
203.061717
 30
0.0
 10
25.674624
 20
209.161715
 30
0.0
  0
LWPOLYLINE
  5
155
100
AcDbEntity
  8
CUTOUTS
 62
1
100
AcDbPolyline
 90
4
 70
1
 10
24.318854
 20
239.643215
 30
0.0
 10
27.043854
 20
239.643215
 30
0.0
 10
27.043854
 20
233.543214
 30
0.0
 10
24.318854
 20
233.543214
 30
0.0
  0
SPLINE
  5
156
100
AcDbEntity
  8
PERIMETER
 62
1
100
AcDbSpline
 70
8
 71
3
 72
8
 73
4
 74
0
 40
0
 40
0
 40
0
 40
0
 40
1
 40
1
 40
1
 40
1
 10
96.556909
 20
186.518213
 30
0.0
 10
96.598044
 20
183.735179
 30
0.0
 10
98.873053
 20
181.504564
 30
0.0
 10
101.656357
 20
181.518276
 30
0.0
  0
SPLINE
  5
157
100
AcDbEntity
  8
PERIMETER
 62
1
100
AcDbSpline
 70
8
 71
3
 72
8
 73
4
 74
0
 40
0
 40
0
 40
0
 40
0
 40
1
 40
1
 40
1
 40
1
 10
101.656357
 20
181.518276
 30
0.0
 10
104.439661
 20
181.531989
 30
0.0
 10
106.692582
 20
183.784911
 30
0.0
 10
106.706293
 20
186.568215
 30
0.0
  0
SPLINE
  5
158
100
AcDbEntity
  8
PERIMETER
 62
1
100
AcDbSpline
 70
8
 71
3
 72
8
 73
4
 74
0
 40
0
 40
0
 40
0
 40
0
 40
1
 40
1
 40
1
 40
1
 10
106.706293
 20
186.568215
 30
0.0
 10
106.720004
 20
189.351519
 30
0.0
 10
104.489388
 20
191.626528
 30
0.0
 10
101.706355
 20
191.667661
 30
0.0
  0
LWPOLYLINE
  5
159
100
AcDbEntity
  8
PERIMETER
 62
1
100
AcDbPolyline
 90
2
 70
0
 10
16.705800
 20
186.518213
 30
0.0
 10
96.556909
 20
186.518213
 30
0.0
  0
SPLINE
  5
15a
100
AcDbEntity
  8
PERIMETER
 62
1
100
AcDbSpline
 70
8
 71
3
 72
8
 73
4
 74
0
 40
0
 40
0
 40
0
 40
0
 40
1
 40
1
 40
1
 40
1
 10
101.706355
 20
281.518768
 30
0.0
 10
104.489389
 20
281.559901
 30
0.0
 10
106.720005
 20
283.834910
 30
0.0
 10
106.706293
 20
286.618214
 30
0.0
  0
SPLINE
  5
15b
100
AcDbEntity
  8
PERIMETER
 62
1
100
AcDbSpline
 70
8
 71
3
 72
8
 73
4
 74
0
 40
0
 40
0
 40
0
 40
0
 40
1
 40
1
 40
1
 40
1
 10
106.706293
 20
286.618214
 30
0.0
 10
106.692582
 20
289.401518
 30
0.0
 10
104.439660
 20
291.654440
 30
0.0
 10
101.656356
 20
291.668152
 30
0.0
  0
SPLINE
  5
15c
100
AcDbEntity
  8
PERIMETER
 62
1
100
AcDbSpline
 70
8
 71
3
 72
8
 73
4
 74
0
 40
0
 40
0
 40
0
 40
0
 40
1
 40
1
 40
1
 40
1
 10
101.656356
 20
291.668152
 30
0.0
 10
98.873052
 20
291.681863
 30
0.0
 10
96.598042
 20
289.451248
 30
0.0
 10
96.556909
 20
286.668213
 30
0.0
  0
LWPOLYLINE
  5
15d
100
AcDbEntity
  8
PERIMETER
 62
1
100
AcDbPolyline
 90
2
 70
0
 10
101.706355
 20
191.667661
 30
0.0
 10
101.706355
 20
281.518768
 30
0.0
  0
SPLINE
  5
15e
100
AcDbEntity
  8
PERIMETER
 62
1
100
AcDbSpline
 70
8
 71
3
 72
8
 73
4
 74
0
 40
0
 40
0
 40
0
 40
0
 40
1
 40
1
 40
1
 40
1
 10
16.705800
 20
286.668213
 30
0.0
 10
16.664667
 20
289.451247
 30
0.0
 10
14.389658
 20
291.681863
 30
0.0
 10
11.606354
 20
291.668152
 30
0.0
  0
SPLINE
  5
15f
100
AcDbEntity
  8
PERIMETER
 62
1
100
AcDbSpline
 70
8
 71
3
 72
8
 73
4
 74
0
 40
0
 40
0
 40
0
 40
0
 40
1
 40
1
 40
1
 40
1
 10
11.606354
 20
291.668152
 30
0.0
 10
8.823050
 20
291.654440
 30
0.0
 10
6.570128
 20
289.401519
 30
0.0
 10
6.556416
 20
286.618214
 30
0.0
  0
SPLINE
  5
160
100
AcDbEntity
  8
PERIMETER
 62
1
100
AcDbSpline
 70
8
 71
3
 72
8
 73
4
 74
0
 40
0
 40
0
 40
0
 40
0
 40
1
 40
1
 40
1
 40
1
 10
6.556416
 20
286.618214
 30
0.0
 10
6.542705
 20
283.834910
 30
0.0
 10
8.773320
 20
281.559901
 30
0.0
 10
11.556354
 20
281.518768
 30
0.0
  0
LWPOLYLINE
  5
161
100
AcDbEntity
  8
PERIMETER
 62
1
100
AcDbPolyline
 90
2
 70
0
 10
96.556909
 20
286.668213
 30
0.0
 10
16.705800
 20
286.668213
 30
0.0
  0
SPLINE
  5
162
100
AcDbEntity
  8
PERIMETER
 62
1
100
AcDbSpline
 70
8
 71
3
 72
8
 73
4
 74
0
 40
0
 40
0
 40
0
 40
0
 40
1
 40
1
 40
1
 40
1
 10
11.556354
 20
191.667661
 30
0.0
 10
8.773320
 20
191.626527
 30
0.0
 10
6.542705
 20
189.351518
 30
0.0
 10
6.556416
 20
186.568215
 30
0.0
  0
SPLINE
  5
163
100
AcDbEntity
  8
PERIMETER
 62
1
100
AcDbSpline
 70
8
 71
3
 72
8
 73
4
 74
0
 40
0
 40
0
 40
0
 40
0
 40
1
 40
1
 40
1
 40
1
 10
6.556416
 20
186.568215
 30
0.0
 10
6.570127
 20
183.784911
 30
0.0
 10
8.823048
 20
181.531989
 30
0.0
 10
11.606352
 20
181.518277
 30
0.0
  0
SPLINE
  5
164
100
AcDbEntity
  8
PERIMETER
 62
1
100
AcDbSpline
 70
8
 71
3
 72
8
 73
4
 74
0
 40
0
 40
0
 40
0
 40
0
 40
1
 40
1
 40
1
 40
1
 10
11.606352
 20
181.518277
 30
0.0
 10
14.389656
 20
181.504564
 30
0.0
 10
16.664666
 20
183.735179
 30
0.0
 10
16.705800
 20
186.518213
 30
0.0
  0
LWPOLYLINE
  5
165
100
AcDbEntity
  8
PERIMETER
 62
1
100
AcDbPolyline
 90
2
 70
0
 10
11.556354
 20
281.518768
 30
0.0
 10
11.556354
 20
191.667661
 30
0.0
  0
ENDSEC
  0
SECTION
  2
OBJECTS
  0
DICTIONARY
  5
C
330
0
100
AcDbDictionary
  3
ACAD_GROUP
350
D
  3
ACAD_MLINESTYLE
350
17
  0
DICTIONARY
  5
D
330
C
100
AcDbDictionary
  0
DICTIONARY
  5
1A
330
C
100
AcDbDictionary
  0
DICTIONARY
  5
17
330
C
100
AcDbDictionary
  3
STANDARD
350
18
  0
DICTIONARY
  5
19
330
C
100
AcDbDictionary
  0
ENDSEC
  0
EOF
