0
SECTION
2
HEADER
9
$INSUNITS
70
4
9
$ACADVER
1
AC1014
9
$HANDSEED
5
FFFF
0
ENDSEC
0
SECTION
2
TABLES
0
TABLE
2
VPORT
5
8
100
AcDbSymbolTable
0
ENDTAB
0
TABLE
2
LTYPE
5
5
100
AcDbSymbolTable
70
2
0
LTYPE
5
14
100
AcDbSymbolTableRecord
100
AcDbLinetypeTableRecord
2
BYBLOCK
70
0
0
LTYPE
5
15
100
AcDbSymbolTableRecord
100
AcDbLinetypeTableRecord
2
BYLAYER
70
0
0
ENDTAB
0
TABLE
2
LAYER
5
2
100
AcDbSymbolTable
70
3
0
LAYER
5
50
100
AcDbSymbolTableRecord
100
AcDbLayerTableRecord
2
0
70
0
6
CONTINUOUS
0
LAYER
5
51
100
AcDbSymbolTableRecord
100
AcDbLayerTableRecord
2
CUTOUTS
70
0
62
1
6
CONTINUOUS
0
LAYER
5
52
100
AcDbSymbolTableRecord
100
AcDbLayerTableRecord
2
PERIMETER
70
0
62
5
6
CONTINUOUS
0
ENDTAB
0
TABLE
2
STYLE
5
3
100
AcDbSymbolTable
70
1
0
STYLE
5
11
100
AcDbSymbolTableRecord
100
AcDbTextStyleTableRecord
2
STANDARD
70
0
0
ENDTAB
0
TABLE
2
VIEW
5
6
100
AcDbSymbolTable
0
ENDTAB
0
TABLE
2
UCS
5
7
100
AcDbSymbolTable
0
ENDTAB
0
TABLE
2
APPID
5
9
100
AcDbSymbolTable
70
1
0
APPID
5
12
100
AcDbSymbolTableRecord
100
AcDbRegAppTableRecord
2
ACAD
70
0
0
ENDTAB
0
TABLE
2
DIMSTYLE
5
A
100
AcDbSymbolTable
0
ENDTAB
0
TABLE
2
BLOCK_RECORD
5
1
100
AcDbSymbolTable
70
2
0
BLOCK_RECORD
5
1F
100
AcDbSymbolTableRecord
100
AcDbBlockTableRecord
2
*MODEL_SPACE
0
BLOCK_RECORD
5
1B
100
AcDbSymbolTableRecord
100
AcDbBlockTableRecord
2
*PAPER_SPACE
0
ENDTAB
0
ENDSEC
0
SECTION
2
BLOCKS
0
BLOCK
5
20
100
AcDbEntity
100
AcDbBlockBegin
2
*MODEL_SPACE
0
ENDBLK
5
21
100
AcDbEntity
100
AcDbBlockEnd
0
BLOCK
5
1C
100
AcDbEntity
100
AcDbBlockBegin
2
*PAPER_SPACE
0
ENDBLK
5
1D
100
AcDbEntity
100
AcDbBlockEnd
0
ENDSEC
0
SECTION
2
ENTITIES
0
CIRCLE
5
100
100
AcDbEntity
8
CUTOUTS
100
AcDbCircle
10
-26.99999999999995
20
32.499999999999979
30
9.0205620750793843e-15
40
1.9250000000000034
210
0
220
0
230
1
0
CIRCLE
5
101
100
AcDbEntity
8
CUTOUTS
100
AcDbCircle
10
53.00000000000005
20
32.499999999999979
30
9.0205620750793843e-15
40
1.9249999999999989
210
0
220
0
230
1
0
CIRCLE
5
102
100
AcDbEntity
8
CUTOUTS
100
AcDbCircle
10
-26.99999999999995
20
-32.500000000000028
30
-9.0205620750794e-15
40
1.9250000000000034
210
0
220
0
230
1
0
CIRCLE
5
103
100
AcDbEntity
8
CUTOUTS
100
AcDbCircle
10
53.00000000000005
20
-32.500000000000028
30
-9.0205620750794e-15
40
1.9249999999999989
210
0
220
0
230
1
0
CIRCLE
5
104
100
AcDbEntity
8
CUTOUTS
100
AcDbCircle
10
60.000000000000057
20
-20.000000000000018
30
-5.5511151231257859e-15
40
1.4249999999999918
210
0
220
0
230
1
0
CIRCLE
5
105
100
AcDbEntity
8
CUTOUTS
100
AcDbCircle
10
60.000000000000057
20
19.999999999999982
30
5.551115123125774e-15
40
1.4249999999999918
210
0
220
0
230
1
0
CIRCLE
5
106
100
AcDbEntity
8
CUTOUTS
100
AcDbCircle
10
-66.499999999999929
20
-42.000000000000028
30
-1.1657341758564145e-14
40
1.4250000000000007
210
0
220
0
230
1
0
CIRCLE
5
107
100
AcDbEntity
8
CUTOUTS
100
AcDbCircle
10
66.500000000000071
20
-42.000000000000028
30
-1.1657341758564145e-14
40
1.4250000000000007
210
0
220
0
230
1
0
CIRCLE
5
108
100
AcDbEntity
8
CUTOUTS
100
AcDbCircle
10
66.500000000000085
20
41.999999999999993
30
1.1657341758564136e-14
40
1.4250000000000007
210
0
220
0
230
1
0
CIRCLE
5
109
100
AcDbEntity
8
CUTOUTS
100
AcDbCircle
10
-66.499999999999943
20
42.000000000000021
30
1.1657341758564142e-14
40
1.4250000000000007
210
0
220
0
230
1
0
LINE
5
10A
100
AcDbEntity
8
CUTOUTS
100
AcDbLine
10
35.075000000000024
20
-42.525000000000006
30
-4.9303806576313588e-31
11
35.075000000000024
21
-39.57500000000001
31
-4.9303806576313588e-31
0
LINE
5
10B
100
AcDbEntity
8
CUTOUTS
100
AcDbLine
10
35.075000000000024
20
-39.57500000000001
30
-4.9303806576313588e-31
11
59.925000000000026
21
-39.57500000000001
31
-4.9303806576313588e-31
0
LINE
5
10C
100
AcDbEntity
8
CUTOUTS
100
AcDbLine
10
59.925000000000026
20
-39.57500000000001
30
-4.9303806576313588e-31
11
59.925000000000026
21
-42.525000000000006
31
-4.9303806576313588e-31
0
LINE
5
10D
100
AcDbEntity
8
CUTOUTS
100
AcDbLine
10
59.925000000000026
20
-42.525000000000006
30
-4.9303806576313588e-31
11
35.075000000000024
21
-42.525000000000006
31
-4.9303806576313588e-31
0
LINE
5
10E
100
AcDbEntity
8
CUTOUTS
100
AcDbLine
10
-12.424999999999953
20
-42.525000000000055
30
-4.9303806576313588e-31
11
-12.424999999999958
21
-39.575000000000045
31
-4.9303806576313588e-31
0
LINE
5
10F
100
AcDbEntity
8
CUTOUTS
100
AcDbLine
10
-12.424999999999958
20
-39.575000000000045
30
-4.9303806576313588e-31
11
12.42500000000005
21
-39.575000000000053
31
-4.9303806576313588e-31
0
LINE
5
110
100
AcDbEntity
8
CUTOUTS
100
AcDbLine
10
12.42500000000005
20
-39.575000000000053
30
-4.9303806576313588e-31
11
12.425000000000049
21
-42.525000000000055
31
-4.9303806576313588e-31
0
LINE
5
111
100
AcDbEntity
8
CUTOUTS
100
AcDbLine
10
12.425000000000049
20
-42.525000000000055
30
-4.9303806576313588e-31
11
-12.424999999999955
21
-42.525000000000055
31
-4.9303806576313588e-31
0
LINE
5
112
100
AcDbEntity
8
CUTOUTS
100
AcDbLine
10
-57.716357218571048
20
-39.575000000000045
30
-4.9303806576313588e-31
11
-32.866357218571054
21
-39.575000000000045
31
-4.9303806576313588e-31
0
LINE
5
113
100
AcDbEntity
8
CUTOUTS
100
AcDbLine
10
-32.866357218571054
20
-39.575000000000045
30
-4.9303806576313588e-31
11
-32.866357218571054
21
-42.52500000000002
31
-4.9303806576313588e-31
0
LINE
5
114
100
AcDbEntity
8
CUTOUTS
100
AcDbLine
10
-32.866357218571054
20
-42.52500000000002
30
-4.9303806576313588e-31
11
-57.716357218571048
21
-42.52500000000002
31
-4.9303806576313588e-31
0
LINE
5
115
100
AcDbEntity
8
CUTOUTS
100
AcDbLine
10
-57.716357218571048
20
-42.52500000000002
30
-4.9303806576313588e-31
11
-57.716357218571048
21
-39.575000000000045
31
-4.9303806576313588e-31
0
LINE
5
116
100
AcDbEntity
8
CUTOUTS
100
AcDbLine
10
-57.716357218571048
20
42.52499999999997
30
1.4791141972893936e-30
11
-32.866357218571054
21
42.52499999999997
31
1.4791141972893936e-30
0
LINE
5
117
100
AcDbEntity
8
CUTOUTS
100
AcDbLine
10
-32.866357218571054
20
42.52499999999997
30
1.4791141972893936e-30
11
-32.866357218571054
21
39.574999999999974
31
1.4791141972893936e-30
0
LINE
5
118
100
AcDbEntity
8
CUTOUTS
100
AcDbLine
10
-32.866357218571054
20
39.574999999999974
30
1.4791141972893936e-30
11
-57.716357218571048
21
39.574999999999974
31
1.4791141972893936e-30
0
LINE
5
119
100
AcDbEntity
8
CUTOUTS
100
AcDbLine
10
-57.716357218571048
20
39.574999999999974
30
1.4791141972893936e-30
11
-57.716357218571048
21
42.52499999999997
31
1.4791141972893936e-30
0
LINE
5
11A
100
AcDbEntity
8
CUTOUTS
100
AcDbLine
10
35.075000000000045
20
42.524999999999977
30
-4.9303806576313588e-31
11
59.925000000000054
21
42.524999999999977
31
-4.9303806576313588e-31
0
LINE
5
11B
100
AcDbEntity
8
CUTOUTS
100
AcDbLine
10
59.925000000000054
20
42.524999999999977
30
-4.9303806576313588e-31
11
59.92500000000004
21
39.574999999999989
31
-4.9303806576313588e-31
0
LINE
5
11C
100
AcDbEntity
8
CUTOUTS
100
AcDbLine
10
59.92500000000004
20
39.574999999999989
30
-4.9303806576313588e-31
11
35.075000000000045
21
39.574999999999989
31
-4.9303806576313588e-31
0
LINE
5
11D
100
AcDbEntity
8
CUTOUTS
100
AcDbLine
10
35.075000000000045
20
39.574999999999989
30
-4.9303806576313588e-31
11
35.075000000000045
21
42.524999999999977
31
-4.9303806576313588e-31
0
LINE
5
11E
100
AcDbEntity
8
CUTOUTS
100
AcDbLine
10
-12.424999999999947
20
42.52500000000002
30
-4.9303806576313588e-31
11
12.425000000000054
21
42.52500000000002
31
-4.9303806576313588e-31
0
LINE
5
11F
100
AcDbEntity
8
CUTOUTS
100
AcDbLine
10
12.425000000000054
20
42.52500000000002
30
-4.9303806576313588e-31
11
12.425000000000054
21
39.575000000000017
31
-4.9303806576313588e-31
0
LINE
5
120
100
AcDbEntity
8
CUTOUTS
100
AcDbLine
10
12.425000000000054
20
39.575000000000017
30
-4.9303806576313588e-31
11
-12.424999999999947
21
39.575000000000017
31
-4.9303806576313588e-31
0
LINE
5
121
100
AcDbEntity
8
CUTOUTS
100
AcDbLine
10
-12.424999999999947
20
39.575000000000017
30
-4.9303806576313588e-31
11
-12.424999999999947
21
42.52500000000002
31
-4.9303806576313588e-31
0
ARC
5
122
100
AcDbEntity
8
PERIMETER
100
AcDbCircle
10
66.500000000000085
20
41.999999999999993
30
-4.9303806576313588e-31
40
3.5749999999999638
210
-0
220
0
230
1
100
AcDbArc
50
0
51
90.000000000000455
0
LINE
5
123
100
AcDbEntity
8
PERIMETER
100
AcDbLine
10
66.500000000000057
20
45.57499999999996
30
-4.9303806576313588e-31
11
-66.500000000000043
21
45.575000000000045
31
-4.9303806576313588e-31
0
ARC
5
124
100
AcDbEntity
8
PERIMETER
100
AcDbCircle
10
-66.499999999999943
20
42.000000000000021
30
1.4791141972893936e-30
40
3.5750000000000259
210
1.224911245039167e-45
220
-4.9303806576313238e-32
230
1
100
AcDbArc
50
90.000000000001592
51
180
0
LINE
5
125
100
AcDbEntity
8
PERIMETER
100
AcDbLine
10
-70.074999999999974
20
42.000000000000043
30
-4.9303806576313588e-31
11
-70.074999999999918
21
-42.000000000000064
31
-4.9303806576313588e-31
0
ARC
5
126
100
AcDbEntity
8
PERIMETER
100
AcDbCircle
10
-66.499999999999929
20
-42.000000000000028
30
-4.9303806576313588e-31
40
3.5749999999999993
210
4.8996449801567044e-46
220
-4.9303806576313238e-32
230
1
100
AcDbArc
50
180
51
270.00000000000023
0
LINE
5
127
100
AcDbEntity
8
PERIMETER
100
AcDbLine
10
-66.499999999999915
20
-45.575000000000031
30
-4.9303806576313588e-31
11
66.500000000000057
21
-45.57500000000001
31
-4.9303806576313588e-31
0
ARC
5
128
100
AcDbEntity
8
PERIMETER
100
AcDbCircle
10
66.500000000000071
20
-42.000000000000028
30
-4.9303806576313588e-31
40
3.5749999999999815
210
0
220
0
230
1
100
AcDbArc
50
-90.000000000000199
51
0
0
LINE
5
129
100
AcDbEntity
8
PERIMETER
100
AcDbLine
10
70.075000000000045
20
-42.000000000000021
30
-4.9303806576313588e-31
11
70.075000000000045
21
41.999999999999986
31
-4.9303806576313588e-31
0
ENDSEC
0
SECTION
2
OBJECTS
0
DICTIONARY
5
C
100
AcDbDictionary
3
ACAD_GROUP
350
D
3
ACAD_MLINESTYLE
350
17
0
DICTIONARY
5
D
100
AcDbDictionary
0
DICTIONARY
5
1A
330
C
100
AcDbDictionary
0
DICTIONARY
5
17
100
AcDbDictionary
0
ENDSEC
0
EOF
