0
SECTION
2
HEADER
9
$INSUNITS
70
4
9
$ACADVER
1
AC1014
9
$HANDSEED
5
FFFF
0
ENDSEC
0
SECTION
2
TABLES
0
TABLE
2
VPORT
5
8
100
AcDbSymbolTable
0
ENDTAB
0
TABLE
2
LTYPE
5
5
100
AcDbSymbolTable
70
2
0
LTYPE
5
14
100
AcDbSymbolTableRecord
100
AcDbLinetypeTableRecord
2
BYBLOCK
70
0
0
LTYPE
5
15
100
AcDbSymbolTableRecord
100
AcDbLinetypeTableRecord
2
BYLAYER
70
0
0
ENDTAB
0
TABLE
2
LAYER
5
2
100
AcDbSymbolTable
70
3
0
LAYER
5
50
100
AcDbSymbolTableRecord
100
AcDbLayerTableRecord
2
0
70
0
6
CONTINUOUS
0
LAYER
5
51
100
AcDbSymbolTableRecord
100
AcDbLayerTableRecord
2
CUTOUTS
70
0
62
1
6
CONTINUOUS
0
LAYER
5
52
100
AcDbSymbolTableRecord
100
AcDbLayerTableRecord
2
PERIMETER
70
0
62
5
6
CONTINUOUS
0
ENDTAB
0
TABLE
2
STYLE
5
3
100
AcDbSymbolTable
70
1
0
STYLE
5
11
100
AcDbSymbolTableRecord
100
AcDbTextStyleTableRecord
2
STANDARD
70
0
0
ENDTAB
0
TABLE
2
VIEW
5
6
100
AcDbSymbolTable
0
ENDTAB
0
TABLE
2
UCS
5
7
100
AcDbSymbolTable
0
ENDTAB
0
TABLE
2
APPID
5
9
100
AcDbSymbolTable
70
1
0
APPID
5
12
100
AcDbSymbolTableRecord
100
AcDbRegAppTableRecord
2
ACAD
70
0
0
ENDTAB
0
TABLE
2
DIMSTYLE
5
A
100
AcDbSymbolTable
0
ENDTAB
0
TABLE
2
BLOCK_RECORD
5
1
100
AcDbSymbolTable
70
2
0
BLOCK_RECORD
5
1F
100
AcDbSymbolTableRecord
100
AcDbBlockTableRecord
2
*MODEL_SPACE
0
BLOCK_RECORD
5
1B
100
AcDbSymbolTableRecord
100
AcDbBlockTableRecord
2
*PAPER_SPACE
0
ENDTAB
0
ENDSEC
0
SECTION
2
BLOCKS
0
BLOCK
5
20
100
AcDbEntity
100
AcDbBlockBegin
2
*MODEL_SPACE
0
ENDBLK
5
21
100
AcDbEntity
100
AcDbBlockEnd
0
BLOCK
5
1C
100
AcDbEntity
100
AcDbBlockBegin
2
*PAPER_SPACE
0
ENDBLK
5
1D
100
AcDbEntity
100
AcDbBlockEnd
0
ENDSEC
0
SECTION
2
ENTITIES
0
CIRCLE
5
100
100
AcDbEntity
8
CUTOUTS
100
AcDbCircle
10
10.699999939650349
20
-2.7955724326635148e-14
30
0
40
2.4249999999999994
210
0
220
0
230
1
0
CIRCLE
5
101
100
AcDbEntity
8
CUTOUTS
100
AcDbCircle
10
-34.499999999999915
20
-28.999999865889528
30
0
40
1.9250000000000034
210
0
220
0
230
1
0
CIRCLE
5
102
100
AcDbEntity
8
CUTOUTS
100
AcDbCircle
10
-54.999999999999922
20
19.999999999999982
30
0
40
4.4249999999999989
210
0
220
0
230
1
0
CIRCLE
5
103
100
AcDbEntity
8
CUTOUTS
100
AcDbCircle
10
-44.300000060349653
20
19.999999999999972
30
0
40
2.4249999999999972
210
0
220
0
230
1
0
CIRCLE
5
104
100
AcDbEntity
8
CUTOUTS
100
AcDbCircle
10
-34.499999999999915
20
28.999999865889521
30
0
40
1.9250000000000034
210
0
220
0
230
1
0
CIRCLE
5
105
100
AcDbEntity
8
CUTOUTS
100
AcDbCircle
10
7.9936057773011271e-14
20
-1.7763568119115399e-14
30
0
40
4.4249999999999998
210
0
220
0
230
1
0
CIRCLE
5
106
100
AcDbEntity
8
CUTOUTS
100
AcDbCircle
10
20.500000000000085
20
9.0000001341104223
30
0
40
1.9249999999999989
210
0
220
0
230
1
0
CIRCLE
5
107
100
AcDbEntity
8
CUTOUTS
100
AcDbCircle
10
-34.499999999999915
20
-10.999999865889533
30
0
40
1.9250000000000034
210
0
220
0
230
1
0
CIRCLE
5
108
100
AcDbEntity
8
CUTOUTS
100
AcDbCircle
10
-54.999999999999922
20
-19.999999999999986
30
0
40
4.4249999999999989
210
0
220
0
230
1
0
CIRCLE
5
109
100
AcDbEntity
8
CUTOUTS
100
AcDbCircle
10
-44.300000060349653
20
-19.999999999999982
30
0
40
2.4249999999999972
210
0
220
0
230
1
0
CIRCLE
5
10A
100
AcDbEntity
8
CUTOUTS
100
AcDbCircle
10
-34.499999999999915
20
10.999999865889521
30
0
40
1.9250000000000034
210
0
220
0
230
1
0
CIRCLE
5
10B
100
AcDbEntity
8
CUTOUTS
100
AcDbCircle
10
20.500000000000085
20
-9.0000001341104792
30
0
40
1.9249999999999989
210
0
220
0
230
1
0
CIRCLE
5
10C
100
AcDbEntity
8
CUTOUTS
100
AcDbCircle
10
-66.499999999999929
20
-42.000000000000021
30
-8.8817841970012523e-15
40
1.4250000000000007
210
0
220
0
230
1
0
CIRCLE
5
10D
100
AcDbEntity
8
CUTOUTS
100
AcDbCircle
10
66.500000000000085
20
41.999999999999986
30
8.8817841970012523e-15
40
1.4250000000000007
210
0
220
0
230
1
0
CIRCLE
5
10E
100
AcDbEntity
8
CUTOUTS
100
AcDbCircle
10
-66.499999999999943
20
42.000000000000028
30
8.8817841970012523e-15
40
1.4250000000000007
210
0
220
0
230
1
0
CIRCLE
5
10F
100
AcDbEntity
8
CUTOUTS
100
AcDbCircle
10
66.500000000000057
20
-42.000000000000036
30
-8.8817841970012523e-15
40
1.4250000000000007
210
0
220
0
230
1
0
ARC
5
110
100
AcDbEntity
8
CUTOUTS
100
AcDbCircle
10
-3.9999993294476943
20
-25
30
0
40
1.9250000000000034
210
0
220
0
230
1
100
AcDbArc
50
-90
51
0
0
LINE
5
111
100
AcDbEntity
8
CUTOUTS
100
AcDbLine
10
-2.0749993294476954
20
-15.000000000000002
30
0
11
-2.0749993294476909
21
-25
31
0
0
ARC
5
112
100
AcDbEntity
8
CUTOUTS
100
AcDbCircle
10
-3.9999993294476965
20
-15.000000000000002
30
0
40
1.9250000000000012
210
-5.4738221262688167e-48
220
1.349401336733507e-79
230
1
100
AcDbArc
50
0
51
90
0
LINE
5
113
100
AcDbEntity
8
CUTOUTS
100
AcDbLine
10
-24.999999701976723
20
-13.074999999999999
30
0
11
-3.9999993294476965
21
-13.075000000000001
31
0
0
ARC
5
114
100
AcDbEntity
8
CUTOUTS
100
AcDbCircle
10
-24.999999701976723
20
-15
30
0
40
1.9250000000000012
210
-5.4738221262688167e-48
220
-1.0055248119055597e-63
230
1
100
AcDbArc
50
90
51
180
0
LINE
5
115
100
AcDbEntity
8
CUTOUTS
100
AcDbLine
10
-26.924999701976727
20
-25
30
0
11
-26.924999701976724
21
-15
31
0
0
ARC
5
116
100
AcDbEntity
8
CUTOUTS
100
AcDbCircle
10
-24.999999701976723
20
-25
30
0
40
1.9250000000000034
210
0
220
0
230
1
100
AcDbArc
50
180
51
270
0
LINE
5
117
100
AcDbEntity
8
CUTOUTS
100
AcDbLine
10
-3.9999993294476943
20
-26.925000000000004
30
0
11
-24.999999701976723
21
-26.925000000000004
31
0
0
ARC
5
118
100
AcDbEntity
8
CUTOUTS
100
AcDbCircle
10
56.000000298023274
20
4.9999999999999822
30
0
40
1.9249999999999989
210
7.1088599042452201e-48
220
0
230
1
100
AcDbArc
50
0
51
90.000000000000213
0
LINE
5
119
100
AcDbEntity
8
CUTOUTS
100
AcDbLine
10
30.000000298023277
20
6.9249999999999821
30
0
11
56.000000298023267
21
6.9249999999999847
31
0
0
ARC
5
11A
100
AcDbEntity
8
CUTOUTS
100
AcDbCircle
10
30.000000298023277
20
4.9999999999999822
30
0
40
1.925
210
0
220
-0
230
1
100
AcDbArc
50
90
51
180
0
LINE
5
11B
100
AcDbEntity
8
CUTOUTS
100
AcDbLine
10
28.075000298023273
20
-5.0000000000000178
30
0
11
28.075000298023276
21
4.9999999999999822
31
0
0
ARC
5
11C
100
AcDbEntity
8
CUTOUTS
100
AcDbCircle
10
30.000000298023277
20
-5.0000000000000195
30
0
40
1.9250000000000034
210
-1.0947644252537633e-47
220
3.1569679778110456e-63
230
1
100
AcDbArc
50
180
51
270
0
LINE
5
11D
100
AcDbEntity
8
CUTOUTS
100
AcDbLine
10
56.000000298023274
20
-6.9250000000000185
30
0
11
30.000000298023277
21
-6.9250000000000211
31
0
0
ARC
5
11E
100
AcDbEntity
8
CUTOUTS
100
AcDbCircle
10
56.000000298023274
20
-5.0000000000000187
30
0
40
1.925
210
0
220
0
230
1
100
AcDbArc
50
-90
51
0
0
LINE
5
11F
100
AcDbEntity
8
CUTOUTS
100
AcDbLine
10
57.925000298023271
20
4.9999999999999822
30
0
11
57.925000298023271
21
-5.0000000000000178
31
0
0
LINE
5
120
100
AcDbEntity
8
CUTOUTS
100
AcDbLine
10
-2.0749993294476976
20
24.999999999999972
30
0
11
-2.0749993294476976
21
14.999999999999973
31
0
0
ARC
5
121
100
AcDbEntity
8
CUTOUTS
100
AcDbCircle
10
-3.9999993294476965
20
14.999999999999973
30
0
40
1.9249999999999989
210
7.1088599042452201e-48
220
-7.4410282727268374e-64
230
1
100
AcDbArc
50
-90
51
0
0
LINE
5
122
100
AcDbEntity
8
CUTOUTS
100
AcDbLine
10
-3.9999993294476965
20
13.074999999999974
30
0
11
-24.999999701976733
21
13.074999999999978
31
0
0
ARC
5
123
100
AcDbEntity
8
CUTOUTS
100
AcDbCircle
10
-24.999999701976726
20
14.999999999999975
30
0
40
1.9249999999999945
210
0
220
0
230
1
100
AcDbArc
50
180
51
269.99999999999983
0
LINE
5
124
100
AcDbEntity
8
CUTOUTS
100
AcDbLine
10
-26.924999701976724
20
14.999999999999975
30
0
11
-26.924999701976731
21
24.999999999999972
31
0
0
ARC
5
125
100
AcDbEntity
8
CUTOUTS
100
AcDbCircle
10
-24.999999701976726
20
24.999999999999972
30
0
40
1.9249999999999989
210
7.1088599042452201e-48
220
1.3058763790981301e-63
230
1
100
AcDbArc
50
90
51
180
0
LINE
5
126
100
AcDbEntity
8
CUTOUTS
100
AcDbLine
10
-24.999999701976726
20
26.924999999999972
30
0
11
-3.9999993294476965
21
26.924999999999972
31
0
0
ARC
5
127
100
AcDbEntity
8
CUTOUTS
100
AcDbCircle
10
-3.9999993294476965
20
24.999999999999972
30
0
40
1.9249999999999989
210
7.1088599042452201e-48
220
-0
230
1
100
AcDbArc
50
0
51
90
0
LINE
5
128
100
AcDbEntity
8
CUTOUTS
100
AcDbLine
10
-44.925000789761498
20
-10.924742723812528
30
0
11
-44.925000789761498
21
-7.0746025666436108
31
0
0
ARC
5
129
100
AcDbEntity
8
CUTOUTS
100
AcDbCircle
10
-45.000000789761494
20
-2.6645352591003757e-14
30
0
40
7.0750001043081259
210
-0
220
0
230
1
100
AcDbArc
50
-89.392612878184266
51
89.392612878184281
0
LINE
5
12A
100
AcDbEntity
8
CUTOUTS
100
AcDbLine
10
-44.925000789761498
20
7.0746025666435575
30
0
11
-44.925000789761498
21
10.924742723812473
31
0
0
ARC
5
12B
100
AcDbEntity
8
CUTOUTS
100
AcDbCircle
10
-45.000000789761494
20
-2.6645352591003757e-14
30
0
40
10.925000163912779
210
3.8517691223505692e-34
220
2.6442973668075839e-36
230
1
100
AcDbArc
50
-89.606662045518064
51
89.606662045517481
0
LINE
5
12C
100
AcDbEntity
8
CUTOUTS
100
AcDbLine
10
-57.716357218571048
20
-39.575000000000045
30
0
11
-32.866357218571054
21
-39.575000000000045
31
0
0
LINE
5
12D
100
AcDbEntity
8
CUTOUTS
100
AcDbLine
10
-32.866357218571054
20
-39.575000000000045
30
0
11
-32.866357218571054
21
-42.52500000000002
31
0
0
LINE
5
12E
100
AcDbEntity
8
CUTOUTS
100
AcDbLine
10
-32.866357218571054
20
-42.52500000000002
30
0
11
-57.716357218571048
21
-42.52500000000002
31
0
0
LINE
5
12F
100
AcDbEntity
8
CUTOUTS
100
AcDbLine
10
-57.716357218571048
20
-42.52500000000002
30
0
11
-57.716357218571048
21
-39.575000000000045
31
0
0
LINE
5
130
100
AcDbEntity
8
CUTOUTS
100
AcDbLine
10
35.075000000000024
20
-42.525000000000006
30
0
11
35.075000000000024
21
-39.57500000000001
31
0
0
LINE
5
131
100
AcDbEntity
8
CUTOUTS
100
AcDbLine
10
35.075000000000024
20
-39.57500000000001
30
0
11
59.925000000000026
21
-39.57500000000001
31
0
0
LINE
5
132
100
AcDbEntity
8
CUTOUTS
100
AcDbLine
10
59.925000000000026
20
-39.57500000000001
30
0
11
59.925000000000026
21
-42.525000000000006
31
0
0
LINE
5
133
100
AcDbEntity
8
CUTOUTS
100
AcDbLine
10
59.925000000000026
20
-42.525000000000006
30
0
11
35.075000000000024
21
-42.525000000000006
31
0
0
LINE
5
134
100
AcDbEntity
8
CUTOUTS
100
AcDbLine
10
12.425000000000049
20
-42.525000000000055
30
0
11
-12.424999999999955
21
-42.525000000000055
31
0
0
LINE
5
135
100
AcDbEntity
8
CUTOUTS
100
AcDbLine
10
-12.424999999999953
20
-42.525000000000055
30
0
11
-12.424999999999958
21
-39.575000000000045
31
0
0
LINE
5
136
100
AcDbEntity
8
CUTOUTS
100
AcDbLine
10
-12.424999999999958
20
-39.575000000000045
30
0
11
12.42500000000005
21
-39.575000000000053
31
0
0
LINE
5
137
100
AcDbEntity
8
CUTOUTS
100
AcDbLine
10
12.42500000000005
20
-39.575000000000053
30
0
11
12.425000000000049
21
-42.525000000000055
31
0
0
LINE
5
138
100
AcDbEntity
8
CUTOUTS
100
AcDbLine
10
-32.866357218571054
20
39.574999999999974
30
0
11
-57.716357218571048
21
39.574999999999974
31
0
0
LINE
5
139
100
AcDbEntity
8
CUTOUTS
100
AcDbLine
10
-57.716357218571048
20
39.574999999999974
30
0
11
-57.716357218571048
21
42.52499999999997
31
0
0
LINE
5
13A
100
AcDbEntity
8
CUTOUTS
100
AcDbLine
10
-57.716357218571048
20
42.52499999999997
30
0
11
-32.866357218571054
21
42.52499999999997
31
0
0
LINE
5
13B
100
AcDbEntity
8
CUTOUTS
100
AcDbLine
10
-32.866357218571054
20
42.52499999999997
30
0
11
-32.866357218571054
21
39.574999999999974
31
0
0
LINE
5
13C
100
AcDbEntity
8
CUTOUTS
100
AcDbLine
10
35.075000000000045
20
42.524999999999977
30
0
11
59.925000000000054
21
42.524999999999977
31
0
0
LINE
5
13D
100
AcDbEntity
8
CUTOUTS
100
AcDbLine
10
59.925000000000054
20
42.524999999999977
30
0
11
59.92500000000004
21
39.574999999999989
31
0
0
LINE
5
13E
100
AcDbEntity
8
CUTOUTS
100
AcDbLine
10
59.92500000000004
20
39.574999999999989
30
0
11
35.075000000000045
21
39.574999999999989
31
0
0
LINE
5
13F
100
AcDbEntity
8
CUTOUTS
100
AcDbLine
10
35.075000000000045
20
39.574999999999989
30
0
11
35.075000000000045
21
42.524999999999977
31
0
0
LINE
5
140
100
AcDbEntity
8
CUTOUTS
100
AcDbLine
10
-12.424999999999947
20
42.52500000000002
30
0
11
12.425000000000054
21
42.52500000000002
31
0
0
LINE
5
141
100
AcDbEntity
8
CUTOUTS
100
AcDbLine
10
12.425000000000054
20
42.52500000000002
30
0
11
12.425000000000054
21
39.575000000000017
31
0
0
LINE
5
142
100
AcDbEntity
8
CUTOUTS
100
AcDbLine
10
12.425000000000054
20
39.575000000000017
30
0
11
-12.424999999999947
21
39.575000000000017
31
0
0
LINE
5
143
100
AcDbEntity
8
CUTOUTS
100
AcDbLine
10
-12.424999999999947
20
39.575000000000017
30
0
11
-12.424999999999947
21
42.52500000000002
31
0
0
ARC
5
144
100
AcDbEntity
8
PERIMETER
100
AcDbCircle
10
66.500000000000085
20
41.999999999999993
30
0
40
3.5749999999999638
210
-0
220
0
230
1
100
AcDbArc
50
0
51
90.000000000000455
0
LINE
5
145
100
AcDbEntity
8
PERIMETER
100
AcDbLine
10
66.500000000000057
20
45.57499999999996
30
0
11
-66.500000000000043
21
45.575000000000045
31
0
0
ARC
5
146
100
AcDbEntity
8
PERIMETER
100
AcDbCircle
10
-66.499999999999943
20
42.000000000000021
30
0
40
3.5750000000000259
210
0
220
0
230
1
100
AcDbArc
50
90.000000000001592
51
180
0
LINE
5
147
100
AcDbEntity
8
PERIMETER
100
AcDbLine
10
-70.074999999999974
20
42.000000000000043
30
0
11
-70.074999999999918
21
-42.000000000000064
31
0
0
ARC
5
148
100
AcDbEntity
8
PERIMETER
100
AcDbCircle
10
-66.499999999999929
20
-42.000000000000028
30
0
40
3.5749999999999993
210
4.9902146035208976e-46
220
-4.9303806576313238e-32
230
1
100
AcDbArc
50
180
51
270.00000000000023
0
LINE
5
149
100
AcDbEntity
8
PERIMETER
100
AcDbLine
10
-66.499999999999915
20
-45.575000000000031
30
0
11
66.500000000000057
21
-45.57500000000001
31
0
0
ARC
5
14A
100
AcDbEntity
8
PERIMETER
100
AcDbCircle
10
66.500000000000071
20
-42.000000000000028
30
0
40
3.5749999999999815
210
8.7581154020301067e-47
220
-2.0149954978787376e-61
230
1
100
AcDbArc
50
-90.000000000000199
51
0
0
LINE
5
14B
100
AcDbEntity
8
PERIMETER
100
AcDbLine
10
70.075000000000045
20
-42.000000000000021
30
0
11
70.075000000000045
21
41.999999999999986
31
0
0
ENDSEC
0
SECTION
2
OBJECTS
0
DICTIONARY
5
C
100
AcDbDictionary
3
ACAD_GROUP
350
D
3
ACAD_MLINESTYLE
350
17
0
DICTIONARY
5
D
100
AcDbDictionary
0
DICTIONARY
5
1A
330
C
100
AcDbDictionary
0
DICTIONARY
5
17
100
AcDbDictionary
0
ENDSEC
0
EOF
