0
SECTION
2
HEADER
9
$INSUNITS
70
4
9
$ACADVER
1
AC1014
9
$HANDSEED
5
FFFF
0
ENDSEC
0
SECTION
2
TABLES
0
TABLE
2
VPORT
5
8
100
AcDbSymbolTable
0
ENDTAB
0
TABLE
2
LTYPE
5
5
100
AcDbSymbolTable
70
2
0
LTYPE
5
14
100
AcDbSymbolTableRecord
100
AcDbLinetypeTableRecord
2
BYBLOCK
70
0
0
LTYPE
5
15
100
AcDbSymbolTableRecord
100
AcDbLinetypeTableRecord
2
BYLAYER
70
0
0
ENDTAB
0
TABLE
2
LAYER
5
2
100
AcDbSymbolTable
70
3
0
LAYER
5
50
100
AcDbSymbolTableRecord
100
AcDbLayerTableRecord
2
0
70
0
6
CONTINUOUS
0
LAYER
5
51
100
AcDbSymbolTableRecord
100
AcDbLayerTableRecord
2
CUTOUTS
70
0
62
1
6
CONTINUOUS
0
LAYER
5
52
100
AcDbSymbolTableRecord
100
AcDbLayerTableRecord
2
PERIMETER
70
0
62
5
6
CONTINUOUS
0
ENDTAB
0
TABLE
2
STYLE
5
3
100
AcDbSymbolTable
70
1
0
STYLE
5
11
100
AcDbSymbolTableRecord
100
AcDbTextStyleTableRecord
2
STANDARD
70
0
0
ENDTAB
0
TABLE
2
VIEW
5
6
100
AcDbSymbolTable
0
ENDTAB
0
TABLE
2
UCS
5
7
100
AcDbSymbolTable
0
ENDTAB
0
TABLE
2
APPID
5
9
100
AcDbSymbolTable
70
1
0
APPID
5
12
100
AcDbSymbolTableRecord
100
AcDbRegAppTableRecord
2
ACAD
70
0
0
ENDTAB
0
TABLE
2
DIMSTYLE
5
A
100
AcDbSymbolTable
0
ENDTAB
0
TABLE
2
BLOCK_RECORD
5
1
100
AcDbSymbolTable
70
2
0
BLOCK_RECORD
5
1F
100
AcDbSymbolTableRecord
100
AcDbBlockTableRecord
2
*MODEL_SPACE
0
BLOCK_RECORD
5
1B
100
AcDbSymbolTableRecord
100
AcDbBlockTableRecord
2
*PAPER_SPACE
0
ENDTAB
0
ENDSEC
0
SECTION
2
BLOCKS
0
BLOCK
5
20
100
AcDbEntity
100
AcDbBlockBegin
2
*MODEL_SPACE
0
ENDBLK
5
21
100
AcDbEntity
100
AcDbBlockEnd
0
BLOCK
5
1C
100
AcDbEntity
100
AcDbBlockBegin
2
*PAPER_SPACE
0
ENDBLK
5
1D
100
AcDbEntity
100
AcDbBlockEnd
0
ENDSEC
0
SECTION
2
ENTITIES
0
CIRCLE
5
100
100
AcDbEntity
8
CUTOUTS
100
AcDbCircle
10
-51.99724154466977
20
-20.29584085704888
30
4.4408920985006262e-15
40
3.9249999999999918
210
0
220
0
230
1
0
CIRCLE
5
101
100
AcDbEntity
8
CUTOUTS
100
AcDbCircle
10
-51.967230275795288
20
20.218250733540934
30
-4.4408920985006262e-15
40
3.9249999999999918
210
0
220
0
230
1
0
CIRCLE
5
102
100
AcDbEntity
8
CUTOUTS
100
AcDbCircle
10
-66.499999999999943
20
42.000000000000028
30
0
40
1.4250000000000007
210
0
220
0
230
1
0
CIRCLE
5
103
100
AcDbEntity
8
CUTOUTS
100
AcDbCircle
10
-66.499999999999929
20
-42.000000000000021
30
0
40
1.4250000000000007
210
0
220
0
230
1
0
CIRCLE
5
104
100
AcDbEntity
8
CUTOUTS
100
AcDbCircle
10
66.500000000000057
20
-42.000000000000036
30
0
40
1.4250000000000007
210
0
220
0
230
1
0
CIRCLE
5
105
100
AcDbEntity
8
CUTOUTS
100
AcDbCircle
10
66.500000000000085
20
41.999999999999986
30
0
40
1.4250000000000007
210
0
220
0
230
1
0
LINE
5
106
100
AcDbEntity
8
CUTOUTS
100
AcDbLine
10
6.0749999701977275
20
-33.50000052154067
30
0
11
6.0749999701977284
21
15.500000253319715
31
0
0
ARC
5
107
100
AcDbEntity
8
CUTOUTS
100
AcDbCircle
10
7.4999999701977291
20
15.500000253319712
30
0
40
1.4250000000000007
210
0
220
-0
230
1
100
AcDbArc
50
90
51
180
0
LINE
5
108
100
AcDbEntity
8
CUTOUTS
100
AcDbLine
10
7.4999999701977291
20
16.925000253319713
30
0
11
9.5000000447035351
21
16.925000253319716
31
0
0
ARC
5
109
100
AcDbEntity
8
CUTOUTS
100
AcDbCircle
10
9.5000000447035351
20
18.500000253319719
30
0
40
1.5750000000000042
210
-0
220
0
230
1
100
AcDbArc
50
-90
51
0
0
LINE
5
10A
100
AcDbEntity
8
CUTOUTS
100
AcDbLine
10
11.075000044703538
20
18.500000253319719
30
0
11
11.075000044703536
21
32.500000506639452
31
0
0
ARC
5
10B
100
AcDbEntity
8
CUTOUTS
100
AcDbCircle
10
12.500000044703533
20
32.500000506639452
30
0
40
1.4250000000000007
210
0
220
-0
230
1
100
AcDbArc
50
90
51
180
0
LINE
5
10C
100
AcDbEntity
8
CUTOUTS
100
AcDbLine
10
12.500000044703533
20
33.925000506639449
30
0
11
41.500000521540699
21
33.925000506639456
31
0
0
ARC
5
10D
100
AcDbEntity
8
CUTOUTS
100
AcDbCircle
10
41.500000521540699
20
32.500000506639452
30
0
40
1.4250000000000007
210
0
220
-0
230
1
100
AcDbArc
50
0
51
90
0
LINE
5
10E
100
AcDbEntity
8
CUTOUTS
100
AcDbLine
10
42.925000521540696
20
32.500000506639452
30
0
11
42.925000521540696
21
18.500000253319715
31
0
0
ARC
5
10F
100
AcDbEntity
8
CUTOUTS
100
AcDbCircle
10
41.500000521540699
20
18.500000253319715
30
0
40
1.4250000000000007
210
-0
220
0
230
1
100
AcDbArc
50
-90
51
0
0
ARC
5
110
100
AcDbEntity
8
CUTOUTS
100
AcDbCircle
10
41.500000476837201
20
15.500000253319717
30
0
40
1.574999999999998
210
0
220
-0
230
1
100
AcDbArc
50
89.999998373764228
51
180
0
LINE
5
111
100
AcDbEntity
8
CUTOUTS
100
AcDbLine
10
39.925000476837212
20
15.500000253319715
30
0
11
39.925000476837212
21
-18.726669936660514
31
0
0
ARC
5
112
100
AcDbEntity
8
CUTOUTS
100
AcDbCircle
10
38.500000476837208
20
-18.726669936660514
30
0
40
1.4250000000000007
210
-0
220
0
230
1
100
AcDbArc
50
-90
51
0
0
LINE
5
113
100
AcDbEntity
8
CUTOUTS
100
AcDbLine
10
38.500000476837208
20
-20.151669936660515
30
0
11
33.500000357627925
21
-20.151669936660515
31
0
0
ARC
5
114
100
AcDbEntity
8
CUTOUTS
100
AcDbCircle
10
33.500000357627918
20
-21.726669936660507
30
0
40
1.5749999999999931
210
0
220
-0
230
1
100
AcDbArc
50
89.999999999999744
51
180
0
LINE
5
115
100
AcDbEntity
8
CUTOUTS
100
AcDbLine
10
31.925000357627926
20
-21.726669936660514
30
0
11
31.925000357627926
21
-33.50000052154067
31
0
0
ARC
5
116
100
AcDbEntity
8
CUTOUTS
100
AcDbCircle
10
30.500000357627925
20
-33.50000052154067
30
0
40
1.4250000000000007
210
-0
220
0
230
1
100
AcDbArc
50
-90
51
0
0
LINE
5
117
100
AcDbEntity
8
CUTOUTS
100
AcDbLine
10
30.500000357627925
20
-34.925000521540674
30
0
11
7.4999999701977282
21
-34.925000521540667
31
0
0
ARC
5
118
100
AcDbEntity
8
CUTOUTS
100
AcDbCircle
10
7.4999999701977282
20
-33.50000052154067
30
0
40
1.4250000000000007
210
0
220
0
230
1
100
AcDbArc
50
180
51
270
0
LINE
5
119
100
AcDbEntity
8
CUTOUTS
100
AcDbLine
10
-27.500000551342914
20
34.925000521540611
30
0
11
-16.500000342726658
21
34.925000521540625
31
0
0
ARC
5
11A
100
AcDbEntity
8
CUTOUTS
100
AcDbCircle
10
-16.500000342726658
20
33.500000521540613
30
0
40
1.4250000000000052
210
0
220
-0
230
1
100
AcDbArc
50
0
51
90
0
LINE
5
11B
100
AcDbEntity
8
CUTOUTS
100
AcDbLine
10
-15.075000342726653
20
33.500000521540613
30
0
11
-15.075000342726653
21
27.50000038743017
31
0
0
ARC
5
11C
100
AcDbEntity
8
CUTOUTS
100
AcDbCircle
10
-16.500000342726654
20
27.50000038743017
30
0
40
1.4250000000000007
210
-0
220
0
230
1
100
AcDbArc
50
-90
51
0
0
LINE
5
11D
100
AcDbEntity
8
CUTOUTS
100
AcDbLine
10
-16.500000342726654
20
26.075000387430165
30
0
11
-27.500000551342907
21
26.075000387430162
31
0
0
ARC
5
11E
100
AcDbEntity
8
CUTOUTS
100
AcDbCircle
10
-27.500000551342907
20
27.500000387430163
30
0
40
1.4250000000000007
210
0
220
0
230
1
100
AcDbArc
50
180
51
270
0
LINE
5
11F
100
AcDbEntity
8
CUTOUTS
100
AcDbLine
10
-28.925000551342912
20
27.500000387430163
30
0
11
-28.925000551342915
21
33.500000521540613
31
0
0
ARC
5
120
100
AcDbEntity
8
CUTOUTS
100
AcDbCircle
10
-27.500000551342914
20
33.500000521540613
30
0
40
1.4250000000000007
210
0
220
-0
230
1
100
AcDbArc
50
90
51
180
0
LINE
5
121
100
AcDbEntity
8
CUTOUTS
100
AcDbLine
10
-15.599517944922162
20
-12.075000178813958
30
0
11
-9.6100026443048687
21
-12.075000178813958
31
0
0
ARC
5
122
100
AcDbEntity
8
CUTOUTS
100
AcDbCircle
10
-9.6100026443048669
20
-10.500000178813959
30
0
40
1.5749999999999997
210
0
220
0
230
1
100
AcDbArc
50
269.99999999999994
51
360
0
LINE
5
123
100
AcDbEntity
8
CUTOUTS
100
AcDbLine
10
-8.0350026443048677
20
-10.500000178813963
30
0
11
-8.0350026443048748
21
18.500000298023199
31
0
0
ARC
5
124
100
AcDbEntity
8
CUTOUTS
100
AcDbCircle
10
-6.6100026443048732
20
18.500000298023199
30
0
40
1.4250000000000007
210
0
220
-0
230
1
100
AcDbArc
50
90
51
180
0
LINE
5
125
100
AcDbEntity
8
CUTOUTS
100
AcDbLine
10
-6.6100026443048732
20
19.9250002980232
30
0
11
1.4866687290708702
21
19.9250002980232
31
0
0
ARC
5
126
100
AcDbEntity
8
CUTOUTS
100
AcDbCircle
10
1.4866687290708702
20
18.500000298023199
30
0
40
1.4250000000000007
210
0
220
-0
230
1
100
AcDbArc
50
0
51
90
0
LINE
5
127
100
AcDbEntity
8
CUTOUTS
100
AcDbLine
10
2.9116687290708709
20
18.500000298023199
30
0
11
2.9116687290708709
21
-12.486669012192909
31
0
0
ARC
5
128
100
AcDbEntity
8
CUTOUTS
100
AcDbCircle
10
1.4866687290708691
20
-12.486669012192909
30
0
40
1.4250000000000007
210
0
220
0
230
1
100
AcDbArc
50
-90
51
0
0
LINE
5
129
100
AcDbEntity
8
CUTOUTS
100
AcDbLine
10
1.4866687290708691
20
-13.91166901219291
30
0
11
-1.6065328736310791
21
-13.91166901219291
31
0
0
ARC
5
12A
100
AcDbEntity
8
CUTOUTS
100
AcDbCircle
10
-1.6065328736310791
20
-15.486669012192905
30
0
40
1.5749999999999975
210
0
220
-0
230
1
100
AcDbArc
50
90
51
180
0
LINE
5
12B
100
AcDbEntity
8
CUTOUTS
100
AcDbLine
10
-3.1815328736310766
20
-15.486669012192905
30
0
11
-3.1815328736310788
21
-34.257894036837932
31
0
0
ARC
5
12C
100
AcDbEntity
8
CUTOUTS
100
AcDbCircle
10
-4.6065328736310818
20
-34.257894036837932
30
0
40
1.4250000000000007
210
-0
220
0
230
1
100
AcDbArc
50
-90
51
0
0
LINE
5
12D
100
AcDbEntity
8
CUTOUTS
100
AcDbLine
10
-4.6065328736310818
20
-35.682894036837929
30
0
11
-28.348760558949486
21
-35.682894036837936
31
0
0
ARC
5
12E
100
AcDbEntity
8
CUTOUTS
100
AcDbCircle
10
-28.348760558949486
20
-34.257894036837932
30
0
40
1.4250000000000007
210
0
220
0
230
1
100
AcDbArc
50
180
51
270
0
LINE
5
12F
100
AcDbEntity
8
CUTOUTS
100
AcDbLine
10
-29.773760558949487
20
-34.257894036837932
30
0
11
-29.77376055894949
21
-27.706514323709335
31
0
0
ARC
5
130
100
AcDbEntity
8
CUTOUTS
100
AcDbCircle
10
-28.34876055894949
20
-27.706514323709335
30
0
40
1.4250000000000007
210
0
220
-0
230
1
100
AcDbArc
50
90
51
180
0
LINE
5
131
100
AcDbEntity
8
CUTOUTS
100
AcDbLine
10
-28.34876055894949
20
-26.281514323709338
30
0
11
-18.599517944922166
21
-26.281514323709342
31
0
0
ARC
5
132
100
AcDbEntity
8
CUTOUTS
100
AcDbCircle
10
-18.599517944922155
20
-24.706514323709357
30
0
40
1.5749999999999842
210
0
220
0
230
1
100
AcDbArc
50
-90.000000000000398
51
0
0
LINE
5
133
100
AcDbEntity
8
CUTOUTS
100
AcDbLine
10
-17.024517944922174
20
-24.706514323709342
30
0
11
-17.024517944922163
21
-13.500000178813959
31
0
0
ARC
5
134
100
AcDbEntity
8
CUTOUTS
100
AcDbCircle
10
-15.599517944922162
20
-13.500000178813959
30
0
40
1.4250000000000007
210
0
220
-0
230
1
100
AcDbArc
50
90
51
180
0
ARC
5
135
100
AcDbEntity
8
CUTOUTS
100
AcDbCircle
10
-38.540389288457312
20
-0.048752260775308837
30
0
40
9.9249999999999972
210
-0
220
0
230
1
100
AcDbArc
50
-89.567030291003945
51
89.567030291003974
0
LINE
5
136
100
AcDbEntity
8
CUTOUTS
100
AcDbLine
10
-38.46538928845731
20
-9.9734688814149095
30
0
11
-38.46538928845731
21
-6.1232892801702885
31
0
0
ARC
5
137
100
AcDbEntity
8
CUTOUTS
100
AcDbCircle
10
-38.540389288457312
20
-0.048752260775308837
30
0
40
6.0750000000000037
210
-0
220
0
230
1
100
AcDbArc
50
-89.292626727450568
51
89.292626727450894
0
LINE
5
138
100
AcDbEntity
8
CUTOUTS
100
AcDbLine
10
-38.46538928845731
20
6.0257847586196718
30
0
11
-38.46538928845731
21
9.8759643598642928
31
0
0
LINE
5
139
100
AcDbEntity
8
CUTOUTS
100
AcDbLine
10
12.425000000000054
20
42.52500000000002
30
0
11
12.425000000000054
21
39.575000000000017
31
0
0
LINE
5
13A
100
AcDbEntity
8
CUTOUTS
100
AcDbLine
10
12.425000000000054
20
39.575000000000017
30
0
11
-12.424999999999947
21
39.575000000000017
31
0
0
LINE
5
13B
100
AcDbEntity
8
CUTOUTS
100
AcDbLine
10
-12.424999999999947
20
39.575000000000017
30
0
11
-12.424999999999947
21
42.52500000000002
31
0
0
LINE
5
13C
100
AcDbEntity
8
CUTOUTS
100
AcDbLine
10
-12.424999999999947
20
42.52500000000002
30
0
11
12.425000000000054
21
42.52500000000002
31
0
0
LINE
5
13D
100
AcDbEntity
8
CUTOUTS
100
AcDbLine
10
-12.424999999999958
20
-39.575000000000045
30
0
11
12.42500000000005
21
-39.575000000000053
31
0
0
LINE
5
13E
100
AcDbEntity
8
CUTOUTS
100
AcDbLine
10
12.42500000000005
20
-39.575000000000053
30
0
11
12.425000000000049
21
-42.525000000000055
31
0
0
LINE
5
13F
100
AcDbEntity
8
CUTOUTS
100
AcDbLine
10
12.425000000000049
20
-42.525000000000055
30
0
11
-12.424999999999955
21
-42.525000000000055
31
0
0
LINE
5
140
100
AcDbEntity
8
CUTOUTS
100
AcDbLine
10
-12.424999999999953
20
-42.525000000000055
30
0
11
-12.424999999999958
21
-39.575000000000045
31
0
0
LINE
5
141
100
AcDbEntity
8
CUTOUTS
100
AcDbLine
10
59.925000000000054
20
42.524999999999977
30
0
11
59.92500000000004
21
39.574999999999989
31
0
0
LINE
5
142
100
AcDbEntity
8
CUTOUTS
100
AcDbLine
10
59.92500000000004
20
39.574999999999989
30
0
11
35.075000000000045
21
39.574999999999989
31
0
0
LINE
5
143
100
AcDbEntity
8
CUTOUTS
100
AcDbLine
10
35.075000000000045
20
39.574999999999989
30
0
11
35.075000000000045
21
42.524999999999977
31
0
0
LINE
5
144
100
AcDbEntity
8
CUTOUTS
100
AcDbLine
10
35.075000000000045
20
42.524999999999977
30
0
11
59.925000000000054
21
42.524999999999977
31
0
0
LINE
5
145
100
AcDbEntity
8
CUTOUTS
100
AcDbLine
10
35.075000000000024
20
-42.525000000000006
30
0
11
35.075000000000024
21
-39.57500000000001
31
0
0
LINE
5
146
100
AcDbEntity
8
CUTOUTS
100
AcDbLine
10
35.075000000000024
20
-39.57500000000001
30
0
11
59.925000000000026
21
-39.57500000000001
31
0
0
LINE
5
147
100
AcDbEntity
8
CUTOUTS
100
AcDbLine
10
59.925000000000026
20
-39.57500000000001
30
0
11
59.925000000000026
21
-42.525000000000006
31
0
0
LINE
5
148
100
AcDbEntity
8
CUTOUTS
100
AcDbLine
10
59.925000000000026
20
-42.525000000000006
30
0
11
35.075000000000024
21
-42.525000000000006
31
0
0
LINE
5
149
100
AcDbEntity
8
CUTOUTS
100
AcDbLine
10
-57.716357218571048
20
39.574999999999974
30
0
11
-57.716357218571048
21
42.52499999999997
31
0
0
LINE
5
14A
100
AcDbEntity
8
CUTOUTS
100
AcDbLine
10
-57.716357218571048
20
42.52499999999997
30
0
11
-32.866357218571054
21
42.52499999999997
31
0
0
LINE
5
14B
100
AcDbEntity
8
CUTOUTS
100
AcDbLine
10
-32.866357218571054
20
42.52499999999997
30
0
11
-32.866357218571054
21
39.574999999999974
31
0
0
LINE
5
14C
100
AcDbEntity
8
CUTOUTS
100
AcDbLine
10
-32.866357218571054
20
39.574999999999974
30
0
11
-57.716357218571048
21
39.574999999999974
31
0
0
LINE
5
14D
100
AcDbEntity
8
CUTOUTS
100
AcDbLine
10
-57.716357218571048
20
-39.575000000000045
30
0
11
-32.866357218571054
21
-39.575000000000045
31
0
0
LINE
5
14E
100
AcDbEntity
8
CUTOUTS
100
AcDbLine
10
-32.866357218571054
20
-39.575000000000045
30
0
11
-32.866357218571054
21
-42.52500000000002
31
0
0
LINE
5
14F
100
AcDbEntity
8
CUTOUTS
100
AcDbLine
10
-32.866357218571054
20
-42.52500000000002
30
0
11
-57.716357218571048
21
-42.52500000000002
31
0
0
LINE
5
150
100
AcDbEntity
8
CUTOUTS
100
AcDbLine
10
-57.716357218571048
20
-42.52500000000002
30
0
11
-57.716357218571048
21
-39.575000000000045
31
0
0
ARC
5
151
100
AcDbEntity
8
PERIMETER
100
AcDbCircle
10
-66.499999999999943
20
42.000000000000021
30
0
40
3.5750000000000259
210
0
220
0
230
1
100
AcDbArc
50
90.000000000001592
51
180
0
LINE
5
152
100
AcDbEntity
8
PERIMETER
100
AcDbLine
10
-70.074999999999974
20
42.000000000000043
30
0
11
-70.074999999999918
21
-42.000000000000064
31
0
0
ARC
5
153
100
AcDbEntity
8
PERIMETER
100
AcDbCircle
10
-66.499999999999929
20
-42.000000000000028
30
0
40
3.5749999999999993
210
0
220
0
230
1
100
AcDbArc
50
180
51
270.00000000000023
0
LINE
5
154
100
AcDbEntity
8
PERIMETER
100
AcDbLine
10
-66.499999999999915
20
-45.575000000000031
30
0
11
66.500000000000057
21
-45.57500000000001
31
0
0
ARC
5
155
100
AcDbEntity
8
PERIMETER
100
AcDbCircle
10
66.500000000000071
20
-42.000000000000028
30
0
40
3.5749999999999815
210
0
220
0
230
1
100
AcDbArc
50
-90.000000000000199
51
0
0
LINE
5
156
100
AcDbEntity
8
PERIMETER
100
AcDbLine
10
70.075000000000045
20
-42.000000000000021
30
0
11
70.075000000000045
21
41.999999999999986
31
0
0
ARC
5
157
100
AcDbEntity
8
PERIMETER
100
AcDbCircle
10
66.500000000000085
20
41.999999999999993
30
0
40
3.5749999999999638
210
-0
220
0
230
1
100
AcDbArc
50
0
51
90.000000000000455
0
LINE
5
158
100
AcDbEntity
8
PERIMETER
100
AcDbLine
10
66.500000000000057
20
45.57499999999996
30
0
11
-66.500000000000043
21
45.575000000000045
31
0
0
ENDSEC
0
SECTION
2
OBJECTS
0
DICTIONARY
5
C
100
AcDbDictionary
3
ACAD_GROUP
350
D
3
ACAD_MLINESTYLE
350
17
0
DICTIONARY
5
D
100
AcDbDictionary
0
DICTIONARY
5
1A
330
C
100
AcDbDictionary
0
DICTIONARY
5
17
100
AcDbDictionary
0
ENDSEC
0
EOF
