0
SECTION
2
HEADER
9
$INSUNITS
70
4
9
$ACADVER
1
AC1014
9
$HANDSEED
5
FFFF
0
ENDSEC
0
SECTION
2
TABLES
0
TABLE
2
VPORT
5
8
100
AcDbSymbolTable
0
ENDTAB
0
TABLE
2
LTYPE
5
5
100
AcDbSymbolTable
0
LTYPE
5
14
100
AcDbSymbolTableRecord
100
AcDbLinetypeTableRecord
2
BYBLOCK
70
0
0
LTYPE
5
15
100
AcDbSymbolTableRecord
100
AcDbLinetypeTableRecord
2
BYLAYER
70
0
0
ENDTAB
0
TABLE
2
LAYER
5
2
100
AcDbSymbolTable
70
2
0
LAYER
5
50
100
AcDbSymbolTableRecord
100
AcDbLayerTableRecord
2
0
70
0
6
CONTINUOUS
0
ENDTAB
0
TABLE
2
STYLE
5
3
100
AcDbSymbolTable
70
1
0
STYLE
5
11
100
AcDbSymbolTableRecord
100
AcDbTextStyleTableRecord
2
STANDARD
70
0
0
ENDTAB
0
TABLE
2
VIEW
5
6
100
AcDbSymbolTable
70
0
0
ENDTAB
0
TABLE
2
UCS
5
7
100
AcDbSymbolTable
70
0
0
ENDTAB
0
TABLE
2
APPID
5
9
100
AcDbSymbolTable
70
2
0
APPID
5
12
100
AcDbSymbolTableRecord
100
AcDbRegAppTableRecord
2
ACAD
70
0
0
ENDTAB
0
TABLE
2
DIMSTYLE
5
A
100
AcDbSymbolTable
70
1
0
ENDTAB
0
TABLE
2
BLOCK_RECORD
5
1
100
AcDbSymbolTable
70
1
0
BLOCK_RECORD
5
1F
100
AcDbSymbolTableRecord
100
AcDbBlockTableRecord
2
*MODEL_SPACE
0
BLOCK_RECORD
5
1B
100
AcDbSymbolTableRecord
100
AcDbBlockTableRecord
2
*PAPER_SPACE
0
ENDTAB
0
ENDSEC
0
SECTION
2
BLOCKS
0
BLOCK
5
20
100
AcDbEntity
100
AcDbBlockBegin
2
*MODEL_SPACE
0
ENDBLK
5
21
100
AcDbEntity
100
AcDbBlockEnd
0
BLOCK
5
1C
100
AcDbEntity
100
AcDbBlockBegin
2
*PAPER_SPACE
0
ENDBLK
5
1D
100
AcDbEntity
100
AcDbBlockEnd
0
ENDSEC
0
SECTION
2
ENTITIES
0
CIRCLE
5
100
100
AcDbEntity
8
0
100
AcDbCircle
10
-202.58278272058288
20
8.4956029289646651
30
-2.7755575615628914e-16
40
1.4999999999999858
210
-3.648595803507989e-32
220
-3.9697477706973678e-47
230
1
0
LWPOLYLINE
5
101
100
AcDbEntity
8
0
100
AcDbPolyline
90
4
70
1
43
0.0
10
19.540292641814069
20
-76.810250442407181
10
19.540292641814034
20
-52.810250442403408
10
-50.459707358185959
20
-52.810250442407288
10
-50.459707358185931
20
-76.810250442407195
0
CIRCLE
5
102
100
AcDbEntity
8
0
100
AcDbCircle
10
-214.58278188245234
20
8.5000879186048799
30
-2.7755575615628914e-16
40
1.4999999999999858
210
-3.648595803507989e-32
220
-3.9697477706973678e-47
230
1
0
CIRCLE
5
103
100
AcDbEntity
8
0
100
AcDbCircle
10
-188.50952319812353
20
15.926915136623789
30
-2.7755575615628914e-16
40
1.5000000000000213
210
-3.648595803507989e-32
220
-3.9697477706973678e-47
230
1
0
LWPOLYLINE
5
104
100
AcDbEntity
8
0
100
AcDbPolyline
90
4
70
1
43
0.0
10
-155.37310759899168
20
-55.146149234682092
10
-155.37310759899174
20
0.99028350400056131
10
-220.37310759899174
20
0.99028350400055309
10
-220.37310759899171
20
-55.146149234682099
0
CIRCLE
5
105
100
AcDbEntity
8
0
100
AcDbCircle
10
-60.509532138182905
20
15.879075247127846
30
0
40
1.5000000000000036
210
1.6072926827017297e-31
220
1.7487677143844562e-46
230
1
0
CIRCLE
5
106
100
AcDbEntity
8
0
100
AcDbCircle
10
-202.59607727148909
20
-62.645968446663119
30
0
40
1.4999999999999858
210
-3.648595803507989e-32
220
-3.9697477706973678e-47
230
1
0
CIRCLE
5
107
100
AcDbEntity
8
0
100
AcDbCircle
10
-214.59607727148909
20
-62.645968446663119
30
0
40
1.4999999999999858
210
-3.648595803507989e-32
220
-3.9697477706973678e-47
230
1
0
CIRCLE
5
108
100
AcDbEntity
8
0
100
AcDbCircle
10
-14.935846935981612
20
-27.110250442406066
30
0
40
1.5000000000000169
210
1.6072926827017297e-31
220
1.7487677143844558e-46
230
1
0
CIRCLE
5
109
100
AcDbEntity
8
0
100
AcDbCircle
10
-26.935846935981616
20
-27.11025044240607
30
0
40
1.5000000000000169
210
1.6072926827017297e-31
220
1.7487677143844558e-46
230
1
0
CIRCLE
5
110
100
AcDbEntity
8
0
100
AcDbCircle
10
-77.983705783991155
20
-19.236675107833221
30
0
40
1.6000000000000014
210
-3.6485958035079824e-32
220
-3.9443045261050599e-31
230
1
0
CIRCLE
5
111
100
AcDbEntity
8
0
100
AcDbCircle
10
-77.983705783991084
20
-47.136675107833085
30
0
40
1.6000000000000014
210
-3.6485958035079824e-32
220
-3.9443045261050599e-31
230
1
0
CIRCLE
5
112
100
AcDbEntity
8
0
100
AcDbCircle
10
-129.8837057839911
20
-51.836675107833258
30
-2.7755575615628914e-16
40
1.6000000000000014
210
-3.6485958035079824e-32
220
-3.9443045261050599e-31
230
1
0
CIRCLE
5
113
100
AcDbEntity
8
0
100
AcDbCircle
10
-128.78370578399122
20
-4.0366751078334362
30
0
40
1.6000000000000014
210
-3.6485958035079824e-32
220
-3.9443045261050599e-31
230
1
0
CIRCLE
5
114
100
AcDbEntity
8
0
100
AcDbCircle
10
-60.525596178487831
20
-70.082540003884588
30
0
40
1.5000000000000036
210
1.6072926827017297e-31
220
1.7487677143844562e-46
230
1
0
CIRCLE
5
115
100
AcDbEntity
8
0
100
AcDbCircle
10
-188.52559617848752
20
-70.082540003884958
30
0
40
1.5000000000000213
210
-3.648595803507989e-32
220
-3.9697477706973678e-47
230
1
0
LWPOLYLINE
5
116
100
AcDbEntity
8
0
100
AcDbPolyline
90
4
70
1
43
0.0
10
19.558865565948416
20
22.576860658934343
10
-50.441129544956802
20
22.603023098502248
10
-50.450099524237196
20
-1.3969752252365821
10
19.549895586668004
20
-1.4231376648083538
0
SPLINE
5
117
100
AcDbEntity
8
0
100
AcDbSpline
70
4
71
5
72
39
73
33
74
0
42
0.000000001
43
0.0000000001
44
0.0000000001
40
0.49460056334268943
40
0.49460056334268943
40
0.49460056334268943
40
0.49460056334268943
40
0.49460056334268943
40
0.49460056334268943
40
0.50909090909090915
40
0.52727272727272734
40
0.54545454545454553
40
0.56363636363636371
40
0.5818181818181819
40
0.60000000000000009
40
0.61818181818181828
40
0.63636363636363646
40
0.65454545454545465
40
0.67272727272727284
40
0.69090909090909103
40
0.70909090909090922
40
0.7272727272727274
40
0.74545454545454559
40
0.76363636363636378
40
0.78181818181818197
40
0.80000000000000016
40
0.81818181818181834
40
0.83636363636363653
40
0.85454545454545472
40
0.87272727272727291
40
0.89090909090909109
40
0.90909090909090928
40
0.92727272727272747
40
0.94545454545454566
40
0.96363636363636385
40
0.98181818181818203
40
0.99981375634787517
40
0.99981375634787517
40
0.99981375634787517
40
0.99981375634787517
40
0.99981375634787517
40
0.99981375634787517
41
1
41
1
41
1
41
1
41
1
41
1
41
1
41
1
41
1
41
1
41
1
41
1
41
1
41
1
41
1
41
1
41
1
41
1
41
1
41
1
41
1
41
1
41
1
41
1
41
1
41
1
41
1
41
1
41
1
41
1
41
1
41
1
41
1
10
-103.07385459066759
20
-107.3448964491354
30
0
10
-101.84378879594908
20
-107.40741587419538
30
2.7755575615628914e-16
10
-99.067049057219663
20
-107.53901917797253
30
-2.7755575615628914e-16
10
-94.730799170646122
20
-107.71110352672392
30
-2.7755575615628914e-16
10
-88.803638359952416
20
-107.87609147968276
30
0
10
-81.251301682641724
20
-107.9693499192233
30
-2.7755575615628914e-16
10
-73.386653055733206
20
-107.94499333497782
30
-2.7755575615628914e-16
10
-65.650172923939593
20
-107.80499697841265
30
0
10
-58.170186296046246
20
-107.55503889944826
30
2.7755575615628914e-16
10
-51.048068630641332
20
-107.19951729044598
30
0
10
-44.32659022585532
20
-106.74017888022895
30
0
10
-37.949039551424192
20
-106.17547370938891
30
2.7755575615628914e-16
10
-31.747045836084375
20
-105.49778400999844
30
0
10
-25.508930833056411
20
-104.68544816017626
30
0
10
-19.036194679100223
20
-103.69486149321378
30
0
10
-12.198965163400642
20
-102.45425736102689
30
0
10
-5.0057849599788176
20
-100.85249292421494
30
0
10
2.3822705600577967
20
-98.745190477852873
30
0
10
9.7177991050012089
20
-95.985693964448416
30
0
10
16.712615110361739
20
-92.449408655681509
30
0
10
23.093104812530278
20
-88.062010280276226
30
0
10
28.647742626892683
20
-82.823448078583112
30
0
10
33.287586717956664
20
-76.84085738383304
30
-2.7755575615628914e-16
10
37.028402530302785
20
-70.304700630013642
30
2.7755575615628914e-16
10
39.954989415561926
20
-63.452084384808252
30
0
10
42.190910614978627
20
-56.533543604967498
30
0
10
43.867949027059169
20
-49.780751394534526
30
-2.7755575615628914e-16
10
45.091225730584597
20
-43.368207669850889
30
0
10
45.91981264386235
20
-37.408732211254978
30
0
10
46.294821327435507
20
-33.034897614980252
30
0
10
46.419103194733644
20
-29.984156157563895
30
2.7755575615628914e-16
10
46.432457590353515
20
-28.0542599308287
30
0
10
46.421938022946392
20
-27.119132011863378
30
2.7755575615628914e-16
0
LINE
5
118
100
AcDbEntity
8
0
100
AcDbLine
10
46.421938022946385
20
-27.119132011863382
30
2.7755575615628914e-16
11
46.421375283441321
21
-27.070768501355268
31
2.7755575615628914e-16
0
SPLINE
5
119
100
AcDbEntity
8
0
100
AcDbSpline
70
4
71
5
72
39
73
33
74
0
42
0.000000001
43
0.0000000001
44
0.0000000001
40
-1
40
-1
40
-1
40
-1
40
-1
40
-1
40
-0.98181818181818203
40
-0.96363636363636385
40
-0.94545454545454566
40
-0.92727272727272747
40
-0.90909090909090928
40
-0.89090909090909109
40
-0.87272727272727291
40
-0.85454545454545472
40
-0.83636363636363653
40
-0.81818181818181834
40
-0.80000000000000016
40
-0.78181818181818197
40
-0.76363636363636378
40
-0.74545454545454559
40
-0.7272727272727274
40
-0.70909090909090922
40
-0.69090909090909103
40
-0.67272727272727284
40
-0.65454545454545465
40
-0.63636363636363646
40
-0.61818181818181828
40
-0.60000000000000009
40
-0.5818181818181819
40
-0.56363636363636371
40
-0.54545454545454553
40
-0.52727272727272734
40
-0.50909090909090915
40
-0.49460056334268943
40
-0.49460056334268943
40
-0.49460056334268943
40
-0.49460056334268943
40
-0.49460056334268943
40
-0.49460056334268943
41
1
41
1
41
1
41
1
41
1
41
1
41
1
41
1
41
1
41
1
41
1
41
1
41
1
41
1
41
1
41
1
41
1
41
1
41
1
41
1
41
1
41
1
41
1
41
1
41
1
41
1
41
1
41
1
41
1
41
1
41
1
41
1
41
1
10
46.421375283441321
20
-27.070768501355268
30
0
10
46.432721558654386
20
-26.127002041775391
30
0
10
46.420375106139986
20
-24.188729892206212
30
2.7755575615628914e-16
10
46.29674504553882
20
-21.129095793059477
30
0
10
45.921513638237542
20
-16.745038914476538
30
-2.7755575615628914e-16
10
45.091225730585627
20
-10.773329332859568
30
0
10
43.867949027060618
20
-4.3607856081758527
30
0
10
42.190910614980481
20
2.3920066022572306
30
0
10
39.954989415564192
20
9.3105473820981306
30
0
10
37.028402530305456
20
16.163163627303685
30
2.7755575615628914e-16
10
33.287586717959748
20
22.699320381123364
30
0
10
28.647742626896186
20
28.681911075873732
30
-2.7755575615628914e-16
10
23.093104812534087
20
33.92047327756719
30
0
10
16.712615110365789
20
38.3078716529728
30
0
10
9.7177991050055343
20
41.844156961740218
30
2.7755575615628914e-16
10
2.3822705600622589
20
44.60365347514518
30
2.7755575615628914e-16
10
-5.0057849599742177
20
46.710955921507733
30
0
10
-12.198965163395938
20
48.312720358320163
30
2.7755575615628914e-16
10
-19.036194679095416
20
49.553324490507443
30
0
10
-25.508930833051533
20
50.543911157470383
30
0
10
-31.747045836079501
20
51.356247007292943
30
-2.7755575615628914e-16
10
-37.949039551419247
20
52.033936706683754
30
0
10
-44.326590225850367
20
52.59864187752423
30
0
10
-51.048068630636308
20
53.057980287741714
30
0
10
-58.170186296041237
20
53.413501896744449
30
0
10
-65.650172923934591
20
53.663459975709301
30
0
10
-73.386653055728161
20
53.803456332275047
30
0
10
-81.251301682636651
20
53.827812916521019
30
0
10
-88.803638359947371
20
53.73455447698089
30
0
10
-94.730799170641092
20
53.56956652402247
30
0
10
-99.06704905721466
20
53.39748217527135
30
0
10
-101.84378879594406
20
53.265878871494408
30
0
10
-103.07385459066259
20
53.203359446434504
30
0
0
SPLINE
5
120
100
AcDbEntity
8
0
100
AcDbSpline
70
4
71
5
72
39
73
33
74
0
42
0.000000001
43
0.0000000001
44
0.0000000001
40
-0.49460056334271046
40
-0.49460056334271046
40
-0.49460056334271046
40
-0.49460056334271046
40
-0.49460056334271046
40
-0.49460056334271046
40
-0.49090909090909102
40
-0.47272727272727283
40
-0.45454545454545464
40
-0.43636363636363645
40
-0.41818181818181827
40
-0.40000000000000008
40
-0.38181818181818189
40
-0.3636363636363637
40
-0.34545454545454551
40
-0.32727272727272733
40
-0.30909090909090914
40
-0.29090909090909095
40
-0.27272727272727276
40
-0.25454545454545457
40
-0.23636363636363641
40
-0.21818181818181823
40
-0.20000000000000004
40
-0.18181818181818185
40
-0.16363636363636366
40
-0.14545454545454548
40
-0.12727272727272729
40
-0.1090909090909091
40
-0.090909090909090912
40
-0.072727272727272724
40
-0.054545454545454543
40
-0.036363636363636362
40
-0.018181818181818181
40
0
40
0
40
0
40
0
40
0
40
0
41
1
41
1
41
1
41
1
41
1
41
1
41
1
41
1
41
1
41
1
41
1
41
1
41
1
41
1
41
1
41
1
41
1
41
1
41
1
41
1
41
1
41
1
41
1
41
1
41
1
41
1
41
1
41
1
41
1
41
1
41
1
41
1
41
1
10
-103.07385459065364
20
53.203359446434931
30
0
10
-103.38721867813922
20
53.187432377600004
30
0
10
-105.24345936622979
20
53.091462001065224
30
0
10
-108.6370547468956
20
52.898377406705862
30
0
10
-113.56262589320444
20
52.571272646126047
30
0
10
-120.0391855859892
20
52.053043966903147
30
0
10
-127.82026424220311
20
51.303303193112072
30
0
10
-135.71079828227073
20
50.418760682675213
30
0
10
-143.69259399764508
20
49.396652786199539
30
0
10
-151.68645069384763
20
48.232671612867996
30
2.7755575615628914e-16
10
-159.58240800857379
20
46.92144716829258
30
2.7755575615628914e-16
10
-167.26112670538993
20
45.45680962576828
30
2.7755575615628914e-16
10
-174.62032666964063
20
43.832257229408008
30
2.7755575615628914e-16
10
-181.59549931910075
20
42.04106846677395
30
0
10
-188.19197167845925
20
40.077229898629255
30
0
10
-194.47908140623881
20
37.933579670618577
30
0
10
-200.54302958759268
20
35.597205728603413
30
0
10
-206.44777641971771
20
33.044916052319799
30
2.7755575615628914e-16
10
-212.19860871670943
20
30.240041608190531
30
0
10
-217.68987334414888
20
27.125272083068793
30
0
10
-222.71688327808459
20
23.630491247392587
30
0
10
-227.05452194505878
20
19.696121284169209
30
2.7755575615628914e-16
10
-230.51670458729495
20
15.291907181177036
30
2.7755575615628914e-16
10
-233.02591716223174
20
10.438472336820032
30
0
10
-234.67250382122981
20
5.2254246673964477
30
0
10
-235.64816369126063
20
-0.21923990710814276
30
0
10
-236.18526635870862
20
-5.757408771692095
30
0
10
-236.49429760211723
20
-11.269873811297611
30
0
10
-236.70168713924116
20
-16.685258669490665
30
2.7755575615628914e-16
10
-236.83676756147872
20
-20.911546961075143
30
0
10
-236.93021801255276
20
-24.016376997415708
30
2.7755575615628914e-16
10
-236.9890252305828
20
-26.057441695350022
30
0
10
-237.01755566417091
20
-27.07076850134613
30
0
0
LINE
5
121
100
AcDbEntity
8
0
100
AcDbLine
10
-237.01755566417089
20
-27.07076850134613
30
1.8683308154073606e-31
11
-237.01733882529723
21
-27.078469504255402
31
0
0
LINE
5
122
100
AcDbEntity
8
0
100
AcDbLine
10
-237.01733882529723
20
-27.078469504255402
30
0
11
-237.01619336856828
21
-27.119132011853889
31
1.5407439555097887e-32
0
SPLINE
5
123
100
AcDbEntity
8
0
100
AcDbSpline
70
4
71
5
72
39
73
33
74
0
42
0.000000001
43
0.0000000001
44
0.0000000001
40
0.00017353083139819842
40
0.00017353083139819842
40
0.00017353083139819842
40
0.00017353083139819842
40
0.00017353083139819842
40
0.00017353083139819842
40
0.018181818181818181
40
0.036363636363636362
40
0.054545454545454543
40
0.072727272727272724
40
0.090909090909090912
40
0.1090909090909091
40
0.12727272727272729
40
0.14545454545454548
40
0.16363636363636366
40
0.18181818181818185
40
0.20000000000000004
40
0.21818181818181823
40
0.23636363636363641
40
0.25454545454545457
40
0.27272727272727276
40
0.29090909090909095
40
0.30909090909090914
40
0.32727272727272733
40
0.34545454545454551
40
0.3636363636363637
40
0.38181818181818189
40
0.40000000000000008
40
0.41818181818181827
40
0.43636363636363645
40
0.45454545454545464
40
0.47272727272727283
40
0.49090909090909102
40
0.49460056334271046
40
0.49460056334271046
40
0.49460056334271046
40
0.49460056334271046
40
0.49460056334271046
40
0.49460056334271046
41
1
41
1
41
1
41
1
41
1
41
1
41
1
41
1
41
1
41
1
41
1
41
1
41
1
41
1
41
1
41
1
41
1
41
1
41
1
41
1
41
1
41
1
41
1
41
1
41
1
41
1
41
1
41
1
41
1
41
1
41
1
41
1
41
1
10
-237.01619336856857
20
-27.119132011853814
30
2.7755575615628914e-16
10
-236.98790221809736
20
-28.123059887450225
30
0
10
-236.92932586419602
20
-30.154795080869757
30
2.7755575615628914e-16
10
-236.83612276895587
20
-33.250158906537322
30
0
10
-236.70129126597539
20
-37.466615431806005
30
2.7755575615628914e-16
10
-236.49429760211854
20
-42.871663191394447
30
0
10
-236.18526635871029
20
-48.384128230999991
30
0
10
-235.64816369126262
20
-53.922297095584007
30
-2.7755575615628914e-16
10
-234.67250382123214
20
-59.366961670088649
30
2.7755575615628914e-16
10
-233.02591716223446
20
-64.580009339512401
30
0
10
-230.51670458729805
20
-69.433444183869568
30
0
10
-227.05452194506219
20
-73.837658286861966
30
2.7755575615628914e-16
10
-222.7168832780884
20
-77.772028250085626
30
0
10
-217.689873344153
20
-81.266809085762162
30
0
10
-212.19860871671384
20
-84.381578610884276
30
0
10
-206.44777641972243
20
-87.186453055013942
30
0
10
-200.54302958759766
20
-89.738742731297947
30
0
10
-194.47908140624409
20
-92.075116673313531
30
0
10
-188.19197167846482
20
-94.218766901324614
30
0
10
-181.59549931910658
20
-96.182605469469777
30
2.7755575615628914e-16
10
-174.62032666964674
20
-97.973794232104225
30
0
10
-167.26112670539629
20
-99.598346628465009
30
0
10
-159.58240800858039
20
-101.06298417098984
30
0
10
-151.68645069385451
20
-102.37420861556569
30
2.7755575615628914e-16
10
-143.69259399765218
20
-103.5381897888978
30
0
10
-135.71079828227812
20
-104.56029768537398
30
0
10
-127.82026424221071
20
-105.44484019581141
30
0
10
-120.039185585997
20
-106.1945809696029
30
2.7755575615628914e-16
10
-113.56262589321241
20
-106.71280964882619
30
2.7755575615628914e-16
10
-108.6370547469037
20
-107.03991440940629
30
2.7755575615628914e-16
10
-105.24345936623797
20
-107.23299900376591
30
0
10
-103.38721867814746
20
-107.3289693803008
30
0
10
-103.07385459066188
20
-107.3448964491358
30
0
0
ENDSEC
0
SECTION
2
OBJECTS
0
DICTIONARY
5
C
100
AcDbDictionary
3
ACAD_GROUP
350
D
3
ACAD_MLINESTYLE
350
17
0
DICTIONARY
5
D
100
AcDbDictionary
0
DICTIONARY
5
1A
330
C
100
AcDbDictionary
0
DICTIONARY
5
17
100
AcDbDictionary
0
ENDSEC
0
EOF
