0
SECTION
2
HEADER
9
$INSUNITS
70
4
9
$ACADVER
1
AC1014
9
$HANDSEED
5
FFFF
0
ENDSEC
0
SECTION
2
TABLES
0
TABLE
2
VPORT
5
8
100
AcDbSymbolTable
0
ENDTAB
0
TABLE
2
LTYPE
5
5
100
AcDbSymbolTable
0
LTYPE
5
14
100
AcDbSymbolTableRecord
100
AcDbLinetypeTableRecord
2
BYBLOCK
70
0
0
LTYPE
5
15
100
AcDbSymbolTableRecord
100
AcDbLinetypeTableRecord
2
BYLAYER
70
0
0
ENDTAB
0
TABLE
2
LAYER
5
2
100
AcDbSymbolTable
70
2
0
LAYER
5
50
100
AcDbSymbolTableRecord
100
AcDbLayerTableRecord
2
0
70
0
6
CONTINUOUS
0
ENDTAB
0
TABLE
2
STYLE
5
3
100
AcDbSymbolTable
70
1
0
STYLE
5
11
100
AcDbSymbolTableRecord
100
AcDbTextStyleTableRecord
2
STANDARD
70
0
0
ENDTAB
0
TABLE
2
VIEW
5
6
100
AcDbSymbolTable
70
0
0
ENDTAB
0
TABLE
2
UCS
5
7
100
AcDbSymbolTable
70
0
0
ENDTAB
0
TABLE
2
APPID
5
9
100
AcDbSymbolTable
70
2
0
APPID
5
12
100
AcDbSymbolTableRecord
100
AcDbRegAppTableRecord
2
ACAD
70
0
0
ENDTAB
0
TABLE
2
DIMSTYLE
5
A
100
AcDbSymbolTable
70
1
0
ENDTAB
0
TABLE
2
BLOCK_RECORD
5
1
100
AcDbSymbolTable
70
1
0
BLOCK_RECORD
5
1F
100
AcDbSymbolTableRecord
100
AcDbBlockTableRecord
2
*MODEL_SPACE
0
BLOCK_RECORD
5
1B
100
AcDbSymbolTableRecord
100
AcDbBlockTableRecord
2
*PAPER_SPACE
0
ENDTAB
0
ENDSEC
0
SECTION
2
BLOCKS
0
BLOCK
5
20
100
AcDbEntity
100
AcDbBlockBegin
2
*MODEL_SPACE
0
ENDBLK
5
21
100
AcDbEntity
100
AcDbBlockEnd
0
BLOCK
5
1C
100
AcDbEntity
100
AcDbBlockBegin
2
*PAPER_SPACE
0
ENDBLK
5
1D
100
AcDbEntity
100
AcDbBlockEnd
0
ENDSEC
0
SECTION
2
ENTITIES
0
LINE
5
100
100
AcDbEntity
8
0
100
AcDbLine
10
19.558865565948423
20
22.576860658934347
30
0
11
19.557258715671985
21
18.277586074746207
31
0
0
SPLINE
5
101
100
AcDbEntity
8
0
100
AcDbSpline
70
0
71
3
72
14
73
10
74
0
42
0.000000001
43
0.0000000001
44
0.0000000001
40
-19.844732896083531
40
-19.844732896083531
40
-19.844732896083531
40
-19.844732896083531
40
-15.022931545863772
40
-15.022931545863772
40
-11.797023033851943
40
-11.797023033851943
40
-6.9722510314835722
40
-6.9722510314835722
40
0
40
0
40
0
40
0
10
19.557258715672042
20
18.277586074746143
30
1.3877787807814457e-16
10
22.053529994438588
20
15.674675238366307
30
-1.3877787807814457e-16
10
23.828320911366902
20
13.136106555182433
30
-1.3877787807814457e-16
10
26.737710617877958
20
6.9241049172258062
30
0
10
27.815009601067825
20
4.0657734616134222
30
0
10
29.925821485911651
20
-2.5624390384613545
30
0
10
30.771023404324438
20
-6.4000379466979682
30
0
10
32.246466222298778
20
-16.421405507686082
30
0
10
32.590400281033595
20
-22.852556681314567
30
0
10
32.591075283440986
20
-27.070768501354824
30
0
0
LINE
5
102
100
AcDbEntity
8
0
100
AcDbLine
10
32.591075283440986
20
-27.070768501354824
30
0
11
32.591053050231316
21
-27.119132011635788
31
-3.0814879110195774e-32
0
LINE
5
103
100
AcDbEntity
8
0
100
AcDbLine
10
32.591053050231316
20
-27.119132011635788
30
-3.0814879110195774e-32
11
46.421938022946421
21
-27.119132011863371
31
2.1031904046637141e-31
0
LINE
5
104
100
AcDbEntity
8
0
100
AcDbLine
10
46.421938022946421
20
-27.119132011863371
30
2.1031904046637141e-31
11
46.421375283441321
21
-27.070768501355261
31
0
0
SPLINE
5
105
100
AcDbEntity
8
0
100
AcDbSpline
70
4
71
5
72
39
73
33
74
0
42
0.000000001
43
0.0000000001
44
0.0000000001
40
-1
40
-1
40
-1
40
-1
40
-1
40
-1
40
-0.98181818181818203
40
-0.96363636363636385
40
-0.94545454545454566
40
-0.92727272727272747
40
-0.90909090909090928
40
-0.89090909090909109
40
-0.87272727272727291
40
-0.85454545454545472
40
-0.83636363636363653
40
-0.81818181818181834
40
-0.80000000000000016
40
-0.78181818181818197
40
-0.76363636363636378
40
-0.74545454545454559
40
-0.7272727272727274
40
-0.70909090909090922
40
-0.69090909090909103
40
-0.67272727272727284
40
-0.65454545454545465
40
-0.63636363636363646
40
-0.61818181818181828
40
-0.60000000000000009
40
-0.5818181818181819
40
-0.56363636363636371
40
-0.54545454545454553
40
-0.52727272727272734
40
-0.50909090909090915
40
-0.49460056334268943
40
-0.49460056334268943
40
-0.49460056334268943
40
-0.49460056334268943
40
-0.49460056334268943
40
-0.49460056334268943
41
1
41
1
41
1
41
1
41
1
41
1
41
1
41
1
41
1
41
1
41
1
41
1
41
1
41
1
41
1
41
1
41
1
41
1
41
1
41
1
41
1
41
1
41
1
41
1
41
1
41
1
41
1
41
1
41
1
41
1
41
1
41
1
41
1
10
46.421375283441321
20
-27.070768501355261
30
0
10
46.432721558654386
20
-26.127002041775388
30
0
10
46.420375106139986
20
-24.188729892206208
30
0
10
46.29674504553882
20
-21.129095793059474
30
0
10
45.921513638237542
20
-16.745038914476538
30
0
10
45.091225730585627
20
-10.773329332859568
30
0
10
43.867949027060618
20
-4.3607856081758536
30
0
10
42.190910614980481
20
2.3920066022572297
30
0
10
39.954989415564192
20
9.3105473820981306
30
0
10
37.028402530305456
20
16.163163627303685
30
0
10
33.287586717959748
20
22.699320381123368
30
0
10
28.647742626896186
20
28.681911075873735
30
0
10
23.093104812534087
20
33.920473277567197
30
0
10
16.712615110365789
20
38.307871652972807
30
0
10
9.7177991050055361
20
41.844156961740218
30
0
10
2.3822705600622598
20
44.60365347514518
30
0
10
-5.0057849599742168
20
46.710955921507733
30
0
10
-12.198965163395938
20
48.312720358320163
30
0
10
-19.036194679095416
20
49.553324490507443
30
0
10
-25.508930833051533
20
50.543911157470383
30
0
10
-31.747045836079501
20
51.356247007292943
30
1.3877787807814457e-16
10
-37.949039551419247
20
52.033936706683754
30
0
10
-44.326590225850367
20
52.59864187752423
30
1.3877787807814457e-16
10
-51.048068630636308
20
53.057980287741714
30
0
10
-58.170186296041237
20
53.413501896744449
30
0
10
-65.650172923934591
20
53.663459975709301
30
0
10
-73.386653055728161
20
53.803456332275047
30
0
10
-81.251301682636651
20
53.827812916521019
30
0
10
-88.803638359947371
20
53.73455447698089
30
0
10
-94.730799170641092
20
53.56956652402247
30
0
10
-99.06704905721466
20
53.39748217527135
30
0
10
-101.84378879594406
20
53.265878871494408
30
0
10
-103.07385459066259
20
53.203359446434504
30
0
0
LINE
5
106
100
AcDbEntity
8
0
100
AcDbLine
10
-103.07385459066259
20
53.203359446434504
30
0
11
-103.07385459066268
21
42.940512046488678
31
0
0
SPLINE
5
107
100
AcDbEntity
8
0
100
AcDbSpline
70
0
71
3
72
10
73
6
74
0
42
0.000000001
43
0.0000000001
44
0.0000000001
40
-40.302523637723802
40
-40.302523637723802
40
-40.302523637723802
40
-40.302523637723802
40
-27.952143831959162
40
-27.952143831959162
40
0
40
0
40
0
40
0
10
-103.07385459066268
20
42.940512046488692
30
0
10
-92.233079732900634
20
43.470271361862572
30
-1.3877787807814457e-16
10
-81.180111668318432
20
43.617536438021801
30
0
10
-47.221565048986463
20
43.346683000566834
30
-1.3877787807814457e-16
10
-22.608642321729889
20
41.908226357355545
30
0
10
-5.9200151282354421
20
39.174504781752681
30
-1.3877787807814457e-16
0
SPLINE
5
108
100
AcDbEntity
8
0
100
AcDbSpline
70
0
71
3
72
10
73
6
74
0
42
0.000000001
43
0.0000000001
44
0.0000000001
40
-1.6839597261076238
40
-1.6839597261076238
40
-1.6839597261076238
40
-1.6839597261076238
40
-0.83017949302642047
40
-0.83017949302642047
40
0
40
0
40
0
40
0
10
-5.9200151282359039
20
39.174504781752752
30
-1.3877787807814457e-16
10
-5.4102813251438855
20
39.091006583897993
30
0
10
-4.9006080631284101
20
39.005098929410764
30
-1.3877787807814457e-16
10
-3.8968604927616197
20
38.830697322047556
30
0
10
-3.4021298831858799
20
38.742233756740838
30
0
10
-2.9081944706160896
20
38.651176067696397
30
0
0
SPLINE
5
109
100
AcDbEntity
8
0
100
AcDbSpline
70
0
71
3
72
10
73
6
74
0
42
0.000000001
43
0.0000000001
44
0.0000000001
40
-1.9851994868353011
40
-1.9851994868353011
40
-1.9851994868353011
40
-1.9851994868353011
40
-0.94429488235032555
40
-0.94429488235032555
40
0
40
0
40
0
40
0
10
-2.9081944706160896
20
38.651176067696397
30
0
10
-1.4970918667727848
20
38.529296517990865
30
0
10
-0.60073205217204895
20
38.473895587464099
30
-1.3877787807814457e-16
10
0.78534966800691552
20
38.329066614831746
30
1.3877787807814457e-16
10
1.3625823418339706
20
38.237537698745633
30
0
10
1.9007666556297951
20
38.045862164068957
30
0
0
LINE
5
110
100
AcDbEntity
8
0
100
AcDbLine
10
1.9007666556297949
20
38.045862164068964
30
1.3703896264064215e-31
11
1.9007666556295897
21
30.913811301458878
31
0
0
SPLINE
5
111
100
AcDbEntity
8
0
100
AcDbSpline
70
0
71
3
72
12
73
8
74
0
42
0.000000001
43
0.0000000001
44
0.0000000001
40
-26.343973884148241
40
-26.343973884148241
40
-26.343973884148241
40
-26.343973884148241
40
-25.099073599613654
40
-25.099073599613654
40
-23.911643810887593
40
-23.911643810887593
40
-22.230595199603403
40
-22.230595199603403
40
-22.230595199603403
40
-22.230595199603403
10
1.9007666556295897
20
30.913811301458878
30
0
10
3.0255414087410419
20
30.793023401573414
30
0
10
4.1878694045321305
20
30.409716894804056
30
-1.3877787807814457e-16
10
6.6574850957623273
20
29.14184113621614
30
1.3877787807814457e-16
10
7.8916085632508306
20
28.314894615205141
30
0
10
10.984367768473273
20
25.994350388185588
30
0
10
13.296512324259444
20
24.035642403908312
30
-1.3877787807814457e-16
10
14.96397413758989
20
22.578577995759087
30
0
0
LINE
5
112
100
AcDbEntity
8
0
100
AcDbLine
10
14.96397413758989
20
22.578577995759087
30
3.1187301893652679e-32
11
19.558865565948423
21
22.576860658934347
31
0
0
ENDSEC
0
SECTION
2
OBJECTS
0
DICTIONARY
5
C
100
AcDbDictionary
3
ACAD_GROUP
350
D
3
ACAD_MLINESTYLE
350
17
0
DICTIONARY
5
D
100
AcDbDictionary
0
DICTIONARY
5
1A
330
C
100
AcDbDictionary
0
DICTIONARY
5
17
100
AcDbDictionary
0
ENDSEC
0
EOF
