<?xml version="1.0" encoding="UTF-8" standalone="no"?>
<!-- Created with Inkscape (http://www.inkscape.org/) -->

<svg
   xmlns:dc="http://purl.org/dc/elements/1.1/"
   xmlns:cc="http://creativecommons.org/ns#"
   xmlns:rdf="http://www.w3.org/1999/02/22-rdf-syntax-ns#"
   xmlns:svg="http://www.w3.org/2000/svg"
   xmlns="http://www.w3.org/2000/svg"
   xmlns:sodipodi="http://sodipodi.sourceforge.net/DTD/sodipodi-0.dtd"
   xmlns:inkscape="http://www.inkscape.org/namespaces/inkscape"
   width="48pt"
   height="21pt"
   viewBox="0 0 16.933334 7.4083333"
   version="1.1"
   id="svg8"
   inkscape:version="0.92.4 (5da689c313, 2019-01-14)"
   sodipodi:docname="Marlin Status.svg"
   inkscape:export-filename="C:\Users\14349\Desktop\Marlin Status Mike.png"
   inkscape:export-xdpi="72"
   inkscape:export-ydpi="72">
  <defs
     id="defs2" />
  <sodipodi:namedview
     id="base"
     pagecolor="#ffffff"
     bordercolor="#666666"
     borderopacity="1.0"
     inkscape:pageopacity="0.0"
     inkscape:pageshadow="2"
     inkscape:zoom="15.839192"
     inkscape:cx="31.85266"
     inkscape:cy="9.8592847"
     inkscape:document-units="mm"
     inkscape:current-layer="layer1"
     showgrid="false"
     units="pt"
     inkscape:window-width="1707"
     inkscape:window-height="937"
     inkscape:window-x="-8"
     inkscape:window-y="-8"
     inkscape:window-maximized="1" />
  <metadata
     id="metadata5">
    <rdf:RDF>
      <cc:Work
         rdf:about="">
        <dc:format>image/svg+xml</dc:format>
        <dc:type
           rdf:resource="http://purl.org/dc/dcmitype/StillImage" />
        <dc:title />
      </cc:Work>
    </rdf:RDF>
  </metadata>
  <g
     inkscape:label="Layer 1"
     inkscape:groupmode="layer"
     id="layer1"
     transform="translate(0,-289.59167)">
    <g
       aria-label="MIKE"
       style="font-style:normal;font-variant:normal;font-weight:normal;font-stretch:normal;font-size:5.99136734px;line-height:1.25;font-family:'Cambria Math';-inkscape-font-specification:'Cambria Math';letter-spacing:0px;word-spacing:0px;fill:none;fill-opacity:1;stroke:#000000;stroke-width:0.17638889;stroke-miterlimit:4;stroke-dasharray:none;stroke-opacity:1"
       id="text1383" />
    <path
       style="opacity:1;fill:#000000;fill-opacity:1;fill-rule:nonzero;stroke:#000000;stroke-width:0.66666669;stroke-linecap:round;stroke-linejoin:round;stroke-miterlimit:4;stroke-dasharray:none;stroke-dashoffset:0;stroke-opacity:1;paint-order:stroke fill markers"
       d="M 1.5566406 2.8496094 L 1.5566406 24.771484 L 62.630859 24.771484 L 62.630859 2.8496094 L 1.5566406 2.8496094 z M 5.0585938 5.7109375 L 21.921875 5.7109375 C 23.211847 5.7109375 23.855469 6.3367288 23.855469 7.5898438 L 23.855469 21.910156 L 19.433594 21.910156 L 19.433594 9.8027344 C 19.433594 9.581506 19.340532 9.4707031 19.15625 9.4707031 L 16.679688 9.4707031 L 16.679688 21.910156 L 12.246094 21.910156 L 12.246094 9.4707031 L 9.4824219 9.4707031 L 9.4824219 21.910156 L 5.0703125 21.910156 L 5.0585938 5.7109375 z M 25.537109 5.7109375 L 29.970703 5.7109375 L 29.958984 21.910156 L 25.537109 21.910156 L 25.537109 5.7109375 z M 31.640625 5.7109375 L 36.0625 5.7109375 L 36.0625 10.742188 L 39.490234 5.7109375 L 44.554688 5.7109375 L 39.966797 12.025391 L 45.328125 21.910156 L 40.021484 21.910156 L 36.0625 13.759766 L 36.0625 21.910156 L 31.640625 21.910156 L 31.640625 5.7109375 z M 46.279297 5.7109375 L 59.126953 5.7109375 L 57.248047 9.4707031 L 50.703125 9.4707031 L 50.703125 12.345703 L 56.783203 12.345703 L 56.783203 15.275391 L 50.703125 15.275391 L 50.703125 18.150391 L 59.126953 18.150391 L 57.248047 21.910156 L 46.279297 21.910156 L 46.279297 5.7109375 z "
       transform="matrix(0.26458333,0,0,0.26458333,0,289.59167)"
       id="path1406"
       inkscape:export-xdpi="72"
       inkscape:export-ydpi="72" />
  </g>
</svg>
