<?xml version="1.0" encoding="UTF-8" standalone="no"?>
<!-- Created with Inkscape (http://www.inkscape.org/) -->

<svg
   xmlns:dc="http://purl.org/dc/elements/1.1/"
   xmlns:cc="http://creativecommons.org/ns#"
   xmlns:rdf="http://www.w3.org/1999/02/22-rdf-syntax-ns#"
   xmlns:svg="http://www.w3.org/2000/svg"
   xmlns="http://www.w3.org/2000/svg"
   xmlns:sodipodi="http://sodipodi.sourceforge.net/DTD/sodipodi-0.dtd"
   xmlns:inkscape="http://www.inkscape.org/namespaces/inkscape"
   width="128"
   height="64"
   viewBox="0 0 33.866666 16.933334"
   version="1.1"
   id="svg8"
   inkscape:version="0.92.4 (5da689c313, 2019-01-14)"
   sodipodi:docname="drawing.svg"
   inkscape:export-filename="C:\Users\14349\Desktop\bitmap.png"
   inkscape:export-xdpi="96.000008"
   inkscape:export-ydpi="96.000008">
  <defs
     id="defs2" />
  <sodipodi:namedview
     id="base"
     pagecolor="#ffffff"
     bordercolor="#666666"
     borderopacity="1.0"
     inkscape:pageopacity="0.0"
     inkscape:pageshadow="2"
     inkscape:zoom="5.6"
     inkscape:cx="62.449404"
     inkscape:cy="23.926768"
     inkscape:document-units="mm"
     inkscape:current-layer="layer1"
     showgrid="false"
     units="px"
     inkscape:window-width="1707"
     inkscape:window-height="907"
     inkscape:window-x="-8"
     inkscape:window-y="-8"
     inkscape:window-maximized="1" />
  <metadata
     id="metadata5">
    <rdf:RDF>
      <cc:Work
         rdf:about="">
        <dc:format>image/svg+xml</dc:format>
        <dc:type
           rdf:resource="http://purl.org/dc/dcmitype/StillImage" />
        <dc:title></dc:title>
      </cc:Work>
    </rdf:RDF>
  </metadata>
  <g
     inkscape:label="Layer 1"
     inkscape:groupmode="layer"
     id="layer1"
     transform="translate(0,-280.06666)">
    <path
       inkscape:connector-curvature="0"
       id="path842"
       d="m 30.04182,294.10181 c -0.02523,-0.015 -0.111966,-0.0314 -0.192752,-0.0364 -0.221099,-0.0138 -0.354404,-0.086 -0.506283,-0.27426 -0.155605,-0.19284 -0.21336,-0.22613 -0.393189,-0.22663 -0.138078,-3.8e-4 -0.343611,-0.0815 -0.455325,-0.17974 -0.02827,-0.0249 -0.08146,-0.0523 -0.118195,-0.0609 -0.03674,-0.009 -0.139405,-0.0738 -0.228153,-0.14473 -0.08875,-0.0709 -0.184542,-0.12898 -0.212876,-0.12898 -0.02833,0 -0.09124,-0.0245 -0.139788,-0.0546 -0.06571,-0.0406 -0.114047,-0.0511 -0.189116,-0.041 -0.08861,0.0119 -0.116122,0.001 -0.226794,-0.0867 -0.148723,-0.11842 -0.168638,-0.17818 -0.130276,-0.39098 0.02831,-0.15702 0.08017,-0.24909 0.140316,-0.24909 0.01695,0 0.06201,-0.0289 0.100142,-0.0643 0.089,-0.0825 0.112955,-0.0809 0.193309,0.013 0.07815,0.0913 0.172756,0.0833 0.197861,-0.0167 0.01887,-0.0752 0.06327,-0.10007 0.218864,-0.12263 0.107604,-0.0156 0.124344,-0.0109 0.17075,0.0481 0.0283,0.036 0.06834,0.0654 0.08897,0.0654 0.02064,0 0.06647,0.0268 0.101839,0.0596 0.03537,0.0328 0.101499,0.075 0.146947,0.0938 0.07132,0.0295 0.09481,0.0284 0.171613,-0.008 0.06238,-0.0297 0.159791,-0.0426 0.325836,-0.043 0.291134,-7.6e-4 0.402974,-0.0253 0.536644,-0.11798 0.107194,-0.0743 0.216659,-0.0894 0.368905,-0.0511 0.06364,0.016 0.09044,0.008 0.149101,-0.0467 0.03933,-0.0365 0.09451,-0.0663 0.122613,-0.0663 0.02811,0 0.09816,-0.024 0.155686,-0.0534 0.08816,-0.045 0.115958,-0.0486 0.176987,-0.0234 0.101446,0.042 0.147403,0.008 0.216039,-0.16114 0.05814,-0.14305 0.05816,-0.1435 0.0082,-0.2224 l -0.05006,-0.0791 0.06417,-0.0572 c 0.03529,-0.0314 0.12022,-0.0749 0.188728,-0.0966 0.106644,-0.0337 0.12577,-0.05 0.132971,-0.11297 0.006,-0.0527 -0.01522,-0.10296 -0.0748,-0.1771 -0.06325,-0.0787 -0.08576,-0.13504 -0.09384,-0.23484 -0.01205,-0.14872 -0.09546,-0.38311 -0.153459,-0.43125 -0.05251,-0.0436 -0.158752,-0.28896 -0.178452,-0.41216 -0.03069,-0.19193 -0.189225,-0.33873 -0.274123,-0.25383 -0.06003,0.06 -0.176657,0.0299 -0.290426,-0.0749 -0.06134,-0.0565 -0.132023,-0.10322 -0.157075,-0.10372 -0.02505,-5.1e-4 -0.07946,-0.0286 -0.120909,-0.0625 -0.07353,-0.0601 -0.07453,-0.0641 -0.0413,-0.16479 0.03885,-0.11773 0.01288,-0.21148 -0.09371,-0.33814 l -0.05995,-0.0713 -0.134693,0.0381 c -0.07408,0.0209 -0.163842,0.0467 -0.19947,0.0573 -0.130345,0.0388 -0.161624,-0.0109 -0.07568,-0.12014 0.07861,-0.0999 0.0187,-0.14722 -0.186539,-0.14722 H 28.8831 l -0.02304,-0.0899 c -0.01267,-0.0495 -0.04387,-0.11308 -0.06934,-0.14135 -0.02547,-0.0283 -0.06439,-0.0861 -0.0865,-0.1285 -0.02211,-0.0424 -0.06801,-0.11102 -0.101993,-0.15248 -0.05881,-0.0717 -0.06577,-0.0737 -0.144279,-0.0412 -0.07413,0.0307 -0.09436,0.0282 -0.199594,-0.0243 -0.111862,-0.0559 -0.121039,-0.0566 -0.204901,-0.0166 -0.135639,0.0647 -0.192499,0.0512 -0.278802,-0.066 -0.05506,-0.0748 -0.114497,-0.11849 -0.207946,-0.15291 -0.08895,-0.0327 -0.157785,-0.0817 -0.214974,-0.15287 -0.04627,-0.0576 -0.140629,-0.14528 -0.209684,-0.19489 -0.0747,-0.0537 -0.125554,-0.11002 -0.125554,-0.13912 0,-0.0734 -0.177709,-0.25555 -0.300896,-0.30836 -0.08199,-0.0351 -0.118517,-0.0704 -0.149338,-0.14419 -0.08952,-0.2143 -0.30072,-0.35569 -0.489125,-0.32743 -0.13153,0.0197 -0.170574,-0.025 -0.114049,-0.13061 0.02741,-0.0512 0.02628,-0.0711 -0.0068,-0.12034 -0.05484,-0.0815 -0.2028,-0.22958 -0.284928,-0.28507 -0.0421,-0.0285 -0.06834,-0.0698 -0.06834,-0.10771 0,-0.0765 -0.03883,-0.10244 -0.154201,-0.10282 -0.08658,-2.9e-4 -0.08976,-0.004 -0.08488,-0.0903 0.01869,-0.3317 0.02074,-0.31925 -0.08267,-0.50307 -0.09013,-0.16021 -0.101591,-0.20138 -0.114788,-0.41224 -0.01284,-0.20509 -0.02368,-0.24607 -0.08714,-0.32927 -0.07434,-0.0975 -0.169971,-0.15201 -0.259298,-0.14791 -0.04943,0.002 -0.193338,-0.0875 -0.424938,-0.26518 -0.06361,-0.0488 -0.136957,-0.089 -0.162998,-0.0893 -0.02604,-3.4e-4 -0.07406,-0.0216 -0.106705,-0.0473 -0.03265,-0.0257 -0.123422,-0.0621 -0.201722,-0.0808 -0.115746,-0.0278 -0.157084,-0.0281 -0.221092,-0.002 -0.07644,0.0317 -0.232693,0.18588 -0.232693,0.22966 0,0.0119 -0.03191,0.0349 -0.07091,0.0511 -0.0419,0.0174 -0.09992,0.081 -0.141818,0.15551 -0.08624,0.15341 -0.185979,0.21848 -0.417064,0.27207 -0.339945,0.0788 -0.442978,-0.0281 -0.246178,-0.25547 0.139861,-0.16159 0.123125,-0.22082 -0.05811,-0.20562 -0.09963,0.008 -0.154784,-10e-4 -0.222431,-0.0397 -0.04947,-0.0279 -0.124881,-0.0676 -0.167574,-0.0882 -0.133727,-0.0645 -0.168469,-0.124 -0.180096,-0.30862 -0.0094,-0.14927 -0.0028,-0.18137 0.05438,-0.26568 0.03579,-0.0527 0.07751,-0.10358 0.09271,-0.11297 0.05431,-0.0336 -4.04e-4,-0.14375 -0.07921,-0.15951 -0.06053,-0.0121 -0.0901,-0.0455 -0.154535,-0.17444 -0.04383,-0.0877 -0.07969,-0.16835 -0.07969,-0.17922 0,-0.0483 0.0883,-0.10053 0.169911,-0.10053 0.128133,0 0.281783,-0.0859 0.312811,-0.17494 0.02205,-0.0633 0.01501,-0.09 -0.04856,-0.18469 -0.04089,-0.0609 -0.07436,-0.13002 -0.07436,-0.15361 0,-0.0236 -0.02891,-0.068 -0.06425,-0.0988 -0.07051,-0.0613 -0.08554,-0.17396 -0.03213,-0.24076 0.04419,-0.0553 0.126835,-0.0752 0.360592,-0.0871 0.109981,-0.006 0.22198,-0.0219 0.248888,-0.0363 0.07139,-0.0382 0.186735,-0.032 0.251739,0.0135 0.04575,0.032 0.0679,0.0338 0.114944,0.009 0.103163,-0.054 0.276725,-0.26163 0.276738,-0.33101 9e-6,-0.0461 0.03807,-0.0976 0.131764,-0.17827 0.160965,-0.13862 0.215178,-0.12488 0.215178,0.0546 0,0.096 0.01262,0.12539 0.0771,0.1796 0.04241,0.0357 0.114519,0.084 0.160254,0.10746 0.05255,0.0269 0.08891,0.0685 0.09881,0.11284 0.0086,0.0386 0.03809,0.11647 0.06552,0.17301 l 0.04986,0.1028 -0.01529,-0.0984 c -0.01792,-0.11532 0.03994,-0.24534 0.164686,-0.37009 0.06798,-0.068 0.08011,-0.0993 0.08011,-0.20661 0,-0.0933 0.01331,-0.13854 0.05074,-0.17242 0.04692,-0.0424 0.05546,-0.0428 0.113357,-0.005 0.03444,0.0226 0.07593,0.0814 0.0922,0.13066 0.03622,0.10974 0.09229,0.1306 0.214193,0.0797 0.148327,-0.062 0.21692,-0.0509 0.2751,0.0446 l 0.05093,0.0835 1.03e-4,-0.0804 c 4.6e-5,-0.0442 -0.01726,-0.0948 -0.03846,-0.11237 -0.05027,-0.0417 -0.04891,-0.1145 0.0036,-0.1947 0.07022,-0.10716 0.122692,-0.12083 0.227186,-0.0592 0.09868,0.0582 0.145101,0.0499 0.09027,-0.0162 -0.03925,-0.0473 6.63e-4,-0.21508 0.06694,-0.28136 0.05733,-0.0573 0.23231,-0.0508 0.311717,0.0117 0.09372,0.0737 0.207341,0.0685 0.22715,-0.0104 0.03607,-0.1437 0.178883,-0.19337 0.589422,-0.20499 0.08952,-0.003 0.208107,-0.027 0.282703,-0.0583 0.09297,-0.039 0.145268,-0.0477 0.189147,-0.0313 0.05358,0.0201 0.0586,0.0336 0.04311,0.11621 -0.0098,0.0522 -0.0067,0.10034 0.007,0.10901 0.01349,0.009 0.04614,0.0608 0.07254,0.11607 0.065,0.13613 0.145746,0.18811 0.343561,0.22119 0.09188,0.0154 0.23066,0.0397 0.308403,0.0541 0.07774,0.0144 0.230678,0.034 0.339856,0.0436 0.326757,0.0286 0.386211,0.15001 0.147344,0.3008 -0.05593,0.0353 -0.101696,0.0797 -0.101696,0.0985 0,0.0189 0.04626,0.0525 0.102801,0.0747 0.118216,0.0464 0.131399,0.10071 0.04643,0.19116 l -0.05637,0.06 0.05723,0.0401 c 0.04432,0.031 0.05559,0.061 0.04995,0.13298 -0.0059,0.075 0.0041,0.0987 0.05151,0.12287 0.09993,0.0509 0.185364,0.14614 0.185364,0.20655 0,0.16376 -0.09915,0.18943 -0.17136,0.0444 -0.0688,-0.13822 -0.112963,-0.15604 -0.209595,-0.0846 -0.07432,0.0549 -0.08417,0.0564 -0.126109,0.0185 -0.02502,-0.0226 -0.07942,-0.0448 -0.120883,-0.0494 -0.06229,-0.007 -0.07811,0.003 -0.09106,0.0557 -0.01026,0.0419 -0.04188,0.0719 -0.09166,0.0868 -0.0418,0.0125 -0.116474,0.0452 -0.165947,0.0725 -0.04947,0.0273 -0.152107,0.0784 -0.228075,0.11346 -0.124886,0.0576 -0.142299,0.06 -0.181697,0.0243 -0.0572,-0.0518 -0.10731,-0.0115 -0.152843,0.12295 -0.03054,0.0901 -0.0288,0.10341 0.02046,0.15585 0.02962,0.0315 0.05385,0.0827 0.05385,0.11374 0,0.031 0.02487,0.0765 0.05526,0.10115 0.139926,0.11324 0.148618,0.12816 0.124211,0.21326 -0.02752,0.096 -0.0913,0.15076 -0.176825,0.1519 l -0.0616,8.1e-4 0.01551,0.23773 c 0.0085,0.13075 0.02867,0.28311 0.04477,0.33857 0.03824,0.13178 0.28473,0.39193 0.435126,0.45924 0.06336,0.0284 0.204406,0.13017 0.313444,0.22626 0.123776,0.10907 0.235605,0.18475 0.297685,0.20147 0.05469,0.0147 0.122952,0.0529 0.151696,0.0849 0.0531,0.059 0.291699,0.64302 0.29147,0.71338 -3.73e-4,0.11419 0.143879,0.46052 0.242091,0.58123 0.133224,0.16374 0.480214,0.48746 0.54484,0.5083 0.02651,0.009 0.0679,0.0503 0.09198,0.0927 0.02408,0.0424 0.06003,0.0772 0.07991,0.0772 0.01987,0 0.101146,0.0347 0.180612,0.0771 0.08053,0.043 0.183845,0.0771 0.233404,0.0771 0.0489,0 0.09607,0.0116 0.104803,0.0257 0.02343,0.0379 0.108989,0.0312 0.17783,-0.0138 0.0332,-0.0218 0.0993,-0.0384 0.146872,-0.0371 0.04758,0.001 0.157795,-0.005 0.244928,-0.0152 0.149131,-0.0167 0.162493,-0.0136 0.22775,0.0516 0.09775,0.0977 0.07315,0.20175 -0.07839,0.33134 -0.06327,0.0541 -0.115033,0.11363 -0.115033,0.13227 0,0.0606 0.175896,0.19023 0.313605,0.23113 0.07394,0.022 0.178575,0.0691 0.232532,0.10484 0.05396,0.0357 0.146865,0.0753 0.206462,0.088 0.310186,0.0661 0.565661,0.17621 0.729777,0.31439 0.05929,0.0499 0.231177,0.14096 0.383649,0.20321 0.2072,0.0846 0.286272,0.13012 0.316388,0.18218 0.02208,0.0382 0.08155,0.0927 0.132143,0.12111 0.138725,0.078 0.342068,0.3083 0.382713,0.43351 0.03165,0.0975 0.03082,0.12029 -0.0072,0.20005 -0.02361,0.0495 -0.04293,0.13549 -0.04293,0.19105 0,0.12808 -0.05431,0.16348 -0.192337,0.12537 -0.143001,-0.0395 -0.294035,-0.19213 -0.31398,-0.31734 -0.0089,-0.0561 -0.02878,-0.11767 -0.0441,-0.13676 -0.104207,-0.12996 -0.113239,-0.13384 -0.3114,-0.13384 -0.155915,0 -0.218457,-0.0126 -0.321254,-0.0647 -0.08841,-0.0448 -0.127646,-0.0803 -0.127646,-0.11565 0,-0.041 -0.01739,-0.051 -0.08895,-0.051 -0.111687,0 -0.156957,0.0476 -0.280953,0.29509 -0.05303,0.10586 -0.107149,0.19911 -0.12026,0.20722 -0.01311,0.008 -0.02384,0.0626 -0.02384,0.12106 0,0.0718 -0.02104,0.13669 -0.06475,0.19976 -0.06217,0.0897 -0.06318,0.0972 -0.02535,0.18771 0.03366,0.0806 0.05128,0.0943 0.121191,0.0943 0.04499,0 0.122899,0.0272 0.173133,0.0605 0.05023,0.0333 0.146153,0.0915 0.213153,0.12943 0.11998,0.0679 0.156791,0.12781 0.143707,0.23408 -0.0081,0.0658 0.0256,0.24371 0.05713,0.30163 0.03719,0.0683 0.02893,0.18939 -0.01543,0.2262 -0.02185,0.0181 -0.09248,0.031 -0.156953,0.0285 -0.08923,-0.003 -0.150253,0.0145 -0.255502,0.0747 -0.07605,0.0435 -0.148747,0.0978 -0.161546,0.12069 -0.0128,0.0229 -0.01704,0.13248 -0.0094,0.24357 0.01631,0.23798 -0.0072,0.29751 -0.148899,0.37715 -0.116693,0.0656 -0.25596,0.23236 -0.25596,0.30651 0,0.071 -0.04767,0.19169 -0.08513,0.21551 -0.01679,0.0107 -0.119309,0.0196 -0.227831,0.0198 -0.183691,3.7e-4 -0.201059,-0.004 -0.251579,-0.0686 -0.03636,-0.0462 -0.04971,-0.0907 -0.04046,-0.13492 0.0076,-0.0363 0.0038,-0.0815 -0.0085,-0.10054 -0.01637,-0.0254 -0.02994,-0.0126 -0.05115,0.0482 -0.01588,0.0455 -0.09168,0.17676 -0.168444,0.2916 -0.100804,0.15079 -0.144703,0.244 -0.158029,0.33553 -0.01015,0.0697 -0.04086,0.16472 -0.06825,0.21114 -0.06077,0.103 -0.04501,0.16205 0.05901,0.22108 0.06755,0.0383 0.07688,0.0556 0.06334,0.11722 -0.0118,0.0537 -0.0024,0.0844 0.0365,0.11965 0.07261,0.0657 0.06651,0.17145 -0.01424,0.24698 -0.09928,0.0929 -0.124348,0.15161 -0.12529,0.29361 -7.22e-4,0.10898 -0.0087,0.12944 -0.05225,0.13467 -0.02827,0.003 -0.07204,-0.006 -0.09727,-0.0211 z m -6.856719,-3.10416 c -0.03945,-0.12357 -0.06616,-0.1491 -0.08707,-0.0832 -0.03193,0.10061 -0.119397,0.0556 -0.151198,-0.0779 -0.0089,-0.0375 -0.03914,-0.0736 -0.06779,-0.0811 -0.06224,-0.0163 -0.06719,-0.0763 -0.01019,-0.12357 0.03557,-0.0295 0.0484,-0.0259 0.08985,0.0253 l 0.04836,0.0597 -0.01534,-0.0767 c -0.0084,-0.0422 -0.0043,-0.0836 0.0092,-0.0919 0.01353,-0.008 0.01902,-0.0732 0.01221,-0.14405 -0.0089,-0.0924 -5.63e-4,-0.14689 0.0294,-0.19262 0.02298,-0.0351 0.04178,-0.11581 0.04178,-0.17942 0,-0.0893 0.01169,-0.1219 0.0514,-0.14316 0.0709,-0.0379 0.0668,-0.12273 -0.0064,-0.13314 -0.0486,-0.007 -0.05913,-0.0265 -0.066,-0.12293 -0.006,-0.0843 0.0032,-0.12303 0.03471,-0.14607 0.05665,-0.0414 0.07141,-0.2588 0.02234,-0.32886 -0.01982,-0.0283 -0.03603,-0.0784 -0.03603,-0.11125 0,-0.0905 -0.07206,-0.21146 -0.126015,-0.21146 -0.0796,0 -0.09977,-0.0534 -0.07757,-0.2056 0.06287,-0.4309 0.110221,-0.5497 0.213003,-0.53441 0.07598,0.0113 0.07734,0.0564 0.0043,0.14315 -0.04088,0.0486 -0.05927,0.094 -0.04896,0.12085 0.01858,0.0484 0.111725,0.0905 0.20031,0.0905 0.08998,0 0.322504,-0.1289 0.451703,-0.2504 0.06361,-0.0598 0.127217,-0.1088 0.141352,-0.10885 0.01413,-5e-5 0.05516,-0.0359 0.09117,-0.0797 l 0.06547,-0.0796 0.114434,0.0591 c 0.06294,0.0325 0.129717,0.074 0.148396,0.0923 0.01868,0.0182 0.05048,0.0331 0.07068,0.0331 0.03432,0 0.04026,0.0122 0.04728,0.0975 0.0015,0.0183 0.01823,0.0428 0.03716,0.0545 0.01894,0.0117 0.02943,0.043 0.02332,0.0696 -0.0061,0.0266 0.0087,0.083 0.03299,0.12542 0.02426,0.0424 0.05236,0.13477 0.06246,0.20526 0.0101,0.0705 0.03459,0.15955 0.05443,0.1979 0.05839,0.11293 0.04296,0.18686 -0.06674,0.3196 -0.115173,0.13938 -0.119751,0.15937 -0.06204,0.27098 0.03524,0.0682 0.03673,0.10888 0.01098,0.3007 -0.01638,0.12203 -0.03966,0.26814 -0.05173,0.32468 -0.01207,0.0565 -0.03586,0.20167 -0.05287,0.32251 -0.05493,0.3903 -0.14517,0.4833 -0.340385,0.35083 -0.07275,-0.0494 -0.111152,-0.0587 -0.189529,-0.0461 -0.09405,0.0152 -0.09863,0.0205 -0.106125,0.12334 -0.0062,0.0847 -0.02629,0.1237 -0.09509,0.1841 -0.07808,0.0686 -0.104854,0.0765 -0.254552,0.0756 l -0.167297,-9.7e-4 -0.02985,-0.0935 z"
       style="fill:#000000;fill-opacity:1;stroke:none;stroke-width:0.02570028;stroke-opacity:1" />
    <text
       xml:space="preserve"
       style="font-style:normal;font-variant:normal;font-weight:normal;font-stretch:normal;font-size:10.34870529px;line-height:1.25;font-family:'Cambria Math';-inkscape-font-specification:'Cambria Math';letter-spacing:0px;word-spacing:0px;fill:#000000;fill-opacity:1;stroke:none;stroke-width:0.32339704"
       x="0.98297268"
       y="288.40103"
       id="text856"><tspan
         sodipodi:role="line"
         id="tspan854"
         x="0.98297268"
         y="288.40103"
         style="font-style:normal;font-variant:normal;font-weight:normal;font-stretch:normal;font-family:'American Captain';-inkscape-font-specification:'American Captain';stroke-width:0.32339704">David</tspan></text>
    <text
       xml:space="preserve"
       style="font-style:normal;font-variant:normal;font-weight:normal;font-stretch:normal;font-size:4.09125614px;line-height:1.25;font-family:'Cambria Math';-inkscape-font-specification:'Cambria Math';letter-spacing:0px;word-spacing:0px;fill:#000000;fill-opacity:1;stroke:none;stroke-width:0.38355523"
       x="0.67628086"
       y="295.8927"
       id="text860"><tspan
         sodipodi:role="line"
         x="0.67628086"
         y="295.8927"
         style="font-style:normal;font-variant:normal;font-weight:normal;font-stretch:normal;font-family:'Acherus Grotesque';-inkscape-font-specification:'Acherus Grotesque';stroke-width:0.38355523"
         id="tspan862">Marlin 2.0.7.2</tspan><tspan
         sodipodi:role="line"
         x="0.67628086"
         y="301.26675"
         style="font-style:normal;font-variant:normal;font-weight:normal;font-stretch:normal;font-family:optimus;-inkscape-font-specification:optimus;stroke-width:0.38355523"
         id="tspan864" /></text>
  </g>
</svg>
