<?xml version="1.0" encoding="UTF-8" standalone="no"?>
<!-- Created with Inkscape (http://www.inkscape.org/) -->

<svg
   xmlns:dc="http://purl.org/dc/elements/1.1/"
   xmlns:cc="http://creativecommons.org/ns#"
   xmlns:rdf="http://www.w3.org/1999/02/22-rdf-syntax-ns#"
   xmlns:svg="http://www.w3.org/2000/svg"
   xmlns="http://www.w3.org/2000/svg"
   xmlns:sodipodi="http://sodipodi.sourceforge.net/DTD/sodipodi-0.dtd"
   xmlns:inkscape="http://www.inkscape.org/namespaces/inkscape"
   width="128"
   height="64"
   viewBox="0 0 33.866664 16.933332"
   version="1.1"
   id="svg8"
   inkscape:version="0.92.4 (5da689c313, 2019-01-14)"
   sodipodi:docname="Mike Boot.svg"
   inkscape:export-filename="C:\Users\14349\Desktop\Mike New.png"
   inkscape:export-xdpi="96.000008"
   inkscape:export-ydpi="96.000008">
  <defs
     id="defs2" />
  <sodipodi:namedview
     id="base"
     pagecolor="#ffffff"
     bordercolor="#666666"
     borderopacity="1.0"
     inkscape:pageopacity="0.0"
     inkscape:pageshadow="2"
     inkscape:zoom="3.959798"
     inkscape:cx="69.438837"
     inkscape:cy="34.262478"
     inkscape:document-units="mm"
     inkscape:current-layer="layer1"
     showgrid="false"
     units="px"
     inkscape:window-width="1707"
     inkscape:window-height="937"
     inkscape:window-x="-8"
     inkscape:window-y="-8"
     inkscape:window-maximized="1" />
  <metadata
     id="metadata5">
    <rdf:RDF>
      <cc:Work
         rdf:about="">
        <dc:format>image/svg+xml</dc:format>
        <dc:type
           rdf:resource="http://purl.org/dc/dcmitype/StillImage" />
        <dc:title />
      </cc:Work>
    </rdf:RDF>
  </metadata>
  <g
     inkscape:label="Layer 1"
     inkscape:groupmode="layer"
     id="layer1"
     transform="translate(0,-280.06668)">
    <path
       inkscape:connector-curvature="0"
       id="path840"
       d="m 10.051527,296.17526 c -0.06184,-0.0222 -0.079505,-0.60463 -0.079505,-2.6211 0,-2.38937 0.00869,-2.6003 0.1113106,-2.69073 0.06122,-0.054 0.812539,-0.58974 1.669605,-1.19061 0.857063,-0.60085 1.558296,-1.11744 1.558296,-1.14793 0,-0.0306 -0.701233,-0.54708 -1.558296,-1.14795 -0.857066,-0.60087 -1.608386,-1.13664 -1.669605,-1.1906 -0.1025747,-0.0904 -0.1113106,-0.30129 -0.1113106,-2.68922 0,-2.16343 0.014708,-2.59675 0.08913,-2.62531 0.05173,-0.0198 1.577271,1.00843 3.635882,2.45072 2.803471,1.96418 3.567886,2.47172 3.647603,2.42193 0.05547,-0.0346 1.656407,-1.15287 3.557642,-2.48492 2.005825,-1.40534 3.494203,-2.40757 3.545921,-2.38773 0.07442,0.0286 0.08913,0.46186 0.08913,2.62531 0,2.38793 -0.0087,2.59878 -0.11131,2.68922 -0.06122,0.0541 -0.81254,0.58973 -1.669603,1.1906 -0.857063,0.60087 -1.558298,1.11744 -1.558298,1.14795 0,0.0306 0.701235,0.54708 1.558298,1.14793 0.857063,0.60087 1.608385,1.13664 1.669603,1.19061 0.102585,0.0904 0.11131,0.30129 0.11131,2.68922 0,2.16274 -0.01472,2.59675 -0.08908,2.62528 -0.05138,0.0197 -1.094562,-0.67062 -2.464653,-1.63099 l -2.375574,-1.66519 -0.017,-1.61237 c -0.01318,-1.25043 -0.0347,-1.60559 -0.0958,-1.58215 -0.04334,0.0167 -0.554406,0.36296 -1.135716,0.76963 -0.581312,0.40666 -1.078485,0.73939 -1.104829,0.73939 -0.02635,0 -0.523519,-0.33273 -1.10483,-0.73939 -0.58131,-0.40667 -1.092383,-0.753 -1.135716,-0.76963 -0.06111,-0.0235 -0.0826,0.33172 -0.0958,1.58215 l -0.017,1.61237 -2.289743,1.60898 c -2.532585,1.7796 -2.44875,1.72444 -2.560058,1.68453 z"
       style="fill:#000000;stroke-width:0.06360396;fill-opacity:1" />
  </g>
</svg>
