0
SECTION
2
HEADER
9
$INSUNITS
70
4
9
$ACADVER
1
AC1014
9
$HANDSEED
5
FFFF
0
ENDSEC
0
SECTION
2
TABLES
0
TABLE
2
VPORT
5
8
100
AcDbSymbolTable
0
ENDTAB
0
TABLE
2
LTYPE
5
5
100
AcDbSymbolTable
0
LTYPE
5
14
100
AcDbSymbolTableRecord
100
AcDbLinetypeTableRecord
2
BYBLOCK
70
0
0
LTYPE
5
15
100
AcDbSymbolTableRecord
100
AcDbLinetypeTableRecord
2
BYLAYER
70
0
0
ENDTAB
0
TABLE
2
LAYER
5
2
100
AcDbSymbolTable
70
2
0
LAYER
5
50
100
AcDbSymbolTableRecord
100
AcDbLayerTableRecord
2
0
70
0
6
CONTINUOUS
0
ENDTAB
0
TABLE
2
STYLE
5
3
100
AcDbSymbolTable
70
1
0
STYLE
5
11
100
AcDbSymbolTableRecord
100
AcDbTextStyleTableRecord
2
STANDARD
70
0
0
ENDTAB
0
TABLE
2
VIEW
5
6
100
AcDbSymbolTable
70
0
0
ENDTAB
0
TABLE
2
UCS
5
7
100
AcDbSymbolTable
70
0
0
ENDTAB
0
TABLE
2
APPID
5
9
100
AcDbSymbolTable
70
2
0
APPID
5
12
100
AcDbSymbolTableRecord
100
AcDbRegAppTableRecord
2
ACAD
70
0
0
ENDTAB
0
TABLE
2
DIMSTYLE
5
A
100
AcDbSymbolTable
70
1
0
ENDTAB
0
TABLE
2
BLOCK_RECORD
5
1
100
AcDbSymbolTable
70
1
0
BLOCK_RECORD
5
1F
100
AcDbSymbolTableRecord
100
AcDbBlockTableRecord
2
*MODEL_SPACE
0
BLOCK_RECORD
5
1B
100
AcDbSymbolTableRecord
100
AcDbBlockTableRecord
2
*PAPER_SPACE
0
ENDTAB
0
ENDSEC
0
SECTION
2
BLOCKS
0
BLOCK
5
20
100
AcDbEntity
100
AcDbBlockBegin
2
*MODEL_SPACE
0
ENDBLK
5
21
100
AcDbEntity
100
AcDbBlockEnd
0
BLOCK
5
1C
100
AcDbEntity
100
AcDbBlockBegin
2
*PAPER_SPACE
0
ENDBLK
5
1D
100
AcDbEntity
100
AcDbBlockEnd
0
ENDSEC
0
SECTION
2
ENTITIES
0
LINE
5
100
100
AcDbEntity
8
0
100
AcDbLine
10
-237.01619336856828
20
-27.119132011853885
30
0
11
-226.21092885907061
21
-27.119132011854234
31
-2.5473810757724393e-30
0
LINE
5
101
100
AcDbEntity
8
0
100
AcDbLine
10
-226.21092885907061
20
-27.119132011854234
30
-2.5473810757724393e-30
11
-226.21092856458409
21
-27.070768501346482
31
3.0814879110195774e-32
0
SPLINE
5
102
100
AcDbEntity
8
0
100
AcDbSpline
70
4
71
3
72
14
73
10
74
0
42
0.000000001
43
0.0000000001
44
0.0000000001
40
-7.044400028101891
40
-7.044400028101891
40
-7.044400028101891
40
-7.044400028101891
40
-5.4187234007302001
40
-5.4187234007302001
40
-3.5327990714415876
40
-3.5327990714415876
40
-1.6270032599889497
40
-1.6270032599889497
40
0
40
0
40
0
40
0
41
1
41
1
41
1
41
1
41
1
41
1
41
1
41
1
41
1
41
1
10
-226.21092856458455
20
-27.070768501346482
30
0
10
-226.21092856458392
20
-21.668566043589756
30
0
10
-226.21719887350909
20
-16.650318435694409
30
0
10
-226.3413072092078
20
0.91993851783802527
30
1.3877787807814457e-16
10
-226.37921958560671
20
4.5442445920050609
30
0
10
-226.39752673401
20
7.098919141180712
30
0
10
-226.38277594750389
20
8.2045967192759033
30
0
10
-226.0062146651631
20
10.0836474547921
30
-1.3877787807814457e-16
10
-225.6963302676854
20
10.884337387723539
30
-1.3877787807814457e-16
10
-225.14375333791688
20
11.698940365689607
30
1.3877787807814457e-16
0
SPLINE
5
103
100
AcDbEntity
8
0
100
AcDbSpline
70
4
71
3
72
20
73
16
74
0
42
0.000000001
43
0.0000000001
44
0.0000000001
40
-87.456384215043073
40
-87.456384215043073
40
-87.456384215043073
40
-87.456384215043073
40
-85.924808410750984
40
-85.924808410750984
40
-84.518234426316141
40
-84.518234426316141
40
-81.739008352783472
40
-81.739008352783472
40
-76.064076197664065
40
-76.064076197664065
40
-64.549449209634133
40
-64.549449209634133
40
-42.751937529323634
40
-42.751937529323634
40
-40.302523637723823
40
-40.302523637723823
40
-40.302523637723823
40
-40.302523637723823
41
1
41
1
41
1
41
1
41
1
41
1
41
1
41
1
41
1
41
1
41
1
41
1
41
1
41
1
41
1
41
1
10
-225.14375333791688
20
11.698940365689607
30
1.3877787807814457e-16
10
-224.41558095650069
20
12.772404273462158
30
1.3877787807814457e-16
10
-223.33133436488117
20
13.772899874023112
30
-1.3877787807814457e-16
10
-221.13658607832744
20
15.454249276770595
30
-1.3877787807814457e-16
10
-219.97088813503441
20
16.203235649047407
30
0
10
-216.57278320705746
20
18.18984346206819
30
0
10
-214.04570067587463
20
19.403575420399871
30
0
10
-206.76433760152773
20
22.584992391523919
30
0
10
-201.30787667003617
20
24.512818141635933
30
0
10
-185.90179297635115
20
29.44603245739961
30
0
10
-174.12428151406993
20
32.460913441564145
30
0
10
-145.16840927315252
20
38.987978733574344
30
0
10
-128.41728445985336
20
41.367998937984105
30
-1.3877787807814457e-16
10
-107.36553983091005
20
42.715226269378547
30
0
10
-105.22387304757808
20
42.835446465778759
30
0
10
-103.07385459066279
20
42.940512046488692
30
0
0
LINE
5
104
100
AcDbEntity
8
0
100
AcDbLine
10
-103.07385459066279
20
42.940512046488692
30
4.9757152939084182e-33
11
-103.07385459066261
21
53.203359446434519
31
0
0
SPLINE
5
105
100
AcDbEntity
8
0
100
AcDbSpline
70
4
71
5
72
39
73
33
74
0
42
0.000000001
43
0.0000000001
44
0.0000000001
40
-0.49460056334271046
40
-0.49460056334271046
40
-0.49460056334271046
40
-0.49460056334271046
40
-0.49460056334271046
40
-0.49460056334271046
40
-0.49090909090909102
40
-0.47272727272727283
40
-0.45454545454545464
40
-0.43636363636363645
40
-0.41818181818181827
40
-0.40000000000000008
40
-0.38181818181818189
40
-0.3636363636363637
40
-0.34545454545454551
40
-0.32727272727272733
40
-0.30909090909090914
40
-0.29090909090909095
40
-0.27272727272727276
40
-0.25454545454545457
40
-0.23636363636363641
40
-0.21818181818181823
40
-0.20000000000000004
40
-0.18181818181818185
40
-0.16363636363636366
40
-0.14545454545454548
40
-0.12727272727272729
40
-0.1090909090909091
40
-0.090909090909090912
40
-0.072727272727272724
40
-0.054545454545454543
40
-0.036363636363636362
40
-0.018181818181818181
40
0
40
0
40
0
40
0
40
0
40
0
41
1
41
1
41
1
41
1
41
1
41
1
41
1
41
1
41
1
41
1
41
1
41
1
41
1
41
1
41
1
41
1
41
1
41
1
41
1
41
1
41
1
41
1
41
1
41
1
41
1
41
1
41
1
41
1
41
1
41
1
41
1
41
1
41
1
10
-103.07385459065364
20
53.203359446434931
30
0
10
-103.38721867813922
20
53.187432377600004
30
0
10
-105.24345936622979
20
53.091462001065224
30
-1.3877787807814457e-16
10
-108.6370547468956
20
52.898377406705862
30
0
10
-113.56262589320444
20
52.571272646126047
30
0
10
-120.0391855859892
20
52.053043966903147
30
-1.3877787807814457e-16
10
-127.82026424220311
20
51.303303193112072
30
0
10
-135.71079828227073
20
50.418760682675213
30
-1.3877787807814457e-16
10
-143.69259399764508
20
49.396652786199539
30
0
10
-151.68645069384763
20
48.232671612867996
30
0
10
-159.58240800857379
20
46.92144716829258
30
-1.3877787807814457e-16
10
-167.26112670538993
20
45.45680962576828
30
0
10
-174.62032666964063
20
43.832257229408008
30
0
10
-181.59549931910075
20
42.04106846677395
30
0
10
-188.19197167845925
20
40.077229898629255
30
-1.3877787807814457e-16
10
-194.47908140623881
20
37.933579670618577
30
0
10
-200.54302958759268
20
35.597205728603413
30
0
10
-206.44777641971771
20
33.044916052319806
30
0
10
-212.19860871670943
20
30.240041608190534
30
-1.3877787807814457e-16
10
-217.68987334414888
20
27.125272083068801
30
1.3877787807814457e-16
10
-222.71688327808459
20
23.630491247392591
30
0
10
-227.05452194505878
20
19.696121284169212
30
0
10
-230.51670458729495
20
15.291907181177038
30
-1.3877787807814457e-16
10
-233.02591716223174
20
10.438472336820034
30
0
10
-234.67250382122981
20
5.2254246673964486
30
1.3877787807814457e-16
10
-235.64816369126063
20
-0.2192399071081414
30
0
10
-236.18526635870862
20
-5.7574087716920941
30
0
10
-236.49429760211723
20
-11.269873811297607
30
-1.3877787807814457e-16
10
-236.70168713924116
20
-16.685258669490661
30
-1.3877787807814457e-16
10
-236.83676756147872
20
-20.911546961075139
30
-1.3877787807814457e-16
10
-236.93021801255276
20
-24.016376997415705
30
0
10
-236.9890252305828
20
-26.057441695350015
30
0
10
-237.01755566417091
20
-27.070768501346127
30
0
0
LINE
5
106
100
AcDbEntity
8
0
100
AcDbLine
10
-237.01755566417089
20
-27.070768501346127
30
8.9764332124218171e-32
11
-237.01733882529723
21
-27.078469504255395
31
0
0
LINE
5
107
100
AcDbEntity
8
0
100
AcDbLine
10
-237.01733882529723
20
-27.078469504255395
30
0
11
-237.01619336856828
21
-27.119132011853885
31
0
0
SPLINE
5
108
100
AcDbEntity
8
0
100
AcDbSpline
70
4
71
5
72
39
73
33
74
0
42
0.000000001
43
0.0000000001
44
0.0000000001
40
-0.49460056334271046
40
-0.49460056334271046
40
-0.49460056334271046
40
-0.49460056334271046
40
-0.49460056334271046
40
-0.49460056334271046
40
-0.49090909090909102
40
-0.47272727272727283
40
-0.45454545454545464
40
-0.43636363636363645
40
-0.41818181818181827
40
-0.40000000000000008
40
-0.38181818181818189
40
-0.3636363636363637
40
-0.34545454545454551
40
-0.32727272727272733
40
-0.30909090909090914
40
-0.29090909090909095
40
-0.27272727272727276
40
-0.25454545454545457
40
-0.23636363636363641
40
-0.21818181818181823
40
-0.20000000000000004
40
-0.18181818181818185
40
-0.16363636363636366
40
-0.14545454545454548
40
-0.12727272727272729
40
-0.1090909090909091
40
-0.090909090909090912
40
-0.072727272727272724
40
-0.054545454545454543
40
-0.036363636363636362
40
-0.018181818181818181
40
0
40
0
40
0
40
0
40
0
40
0
41
1
41
1
41
1
41
1
41
1
41
1
41
1
41
1
41
1
41
1
41
1
41
1
41
1
41
1
41
1
41
1
41
1
41
1
41
1
41
1
41
1
41
1
41
1
41
1
41
1
41
1
41
1
41
1
41
1
41
1
41
1
41
1
41
1
10
-103.07385459065364
20
53.203359446434931
30
0
10
-103.38721867813922
20
53.187432377600004
30
0
10
-105.24345936622979
20
53.091462001065224
30
-1.3877787807814457e-16
10
-108.6370547468956
20
52.898377406705862
30
0
10
-113.56262589320444
20
52.571272646126047
30
0
10
-120.0391855859892
20
52.053043966903147
30
-1.3877787807814457e-16
10
-127.82026424220311
20
51.303303193112072
30
0
10
-135.71079828227073
20
50.418760682675213
30
-1.3877787807814457e-16
10
-143.69259399764508
20
49.396652786199539
30
0
10
-151.68645069384763
20
48.232671612867996
30
0
10
-159.58240800857379
20
46.92144716829258
30
-1.3877787807814457e-16
10
-167.26112670538993
20
45.45680962576828
30
0
10
-174.62032666964063
20
43.832257229408008
30
0
10
-181.59549931910075
20
42.04106846677395
30
0
10
-188.19197167845925
20
40.077229898629255
30
-1.3877787807814457e-16
10
-194.47908140623881
20
37.933579670618577
30
0
10
-200.54302958759268
20
35.597205728603413
30
0
10
-206.44777641971771
20
33.044916052319806
30
0
10
-212.19860871670943
20
30.240041608190534
30
-1.3877787807814457e-16
10
-217.68987334414888
20
27.125272083068801
30
1.3877787807814457e-16
10
-222.71688327808459
20
23.630491247392591
30
0
10
-227.05452194505878
20
19.696121284169212
30
0
10
-230.51670458729495
20
15.291907181177038
30
-1.3877787807814457e-16
10
-233.02591716223174
20
10.438472336820034
30
0
10
-234.67250382122981
20
5.2254246673964486
30
1.3877787807814457e-16
10
-235.64816369126063
20
-0.2192399071081414
30
0
10
-236.18526635870862
20
-5.7574087716920941
30
0
10
-236.49429760211723
20
-11.269873811297607
30
-1.3877787807814457e-16
10
-236.70168713924116
20
-16.685258669490661
30
-1.3877787807814457e-16
10
-236.83676756147872
20
-20.911546961075139
30
-1.3877787807814457e-16
10
-236.93021801255276
20
-24.016376997415705
30
0
10
-236.9890252305828
20
-26.057441695350015
30
0
10
-237.01755566417091
20
-27.070768501346127
30
0
0
ENDSEC
0
SECTION
2
OBJECTS
0
DICTIONARY
5
C
100
AcDbDictionary
3
ACAD_GROUP
350
D
3
ACAD_MLINESTYLE
350
17
0
DICTIONARY
5
D
100
AcDbDictionary
0
DICTIONARY
5
1A
330
C
100
AcDbDictionary
0
DICTIONARY
5
17
100
AcDbDictionary
0
ENDSEC
0
EOF
